<?xml version="1.0" encoding="utf-8"?>
<!-- Generator: Adobe Illustrator 19.2.0, SVG Export Plug-In . SVG Version: 6.00 Build 0)  -->
<svg version="1.1" id="Layer_1" xmlns="http://www.w3.org/2000/svg" xmlns:xlink="http://www.w3.org/1999/xlink" x="0px" y="0px"
	 viewBox="0 0 25 545" style="enable-background:new 0 0 25 545;" xml:space="preserve">
<style type="text/css">
	.st0{fill:#CED7E0;}
	.st1{fill:#B1BABF;}
</style>
<title>contact-bg</title>
<rect x="10.8" y="389.5" class="st0" width="0.5" height="140"/>
<path class="st1" d="M18.2,366.6c0,1-0.2,2-0.5,3c-0.3,0.8-0.8,1.6-1.5,2.2c-0.7,0.6-1.5,1.1-2.3,1.4c-1,0.3-2,0.5-3.1,0.5
	c-1.1,0-2.2-0.2-3.2-0.5c-0.9-0.3-1.8-0.9-2.5-1.5c-0.7-0.7-1.3-1.5-1.6-2.3c-0.4-1-0.6-2-0.6-3c0-0.7,0.1-1.5,0.3-2.2
	c0.3-0.8,0.6-1.5,1.1-2.2l-1.2-0.4v-0.7l4.5,0.2v0.9c-0.6,0-1.1,0.1-1.6,0.4c-0.4,0.2-0.8,0.5-1.1,0.9c-0.3,0.4-0.5,0.8-0.7,1.3
	c-0.1,0.5-0.2,1-0.2,1.5c0,0.7,0.1,1.5,0.5,2.1c0.3,0.6,0.8,1.2,1.3,1.6c0.6,0.5,1.4,0.8,2.1,1c0.9,0.2,1.9,0.4,2.8,0.3
	c1.7,0.1,3.4-0.3,4.8-1.3c1.1-0.9,1.8-2.3,1.7-3.8c0-0.6-0.1-1.1-0.2-1.7c-0.1-0.4-0.3-0.9-0.6-1.2c-0.2-0.3-0.5-0.6-0.9-0.8
	c-0.3-0.2-0.7-0.3-1-0.3c-0.5-0.1-1.1,0.1-1.5,0.5c-0.3,0.4-0.4,1-0.4,1.5h-0.8v-5.5h0.7c0,0.3,0,0.5,0.1,0.8c0,0.2,0.1,0.4,0.3,0.5
	c0.2,0.1,0.3,0.2,0.5,0.2c0.3,0.1,0.6,0.1,0.8,0.1h2.2c0,0.2,0,0.5,0,0.7c0,0.2,0.1,0.4,0.1,0.6c0.1,0.2,0.2,0.5,0.3,0.7
	c0.1,0.3,0.3,0.6,0.5,0.9c0.3,0.5,0.5,1,0.6,1.6C18.1,365.3,18.2,366,18.2,366.6z"/>
<path class="st1" d="M9.8,348.2c0-0.6,0-1.2-0.1-1.8c-0.1-0.4-0.2-0.8-0.4-1.1c-0.2-0.3-0.4-0.5-0.7-0.6c-0.3-0.1-0.7-0.2-1-0.2
	v-0.7h5.3v0.7c-0.3,0-0.7,0-1,0.2c-0.3,0.1-0.5,0.3-0.7,0.6c-0.2,0.3-0.4,0.7-0.4,1.1c-0.1,0.6-0.2,1.2-0.1,1.8H15
	c0.4,0,0.7,0,1.1-0.1c0.3-0.1,0.5-0.3,0.7-0.5c0.2-0.3,0.3-0.6,0.4-1c0.1-0.5,0.1-1,0.1-1.5c0-0.6,0-1.2-0.1-1.7
	c-0.1-0.4-0.2-0.8-0.5-1.2c-0.2-0.3-0.6-0.6-0.9-0.8c-0.5-0.2-0.9-0.4-1.4-0.5v-0.7l3.7,0.3v12h-0.7c0-0.4,0-0.7-0.1-1.1
	c0-0.2-0.2-0.5-0.3-0.6c-0.2-0.2-0.4-0.3-0.7-0.3c-0.4-0.1-0.7-0.1-1.1-0.1H6c-0.4,0-0.7,0-1.1,0.1c-0.2,0-0.5,0.1-0.7,0.3
	c-0.2,0.2-0.3,0.4-0.3,0.6c-0.1,0.3-0.1,0.7-0.1,1H3.1V341l3.4-0.2v0.7c-0.4,0.1-0.9,0.2-1.3,0.4c-0.3,0.2-0.6,0.4-0.8,0.7
	c-0.2,0.3-0.4,0.7-0.4,1.2c-0.1,0.6-0.1,1.1-0.1,1.7v2.5c0,0.2,0.1,0.3,0.2,0.3c0,0,0.1,0,0.1,0H9.8z"/>
<path class="st1" d="M6.8,319.2v0.8c-0.5,0-0.9,0.1-1.4,0.3c-0.3,0.1-0.6,0.3-0.9,0.6c-0.2,0.3-0.4,0.6-0.5,1
	c-0.1,0.5-0.1,0.9-0.1,1.4c0,0.5,0,0.9,0,1.1c0,0.2,0,0.5,0.1,0.7c0,0.1,0.1,0.2,0.2,0.3c0.1,0,0.2,0.1,0.3,0.1h10.4
	c0.4,0,0.7,0,1.1-0.1c0.3,0,0.5-0.2,0.7-0.4c0.2-0.2,0.4-0.5,0.4-0.8c0.1-0.4,0.2-0.9,0.2-1.3H18v7.3h-0.7c0-0.4-0.1-0.9-0.2-1.3
	c-0.1-0.3-0.2-0.6-0.4-0.8c-0.2-0.2-0.5-0.3-0.7-0.4c-0.4-0.1-0.7-0.1-1.1-0.1H4.5c-0.1,0-0.2,0-0.3,0.1c-0.1,0.1-0.1,0.2-0.2,0.3
	c-0.1,0.2-0.1,0.4-0.1,0.6c0,0.2,0,0.6,0,1s0,0.9,0.1,1.4c0,0.4,0.1,0.8,0.3,1.1c0.2,0.3,0.5,0.6,0.9,0.8c0.5,0.2,1.1,0.3,1.6,0.3
	v0.7H3.1v-14.6L6.8,319.2z"/>
<path class="st1" d="M8.1,300.3c0,0.2-0.1,0.4-0.2,0.6c-0.2,0.2-0.4,0.3-0.6,0.3c-0.2,0-0.5-0.1-0.7-0.2c-0.2-0.2-0.3-0.4-0.3-0.6
	c0-0.2,0.1-0.5,0.3-0.6c0.2-0.2,0.4-0.3,0.6-0.2c0.2,0,0.5,0.1,0.6,0.3C8,299.9,8.1,300.1,8.1,300.3z M13.4,302.4
	c-0.4-0.1-0.7-0.2-0.9-0.3c-0.2,0-0.4-0.1-0.5-0.1c-0.1,0-0.2,0-0.3,0.1c0,0-0.1,0.1-0.1,0.1c0,0.1,0.1,0.2,0.1,0.3
	c0.1,0.1,0.2,0.3,0.4,0.4c0.1,0.1,0.3,0.2,0.4,0.3c0.1,0.1,0.2,0.1,0.3,0.2l-0.2,0.4c-0.2-0.1-0.5-0.3-0.7-0.5
	c-0.3-0.2-0.5-0.4-0.7-0.7c-0.2-0.2-0.4-0.5-0.5-0.8c-0.1-0.2-0.2-0.5-0.2-0.8c0-0.2,0.1-0.4,0.2-0.5c0.2-0.1,0.5-0.2,0.7-0.2
	c0.4,0,0.7,0.1,1.1,0.2l1.8,0.6l1.4,0.5l0.2,0.1l0.3,0.1l0.3,0.1h0.2c0.1,0,0.2,0,0.2-0.1c0.1-0.1,0.1-0.1,0.1-0.2
	c0-0.2-0.1-0.3-0.2-0.4c-0.1-0.2-0.3-0.3-0.4-0.4c-0.2-0.1-0.3-0.2-0.5-0.3l-0.4-0.2l0.2-0.4c0.3,0.1,0.5,0.3,0.7,0.5
	c0.3,0.2,0.5,0.4,0.8,0.7c0.2,0.2,0.4,0.5,0.6,0.8c0.1,0.3,0.2,0.6,0.2,0.9c0,0.2-0.1,0.4-0.2,0.6c-0.2,0.2-0.5,0.2-0.7,0.2
	c-0.3,0-0.6,0-0.9-0.1c-0.3-0.1-0.7-0.2-1.2-0.4L13.4,302.4z"/>
<path class="st1" d="M11.1,289.9c0,0.3,0.2,0.6,0.4,0.8c0.3,0.3,0.6,0.6,0.9,0.9c0.4,0.3,0.8,0.6,1.3,0.9c0.5,0.3,1,0.5,1.5,0.7
	l2.8,1v1.2l-3.2-1l-1.3-0.4l-0.9-0.3l-0.6-0.1c-0.1,0-0.2,0-0.4,0c-0.3,0-0.4,0.1-0.4,0.2c0,0.1,0.1,0.3,0.2,0.4
	c0.2,0.2,0.3,0.3,0.5,0.4c0.2,0.2,0.5,0.3,0.7,0.4c0.3,0.1,0.5,0.2,0.8,0.3l-0.2,0.4c-0.8-0.2-1.5-0.6-2.1-1.1
	c-0.4-0.3-0.7-0.9-0.7-1.4c0-0.2,0.1-0.5,0.2-0.6c0.3-0.1,0.6-0.2,0.9-0.2c0.4,0,0.9,0.1,1.3,0.2l0,0c-0.7-0.4-1.3-0.9-1.8-1.5
	c-0.4-0.5-0.6-1-0.6-1.6c0-0.3,0.1-0.7,0.3-0.9c0.2-0.2,0.5-0.3,0.9-0.3c0.1,0,0.3,0,0.4,0c0.2,0,0.4,0.1,0.5,0.1l0.8,0.2l1.1,0.4
	l1.6,0.5c0.3,0.1,0.6,0.2,0.9,0.2c0.1,0,0.2,0,0.2-0.1c0-0.2-0.2-0.4-0.3-0.6c-0.3-0.4-0.6-0.7-1-1l0.2-0.4c0.3,0.2,0.6,0.4,0.8,0.6
	c0.3,0.2,0.5,0.5,0.7,0.8c0.2,0.2,0.4,0.5,0.5,0.8c0.1,0.2,0.2,0.4,0.2,0.7c0,0.2-0.1,0.4-0.3,0.6c-0.2,0.1-0.5,0.2-0.8,0.2
	c-0.1,0-0.3,0-0.4,0c-0.2,0-0.5-0.1-0.7-0.2l-1-0.3l-1.7-0.6l-0.6-0.2l-0.4-0.1l-0.3-0.1h-0.3C11.3,289.5,11.1,289.7,11.1,289.9z"/>
<path class="st1" d="M6.8,261.4v0.8c-0.5,0-0.9,0.1-1.4,0.3c-0.3,0.1-0.6,0.3-0.9,0.6c-0.2,0.3-0.4,0.6-0.5,1
	c-0.1,0.5-0.1,0.9-0.1,1.4c0,0.5,0,0.9,0,1.1c0,0.2,0,0.5,0.1,0.7c0,0.1,0.1,0.2,0.2,0.3c0.1,0,0.2,0.1,0.3,0.1h10.4
	c0.4,0,0.7,0,1.1-0.1c0.3,0,0.5-0.2,0.7-0.4c0.2-0.2,0.4-0.5,0.4-0.8c0.1-0.4,0.2-0.9,0.2-1.3H18v7.3h-0.7c0-0.4-0.1-0.9-0.2-1.3
	c-0.1-0.3-0.2-0.6-0.4-0.8c-0.2-0.2-0.5-0.3-0.7-0.4c-0.4-0.1-0.7-0.1-1.1-0.1H4.5c-0.1,0-0.2,0-0.3,0.1c-0.1,0.1-0.1,0.2-0.2,0.3
	c-0.1,0.2-0.1,0.4-0.1,0.6c0,0.2,0,0.6,0,1c0,0.4,0,0.9,0.1,1.4c0,0.4,0.1,0.8,0.3,1.1c0.2,0.3,0.5,0.6,0.9,0.8
	c0.5,0.2,1.1,0.3,1.6,0.3v0.7H3.1v-14.6L6.8,261.4z"/>
<path class="st1" d="M2.9,247.2c0-1.1,0.2-2.2,0.6-3.2c0.4-1,0.9-1.8,1.7-2.6c0.7-0.7,1.5-1.3,2.5-1.7c1-0.4,2-0.6,3.1-0.6
	c1,0,2,0.2,2.9,0.6c0.9,0.4,1.7,1,2.4,1.7c0.7,0.7,1.2,1.6,1.6,2.6c0.8,2,0.8,4.3,0,6.3c-0.4,1-0.9,1.8-1.6,2.6
	c-0.7,0.7-1.5,1.3-2.4,1.7c-0.9,0.4-1.9,0.6-2.9,0.6c-1.1,0-2.1-0.2-3.1-0.6c-0.9-0.4-1.8-1-2.5-1.7c-0.7-0.7-1.3-1.6-1.7-2.6
	C3.1,249.4,2.9,248.3,2.9,247.2z M17.1,247.2c0-0.8-0.1-1.6-0.5-2.3c-0.3-0.7-0.7-1.3-1.3-1.7c-0.6-0.5-1.3-0.9-2-1.1
	c-0.9-0.3-1.8-0.4-2.7-0.4c-0.9,0-1.9,0.1-2.8,0.4c-0.8,0.2-1.5,0.6-2.1,1.1c-0.6,0.5-1,1.1-1.4,1.7c-0.6,1.5-0.6,3.1,0,4.6
	c0.3,0.7,0.8,1.3,1.4,1.7c0.6,0.5,1.4,0.9,2.1,1.1c0.9,0.3,1.9,0.4,2.8,0.4c0.9,0,1.8-0.1,2.7-0.4c0.7-0.2,1.4-0.6,2-1.1
	c0.6-0.5,1-1.1,1.3-1.7C17,248.8,17.1,248,17.1,247.2L17.1,247.2z"/>
<path class="st1" d="M12,219.5c0.9,0,1.8,0.1,2.7,0.3c0.7,0.2,1.4,0.5,1.9,1c0.5,0.5,0.9,1.1,1.2,1.7c0.3,0.8,0.4,1.7,0.4,2.6
	c0,0.8-0.1,1.7-0.3,2.5c-0.2,0.7-0.5,1.3-0.9,1.8c-0.5,0.5-1,0.9-1.7,1.1c-0.8,0.3-1.7,0.4-2.6,0.4H7.6c-1,0-1.7,0-2.2,0.1
	c-0.4,0-0.8,0.2-1.1,0.4c-0.2,0.2-0.3,0.4-0.3,0.6c-0.1,0.3-0.1,0.7-0.1,1.1H3.1v-6.6h0.7c0,0.4,0,0.7,0.1,1.1
	c0,0.3,0.2,0.5,0.4,0.6c0.3,0.2,0.7,0.3,1.1,0.4c0.5,0.1,1.2,0.1,2.2,0.1h5.3c0.6,0,1.2-0.1,1.8-0.2c0.5-0.1,0.9-0.3,1.3-0.7
	c0.4-0.3,0.6-0.7,0.8-1.2c0.2-0.6,0.3-1.2,0.3-1.8c0.1-1.1-0.3-2.1-1.1-2.9c-0.9-0.7-2-1.1-3.2-1H8.1c-0.9,0-1.8,0-2.6,0.1
	c-0.5,0-0.9,0.2-1.3,0.5c-0.2,0.2-0.3,0.4-0.3,0.7c-0.1,0.3-0.1,0.7-0.1,1H3.1v-5.6h0.7c0,0.3,0,0.7,0.1,1c0.1,0.3,0.2,0.5,0.4,0.6
	c0.4,0.2,0.8,0.4,1.3,0.4c0.8,0.1,1.6,0.1,2.5,0.1L12,219.5L12,219.5z"/>
<path class="st1" d="M3.1,198.9v-0.5l4.5-0.2v0.7c-1.1,0.2-2,0.8-2.7,1.6c-0.7,0.8-1,1.9-1,2.9c0,0.7,0.1,1.5,0.5,2.1
	c0.3,0.6,0.8,1.2,1.3,1.6c0.6,0.5,1.4,0.8,2.1,1c0.9,0.2,1.9,0.4,2.8,0.3c1.7,0.1,3.4-0.3,4.8-1.3c1.1-0.9,1.8-2.3,1.7-3.8
	c0-2.5-1.3-4.1-4-4.8v-0.8H18v0.7l-1.5,0.4c1.2,1.4,1.8,3.1,1.7,4.9c0,1-0.2,2-0.5,3c-0.3,0.9-0.8,1.6-1.5,2.3
	c-0.7,0.6-1.5,1.1-2.3,1.4c-1,0.4-2,0.5-3.1,0.5c-1.1,0-2.2-0.2-3.2-0.5c-0.9-0.3-1.8-0.9-2.5-1.6c-0.7-0.7-1.3-1.5-1.6-2.3
	c-0.4-1-0.6-2-0.6-3c0-0.7,0.1-1.5,0.3-2.2c0.3-0.8,0.6-1.5,1.1-2.2L3.1,198.9z"/>
<path class="st1" d="M14.9,176.9c0.4,0,0.8,0,1.2-0.1c0.3,0,0.5-0.1,0.7-0.3c0.2-0.2,0.3-0.4,0.3-0.6c0.1-0.4,0.1-0.7,0.1-1.1H18
	v6.3h-0.7c0-0.4,0-0.7-0.1-1.1c0-0.2-0.2-0.5-0.3-0.6c-0.2-0.2-0.4-0.3-0.7-0.3c-0.4-0.1-0.7-0.1-1.1-0.1h-4.2v7.9h4.1
	c0.4,0,0.8,0,1.2-0.1c0.3,0,0.5-0.1,0.7-0.3c0.2-0.2,0.3-0.4,0.3-0.6c0.1-0.4,0.1-0.7,0.1-1.1H18v6.3h-0.7c0-0.4,0-0.7-0.1-1.1
	c0-0.2-0.2-0.5-0.3-0.6c-0.2-0.2-0.4-0.3-0.7-0.3c-0.4-0.1-0.7-0.1-1.1-0.1H6c-0.4,0-0.7,0-1.1,0.1c-0.2,0-0.5,0.1-0.7,0.3
	c-0.2,0.2-0.3,0.4-0.3,0.6c-0.1,0.3-0.1,0.7-0.1,1H3.1v-5.9h0.7c0,0.3,0,0.7,0.1,1c0.1,0.2,0.2,0.4,0.3,0.6c0.2,0.2,0.4,0.2,0.7,0.3
	c0.4,0.1,0.8,0.1,1.2,0.1h3.7V179H6c-0.4,0-0.7,0-1.1,0.1c-0.2,0-0.5,0.1-0.7,0.3c-0.2,0.2-0.3,0.4-0.3,0.6c-0.1,0.3-0.1,0.7-0.1,1
	H3.1V175h0.7c0,0.3,0,0.7,0.1,1c0.1,0.2,0.2,0.4,0.3,0.6c0.2,0.2,0.4,0.2,0.7,0.3c0.4,0.1,0.8,0.1,1.2,0.1L14.9,176.9L14.9,176.9z"
	/>
<rect x="10.8" y="21" class="st0" width="0.5" height="140"/>
</svg>
