<svg id="Layer_1" data-name="Layer 1" xmlns="http://www.w3.org/2000/svg" viewBox="0 0 14.5 10.19"><defs><style>.cls-1{fill:#6e797f;}</style></defs><title>fancy-right</title><path class="cls-1" d="M13,10.41c0.08,0.21.17,0.42,0.26,0.62a0.39,0.39,0,0,0,.28.25,0.12,0.12,0,0,0,.08-0.09l0.12-.32a0.75,0.75,0,0,1,.58-0.56,0.51,0.51,0,0,1,.57.59,9.12,9.12,0,0,1-.11,1,9.62,9.62,0,0,0-.11,1.35,2,2,0,0,0,.13.75,0.43,0.43,0,0,0,.26.32h0a0.86,0.86,0,0,0,.26-0.47c0-.18.09-0.35,0.13-0.53a3.75,3.75,0,0,1,1.78-1.93,3.11,3.11,0,0,1,1.55-.52,0.76,0.76,0,0,1,.47.15,0.43,0.43,0,0,1,.2.34,0.31,0.31,0,0,1-.18.3l-0.48.16a0.22,0.22,0,0,0-.18.13,1.76,1.76,0,0,0,.69.12,4.12,4.12,0,0,1,.75.12,0.34,0.34,0,0,1,.26.33c0,0.38-.32.57-1,0.57H19l-0.46,0a6.49,6.49,0,0,0-2.21.46,1.09,1.09,0,0,0-.72,1,0.15,0.15,0,0,0,.08.16,6.06,6.06,0,0,1,3-1c0.59,0,1,0,1.17,0,0.57,0.05.85,0.19,0.85,0.41a0.48,0.48,0,0,1-.23.32,1.37,1.37,0,0,0-.34.33l0.17,0,0.37,0,0.37,0c0.4,0,.59.14,0.59,0.4a0.33,0.33,0,0,1-.16.26,0.6,0.6,0,0,1-.37.12l-0.3,0-0.44,0a1.15,1.15,0,0,0-.27,0,1.18,1.18,0,0,0,.34.31,0.61,0.61,0,0,1,.31.43,0.4,0.4,0,0,1-.27.29,1.37,1.37,0,0,1-.66.14,8.87,8.87,0,0,1-2.06-.25,4.9,4.9,0,0,1-1.41-.5,2.76,2.76,0,0,1-.4-0.31,0.52,0.52,0,0,0-.22-0.15c-0.08,0-.12.07-0.12,0.19a1.35,1.35,0,0,0,.93,1.17,5.59,5.59,0,0,0,2.55.49l0.34,0,0.23,0a0.55,0.55,0,0,1,.39.15,0.49,0.49,0,0,1,.16.37q0,0.46-.7.46h-0.3c-0.27,0-.41.06-0.41,0.18a0.33,0.33,0,0,0,.24.26,0.35,0.35,0,0,1,.24.33,0.39,0.39,0,0,1-.48.4A3.19,3.19,0,0,1,17.2,19a4.34,4.34,0,0,1-1.41-1.38,3.36,3.36,0,0,1-.41-0.88l-0.08-.36a0.27,0.27,0,0,0-.24-0.15,0.34,0.34,0,0,0-.25.26,1.57,1.57,0,0,0-.11.64A9.37,9.37,0,0,0,14.87,19a2.45,2.45,0,0,0,.18.73,0.52,0.52,0,0,1-.17.36,0.51,0.51,0,0,1-.36.17,0.61,0.61,0,0,1-.5-0.35l-0.45-.71a7.15,7.15,0,0,0-.38.69,0.47,0.47,0,0,1-.43.32A0.61,0.61,0,0,1,12.32,20a0.75,0.75,0,0,1-.2-0.53,3.83,3.83,0,0,1,.42-1.68,5.06,5.06,0,0,1,1.2-1.55,3.82,3.82,0,0,1,.66-0.47,0.51,0.51,0,0,0,.2-0.14s-0.06-.07-0.18-0.08c-1.14-.07-1.79-0.11-1.94-0.13-0.44-.05-0.65-0.15-0.65-0.27A0.69,0.69,0,0,1,12.47,15l2-.05-0.14-.18a6.3,6.3,0,0,1-1.7-2,4.16,4.16,0,0,1-.56-2q0-.72.49-0.72A0.53,0.53,0,0,1,13,10.41Z" transform="translate(-7.15 -10.1)"/><path class="cls-1" d="M7.92,14.25a0.73,0.73,0,0,0-.51.27,0.77,0.77,0,0,0-.26.53,0.85,0.85,0,0,0,.31.63,1,1,0,0,0,.68.28,0.93,0.93,0,0,0,.58-0.27A0.73,0.73,0,0,0,9,15.17a0.8,0.8,0,0,0-.35-0.63A1.18,1.18,0,0,0,7.92,14.25Z" transform="translate(-7.15 -10.1)"/></svg>