<svg id="Layer_1" data-name="Layer 1" xmlns="http://www.w3.org/2000/svg" viewBox="0 0 14.5 10.19"><defs><style>.cls-1{fill:#6e797f;}</style></defs><title>fancy-left</title><path class="cls-1" d="M16.26,10.1q0.49,0,.49.72a4.16,4.16,0,0,1-.56,2,6.3,6.3,0,0,1-1.7,2l-0.14.18,2,0.05a0.69,0.69,0,0,1,.65.16c0,0.13-.22.22-0.65,0.27-0.16,0-.8.07-1.94,0.13-0.12,0-.18,0-0.18.08a0.51,0.51,0,0,0,.2.14,3.82,3.82,0,0,1,.66.47,5.06,5.06,0,0,1,1.2,1.55,3.83,3.83,0,0,1,.42,1.68,0.75,0.75,0,0,1-.2.53,0.61,0.61,0,0,1-.44.22,0.47,0.47,0,0,1-.43-0.32,7.15,7.15,0,0,0-.38-0.69l-0.45.71a0.61,0.61,0,0,1-.5.35,0.51,0.51,0,0,1-.36-0.17,0.52,0.52,0,0,1-.17-0.36A2.45,2.45,0,0,0,13.92,19a9.37,9.37,0,0,0,.18-1.91A1.57,1.57,0,0,0,14,16.47a0.34,0.34,0,0,0-.25-0.26,0.27,0.27,0,0,0-.24.15l-0.08.36a3.36,3.36,0,0,1-.41.88A4.34,4.34,0,0,1,11.6,19a3.19,3.19,0,0,1-1.62.5,0.39,0.39,0,0,1-.48-0.4,0.35,0.35,0,0,1,.24-0.33A0.33,0.33,0,0,0,10,18.49c0-.12-0.14-0.18-0.41-0.18H9.27q-0.71,0-.7-0.46a0.49,0.49,0,0,1,.16-0.37,0.55,0.55,0,0,1,.39-0.15l0.23,0,0.34,0a5.59,5.59,0,0,0,2.55-.49,1.35,1.35,0,0,0,.93-1.17c0-.13,0-0.19-0.12-0.19a0.52,0.52,0,0,0-.22.15,2.76,2.76,0,0,1-.4.31,4.9,4.9,0,0,1-1.41.5A8.87,8.87,0,0,1,9,16.74a1.37,1.37,0,0,1-.66-0.14A0.4,0.4,0,0,1,8,16.3a0.61,0.61,0,0,1,.31-0.43,1.18,1.18,0,0,0,.34-0.31,1.15,1.15,0,0,0-.27,0L8,15.56l-0.3,0a0.6,0.6,0,0,1-.37-0.12,0.33,0.33,0,0,1-.16-0.26c0-.26.2-0.4,0.59-0.4l0.37,0,0.37,0,0.17,0a1.37,1.37,0,0,0-.34-0.33,0.48,0.48,0,0,1-.23-0.32c0-.22.28-0.36,0.85-0.41,0.19,0,.58,0,1.17,0a6.06,6.06,0,0,1,3,1,0.15,0.15,0,0,0,.08-0.16,1.09,1.09,0,0,0-.72-1,6.49,6.49,0,0,0-2.21-.46l-0.46,0H9.43c-0.63,0-1-.19-1-0.57a0.34,0.34,0,0,1,.26-0.33,4.12,4.12,0,0,1,.75-0.12A1.76,1.76,0,0,0,10.16,12,0.22,0.22,0,0,0,10,11.85L9.5,11.68a0.31,0.31,0,0,1-.18-0.3A0.43,0.43,0,0,1,9.52,11,0.76,0.76,0,0,1,10,10.89a3.11,3.11,0,0,1,1.55.52,3.75,3.75,0,0,1,1.78,1.93c0,0.18.09,0.36,0.13,0.53a0.86,0.86,0,0,0,.26.47h0A0.43,0.43,0,0,0,14,14a2,2,0,0,0,.13-0.75A9.62,9.62,0,0,0,14,11.94a9.12,9.12,0,0,1-.11-1,0.51,0.51,0,0,1,.57-0.59,0.75,0.75,0,0,1,.58.56l0.12,0.32a0.12,0.12,0,0,0,.08.09A0.39,0.39,0,0,0,15.51,11c0.09-.2.18-0.41,0.26-0.62A0.53,0.53,0,0,1,16.26,10.1Z" transform="translate(-7.15 -10.1)"/><path class="cls-1" d="M20.12,14.54a0.8,0.8,0,0,0-.35.63,0.73,0.73,0,0,0,.31.53,0.93,0.93,0,0,0,.58.27,1,1,0,0,0,.68-0.28,0.85,0.85,0,0,0,.31-0.63,0.77,0.77,0,0,0-.26-0.53,0.73,0.73,0,0,0-.51-0.27A1.18,1.18,0,0,0,20.12,14.54Z" transform="translate(-7.15 -10.1)"/></svg>