<svg id="Layer_1" data-name="Layer 1" xmlns="http://www.w3.org/2000/svg" viewBox="0 0 310 90"><defs><style>.cls-1{fill:#85929b;}</style></defs><title>logo</title><path class="cls-1" d="M92.83,67a1.29,1.29,0,0,0-.29.63,2.4,2.4,0,0,1-.15.42,5.06,5.06,0,0,1-1.76,1.71,10,10,0,0,1-4.32,1.51,29.44,29.44,0,0,1-4.2.33,18.25,18.25,0,0,1-3.79-.37c-0.28-.06-0.55-0.1-0.83-0.15S76.94,71,76.68,71a9.74,9.74,0,0,1-2.15-.44l-1-.26c-0.52-.22-1.06-0.42-1.67-0.64-0.41-.15-0.82-0.3-1.22-0.46l-0.36-.13a10.69,10.69,0,0,0-1.55-.45c-0.35-.11-0.7-0.23-1-0.36s-0.85-.31-1.29-0.43a2.72,2.72,0,0,1-.73-0.35A2.42,2.42,0,0,0,65,67.15a2.53,2.53,0,0,1-.41-0.26,2.21,2.21,0,0,0-.36-0.23l-0.73-.37a13.81,13.81,0,0,0-1.33-.64,11.4,11.4,0,0,1-2.52-1.18A4.73,4.73,0,0,0,58,63.7a4.13,4.13,0,0,1-1.66-1,6.88,6.88,0,0,1-2.31-1.13,10.55,10.55,0,0,0-1.26-.74,27.3,27.3,0,0,1-2.59-1.46,27,27,0,0,0-2.52-1.42,14.58,14.58,0,0,1-1.83-.86l-0.62-.32c-0.9-.5-1.83-1-2.77-1.61l-0.12-.07a50.88,50.88,0,0,0-9.25-4.67A8.46,8.46,0,0,1,36,48.28c2.35-2.25,4.75-4.55,6.88-6.93,1.33-1.36,2.5-2.71,3.68-4.07a6.46,6.46,0,0,1,1.4-1.36,1.69,1.69,0,0,1,1.1-.2,3.72,3.72,0,0,1,1.33-.34,7.82,7.82,0,0,1,1.1-.47,8.66,8.66,0,0,0,1.25-.34c1.1-.47,2.14-0.95,3.24-1.49,0.44-.14,1.33-1,1.84-0.88a17.31,17.31,0,0,0,1.84-1.29c0.66-.61,1.69-1.08,2.43-1.69a22.17,22.17,0,0,1,2.13-1.63,36.62,36.62,0,0,0,3.09-2.64c0.44-.41,1-0.75,1.33-1.15,1.84-2.17,4.2-3.93,6-6.23a34.21,34.21,0,0,0,3.24-4.47c0.74-1.36,1.91-4,.44-5.35-1.77-1.83-5.15-.27-7.21.54s-3.83,2.51-5.59,3.86c-1.1.88-2,1.76-3,2.71S60.81,16.54,60,17.36a66.69,66.69,0,0,0-8.47,10A29.59,29.59,0,0,1,49,30.64C47.86,31.93,47,33.35,46,34.71a2.12,2.12,0,0,1-1.91.88,13.24,13.24,0,0,1-4-.54A6.85,6.85,0,0,1,37.92,34a3.92,3.92,0,0,1-1.25-1.42c-0.51-.61.22-0.68,0.66-1.22,0.37-.34,1.1-0.75,1.55-1.08,0.88-.61,1.62-1.29,2.5-2a51.82,51.82,0,0,0,5.45-4.95,19,19,0,0,0,3.31-4.27c1-1.56,2.14-3.32,1.69-5.35-0.59-2.71-5.67-.88-7.21.07A22.09,22.09,0,0,0,38,19.05a19.21,19.21,0,0,0-3.61,6.51A12.7,12.7,0,0,0,34,29.62a4.13,4.13,0,0,0,.59,2.1c0.37,0.54-1,1-1.62,1.29-0.81.34-2.28,1-2.94,0.2-0.44-.68,0-1.29.29-1.9,0.37,0,1.18-.75.59-0.81-1.4-.34-1.69,2.17-1.47,2.78,0.22,1,1.84,1.08,2.72.95a19.37,19.37,0,0,0,2.14-.81c0.44-.2,1-0.75,1.25-0.34,0.51,0.54,1.84,1.83,2.5,1.9a6.56,6.56,0,0,1,1,.41c0.59,0.07,1.1.41,1.77,0.54a7.55,7.55,0,0,0,2.14.14c0.07,0.2,1.55,0,1.84.14,0,0.47-1,1.22-1.33,1.69s-0.81,1-1.25,1.49c-1,1.08-2.21,2.24-3.24,3.39a57.86,57.86,0,0,1-5.67,6.1c-0.15.27-.37,0.34-0.51,0.61-0.44.34-.44,0.07-1,0S30.7,49.07,30,48.87c-1.55-.41-3.09-0.81-4.79-1.15a25.6,25.6,0,0,0-9.64-.61c-3.46.61-6.77,0.95-9.35,3.25a3,3,0,0,0-.59,4.07,3.63,3.63,0,0,0,1.55,1.36,6.47,6.47,0,0,1,1.25.81c0.74,0.07,1.4.27,2.14,0.41a13.89,13.89,0,0,0,4.42.27,29.43,29.43,0,0,0,8.83-1.63,22.77,22.77,0,0,0,3.24-1.36c0.44-.14,1-0.81,1.62-0.75a9.53,9.53,0,0,1,1.55-.95,11.93,11.93,0,0,1,2-1.22l0.13-.07,0.11-.14A68,68,0,0,1,42.75,57c2.26,1.47,4.61,3,6.94,4.29l0.1,0.07a6,6,0,0,0,1,.61,3.81,3.81,0,0,0,1,.53,3.66,3.66,0,0,0,1.55.91,4.58,4.58,0,0,0,1.83,1h0l0.1,0.06v0.09A4.91,4.91,0,0,0,57,65.66a6.94,6.94,0,0,1,.7.34l0.58,0.24a8.92,8.92,0,0,1,1.63.78,5.68,5.68,0,0,0,2.31,1.12,9.26,9.26,0,0,0,1.83.89c0.8,0.32,1.62.65,2.43,1a41.73,41.73,0,0,0,7.36,2.54,34,34,0,0,0,6.9.9c0.44,0,.88,0,1.31,0a10.29,10.29,0,0,0,1.5-.27C84,73,84.34,73,84.74,72.9a4.85,4.85,0,0,0,.9-0.27,3.8,3.8,0,0,1,1.21-.29,3.39,3.39,0,0,0,1.44-.52,4.53,4.53,0,0,1,1.08-.47A2.07,2.07,0,0,0,89.89,71a3.06,3.06,0,0,1,.43-0.31A2.36,2.36,0,0,0,91.23,70a3.06,3.06,0,0,1,.62-0.67,3.44,3.44,0,0,0,1.31-1.8,0.57,0.57,0,0,0-.23-0.44A0.25,0.25,0,0,0,92.83,67ZM52.27,30.17c0.66-.95,1.4-1.83,2.06-2.64a26.8,26.8,0,0,0,2.43-3.19,12.09,12.09,0,0,1,2.36-2.78c0.59-.75,1.32-1.69,2-2.51,1.47-1.69,3.24-3.19,4.78-4.68a32.48,32.48,0,0,1,4.79-4.54,10.45,10.45,0,0,1,4.71-2.1c1.33-.14,2.5.34,2.58,1.69,0.15,1-.52,1.9-0.88,2.78a16.63,16.63,0,0,1-4,5.62c-0.88.75-1.4,1.9-2.21,2.64S69,22.17,68.1,22.91c-1.62,1.56-3.31,3-5.15,4.54a33.33,33.33,0,0,1-13.47,7.25,2.05,2.05,0,0,0-.81.2A25,25,0,0,1,52.27,30.17ZM36.59,26.23c1-2,1.69-4.13,3.16-5.76a26.23,26.23,0,0,1,4.49-4.81c1.33-1.08,3.31-2.57,5.08-2.85,3.24-.41,1.77,3.19,1,4.68A21.16,21.16,0,0,1,47,22.3a35,35,0,0,1-5.52,5.22C40,28.74,37.7,30.3,36.3,31.18,35.49,31.59,36.3,26.84,36.59,26.23ZM29.67,51.78a27.18,27.18,0,0,1-2.87,1.49c-1,.47-2.36,1.49-3.53,1.49a5.27,5.27,0,0,0-1.1.47c-0.74.2-1.47,0.34-2.21,0.54-1.32.14-2.58,0.47-4,.68a18.18,18.18,0,0,1-7.21-.68c-1.91-.68-3.61-1.9-2.87-4a6.9,6.9,0,0,1,3.24-2.37A21.35,21.35,0,0,1,19,47.72c1,0.07,2.14.27,3,.34a5.91,5.91,0,0,1,2.43.41,26.62,26.62,0,0,0,3.31,1,15.64,15.64,0,0,1,3,.88,1.08,1.08,0,0,0,.66.2C30.78,50.9,30.34,51.51,29.67,51.78Z"/><path class="cls-1" d="M65.07,30.59a1.08,1.08,0,0,0-1.15.85,1.17,1.17,0,0,0,.57.72c0.43,0,.86-0.2,1.22-0.2a6.26,6.26,0,0,1,.21-0.78l-0.14-.33A0.79,0.79,0,0,0,65.07,30.59Z"/><path class="cls-1" d="M214.35,46.44l4.31-7.24c0.65-1.17,1.36-2.41,2.15-3.59L221,34.9c0.14-.2.43-0.26,0.57-0.46l0.21-.72c1.08-2,2.58-3.78,3.59-5.74l0.22-.2a0.76,0.76,0,0,0,.07-0.39l0.5-.33a16.4,16.4,0,0,0,.93-2.09,27.36,27.36,0,0,0,2-2.48A0.77,0.77,0,0,1,229.2,22l0.36-.2a4.28,4.28,0,0,1,.43-0.78,20.44,20.44,0,0,1,2.58-3.2,2.79,2.79,0,0,0,1.08-1.11c2.22-.78,3.16-3.33,5.38-4.24,0.29-.52.29-0.59,0.43-0.59a1.48,1.48,0,0,0,.43-0.2v-0.2a2.4,2.4,0,0,0,1.51-1.3c1.15-.59,4.38-3.78,4.73-3.85-0.14-.2,0-0.39.29-0.39,0.43-.72,1.87-2.22,1.87-3,0-.52-0.86-0.78-1.29-0.78-2,0-5,2.28-6.31,3.46V6a2.06,2.06,0,0,1-.65.39,120.28,120.28,0,0,0-9.76,10.7l-1.08,1.37a5.26,5.26,0,0,0-1.51,1.83l-0.22.2v0.2l-0.36.07a9.8,9.8,0,0,0-1.22,2c-1.29.46-7,5.61-8.47,6.78l-0.43.2v0.33a13.27,13.27,0,0,0-2.87,2.28,3.15,3.15,0,0,0-1.36,1.3v0.2h-0.22l-0.29.46c-0.43.39-4.45,4-4.66,4h-0.22a7.48,7.48,0,0,1,1.22-1.89,13.55,13.55,0,0,1,.86-2.54l0.65-1c1.08-2.41,1.94-4.89,3.16-7.24,0.79-1.5,1.43-3.2,2.3-4.57a31.72,31.72,0,0,0,1.72-3.59,33.2,33.2,0,0,0,5.24-6.07c0.79-.2,3.52-3.85,3.52-4.57a1.15,1.15,0,0,0-.36-0.78,2.92,2.92,0,0,0-.72-0.2c-1.65,0-5.38,4-6.24,5.15-0.29.39-1.87,2.67-2.15,2.87a48.62,48.62,0,0,0-4,7.24,14.44,14.44,0,0,0-1.22,2,6.22,6.22,0,0,1-.22.78,64.58,64.58,0,0,0-4.59,5c-0.79.26-2.51,2.35-3.09,2.93-0.21.2-.93,0.59-1.29,0.85a41.7,41.7,0,0,0-4,4c-0.36.26-2.94,2.48-3.16,2.54v0.2h-0.36a8.14,8.14,0,0,1-1.72,1.7,4.37,4.37,0,0,0-.79.39v0.33H191.9L190.46,43l-0.07.26a0.43,0.43,0,0,0-.43.13c-1.08.65-1.94,1.7-3.16,2.35a59.6,59.6,0,0,1-6.1,3.2,2.66,2.66,0,0,1-.65.26,15.48,15.48,0,0,1-2.51.33c-0.57,0-1.36-.13-1.44-0.72a5,5,0,0,1,1.87-1c0.07-.26,1.36-0.91,1.87-1.5a2.31,2.31,0,0,0,1.51-.85c0.86-.72,3.95-3.13,4.45-3.72A34.55,34.55,0,0,0,188.1,39l0.22-.19,0.22-.39h0.36c0.29-.78,1.15-1.5,1.51-2.41a3.39,3.39,0,0,0,.86-1.37,9.18,9.18,0,0,0,1-1.5,12.41,12.41,0,0,0,.86-4,1.26,1.26,0,0,0-.86-1.37l-0.14-.2H191.9l-0.07-.2H191.4l-0.21-.33H190c-5.09,0-10.33,4.89-13.27,8.28-0.57.59-.86,1.24-1.43,1.83-0.22.52-1.87,3.52-1.87,3.59a0.38,0.38,0,0,1,0,.39l-0.22.2a16.84,16.84,0,0,0-.43,1.83,0.16,0.16,0,0,0,.14.2l-0.22.07v0.13c0,0.65-.14,1.37-0.14,2.09,0,1.76.86,2.54,0.86,3.46a0.89,0.89,0,0,1-.07.39,15.52,15.52,0,0,1-4.23.72A4.09,4.09,0,0,1,164.85,46c0-1.24.86-3.46,2.22-4,0.22-.13.65,0,0.72-0.33a0.73,0.73,0,0,0-.65-0.26c-1.72,0-3.8,2.48-3.8,4,0,2.54.86,3.33,2.87,5,0.72,0,1.29.46,1.79,0.46,0.22,0,.43-0.07.65-0.07s0.72,0.07.93,0.07c1.79,0,3.37-1.11,4.52-1.11a4.39,4.39,0,0,1,1,.33c0.36,0,2.65.33,2.94,0.33a20.72,20.72,0,0,0,3.3-.91l0.29-.39h0.43l0.14-.2a3.54,3.54,0,0,1,.57-0.13l0.29-.39A21.26,21.26,0,0,1,186.16,47a3.35,3.35,0,0,1,1.36-1,2.23,2.23,0,0,1,1-.59c0.14-.65.86-0.65,0.86-1.24a0.77,0.77,0,0,0,.79-0.2c-0.14-.39.43-0.2,0.43-0.46V43.44a2.64,2.64,0,0,0,1.22-.85c0.5,0,2.51-2.09,3.16-2.41V40h0.21c1-.78,3.59-2.87,3.95-3.78,0.93-.26,1.72-1.7,2.8-2.28,0.57-.85,2.08-1.76,3.09-2.93l0.21-.13a0.36,0.36,0,0,1,.07-0.26c0.79-.72,1.51-1.24,2.22-1.89a2.31,2.31,0,0,1,.43-0.59,1.51,1.51,0,0,1,.5-0.33V27.46a4.11,4.11,0,0,1,.86-0.65,0.24,0.24,0,0,1,.14-0.2c0.07,0,.07,0,0.07.06a40.88,40.88,0,0,1-2.15,4.76,10,10,0,0,1-.65,1.7c-0.22.59-.79,1.17-1,1.89a25.22,25.22,0,0,1-1.29,2.87c-0.22.52-.65,1-0.86,1.5a8.7,8.7,0,0,0-.36,1.31,22.62,22.62,0,0,1-1.72,3.13,5.62,5.62,0,0,1-1.08,1.11,2.53,2.53,0,0,0-.22.52l-2.65,2.74c-0.07.13-.93,1.17-0.93,1.17h-0.14c0.14,0.52-.57.91-0.57,1.43a1.83,1.83,0,0,0,.5,1L196.85,52c2.73,0.07,3-2.22,4.66-3.2a13.08,13.08,0,0,1,1.22-2.15l0.22-.2,0.72-1.37a0.58,0.58,0,0,0,.14-0.46l0.29-.07a2.81,2.81,0,0,1,.72-1.11,12.43,12.43,0,0,1,1.51-3.07,34.65,34.65,0,0,0,3-2.54,1.67,1.67,0,0,0,.93-1.11c0.43,0,1.94-1.83,2.58-2.09,0.36-1,2.08-2.22,2.87-2.87a0.27,0.27,0,0,1,.07-0.2A13.48,13.48,0,0,0,218.73,29a5.78,5.78,0,0,0,2.51-2.09,3.36,3.36,0,0,0,1.43-.85c0.22-.13,0-0.39.07-0.52s0.43,0,.57-0.07a1.46,1.46,0,0,1,.43-0.46H224c-0.86,1.31-1.51,2.81-2.3,4a1.68,1.68,0,0,1-.5.52,1.46,1.46,0,0,0-.22.59C219.81,31.18,218,34.9,217,36.4l-1.29,2c-2.51,3.91-7,11.8-8.32,15.91-0.07.33,0,.52-0.07,0.85a3.29,3.29,0,0,0-.57.78l-0.22,1c-0.36,1.11-.86,2.22-1.22,3.39a17.12,17.12,0,0,0-.72,3.2c0,0.78-.22,1.57-0.22,2.09a3.33,3.33,0,0,0,.07.46c0,0.2-.07.39-0.07,0.59a12.15,12.15,0,0,0,.5,2.81l0.22,0.2c1,2.28,2.3,3.39,5.16,3.39a8.11,8.11,0,0,0,3.16-1.24,0.36,0.36,0,0,0,.07-0.26A3.35,3.35,0,0,0,215,69.85c0.79-.33,1.58-2.28,2-3V66.72c0-.39-0.57-0.39-0.79-0.46a0.69,0.69,0,0,0-.21.26c0,0.2.21,0.39,0.21,0.59l-1.29,2.22a5.86,5.86,0,0,1-5.38,3.2,5.69,5.69,0,0,0-.93-0.46,10.89,10.89,0,0,1-1.08-5c0-5.54,2.8-12.13,5.31-17.35ZM234.8,15.07c0.29-.78,3.16-3.85,3.8-4.7l0.29-.13a53.74,53.74,0,0,1,5.67-6.13c0.21-.13.36,0,0.57-0.13l0.22-.39A3,3,0,0,0,246.56,3h0.07c0.22,0,.43.2,0.65,0.2a0.14,0.14,0,0,1,.14.13,0.59,0.59,0,0,0-.21.2L247,4.11c0,0.2-.22.2-0.36,0.26s0,0.39-.07.52a7.58,7.58,0,0,1-.79.72c-2.15,2.54-5.09,4.63-7.82,6.72l-0.14.2a2.34,2.34,0,0,1-1,.78,1.61,1.61,0,0,1-.22.52,0.86,0.86,0,0,0-.5.2,10.81,10.81,0,0,1-1.72,1.76c-0.14,0-.14-0.07-0.14-0.07A1.69,1.69,0,0,1,234.8,15.07Zm-15.28-1c0.07-.13,0-0.39.07-0.52l0.36-.2c0-.2,0-0.39.29-0.39,0.22-1.17,1.22-2.15,1.79-3.2l0.29-.07c0.36-.72,1.87-3,2.87-2.87h0.07V7a5.37,5.37,0,0,1-1.15,1.76,10.11,10.11,0,0,1-2.51,2.87,14.8,14.8,0,0,1-2.22,2.8s-0.07,0-.07-0.13S219.52,14.09,219.52,14ZM175.33,47.61c0-.39.14-0.78,0.14-1.3,0-.2-0.14-0.46-0.14-0.65V45.53l0.22-.07V44.94a10.89,10.89,0,0,1,.43-1.76,10.65,10.65,0,0,0,.43-1.83c0.14-.26.43-0.39,0.57-0.65s0-.39.14-0.52c0.86-.91,1.79-3.26,2.73-4.43,0.65-1,4-4.5,4.09-4.89,0.79-.2,2.73-2.28,4.3-2.67l0.07-.2c0.22-.07,1.72-0.39,1.94-0.39a4.71,4.71,0,0,1,2.3,1.17C192.47,32,191,34.44,189,37a2.19,2.19,0,0,1-.65.91l-0.07.39-0.5.13c0,0.06-.07.2-0.07,0.26a4.16,4.16,0,0,1-.57.52,5.44,5.44,0,0,1-1.15,1.57c-1,1.37-6.67,5.48-6.81,5.67l-0.43.2a10.32,10.32,0,0,1-3.23,1.7A1.29,1.29,0,0,1,175.33,47.61Zm21.38,3.59a0.65,0.65,0,0,1-.07-0.39,13.88,13.88,0,0,0,.5-1.3,5.69,5.69,0,0,0,1.51-1.89A3.76,3.76,0,0,0,200,46.24a0.37,0.37,0,0,1,.07.26C200.08,47.29,197.57,50.88,196.71,51.2Z"/><path class="cls-1" d="M304.88,36.79c-0.65-1.83-2.58-1-3.95-.33A13.41,13.41,0,0,0,298.5,38c-0.43.26-.86,0.59-1.29,0.91a0.94,0.94,0,0,1-.72.52c0.72-1,2.44-3.91.22-4.37a4.24,4.24,0,0,0-2.37.78,5.18,5.18,0,0,1-1.43.46c-0.14,0-.93.39-0.79-0.07,0.07-.2.43-0.65-0.07-0.65a1.33,1.33,0,0,0-.86.26c-0.72.72,0.43,1.17,1.08,1.11a5.12,5.12,0,0,0,2.22-.65,3.22,3.22,0,0,1,1.08-.52c0.29-.07.93-0.2,0.57,0.26-0.5.65-1.08,1.3-1.65,2l-1.65,2.41-0.36.65-0.43.39-0.72.85a8.48,8.48,0,0,0-.72,1,9.28,9.28,0,0,1-.79,1c-0.47.65-1.06,1.51-1.65,2.39-0.63.31-.88,1.05-1.58,1.4a16.52,16.52,0,0,1-2.08,1.7,5.73,5.73,0,0,0-.65.72l-0.57.07v0.2a17.59,17.59,0,0,0-2.94,1.5c-0.43-.13-1.29.52-1.94,0.52a2.69,2.69,0,0,1-.86-0.2,2.36,2.36,0,0,1-.22-0.91,5.1,5.1,0,0,1,.29-1.11l0.14-.07-0.14-.33,0.5-.59c0.29-.72.43-1.5,0.72-2.22,0.86-.46,1.72-2,2.73-2.22,1-1.7,2.73-2.93,3.3-4.89l-0.22-.33a2.24,2.24,0,0,0-.79-0.2c-2.51,0-7.1,6.26-8,8.28a19.74,19.74,0,0,1-.79,1.83,0.62,0.62,0,0,0-.5.26,9.65,9.65,0,0,1-3.37,2c-0.21,0-.57.13-0.86,0.13s-0.21-.33-0.21-0.52a8.06,8.06,0,0,1,.72-2l0.36-.2a1.82,1.82,0,0,1,.22-0.78,1.17,1.17,0,0,0,.29-0.33c0.14-.2.14-0.39,0.22-0.46a0.81,0.81,0,0,1,.36-0.33A22.1,22.1,0,0,0,274,44.94a20.39,20.39,0,0,0,2.73-2.67,9.51,9.51,0,0,1,.72-1.11h0.22l0.14-.2a0.65,0.65,0,0,1,.43-0.2h0.14c0.29-1,4.74-4.43,5.74-4.43,0.65,0,1-.33,1.65-0.33a6.76,6.76,0,0,1,1.22.2,3.39,3.39,0,0,1,.93,2.48V39.4a0.79,0.79,0,0,0-.43.72v0.2a7.26,7.26,0,0,0-1.29,1.83,1.35,1.35,0,0,0-.86,1,2.12,2.12,0,0,1,.07.39h0.22c0.72,0,2-2.61,2.3-3.06a0.81,0.81,0,0,1,.36-0.33,3.71,3.71,0,0,0,.43-1.7c0-1.89-1.43-3.13-3.52-3.13a10.46,10.46,0,0,0-5.09,1.37,0.8,0.8,0,0,0-.43.39,4,4,0,0,0-.79.39l-1.08.91a26.05,26.05,0,0,0-3.37,2.74c-0.22.2-.22,0.39-0.43,0.59a5.1,5.1,0,0,1-.65.39l-0.14.33A15.59,15.59,0,0,0,271.74,44a0.7,0.7,0,0,0-.43.59l-0.5.72-0.22.13c-0.21.31-.45,0.7-0.7,1.11a4.52,4.52,0,0,0-1.38,1.37c-1.36,1.17-6.67,5-9.76,5.41a2,2,0,0,1-.86.39,12.27,12.27,0,0,1,1.65-2.54l0.57-.78,1.72-2.61c0.22,0,.43-0.26.65-0.26,0.22-.26.14-0.52,0.57-0.52A26.2,26.2,0,0,0,266.22,44a2.34,2.34,0,0,0,.86-1.7,0.82,0.82,0,0,0-1-.72,3.62,3.62,0,0,0-1.51.59c-2.08,1.11-2.94,2.61-4.45,4.3a1.33,1.33,0,0,0-.5.39,11.92,11.92,0,0,0-.72,1.3c-0.14.2-.36,0.26-0.43,0.39a18.35,18.35,0,0,1-1.29,1.89c-0.14.07-.36,0-0.5,0.07a2.33,2.33,0,0,1-.43.39A9.15,9.15,0,0,1,253.09,52a1,1,0,0,1-.72-0.26c0-1,.72-1.7.86-2.61,0.5-.46.65-1,1.08-1.44,0.14-.85,1.29-1.89,1.29-2.09a0.54,0.54,0,0,0-.07-0.33,1,1,0,0,0,.72-0.59,15,15,0,0,1,1.22-1.5A0.93,0.93,0,0,0,258,43a2.53,2.53,0,0,1,.22-0.52,12.23,12.23,0,0,1,1.36-1.37l0.5-.2c0.43-.52.29-0.91,1.08-1.24,1.15-1.57,3.87-2.87,5.88-3.46l0.29,0.13,0.22-.2a1.52,1.52,0,0,0,.93,0,11.76,11.76,0,0,1,1.51.06,3.77,3.77,0,0,1,1.29,2.28c0,0.91-1.65,2.8-2.3,3.65a2.61,2.61,0,0,0-1.72,1.3v0.2a0.58,0.58,0,0,0,.5.2,2.73,2.73,0,0,0,.79-0.26l0.14-.2a2.85,2.85,0,0,1,.72-0.59c0.36-1,2.65-2.61,2.65-4.5s-1.87-2.87-3.73-2.87c-9,0-13.92,8.35-14.92,8.35a2.65,2.65,0,0,1-.86,1.17,13.26,13.26,0,0,0-1.39,2.19,49.65,49.65,0,0,1-4.63,3.68c-0.22-.2-0.79.39-1,0.46-1.44.72-2.8,1.89-4.59,1.89l-0.22-.07a8,8,0,0,1,1.08-3l0.36-.07a39.79,39.79,0,0,1,3.95-5.28A9.35,9.35,0,0,0,247,44c0.07-.13,0-0.33.07-0.39a2.63,2.63,0,0,1,.65-0.59V42.66a4,4,0,0,0,.57-0.39,5.75,5.75,0,0,1-.07-1.11c0-1.37-1.36-1.89-2.51-2.54a0.13,0.13,0,0,0-.14-0.13h-0.07a4.16,4.16,0,0,1-.5-1.3,4.63,4.63,0,0,1,1.15-1.63V35.16l0.22-.26a2.54,2.54,0,0,0,.22-0.78,1.45,1.45,0,0,0-.36-0.85l-0.29-.13a3.54,3.54,0,0,0-3.08,3.26c0,0.78.43,1.5,0.43,2.41-0.72,1.3-2.37,2.54-3.23,3.85-0.14.2,0,.39-0.14,0.52h-0.36l-0.22.59-0.21.07a0.65,0.65,0,0,0-.07.39l-1.44,1.5,0,0a1.49,1.49,0,0,0-.41.55,1.65,1.65,0,0,0-1.22.78,3.7,3.7,0,0,0-1.15.72h-0.43l-0.22.2a9.79,9.79,0,0,1-2.3.33,1.6,1.6,0,0,1-.93-0.33V47.94c0-.39.36-0.2,0.5-0.52,0.22,0,.22-0.33.29-0.39,0.43-.52,1.08-0.91,1.44-1.3a3.44,3.44,0,0,0,.65-1.11l0.22-.07a0.34,0.34,0,0,0,.14-0.33,1.58,1.58,0,0,0,.5-0.46,4,4,0,0,1,.86-1.5V41.94a3.73,3.73,0,0,0,1.15-2c0-.39-0.29-0.78-0.29-1.17a2.71,2.71,0,0,0-2-.91c-2.73,0-2.51,1.7-4.31,2.28-0.5,1.7-1.87,2.67-1.87,4.63,0,1.7,1.22,3.13,1.22,3.39,0,0.91-3.44,3.26-4.23,3.65a10,10,0,0,1-2.94.85,1.41,1.41,0,0,1-.79-0.13,2.48,2.48,0,0,1-.29-1.37c0-.39.22-2.22,0.65-2.28-0.14-.91,1.94-4.17,2.73-5.09l0.22-.59c0.86-1.11,2.3-2.09,2.94-3.39,0.79-.2,1.51-1.17,2.37-1.43l0.14-.2a10.27,10.27,0,0,0,1.87-1c0.93-.07,1.94-0.78,3-0.78a4.44,4.44,0,0,1,2.08.52,0.39,0.39,0,0,1,.21.39c0,0.33-.21,1,0.36.91h0.07a0.36,0.36,0,0,0,.43-0.39V37.7s0.14,0,.14-0.06a0.75,0.75,0,0,0-.57-0.52c-0.07-.59-0.72-0.72-1.15-1.11l-1.58-.06a14.58,14.58,0,0,0-6.38,1.56c-0.93.39-1.65,1-2.51,1.37a16.19,16.19,0,0,1-1.58,1.5,2.5,2.5,0,0,1-.22.52,0.87,0.87,0,0,0-.5.2c-0.14,0-3.37,4.17-3.51,4.24s0,0.52-.07.72l-0.29.07a2.85,2.85,0,0,1-.29,1.11,4,4,0,0,0-.43,1.7l-0.14.2a2,2,0,0,0-.07.65,4.76,4.76,0,0,0,.86,2.48h0.22a2.17,2.17,0,0,0,1.43,1.11,2,2,0,0,1,1.08,0A3.42,3.42,0,0,0,224,52.9a21.35,21.35,0,0,0,3.3-1.7c1.22-.78,1.94-1.89,3.23-2.48a2.27,2.27,0,0,0,1.15.26c0.43,0,2.15-.2,2.58-0.26l0.14-.2a5.61,5.61,0,0,0,.93-0.39,1.3,1.3,0,0,0,.86-0.2,9.35,9.35,0,0,1,1.22-1.11,1.32,1.32,0,0,1,.21-0.31,6.48,6.48,0,0,0,.65-0.47c0-.13.14-0.2,0.14-0.33a0.28,0.28,0,0,0,0-.13,30.5,30.5,0,0,1,2.54-2.74c-0.14-.72.72-1,0.93-1.37A2.47,2.47,0,0,0,242,41h0.22a2.18,2.18,0,0,1,.79-0.78,5.79,5.79,0,0,1,.65-1.11,2.34,2.34,0,0,0,.86.2c0.14,0,.22,0,0.22-0.07a1.41,1.41,0,0,0,.93.26,0.6,0.6,0,0,0,.22-0.07c0,0.39.65,0.46,0.65,0.91,0,0.85-1.87,2.28-2.51,2.93v0.33h-0.21l-0.14.26H243.4V44l-2.51,2.8v0.39c-0.14.33-.65,0.39-0.79,0.72,0.14,0.46-.57.78-0.79,1.17-0.07.2-.72,1.7-0.72,1.89l0.5,2.35c0.57,0.13.72,0.72,1.22,0.72a4.52,4.52,0,0,0,2.51-.78,2.44,2.44,0,0,0,.65-0.2c1-.59,2.08-1.3,3.16-1.83a2,2,0,0,1,.36-0.46c0.07-.13.29,0,0.5-0.2l-0.07-.33,0.29,0.2c0.36-.26,2-1.3,2-1.7v-0.2l0.22,0.13c0.07,0,.22-0.13.29-0.13a2.4,2.4,0,0,1,.62-0.7l0,0.11a13.25,13.25,0,0,1-.5,2.09c0,0.13-.14.2-0.14,0.33a2.73,2.73,0,0,0,2.3,2.48c0.86,0,1.44-.65,2.3-0.65s0.86-.59,1.29-0.59h0.14v0.13c0,0.2-1.72,2.74-2.08,3.26a3.34,3.34,0,0,1-.86.91,1.65,1.65,0,0,0-.86.26,57.29,57.29,0,0,0-11.26,7.44l-0.07.2a2.36,2.36,0,0,1-.57.39A1.91,1.91,0,0,0,240,65c-0.79.2-4.38,5-4.59,5.67s-0.79.78-1,1.37a0.88,0.88,0,0,1-.22.78,1.48,1.48,0,0,0-.07.52,13.39,13.39,0,0,0,.29,1.5L236,75.46h0.22a8.2,8.2,0,0,0,3.23-1.11l0.65-.2c0.57-.26.72-0.78,1.58-0.78a2.68,2.68,0,0,1,1.08-.85c0.21,0,.29-0.2.29-0.46h0.22c1.15-.65,2-1.57,3.09-2.22a3,3,0,0,1,.36-0.65,2.66,2.66,0,0,1,.5-0.39c0.65-.59,3.37-3.65,3.37-4.24,0.65,0.06,2.73-3.85,3.16-4.57h0.21v-0.2a8,8,0,0,0,.72-0.91,0.68,0.68,0,0,1,.29-0.59c2.51-4.63,2.08-3.13,7.53-5.61a7.92,7.92,0,0,1,.86-0.33l0.14-.33,2.37-1.37,0.14-.2,0.22-.2,0.43-.26a8.4,8.4,0,0,0,1.43-1.24,6.55,6.55,0,0,1,1.07-.84,8.08,8.08,0,0,0-1,3.12,1,1,0,0,0,.79,1.11v0.33a1.86,1.86,0,0,0,1.29.39,8.56,8.56,0,0,0,3.08-1,13.17,13.17,0,0,1,1.79-1.24h0.14v0.85c1.08,0.91,1.29,1.83,3.09,1.83,1.29,0,.86,0,1.15-0.39h0.43a10.24,10.24,0,0,1,2.3-1c0.21-.26,0-0.39.14-0.46-0.14.07,0.22,0.07,0.22,0.07a0.35,0.35,0,0,0,.29-0.26V51.07a0.56,0.56,0,0,0,.22.13,0.26,0.26,0,0,0,.21-0.13,21,21,0,0,0,1.87-1.17c0.22-.2.14-0.52,0.36-0.72a0.31,0.31,0,0,1,.22.2,11.21,11.21,0,0,0,1.3-1.1c-0.26.38-.51,0.73-0.73,1a11,11,0,0,0-.72.91,2.06,2.06,0,0,0-.5,1,1.5,1.5,0,0,0,1.44.65c0.86-.33,1.08-1,1.72-1.56a9.06,9.06,0,0,0,1.29-1.57c1.15-1.37,2.8-3.65,3.87-5.15a11.81,11.81,0,0,1,1.65-2,4.35,4.35,0,0,0,.93-1c0.29-.33.72-0.33,1-0.65a6.89,6.89,0,0,1,1.51-1.3c0.72-.59,1.65-1,2.44-1.57a7.29,7.29,0,0,1,1.65-.72,2.05,2.05,0,0,1,1.08-.13c0.36,0.65-.14,1.5-0.43,2.09s-0.79,1.3-1.22,2c-0.36.46-.72,1-1.15,1.57s-1.08,1.3-1.58,2c-0.72.85-1.29,1.76-1.94,2.61-1,1.3-1.94,2.61-2.8,4A27.82,27.82,0,0,0,292.83,53l-0.72,1.17c-0.22.39-.29,0.85-0.5,1.24a15.09,15.09,0,0,0-1.65,5.8,12.05,12.05,0,0,0,.14,3.2,0.88,0.88,0,0,0,.07.59,1.17,1.17,0,0,1,.43.59,2,2,0,0,0,.72,1c0.57,0.52,1.36,1.5,2.22,1.63a6,6,0,0,0,1,.33,8.93,8.93,0,0,0,1.29.2,13.69,13.69,0,0,0,1.43-.26,7.65,7.65,0,0,0,1.15-.33l0.72-.33a5.14,5.14,0,0,1,.93-0.78,2,2,0,0,0,.79-1,5.52,5.52,0,0,0,.72-1c0.07-.26-0.07-0.52,0-0.72s0.14-.26.14-0.46c-0.07-.46-0.65,0-0.72.13a2.79,2.79,0,0,0-.14,1.11,8.22,8.22,0,0,1-.65,1,0.62,0.62,0,0,1-.36.46,1.86,1.86,0,0,0-.43.33,4.41,4.41,0,0,1-1,.65c-1.58.85-4.45,0.85-5.31-.85a1.68,1.68,0,0,1-.36-0.59l-0.14-.52a4.46,4.46,0,0,1-.14-1.37c0.07-1,.22-2,0.36-2.94a16,16,0,0,1,1-3.13,10.53,10.53,0,0,1,.5-1.37c0.07-.33.43-0.65,0.5-1a6.46,6.46,0,0,1,1.29-2.48c0.29-.39.36-0.85,0.65-1.17l0.79-1.17c1.08-1.83,2.37-3.59,3.66-5.35a9.57,9.57,0,0,0,.79-1.44c0.14-.2.43-0.33,0.57-0.52l0.43-.85,0.72-1.11C304.59,40.18,305.53,38.42,304.88,36.79Zm-25,8.74c0-.39.72-0.78,0.72-1.37V44c0.36,0.2.14-.2,0.5-0.2h0.07a0.79,0.79,0,0,1,.57-0.78,7.48,7.48,0,0,1,1.58-2.09V40.57c0.14,0,.36-0.06.57-0.06s0.14,0.06.14,0.2a2.26,2.26,0,0,0-.43.59c0,0.78-1.22,1-1.22,2a0.26,0.26,0,0,0-.21.13c-0.22.2-2.22,2.15-2.3,2.35v-0.2Zm-13.56-3.07a3,3,0,0,1-.72,1.3l-0.36.2a12.17,12.17,0,0,1-1.94,1.89C263.49,45.07,265.36,42.66,266.29,42.46Zm-35.87,5.09a0.17,0.17,0,0,1-.22-0.13,2.79,2.79,0,0,1-.14-1.11,2.73,2.73,0,0,1,.65-2c0.36-2,1.15-2.41,2.08-4l0.22-.59,0.36-.13a6.29,6.29,0,0,0,.65-0.78c0.14-.06.43-0.06,0.43-0.26V38.48h0.22a2.8,2.8,0,0,1,1.29.52v0.78a2.21,2.21,0,0,1-.29,1.17l-0.22.13a4.39,4.39,0,0,1-.57,1.17C234.44,43,231.07,47.55,230.42,47.55Zm14-10.83-0.22.39c-0.36-.2,0-1.37,0-1.7a2,2,0,0,1,.86-1.56c0.93-.59.5,1,0.36,1.3A7.4,7.4,0,0,1,244.41,36.72Zm7,22.57L249.86,62l-0.36.13,0.14,0.2-0.36.2a8.34,8.34,0,0,1-2.08,3,0.37,0.37,0,0,0-.07.26c-0.36.59-1.15,1-1.36,1.5l-0.07.33a9,9,0,0,0-1.94,2l-0.57.33v0.19l-0.43.2c-0.22.2-.43,0.59-0.79,0.91a1.81,1.81,0,0,0-.65.2v0.26c-0.65.65-4.38,3-5.24,3a4.06,4.06,0,0,1-1.08-.33,0.58,0.58,0,0,0-.14-0.46l-0.22-.2c0-.52.36-1.11,0.43-1.7l0.36-.13a9.31,9.31,0,0,1,1.22-2.15l-0.14-.2,0.36-.13,0.07-.2,0.79-1c0.22-.39.79-0.52,1-0.91V66.85a5,5,0,0,0,1.15-1.3l0.22-.07,0.14-.2c0.65-.33,1.29-1.43,2.08-1.63,0.07-.59.93-0.65,1.08-1.37,1.43-.39,2.15-1.5,3.37-2.09a64,64,0,0,1,5.6-3.39h0.22c0-.07.22-0.2,0.22-0.26s0.21,0,.21.07A21,21,0,0,1,251.37,59.29ZM269.3,47.65a0.16,0.16,0,0,0-.07,0l0.14-.33,0.05,0.11Zm18.35-.27,0-.09,0,0Z"/><path class="cls-1" d="M159.91,24c-0.13-.3-0.27-0.61-0.42-0.91a4.58,4.58,0,0,0-.49-0.78l-1-1.43a7.39,7.39,0,0,0-4.5-2.8,10.83,10.83,0,0,0-1.4-.16,4.47,4.47,0,0,0-1.4.16l-1.44.33a3.75,3.75,0,0,0-.65.2l-0.65.26a6.18,6.18,0,0,0-2.28,1.08q-1,.75-2.09,1.53l-0.62.39a1.61,1.61,0,0,0-.49.52,1.75,1.75,0,0,1-.33.46,0.45,0.45,0,0,0-.07.52,0.4,0.4,0,0,0,.46-0.13l0.26-.39a1.44,1.44,0,0,1,.36-0.46l0.49-.39,2-1.44a5.44,5.44,0,0,1,1.21-.72l1.34-.59A11.14,11.14,0,0,1,151,18.4a4.74,4.74,0,0,1,2.8.23,10.51,10.51,0,0,0,1.11.39,1.79,1.79,0,0,1,1,.65,4.85,4.85,0,0,0,.81,1,7.42,7.42,0,0,1,.88,1,5.69,5.69,0,0,1,.72,1.17q0.26,0.59.52,1.3l0.39,1a2.22,2.22,0,0,1,0,.65,2.15,2.15,0,0,0,0,.65,11,11,0,0,1,.13,1.66v1.66a3.37,3.37,0,0,1-.07.65l-0.13.65a0.51,0.51,0,0,0,0,.36,0.25,0.25,0,0,1-.07.29A0.65,0.65,0,0,0,159,32l-0.1.29a6.48,6.48,0,0,1-.46,1.66q-0.33.75-.65,1.6a3.93,3.93,0,0,1-.65,1.11,4,4,0,0,0-.65.85,3.75,3.75,0,0,1-.85,1.21,4.4,4.4,0,0,0-.85,1.08,1.61,1.61,0,0,1-.49.52,2,2,0,0,0-.49.46,2,2,0,0,0-.29.55,0.91,0.91,0,0,1-.42.49,1.25,1.25,0,0,0-.49.52,2.26,2.26,0,0,1-.42.59l-1.11,1a5.49,5.49,0,0,1-1.14.88l-1.21.68q-0.65.39-1.27,0.68l-1.27.62a7.09,7.09,0,0,1-1.4.52l-0.15,0,0-.16-0.58.23h-0.2l0,0.06-0.41.13a6.74,6.74,0,0,1-1.56.46,0.79,0.79,0,0,0-.35.15c-0.21.07-.43,0-0.64,0.09a8.17,8.17,0,0,1-1.63.66c0.27-.62.68-1.1,0.88-1.65L140.8,46c0.07-.14.28-0.21,0.35-0.35a2.07,2.07,0,0,1,.2-0.61,11.51,11.51,0,0,1,.75-1.24A15.92,15.92,0,0,1,144.54,42l1.19-1a1.47,1.47,0,0,1,.56-0.29,1.4,1.4,0,0,0,.42-0.49c0.63-.63,1.48-0.86,2-1.75l0.49-.56a2.12,2.12,0,0,1,0-.68,0.91,0.91,0,0,0,.06-0.66,0.64,0.64,0,0,0-.24-0.28c-1.83-1-4.26,1.29-5.37,2.47a42.89,42.89,0,0,0-4.66,5.35c-0.17.26-.33,0.53-0.48,0.8l-0.28.22a1.49,1.49,0,0,1-.34.15,0.69,0.69,0,0,0-.26.19,3,3,0,0,1-.41.33c-0.14.1-.27,0.19-0.41,0.28s-0.38.25-.55,0.39a1.81,1.81,0,0,0-.25.23,1.5,1.5,0,0,1-.17.25c-1,.43-4.34,2.39-5.06,2.45a1,1,0,0,1-.58-0.07,2.36,2.36,0,0,1,.72-1.75c0.27-1.07,1.37-1.8,1.86-2.77l0.21-.13a41.52,41.52,0,0,0,3.81-5.37l0-.23,0.21-.13,0.11-.42c0.13-.49.34-0.94,0.43-1.45a1.94,1.94,0,0,0,0-1.41,1.52,1.52,0,0,0-1.11-.18,2.12,2.12,0,0,0-.76.84c-0.21.38-.39,0.78-0.6,1.17a20.39,20.39,0,0,1-1.68,2.55c-0.18.24-.42,0.46-0.6,0.71s-0.23.42-.36,0.6a2.47,2.47,0,0,0-.4.59,6,6,0,0,1-.67.85c-0.27.44-.51,0.9-0.77,1.35a14.3,14.3,0,0,1-.85,1.31c-0.15.2-.31,0.39-0.47,0.58h-0.09a0.38,0.38,0,0,0-.26.34l-0.08.08c-0.22.11-.53,0.11-0.6,0.17s-0.21.39-.43,0.59a3.49,3.49,0,0,1-.79.65l-0.22.39-0.36.07-0.21.33c-1.15,1.17-5.09,3.52-7,3.52-1.36,0-1.87-.46-1.87-1.63s0.65-3.72,1.36-4.3a14.35,14.35,0,0,0,3-.59,5.77,5.77,0,0,1,1.58-1.17,12.09,12.09,0,0,1,1-.78l0.14-.2a1.52,1.52,0,0,0,.5-0.33A0.25,0.25,0,0,0,125,43l0.43-.33a3.64,3.64,0,0,0,.43-0.52l0.43-.2v-0.2h0.22a29.26,29.26,0,0,1,2.15-2.54,7.69,7.69,0,0,0,.86-2c0-.26-0.07-0.46-0.07-0.78-0.57-.06-0.57-0.65-1.51-0.65-1.58,0-4.09,1.43-5.38,2.28A8.7,8.7,0,0,1,121,39.2c-1.87,1.57-2.94,2.74-5.24,6.26a6,6,0,0,0-.79,2.62,12.48,12.48,0,0,1-2.15,1.62,2.89,2.89,0,0,1-.65.72l-0.43.07v0.2a15.21,15.21,0,0,0-2.94,1.5c-0.43-.13-1.29.52-1.94,0.52a3.61,3.61,0,0,1-.79-0.33l0.22-.2c0.57-.39,1.08-1.3,1.51-1.5,1.22-.59,2.08-3.46,2.65-4.83,0.65-1.89,1.29-6.59,2.3-8l0.43-.33c0.22-.2.22-0.39,0.43-0.59a11.29,11.29,0,0,0,.93-0.91,5.91,5.91,0,0,0,1-2.28l-0.07-.26a2.57,2.57,0,0,0-2.73,0l-0.22.26h-0.22c-0.5,1-1.43,1.63-1.79,2.61a30.7,30.7,0,0,0-1.51,4c-1,.59-2,1.24-3,1.83-0.14.13-.22,0-0.36,0.13l-0.07.39a2.47,2.47,0,0,0-1.29,1l-0.43.2a22.27,22.27,0,0,0-2.44,2.46,3.1,3.1,0,0,0-.57.54c-0.22.06-.29,0.26-1.29,1.5-0.43.46-.72,1-1.22,1.43l-1.79,1.5a3.92,3.92,0,0,1-1.65.85c-0.36.06-.65,0.33-1,0.39s-0.57-.07-0.79,0c-1-.46-0.65-2.48-0.5-3.26A10.49,10.49,0,0,1,93,47.94a10.67,10.67,0,0,1,.36-1.43,10.07,10.07,0,0,1,1.08-2.35A4,4,0,0,0,95,42.92a4.87,4.87,0,0,1,.5-1.3c0.29-.65.72-1.3,1.08-2a2.77,2.77,0,0,0,.57-1,3.24,3.24,0,0,1,.43-0.85,1.91,1.91,0,0,0,.21-0.59A0.39,0.39,0,0,0,98,37c0.07-.39.57-0.59,0.65-1A10.35,10.35,0,0,1,99.86,34c0.36-.46.57-1.37,1.08-1.63a7.55,7.55,0,0,1,1.72,0c0.5,0,.93-0.13,1.44-0.13a19.26,19.26,0,0,0,2.65-.59,17.58,17.58,0,0,0,5.09-2.28,25.55,25.55,0,0,0,2.22-1.5l0.65-.39a2.89,2.89,0,0,0,.86-0.72c0.57-.46,1.15-0.65,1.65-1.11a7.32,7.32,0,0,1,1-1,2,2,0,0,0,.86-0.85,11.15,11.15,0,0,1,.93-0.91c0.36-.39.57-0.72,0.93-1a4.11,4.11,0,0,0,.93-1,2,2,0,0,1,.29-0.39,1.48,1.48,0,0,0,.65-0.65l0.43-.65,0.65-.72a5.53,5.53,0,0,1,.65-0.91,4.76,4.76,0,0,0,.65-0.85,10.83,10.83,0,0,1,.72-1.24,5,5,0,0,1,.57-1,1.14,1.14,0,0,0,.14-0.52l0.29-.52a3,3,0,0,0,.14-0.85c0-.13.14-0.26,0.14-0.39a3.22,3.22,0,0,0,0-1.17A1.62,1.62,0,0,0,126,9.66c-1.72-.78-3.44-0.33-5.17.2a13,13,0,0,0-2.51,1.3l-1.22.85a4.36,4.36,0,0,0-.93.59,2.94,2.94,0,0,1-.93.65l-1.22,1A27.57,27.57,0,0,0,111.92,16a57.45,57.45,0,0,0-4.09,4c-0.86,1-2,2.15-2.94,3.26L103.38,25a24.07,24.07,0,0,1-1.58,1.89,6.71,6.71,0,0,0-.86,1,3.4,3.4,0,0,0-.43.65,26.48,26.48,0,0,1-1.79,2.48c-0.36.52-.5,0.46-1.22,0.39l-1.58-.13A26.89,26.89,0,0,0,92.69,31a12.14,12.14,0,0,0-3.44.2,8.39,8.39,0,0,0-2.51,1,7.11,7.11,0,0,0-.72.78,1.68,1.68,0,0,0-.65.78c0,0.46.65,0.13,0.79-.07l0.65-.72a5.53,5.53,0,0,1,2.37-1.3,2.61,2.61,0,0,1,1.22-.13c0.5,0.07,1-.13,1.51-0.06s1.08-.07,1.65,0a9.75,9.75,0,0,0,1.36.13,6.66,6.66,0,0,0,1.58.26,6.09,6.09,0,0,1,1.58.2c-0.29.52-.79,1-1.08,1.56a6.43,6.43,0,0,0-.86,1.5c-0.14.46-.57,0.72-0.72,1.17a2.34,2.34,0,0,1-.5.91c-0.5-1.7-4-.59-5.09,0s-2.37,1.57-3.37,2.28a17.33,17.33,0,0,0-3.37,3.33,14.19,14.19,0,0,0-.93,1.24,4.19,4.19,0,0,0-.65,1.24,10.23,10.23,0,0,1-.65,1.24l0,0.11,0,0v0.12l-0.2-.18c-0.22.2-.22,0.46-0.43,0.65l-0.22.13a1.15,1.15,0,0,1-.79.78l-0.07.39a3.21,3.21,0,0,1-.57.2,6.91,6.91,0,0,1-1.08,1.3,0.74,0.74,0,0,0-.57.39v0.13c-0.29-.13-0.22.07-0.43,0.2H76.19c-1.51.85-2.58,1.7-4.59,1.89A2.15,2.15,0,0,1,71.38,52a20,20,0,0,1,1.51-3.46,17.23,17.23,0,0,0,1.36-2.09c1.87-2.61,4.23-5,5.24-8a8.64,8.64,0,0,0,.22-2l-1-.78H78.27c-1.44-.13-3.16.85-4.38,1.43a7.7,7.7,0,0,0-1.72,1.63,0.72,0.72,0,0,0-.43.06v0.2a9.51,9.51,0,0,0-2.22,1.83v0.2H69.3a10.74,10.74,0,0,0,1.22-1.89,4.1,4.1,0,0,0,1.29-1.37A1.23,1.23,0,0,0,72,37.11c0-.2-0.07-0.39-0.07-0.72a6.67,6.67,0,0,0-1.22-.26c-0.07,0-.36.06-0.43,0.06-0.65.2-3.52,3.91-3.8,4.7L66.29,41c-0.36.52-.79,1.89-1,2.28-0.07.2-.36,0.2-0.43,0.39l-1.08,1.63c-0.21.26-.57,0.39-0.79,0.65l-0.58.66c-0.73.28-.92,1.07-1.64,1.43a9,9,0,0,1-2.15,1.7,5.73,5.73,0,0,1-.65.72l-0.43.07v0.2a15.18,15.18,0,0,0-2.94,1.5c-0.43-.13-1.36.52-2,0.52-0.29,0-1.36.07-1.36-.72,0.22-.91.86-1.5,0.93-2.28A14.48,14.48,0,0,0,54,47.22V47.09a9.46,9.46,0,0,0,.86-0.78,3.43,3.43,0,0,1,.07-0.46l0.43-.2a1,1,0,0,1,.22-0.59,3.19,3.19,0,0,1,.79-0.85V44l0.22-.13v-0.2l0.36-.07A6.92,6.92,0,0,1,58,42.27c0.07-.2,0-0.33.07-0.52l0.43-.2V41.29l0.21-.13a20.3,20.3,0,0,0,1.44-2,6.33,6.33,0,0,0,1.29-1.37,1.19,1.19,0,0,0,.14-0.72V36.4a8.21,8.21,0,0,0-1.22-.26c-0.21,0-.29.06-0.43,0.06-0.72.2-6.53,7.43-7,8.22l-0.57.52a0.8,0.8,0,0,1-.5.72,16,16,0,0,1-2,3.52,20.91,20.91,0,0,0-.29,2.22c0.22,1.37,1.08,1.89,2.94,1.89,1.29,0,.72,0,1.22-0.39H54a11.93,11.93,0,0,1,2.3-1,1.61,1.61,0,0,0,.22-0.46c-0.07.07,0.14,0.07,0.21,0.07a0.77,0.77,0,0,0,.36-0.26L57,51.07c0.14,0,.22.13,0.36,0.13a0.26,0.26,0,0,1,.22-0.13,12,12,0,0,0,1.72-1.17,3.4,3.4,0,0,0,.36-0.72,0.44,0.44,0,0,1,.29.2,4.41,4.41,0,0,0,.89-0.75C59.87,49.91,59,51.28,59,52a1.61,1.61,0,0,0,.21.52c0.14,0,.5,0,0.5.2,1.29-.39,1.72-1.3,2.58-2.09A5.08,5.08,0,0,1,63,50.22V50l0.22-.13a5,5,0,0,1,1.44-1.5c0.21-.85,2.15-3.46,2.73-4.57a2.54,2.54,0,0,0,1.22-1c0.86-.78,2.73-3,3.59-3.26l0.07-.33h0.22l0.14-.2c0.43-.26.86-0.85,1.29-1.17,0.14-.06.36,0,0.57-0.06v-0.2c0.22-.52,3-1.3,3.8-1.3H78.7c-0.36,1.76-3.8,5.15-3.94,5.8-0.43.52-.86,0.91-1.29,1.5a0.54,0.54,0,0,1-.07.33,13.08,13.08,0,0,0-1,1,6,6,0,0,0-.43.91c-0.14.26-.43,0.39-0.57,0.65a2.54,2.54,0,0,1-.22.52L71,47.09l-0.22.72-0.43.33c0,0.07-.79,2.87-0.79,2.87,0,1,.14,1.89,1.22,2.35H71.1c1.36,0,4.3-1.5,5.52-2.15a0.14,0.14,0,0,0,.14-0.13c0-.07-0.14-0.2-0.14-0.26h0.14a1.09,1.09,0,0,0,.43-0.13c0.65-.39.86-1,1.51-1.3a1.45,1.45,0,0,0,.43-0.78l0.22,0.2c0-.07.36-0.39,0.36-0.46v-0.2a1.77,1.77,0,0,0,.78-0.67c-0.07.18-.15,0.36-0.2,0.54l-0.36,1.43c-0.14.39,0,.78-0.14,1.17a2.59,2.59,0,0,0,.57,2.22,2,2,0,0,0,1.51.46,4.43,4.43,0,0,0,1-.39,3.2,3.2,0,0,0,.79-0.52,3.08,3.08,0,0,0,.93-0.59,4,4,0,0,1,1.08-.59,3.91,3.91,0,0,1,.57-0.39c0.5-.52,1.22-0.91,1.79-1.43l0.43-.2c0.14-.13.07-0.26,0.21-0.39a4.58,4.58,0,0,0,1-1,3.49,3.49,0,0,0,.79-1.17A1.66,1.66,0,0,1,91.18,46a4.78,4.78,0,0,0-.36.91,2.54,2.54,0,0,0-.29,1,6,6,0,0,0-.14,2A4.22,4.22,0,0,0,91,51.72a1.88,1.88,0,0,1,.5.78l0.72,0.39a2.41,2.41,0,0,0,2,.13,5.39,5.39,0,0,0,2-.85c0.43-.33.93-0.59,1.36-1a8.91,8.91,0,0,0,1.22-1l0.5-.52c0.22-.2.36-0.52,0.65-0.85s0.72-.91,1.29-1.37c0-.37.72-0.69,0.78-1.06l0.94-.9,0.14-.26c1.65-.91,3.87-3.13,5.38-3.52-0.29,1.7-2.08,9.33-4.59,9.33-0.72,0-1.36-.52-2.15-0.52-1.22,0-3.16.13-3.16,1.57s2.15,1.89,3.37,1.89a5.82,5.82,0,0,0,3.37-1,2.59,2.59,0,0,0,1.43.39c1.29,0,.79,0,1.22-0.39h0.29a11.93,11.93,0,0,1,2.3-1,1.61,1.61,0,0,0,.22-0.46c0,0.07.14,0.07,0.21,0.07a0.76,0.76,0,0,0,.36-0.26l-0.14-.13c0.14,0,.22.13,0.36,0.13a0.26,0.26,0,0,1,.22-0.13,8.93,8.93,0,0,0,1.72-1.17,3.3,3.3,0,0,0,.36-0.72,0.44,0.44,0,0,1,.29.2A3.69,3.69,0,0,0,115,48.7c0,0.37,0,.73,0,1.06l1.43,2c1.08,0.39,1.72,1,3.16,1s1.58-.72,2.8-0.91a1.24,1.24,0,0,0,.14-0.45,0.44,0.44,0,0,0,.29,0,1.56,1.56,0,0,1,.36-0.33l0.07,0.2a1,1,0,0,1,.36-0.2,22.57,22.57,0,0,1,1.94-1.3l0.14-.07c0-.2-0.22-0.39.07-0.52a0.22,0.22,0,0,1,.22.2c0.22,0,1.58-1.44,2.22-1.57a0.31,0.31,0,0,0-.21-0.2V47.29a0.93,0.93,0,0,1,.29.33,1.12,1.12,0,0,1,.43-0.52,12.61,12.61,0,0,0-.21,1.62c0.07,0.92.85,0.69,1.11,1.25,0.29,0,.65.06,1,0a1.56,1.56,0,0,0,1.32-.63,1.83,1.83,0,0,1,.37-0.07l0.36-.1a4.74,4.74,0,0,0,.65-0.27c0.39-.2.75-0.44,1.12-0.68a7,7,0,0,1,.85-0.48,3.83,3.83,0,0,1,.47-0.18,0.54,0.54,0,0,0,.2-0.09,1.37,1.37,0,0,1,.2-0.11c0.15-.08.28-0.2,0.43-0.28a2.62,2.62,0,0,1,.51-0.25,2.25,2.25,0,0,0,.27-0.08,0.52,0.52,0,0,1,.18-0.07h0.06a11,11,0,0,1-.58,1,15.85,15.85,0,0,1-1.53,2.51,10.52,10.52,0,0,1-1.35.45,13.47,13.47,0,0,0-1.56.46,5.58,5.58,0,0,0-1.49.52c-0.92.43-1.92,0.67-2.91,1a20.88,20.88,0,0,0-2.83,1.24,25.43,25.43,0,0,0-5.3,2.61c-0.84.63-1.83,1.14-2.67,1.78s-1.67,1.47-2.52,2.11a10.47,10.47,0,0,1-.91.7c-0.28.21-.34,0.48-0.62,0.7a6.67,6.67,0,0,0-2.09,2.09,3,3,0,0,1-.55.76,9.71,9.71,0,0,0-.83.9c-0.27.41-.4,0.89-0.68,1.24l-0.61,1c-0.74,1.38-1.55,3-1.07,4.63,0.24,0.8.5,2,1.3,2.46a4.23,4.23,0,0,0,3,.51l1.86-.33a2.61,2.61,0,0,0,1-.44c0.14-.07-0.15-0.13.21-0.21a1.56,1.56,0,0,0,.78-0.3c0.56-.36,1.13-0.64,1.69-0.93a25.19,25.19,0,0,0,4.64-2.92c0.7-.5,1.33-1.06,2-1.62l0.91-.77,0.69-.77c0.76-.9,1.67-1.74,2.43-2.65a13.9,13.9,0,0,1,1.66-1.88,16.28,16.28,0,0,0,2.14-2.77,7.92,7.92,0,0,0,1-1.12l0.34-.69c0.89-1.18,1.86-2.36,2.68-3.67,0.76-1,1.36-2.21,2-3.31,0.27-.41.6-1.3,1.1-1.39a10.82,10.82,0,0,1,1.35-.52,10.79,10.79,0,0,0,2.84-1,9.81,9.81,0,0,1,1.29-.28v0c1.93-.37,3.58-1.69,5.47-2.26a1.67,1.67,0,0,0,.19-0.16,11.33,11.33,0,0,1,1-.82,7.43,7.43,0,0,0,1-.88l2.22-2.09,1-1.11a1.17,1.17,0,0,1,.33-0.33,1,1,0,0,0,.33-0.39,7.86,7.86,0,0,1,.55-0.95l0.62-.88,0.2-.2,0.2-.2a0.58,0.58,0,0,0,.16-0.29,1.09,1.09,0,0,1,.1-0.29l0.72-1a7.41,7.41,0,0,0,.68-1.3,12.48,12.48,0,0,0,.49-1.43,8.88,8.88,0,0,0,.52-1.5q0.2-.78.33-1.57a13.81,13.81,0,0,0,.16-3.16A6.84,6.84,0,0,0,159.91,24ZM147.54,37.22c0.28-.14.49-0.42,0.78-0.16a0.74,0.74,0,0,1,0,.67,3,3,0,0,1-1.24,1.53c-0.7.5-1.4,1.13-2,1.62l-1.68,1.2C143.17,42,147.05,37.57,147.54,37.22Zm-25.73,4.07H122a2.06,2.06,0,0,1,.72-0.78v-0.2h0.36a3.75,3.75,0,0,0,.43-0.72,26,26,0,0,1,3-2.48l0.72-.2,0.86-.59a1.57,1.57,0,0,1,.72.78,9.61,9.61,0,0,1-1.08,2.28l-0.5.26c-0.36.33-.5,0.72-0.79,0.91a5.58,5.58,0,0,0-.22.59c-1,.33-1.72,1.89-2.3,1.89l-0.14.33-0.43.2-0.07.2a1.66,1.66,0,0,0-1,.78c-0.86.2-1.51,0.91-2.3,1.11-0.43.07-.72,0-1.15,0.07A16.87,16.87,0,0,1,121.81,41.29ZM113,36.72c0-1.11.93-1.89,1.29-3a0.15,0.15,0,0,0,.29-0.06,0.77,0.77,0,0,1,.36.26c0,1.24-1.29,2.09-1.94,3.07V36.72Zm-11-5.87a2.7,2.7,0,0,1,.5-0.72,2,2,0,0,0,.65-1,2.3,2.3,0,0,0,.65-0.78,5.87,5.87,0,0,1,.86-1,5.07,5.07,0,0,0,.79-1.17,19.1,19.1,0,0,1,1.58-2,2,2,0,0,0,.79-0.91,3.77,3.77,0,0,1,.86-1,5.39,5.39,0,0,1,.57-0.78c0.14-.13.22-0.33,0.43-0.52,0.57-.59,1.15-1.24,1.79-1.83a4.62,4.62,0,0,1,.79-0.85,5,5,0,0,0,.57-0.72,21.3,21.3,0,0,1,2.3-2l2.3-2,1.29-1,0.43-.46a1.58,1.58,0,0,0,.5-0.2l1.08-.78a3.53,3.53,0,0,0,.86-0.46,1.56,1.56,0,0,1,1-.46,7.26,7.26,0,0,1,1.08-.39,5.09,5.09,0,0,1,2.44.46,1.75,1.75,0,0,1,.5,1.89,7.77,7.77,0,0,1-.36,1.37,3.78,3.78,0,0,1-.5,1.24c-0.29.33-.36,0.72-0.65,1a12.68,12.68,0,0,0-.86,1.24,9,9,0,0,1-.72,1l-0.43.52a1.87,1.87,0,0,1-.57.72c-0.14.13-.14,0.26-0.29,0.39s-0.29.26-.36,0.39c-0.65.78-1.36,1.5-2.08,2.22A22.78,22.78,0,0,1,116,25.83c-0.79.59-1.44,1.17-2.22,1.7l-1,.59a5.26,5.26,0,0,1-1.22.91,18.25,18.25,0,0,1-4.81,2.09,1.45,1.45,0,0,1-.57.2,0.93,0.93,0,0,0-.57.13,3.12,3.12,0,0,1-1.36.2,14.78,14.78,0,0,1-2.94.2C101.44,31.44,101.8,31.18,101.94,30.85Zm-39.6,16.7a1.71,1.71,0,0,1-.65,1c-0.43,1.17-1.44,2.09-1.94,3.13l-0.14-.2c0.22-1.17,2.08-2.87,2.72-4h0v0.13Zm29.34-3.26a4.93,4.93,0,0,1-.93,1.17,20.24,20.24,0,0,0-1.51,1.89,19.2,19.2,0,0,1-2.08,2,8.86,8.86,0,0,0-.93.72,5.68,5.68,0,0,1-1.08.65c-0.86.46-1.65,1.11-2.58,1.56l-0.43.26c-0.93.39-.29-1.5-0.21-1.76,0.36-.85.5-1.76,0.93-2.61s0.5-1.83,1.15-2.35c0.29-.33.22-0.72,0.5-1A6,6,0,0,1,85.09,44c0.36-.39.5-0.85,0.86-1.24l0.86-1.24a13.06,13.06,0,0,1,1.87-2,3.91,3.91,0,0,0,.5-0.52l0.57-.46a5.28,5.28,0,0,1,1-.78A5.05,5.05,0,0,1,93.12,37c2.22-.07.5,2.74,0.14,3.52-0.21.39-.29,0.85-0.5,1.17a4.75,4.75,0,0,0-.57,1.24C92,43.37,91.9,43.9,91.69,44.29Zm9.76,9c-0.93,0-2.22-.2-2.22-1.24,0-.85,1.22-1,1.94-1a11,11,0,0,1,2.65.39l0.36,0.39C103.88,52.51,101.94,53.29,101.44,53.29Zm32.81-1.18-0.82,1.38L131.86,56c-1.16,1.73-2.4,3.52-3.71,5.19a53.28,53.28,0,0,1-7.27,8.14,32,32,0,0,1-4.14,3c-1.76,1.21-3.94,2.56-6.16,2.5a2.4,2.4,0,0,1-2.2-1.42,12.68,12.68,0,0,1-.27-1.61,3.73,3.73,0,0,1,0-1.56,9.62,9.62,0,0,0,.66-1.85,5.8,5.8,0,0,0,.89-1.38l0.68-1.24a3,3,0,0,0,1-1A1.42,1.42,0,0,1,112,64a5.16,5.16,0,0,1,.83-0.91,26.7,26.7,0,0,1,2.51-2.38,38.46,38.46,0,0,1,5.89-4.25,42.44,42.44,0,0,1,5.37-2.54c0.64-.29,1.35-0.52,2.06-0.81a13.58,13.58,0,0,1,1.49-.59l0.64-.16a1.12,1.12,0,0,0,.57-0.29,11.55,11.55,0,0,1,1.63-.53,8.08,8.08,0,0,1,2.06-.68A5.77,5.77,0,0,0,134.25,52.11Z"/><path class="cls-1" d="M80.79,81q0.29,0,.29.43a2.5,2.5,0,0,1-.34,1.17,3.78,3.78,0,0,1-1,1.19l-0.09.11,1.19,0a0.42,0.42,0,0,1,.39.1c0,0.08-.13.13-0.39,0.16l-1.17.08c-0.07,0-.11,0-0.11,0a0.31,0.31,0,0,0,.12.09,2.29,2.29,0,0,1,.39.28,3,3,0,0,1,.72.93,2.3,2.3,0,0,1,.25,1,0.45,0.45,0,0,1-.12.32,0.36,0.36,0,0,1-.27.13,0.28,0.28,0,0,1-.26-0.19,4.29,4.29,0,0,0-.23-0.42l-0.27.43a0.36,0.36,0,0,1-.3.21,0.31,0.31,0,0,1-.22-0.1,0.31,0.31,0,0,1-.1-0.22,1.47,1.47,0,0,0,.11-0.44,5.62,5.62,0,0,0,.11-1.15,0.94,0.94,0,0,0-.07-0.39,0.2,0.2,0,0,0-.15-0.15,0.16,0.16,0,0,0-.14.09l0,0.21a2,2,0,0,1-.25.53,2.6,2.6,0,0,1-.85.83,1.92,1.92,0,0,1-1,.3,0.24,0.24,0,0,1-.29-0.24,0.21,0.21,0,0,1,.14-0.2A0.2,0.2,0,0,0,77,86c0-.07-0.08-0.11-0.25-0.11H76.6q-0.42,0-.42-0.28a0.29,0.29,0,0,1,.09-0.22,0.33,0.33,0,0,1,.24-0.09l0.14,0,0.21,0a3.36,3.36,0,0,0,1.53-.3,0.81,0.81,0,0,0,.56-0.7c0-.08,0-0.12-0.07-0.12a0.31,0.31,0,0,0-.13.09,1.66,1.66,0,0,1-.24.18,2.94,2.94,0,0,1-.85.3,5.32,5.32,0,0,1-1.23.15,0.82,0.82,0,0,1-.4-0.09,0.24,0.24,0,0,1-.16-0.18A0.37,0.37,0,0,1,76,84.42a0.71,0.71,0,0,0,.2-0.19l-0.16,0-0.26,0-0.18,0a0.36,0.36,0,0,1-.22-0.07,0.2,0.2,0,0,1-.1-0.16c0-.16.12-0.24,0.36-0.24l0.22,0h0.33a0.82,0.82,0,0,0-.2-0.2,0.29,0.29,0,0,1-.14-0.19c0-.13.17-0.21,0.51-0.25,0.11,0,.35,0,0.7,0a3.64,3.64,0,0,1,1.82.61,0.09,0.09,0,0,0,0-.1,0.66,0.66,0,0,0-.43-0.61,3.89,3.89,0,0,0-1.33-.28H76.69c-0.38,0-.57-0.11-0.57-0.34a0.21,0.21,0,0,1,.15-0.2,2.47,2.47,0,0,1,.45-0.07,1.06,1.06,0,0,0,.41-0.07A0.13,0.13,0,0,0,77,82l-0.29-.1a0.19,0.19,0,0,1-.11-0.18,0.26,0.26,0,0,1,.12-0.21A0.46,0.46,0,0,1,77,81.44a1.86,1.86,0,0,1,.93.31A2.25,2.25,0,0,1,79,82.91c0,0.11.05,0.21,0.08,0.32a0.52,0.52,0,0,0,.15.28h0a0.26,0.26,0,0,0,.16-0.19,1.18,1.18,0,0,0,.08-0.45,5.77,5.77,0,0,0-.07-0.81,5.47,5.47,0,0,1-.07-0.62,0.31,0.31,0,0,1,.34-0.36,0.45,0.45,0,0,1,.35.34l0.07,0.19a0.07,0.07,0,0,0,0,.05,0.23,0.23,0,0,0,.17-0.15c0.05-.12.11-0.25,0.15-0.37A0.32,0.32,0,0,1,80.79,81Zm2.32,2.67a0.48,0.48,0,0,0-.21.38,0.44,0.44,0,0,0,.19.32,0.56,0.56,0,0,0,.35.16,0.59,0.59,0,0,0,.41-0.17A0.51,0.51,0,0,0,84,83.93a0.46,0.46,0,0,0-.16-0.32,0.44,0.44,0,0,0-.31-0.16A0.71,0.71,0,0,0,83.11,83.62ZM234.3,81.15c0,0.13.1,0.25,0.15,0.37a0.24,0.24,0,0,0,.17.15,0.07,0.07,0,0,0,0-.05l0.07-.19a0.45,0.45,0,0,1,.35-0.34,0.31,0.31,0,0,1,.34.36,5.18,5.18,0,0,1-.07.62,6.07,6.07,0,0,0-.07.81,1.18,1.18,0,0,0,.08.45,0.26,0.26,0,0,0,.15.19h0a0.52,0.52,0,0,0,.15-0.28c0-.11.06-0.21,0.08-0.32a2.24,2.24,0,0,1,1.07-1.16,1.86,1.86,0,0,1,.93-0.31,0.46,0.46,0,0,1,.28.09,0.26,0.26,0,0,1,.12.21,0.19,0.19,0,0,1-.11.18l-0.29.1a0.13,0.13,0,0,0-.11.08,1.06,1.06,0,0,0,.41.07,2.51,2.51,0,0,1,.45.07,0.21,0.21,0,0,1,.15.2c0,0.23-.19.34-0.57,0.34h-0.52a3.89,3.89,0,0,0-1.33.28,0.66,0.66,0,0,0-.43.61,0.09,0.09,0,0,0,0,.1,3.64,3.64,0,0,1,1.82-.61c0.35,0,.58,0,0.7,0,0.34,0,.51.12,0.51,0.25a0.29,0.29,0,0,1-.14.19,0.84,0.84,0,0,0-.2.2h0.33l0.22,0c0.24,0,.36.08,0.36,0.24a0.2,0.2,0,0,1-.1.16,0.37,0.37,0,0,1-.22.07l-0.18,0-0.26,0-0.16,0a0.71,0.71,0,0,0,.2.19,0.37,0.37,0,0,1,.18.26,0.24,0.24,0,0,1-.16.18,0.83,0.83,0,0,1-.4.09,5.33,5.33,0,0,1-1.23-.15,2.91,2.91,0,0,1-.85-0.3,1.66,1.66,0,0,1-.24-0.18,0.34,0.34,0,0,0-.13-0.09s-0.07,0-.07.12a0.81,0.81,0,0,0,.56.7,3.36,3.36,0,0,0,1.53.3l0.21,0,0.14,0a0.33,0.33,0,0,1,.24.09,0.29,0.29,0,0,1,.1.22q0,0.28-.42.28H238c-0.16,0-.25,0-0.25.11a0.19,0.19,0,0,0,.15.16,0.21,0.21,0,0,1,.14.2,0.24,0.24,0,0,1-.29.24,1.91,1.91,0,0,1-1-.3,2.61,2.61,0,0,1-.85-0.83,2,2,0,0,1-.24-0.53l0-.21a0.17,0.17,0,0,0-.14-0.09,0.21,0.21,0,0,0-.16.15,1,1,0,0,0-.07.39,5.7,5.7,0,0,0,.11,1.15,1.48,1.48,0,0,0,.11.44,0.35,0.35,0,0,1-.32.32,0.36,0.36,0,0,1-.3-0.21l-0.27-.43a4.35,4.35,0,0,0-.23.42,0.29,0.29,0,0,1-.26.19,0.36,0.36,0,0,1-.26-0.13,0.44,0.44,0,0,1-.12-0.32,2.29,2.29,0,0,1,.25-1,3,3,0,0,1,.72-0.93,2.25,2.25,0,0,1,.39-0.28,0.29,0.29,0,0,0,.12-0.09s0,0-.11,0L234,84.15c-0.26,0-.39-0.09-0.39-0.16a0.41,0.41,0,0,1,.39-0.1l1.19,0-0.09-.11a3.79,3.79,0,0,1-1-1.19,2.47,2.47,0,0,1-.34-1.17c0-.29.1-0.43,0.29-0.43A0.32,0.32,0,0,1,234.3,81.15Zm-3.07,2.3a0.44,0.44,0,0,0-.31.16,0.46,0.46,0,0,0-.16.32,0.51,0.51,0,0,0,.18.38,0.59,0.59,0,0,0,.41.17,0.56,0.56,0,0,0,.35-0.16A0.44,0.44,0,0,0,231.9,84a0.48,0.48,0,0,0-.21-0.38A0.71,0.71,0,0,0,231.23,83.45Z"/><path class="cls-1" d="M96.19,81.3a0.28,0.28,0,0,1,.14-0.06l0.19,0h0.42a0.2,0.2,0,0,1,.05.1,1.06,1.06,0,0,1,0,.13,1.12,1.12,0,0,0,0,.13,0.2,0.2,0,0,0,.05.1,0.1,0.1,0,0,1-.06.11,0.16,0.16,0,0,0-.09.08,1,1,0,0,1,.08.32,0.8,0.8,0,0,1,0,.31,0.48,0.48,0,0,1-.15.23,0.41,0.41,0,0,1-.28.09,0.63,0.63,0,0,1-.16-0.18l-0.14-.24-0.14-.24A0.67,0.67,0,0,0,95.94,82a0.45,0.45,0,0,0-.25-0.07,0.72,0.72,0,0,0-.34.09,0.52,0.52,0,0,0-.18-0.1,0.47,0.47,0,0,0-.18,0l-0.2,0H94.56a0.5,0.5,0,0,0-.23.34,1.69,1.69,0,0,0,0,.44c0,0.16,0,.31,0,0.46a0.71,0.71,0,0,1-.06.38,0.18,0.18,0,0,0,.09.09,0.12,0.12,0,0,1,.07.11h0.6a0.49,0.49,0,0,0,.28.09,0.61,0.61,0,0,0,.26-0.06,0.81,0.81,0,0,0,.21-0.15L96,83.42a0.05,0.05,0,0,0,0-.06l0,0,0,0a0.06,0.06,0,0,1,0-.06A0.32,0.32,0,0,1,96,83.16a0.57,0.57,0,0,1,.21,0,0.41,0.41,0,0,1,.2,0,0.28,0.28,0,0,1,.13.14,1.08,1.08,0,0,0-.08.35,3.19,3.19,0,0,0,0,.37c0,0.13,0,.25,0,0.38a2.84,2.84,0,0,1,0,.37l-0.26.16A0.7,0.7,0,0,1,96,85a1.21,1.21,0,0,0-.1-0.3,0.76,0.76,0,0,0-.19-0.25,0.55,0.55,0,0,0-.27-0.13,0.51,0.51,0,0,0-.33.07,0.19,0.19,0,0,0-.13-0.09H94.74l-0.18,0-0.16,0-0.11.22c0,0.09,0,.19,0,0.29s0,0.21,0,.32a2.59,2.59,0,0,1,0,.34,1.21,1.21,0,0,1-.07.33,0.19,0.19,0,0,0,.07.14,0.48,0.48,0,0,0,.16.09,0.37,0.37,0,0,0,.18,0,0.25,0.25,0,0,0,.15-0.08,0.79,0.79,0,0,0,.21.06l0.28,0,0.28,0a0.48,0.48,0,0,0,.21-0.07,0.52,0.52,0,0,0,.41,0,0.78,0.78,0,0,0,.3-0.22,1.93,1.93,0,0,0,.22-0.33,2.18,2.18,0,0,1,.2-0.32,0.24,0.24,0,0,1,.25.07,0.5,0.5,0,0,1,.1.26,1.07,1.07,0,0,1,0,.32,1.09,1.09,0,0,1-.07.26,0.34,0.34,0,0,1,.08.16,0.6,0.6,0,0,1,0,.2,0.73,0.73,0,0,1-.06.19,0.27,0.27,0,0,1-.1.13,6.35,6.35,0,0,1-.91,0l-0.93,0-0.92,0a5.39,5.39,0,0,0-.86.05l-0.06,0a0.07,0.07,0,0,0,0,.06,0.29,0.29,0,0,0-.23-0.08,0.29,0.29,0,0,0-.23.08,0.08,0.08,0,0,0,0-.07l-0.09,0h-0.1a0.08,0.08,0,0,1-.06,0,0.3,0.3,0,0,1,0-.14l0-.11,0-.12a0.37,0.37,0,0,0,0-.16l0.29-.12a1.32,1.32,0,0,1,.31-0.1,0.59,0.59,0,0,1,0-.24l0-.21a0.87,0.87,0,0,0,0-.2,0.29,0.29,0,0,0-.07-0.19s0.06,0,.07,0a0.27,0.27,0,0,0,0-.07,0.26,0.26,0,0,1,0-.07s0,0,.07,0a1,1,0,0,1-.07-0.28,3.54,3.54,0,0,1,0-.37,2.61,2.61,0,0,1,0-.37,0.79,0.79,0,0,1,.08-0.27,0.26,0.26,0,0,1-.06-0.11,0.56,0.56,0,0,1,0-.16,0.52,0.52,0,0,1,0-.15,0.26,0.26,0,0,1,.06-0.11,0.27,0.27,0,0,1-.06-0.11,0.55,0.55,0,0,1,0-.31,0.27,0.27,0,0,1,.06-0.11,0.31,0.31,0,0,1-.06-0.13,0.83,0.83,0,0,1,0-.18c0-.07,0-0.14,0-0.21a1.21,1.21,0,0,0,0-.19,0.32,0.32,0,0,0-.16-0.09l-0.21,0-0.19-.06a0.18,0.18,0,0,1-.11-0.14,0.57,0.57,0,0,1,.11-0.25,0.45,0.45,0,0,1,.19-0.15,0.43,0.43,0,0,1,.24,0,0.6,0.6,0,0,1,.26.12,1.27,1.27,0,0,1,.54-0.14,5,5,0,0,1,.61,0l0.62,0a1.65,1.65,0,0,0,.57-0.07l0.16,0A0.17,0.17,0,0,1,96.19,81.3Zm13.54-.09,0.07,0.13a0.72,0.72,0,0,1,.06.16,0.47,0.47,0,0,1,0,.16,0.24,0.24,0,0,1-.07.15,0.9,0.9,0,0,0-.42.13,0.93,0.93,0,0,0-.27.27,1.46,1.46,0,0,0-.18.38,3.93,3.93,0,0,0-.11.44,0.29,0.29,0,0,0-.14.14l-0.09.2-0.09.2a0.29,0.29,0,0,1-.14.14,1.19,1.19,0,0,1-.1.48,3.92,3.92,0,0,1-.21.38,4,4,0,0,0-.21.38,1.18,1.18,0,0,0-.09.49,0.09,0.09,0,0,0-.07,0l0,0.08,0,0.07a0.09,0.09,0,0,1-.09,0V85.9s0,0-.06,0l0,0,0,0a0.05,0.05,0,0,1-.06,0,2.17,2.17,0,0,1-.09.37,1.12,1.12,0,0,1-.15.3,0.69,0.69,0,0,1-.24.21,0.94,0.94,0,0,1-.35.1,0.37,0.37,0,0,0-.16-0.12,0.3,0.3,0,0,1-.15-0.14,0.11,0.11,0,0,1,0-.06l0,0,0,0,0,0a1.13,1.13,0,0,1-.23-0.38q-0.09-.22-0.16-0.45t-0.17-.44a1,1,0,0,0-.26-0.35,0.12,0.12,0,0,1,0-.06l0,0a0.2,0.2,0,0,0,0-.06,0.24,0.24,0,0,0,0-.1,0.31,0.31,0,0,1-.1-0.1,0.18,0.18,0,0,0-.12-0.08q0-.14-0.08-0.29a2.19,2.19,0,0,0-.08-0.28,1.45,1.45,0,0,0-.12-0.24,0.51,0.51,0,0,0-.18-0.18,0.39,0.39,0,0,0,0-.15l0-.12a0.69,0.69,0,0,1,0-.13,0.46,0.46,0,0,1,0-.17,0.13,0.13,0,0,1-.06-0.07,0.08,0.08,0,0,0-.09,0c0-.18,0-0.28-0.15-0.3a0.55,0.55,0,0,0-.07-0.3,0.66,0.66,0,0,0-.19-0.19,1.46,1.46,0,0,0-.25-0.13,1.15,1.15,0,0,1-.25-0.14V81.36l0.51,0h1l0.72,0a0.83,0.83,0,0,1,.06.27,0.76,0.76,0,0,1-.06.26l-0.28.07a0.63,0.63,0,0,0-.25.09,1.49,1.49,0,0,0,.09.6,4.2,4.2,0,0,0,.22.47q0.12,0.22.23,0.46a1.58,1.58,0,0,1,.13.56,0.13,0.13,0,0,1,.06.07,0.07,0.07,0,0,0,.09,0v0.27a0.06,0.06,0,0,0,.06,0h0.09a0.94,0.94,0,0,0,0,.25,0.15,0.15,0,0,0,.15.13,0.53,0.53,0,0,0,0,.23,0.61,0.61,0,0,0,.06.16l0.09,0.13a0.53,0.53,0,0,1,.08.15,1.49,1.49,0,0,0,.28-0.51c0.06-.2.12-0.4,0.17-0.62a0.18,0.18,0,0,0,.13-0.1,1,1,0,0,0,.06-0.17,0.86,0.86,0,0,1,.06-0.17,0.17,0.17,0,0,1,.13-0.09,2.43,2.43,0,0,1,.1-0.48c0.05-.15.11-0.29,0.16-0.43l0.18-.42a3.77,3.77,0,0,0,.16-0.44,2.42,2.42,0,0,1-.29-0.22,1.12,1.12,0,0,0-.31-0.19V81.28a1.32,1.32,0,0,1,.46,0l0.53,0,0.54,0A1.33,1.33,0,0,0,109.73,81.21Zm10,0.09a0.28,0.28,0,0,1,.14-0.06l0.19,0h0.42a0.2,0.2,0,0,1,.05.1,1.06,1.06,0,0,1,0,.13,1.11,1.11,0,0,0,0,.13,0.2,0.2,0,0,0,.05.1,0.1,0.1,0,0,1-.06.11,0.16,0.16,0,0,0-.09.08,1,1,0,0,1,.08.32,0.81,0.81,0,0,1,0,.31,0.48,0.48,0,0,1-.15.23,0.41,0.41,0,0,1-.28.09,0.63,0.63,0,0,1-.16-0.18l-0.14-.24-0.14-.24a0.67,0.67,0,0,0-.18-0.19,0.45,0.45,0,0,0-.25-0.07,0.72,0.72,0,0,0-.34.09,0.52,0.52,0,0,0-.18-0.1,0.47,0.47,0,0,0-.18,0l-0.2,0h-0.24a0.5,0.5,0,0,0-.23.34,1.69,1.69,0,0,0,0,.44c0,0.16,0,.31,0,0.46a0.71,0.71,0,0,1-.06.38,0.18,0.18,0,0,0,.09.09,0.12,0.12,0,0,1,.07.11h0.6a0.49,0.49,0,0,0,.28.09,0.61,0.61,0,0,0,.26-0.06,0.81,0.81,0,0,0,.21-0.15l0.15-.17a0.05,0.05,0,0,0,0-.06l0,0,0,0a0.06,0.06,0,0,1,0-.06,0.32,0.32,0,0,1,.15-0.11,0.57,0.57,0,0,1,.21,0,0.41,0.41,0,0,1,.2,0,0.28,0.28,0,0,1,.13.14,1.08,1.08,0,0,0-.08.35,3.16,3.16,0,0,0,0,.37c0,0.13,0,.25,0,0.38a2.84,2.84,0,0,1,0,.37l-0.26.16a0.7,0.7,0,0,1-.35.07,1.21,1.21,0,0,0-.1-0.3,0.76,0.76,0,0,0-.19-0.25,0.55,0.55,0,0,0-.27-0.13,0.51,0.51,0,0,0-.33.07,0.19,0.19,0,0,0-.13-0.09h-0.18l-0.18,0-0.16,0-0.11.22c0,0.09,0,.19,0,0.29s0,0.21,0,.32a2.61,2.61,0,0,1,0,.34,1.21,1.21,0,0,1-.07.33,0.19,0.19,0,0,0,.07.14,0.48,0.48,0,0,0,.16.09,0.37,0.37,0,0,0,.18,0,0.25,0.25,0,0,0,.15-0.08,0.79,0.79,0,0,0,.21.06l0.28,0,0.28,0a0.48,0.48,0,0,0,.21-0.07,0.52,0.52,0,0,0,.41,0,0.78,0.78,0,0,0,.3-0.22,1.93,1.93,0,0,0,.22-0.33,2.18,2.18,0,0,1,.2-0.32,0.24,0.24,0,0,1,.25.07,0.5,0.5,0,0,1,.1.26,1.07,1.07,0,0,1,0,.32,1.09,1.09,0,0,1-.07.26,0.34,0.34,0,0,1,.08.16,0.6,0.6,0,0,1,0,.2,0.73,0.73,0,0,1-.06.19,0.27,0.27,0,0,1-.1.13,6.35,6.35,0,0,1-.91,0l-0.93,0-0.92,0a5.39,5.39,0,0,0-.86.05l-0.06,0a0.07,0.07,0,0,0,0,.06,0.29,0.29,0,0,0-.23-0.08,0.29,0.29,0,0,0-.23.08,0.08,0.08,0,0,0,0-.07l-0.09,0h-0.1a0.08,0.08,0,0,1-.06,0,0.3,0.3,0,0,1,0-.14l0-.11,0-.12a0.37,0.37,0,0,0,0-.16l0.29-.12A1.32,1.32,0,0,1,117,86a0.59,0.59,0,0,1,0-.24l0-.21a0.88,0.88,0,0,0,0-.2,0.29,0.29,0,0,0-.07-0.19s0.06,0,.07,0a0.27,0.27,0,0,0,0-.07,0.26,0.26,0,0,1,0-.07s0,0,.07,0a1,1,0,0,1-.07-0.28,3.53,3.53,0,0,1,0-.37,2.61,2.61,0,0,1,0-.37,0.79,0.79,0,0,1,.08-0.27,0.26,0.26,0,0,1-.06-0.11,0.56,0.56,0,0,1,0-.16,0.52,0.52,0,0,1,0-.15,0.26,0.26,0,0,1,.06-0.11,0.27,0.27,0,0,1-.06-0.11,0.55,0.55,0,0,1,0-.31,0.27,0.27,0,0,1,.06-0.11,0.31,0.31,0,0,1-.06-0.13,0.83,0.83,0,0,1,0-.18c0-.07,0-0.14,0-0.21a1.21,1.21,0,0,0,0-.19,0.32,0.32,0,0,0-.16-0.09l-0.21,0-0.19-.06a0.18,0.18,0,0,1-.11-0.14,0.57,0.57,0,0,1,.11-0.25,0.45,0.45,0,0,1,.19-0.15,0.43,0.43,0,0,1,.24,0,0.6,0.6,0,0,1,.26.12,1.27,1.27,0,0,1,.54-0.14,5,5,0,0,1,.61,0l0.62,0a1.65,1.65,0,0,0,.57-0.07l0.16,0A0.17,0.17,0,0,1,119.76,81.3Zm9.17-.07L129,81.38a0.2,0.2,0,0,0,.19.07,0.49,0.49,0,0,0,.06.22,1.2,1.2,0,0,0,.12.17L129.52,82a0.54,0.54,0,0,1,.08.2,0.35,0.35,0,0,1,.17,0l0.12,0.09,0.11,0.1a0.43,0.43,0,0,0,.12.08,0.53,0.53,0,0,0,.1.3,1.4,1.4,0,0,0,.2.21l0.22,0.19a0.51,0.51,0,0,1,.15.25,1.48,1.48,0,0,1,.35.27l0.3,0.33,0.28,0.34a2,2,0,0,0,.31.3,0.13,0.13,0,0,0,.09-0.09,0.4,0.4,0,0,0,0-.16,0.57,0.57,0,0,0,0-.16,0.26,0.26,0,0,0-.06-0.12s0.06,0,.07,0a0.18,0.18,0,0,0,0-.07,0.16,0.16,0,0,1,0-.07s0,0,.07,0a0.15,0.15,0,0,1-.07-0.13,1.4,1.4,0,0,1,0-.21,1.68,1.68,0,0,0,0-.21,0.15,0.15,0,0,0-.08-0.13,2.51,2.51,0,0,0,.07-0.5,1.49,1.49,0,0,0-.06-0.5,0.92,0.92,0,0,0-.24-0.39,0.77,0.77,0,0,0-.45-0.2,0.6,0.6,0,0,1,0-.33,0.46,0.46,0,0,1,.17-0.2,3.73,3.73,0,0,0,.84.06l0.93-.06a0.93,0.93,0,0,1,.12.29,0.48,0.48,0,0,1,0,.32,0.42,0.42,0,0,0-.35.09,0.66,0.66,0,0,0-.19.3,1.28,1.28,0,0,0,0,.74,0.66,0.66,0,0,0,0,.3c0,0.13,0,.27,0,0.42s0,0.3,0,.44a0.68,0.68,0,0,1-.09.35l0,0.26c0,0.09,0,.19,0,0.29a2.37,2.37,0,0,1,0,.3,1.15,1.15,0,0,1-.06.28c0,0.11,0,.23.06,0.36s0,0.24,0,.36,0,0.22,0,.32a1,1,0,0,1,0,.25h-0.68a0.41,0.41,0,0,0-.23-0.22,0.45,0.45,0,0,0,0-.17c0-.05,0-0.09,0-0.13l0-.12a0.41,0.41,0,0,1,0-.14,0.71,0.71,0,0,1-.18-0.16l-0.14-.19a1.2,1.2,0,0,0-.16-0.17,0.61,0.61,0,0,0-.21-0.12,2.2,2.2,0,0,1-.16-0.25L131,84.95a1.32,1.32,0,0,0-.18-0.23,0.74,0.74,0,0,0-.25-0.16,0.81,0.81,0,0,0-.2-0.33L130,84a2.33,2.33,0,0,1-.27-0.26,0.77,0.77,0,0,1-.17-0.37,0.6,0.6,0,0,1-.17-0.08l-0.14-.12L129.17,83,129,82.89a0.32,0.32,0,0,0-.14.23,1.52,1.52,0,0,0,0,.28c0,0.1,0,.2,0,0.3a0.49,0.49,0,0,1-.07.28,0.52,0.52,0,0,1,.07.28c0,0.12,0,.25,0,0.39s0,0.28,0,.43a1.8,1.8,0,0,0,0,.38,0.75,0.75,0,0,0,.07.24,0.59,0.59,0,0,0,.13.16,0.71,0.71,0,0,0,.2.11l0.27,0.09a1,1,0,0,1,.06.23,1.1,1.1,0,0,1,0,.25,1.23,1.23,0,0,1,0,.24,0.43,0.43,0,0,1-.1.18,1.42,1.42,0,0,0-.49-0.12,4.3,4.3,0,0,0-.52,0l-0.54,0a2.09,2.09,0,0,1-.56-0.06v-0.6a0.27,0.27,0,0,0,.16,0l0.11-.09L127.8,86a0.31,0.31,0,0,1,.18,0,1,1,0,0,0,.19-0.49,4.18,4.18,0,0,0,0-.59c0-.2,0-0.41,0-0.61a1.66,1.66,0,0,1,.07-0.54,0.75,0.75,0,0,1-.06-0.21,2.74,2.74,0,0,1,0-.28,1.24,1.24,0,0,1,0-.28,0.52,0.52,0,0,1,.07-0.21,0.13,0.13,0,0,1-.07-0.1,0.57,0.57,0,0,1,0-.16c0-.06,0-0.12,0-0.18a1.12,1.12,0,0,0,0-.17A0.4,0.4,0,0,0,128,82l-0.17-.09-0.17-.1a0.43,0.43,0,0,1-.13-0.13,0.76,0.76,0,0,1,.06-0.26l0.09-.23h1.21Zm12.71,0a0.62,0.62,0,0,0,.27.11h0.45a0.53,0.53,0,0,1,.23,0,0.16,0.16,0,0,1,.11-0.07l0.19,0,0.19,0a0.16,0.16,0,0,1,.11.07,0.71,0.71,0,0,1,.38-0.07l0.42,0a1.72,1.72,0,0,0,.39,0,0.38,0.38,0,0,0,.29-0.19h0.43l0.19,0a0.29,0.29,0,0,1,.14.07,0.39,0.39,0,0,1,0,.25l-0.11.21a0.79,0.79,0,0,0-.08.2,0.25,0.25,0,0,0,.07.21,3.25,3.25,0,0,0-.09.35l-0.06.37H145l0,0,0,0-0.06,0c0-.06,0-0.08,0-0.07h-0.12a0.67,0.67,0,0,0-.09-0.25l-0.13-.21a1.35,1.35,0,0,1-.12-0.22,0.73,0.73,0,0,1,0-.3,0.14,0.14,0,0,0-.1,0,0.08,0.08,0,0,0,0,0,0.22,0.22,0,0,0,0,.09s0,0.07,0,.1h-0.12l0,0a0.06,0.06,0,0,0,0,.06L143.56,82a3.63,3.63,0,0,1-.49-0.12l0.07,0.28a0.25,0.25,0,0,1-.07.25,0.45,0.45,0,0,1,.06.16,1.41,1.41,0,0,1,0,.24,1.09,1.09,0,0,1,0,.24,0.31,0.31,0,0,1-.07.16,3.46,3.46,0,0,1,.06.69q0,0.37,0,.76c0,0.26,0,.51,0,0.75a2.1,2.1,0,0,0,.15.68,0.82,0.82,0,0,0,.19.13l0.2,0.11a0.86,0.86,0,0,1,.18.13,0.47,0.47,0,0,1,.12.2,1.3,1.3,0,0,0-.08.17,0.31,0.31,0,0,1-.11.14,0.85,0.85,0,0,0-.33-0.12,2,2,0,0,0-.38,0l-0.39,0-0.34,0a1.06,1.06,0,0,0-.26,0h-0.22l-0.24,0h-0.3a1.07,1.07,0,0,0-.07-0.24l-0.09-.21q0.08,0,.07,0a0.43,0.43,0,0,1,0-.12,2.14,2.14,0,0,0,.62-0.12,1.09,1.09,0,0,0,.44-0.29,0.43,0.43,0,0,1-.07-0.24,2.53,2.53,0,0,1,0-.31l0-.28a0.32,0.32,0,0,0,0-.19,11.32,11.32,0,0,0,.12-1.41,5.81,5.81,0,0,0-.12-1.38h-0.47a0.14,0.14,0,0,1-.09-0.07l-0.32.08a1.27,1.27,0,0,0-.29.12,0.73,0.73,0,0,0-.22.19,0.65,0.65,0,0,0-.12.29,0.23,0.23,0,0,0-.13,0l-0.07.06-0.06.08a0.19,0.19,0,0,1-.07.07,0.32,0.32,0,0,1-.27-0.15,0.5,0.5,0,0,1-.05-0.29,1.21,1.21,0,0,1,.08-0.34,2.48,2.48,0,0,1,.13-0.28,0.19,0.19,0,0,1-.06-0.2,0.28,0.28,0,0,1,.13-0.18,0.05,0.05,0,0,0,0-.06l0,0,0,0s0,0,0-.06a0.28,0.28,0,0,1,.25-0.19,1.27,1.27,0,0,1,.38,0l0.4,0.1A0.46,0.46,0,0,0,141.63,81.18Zm20,5.54a0.45,0.45,0,0,1-.15.13,0.41,0.41,0,0,1-.26,0,0.3,0.3,0,0,1-.08-0.19,1.25,1.25,0,0,1,0-.26l0.06,0,0,0,0.06,0h0.09a0.64,0.64,0,0,1,.12-0.12l0.13-.1,0.13-.1a0.48,0.48,0,0,0,.11-0.13,4.18,4.18,0,0,0,0-.54c0-.19,0-0.38,0-0.57s0-.37,0-0.54a1.78,1.78,0,0,1,.08-0.47,0.05,0.05,0,0,0,0-.06l0,0,0,0a0.06,0.06,0,0,1,0-.06,0.23,0.23,0,0,0,.06-0.12c0-.05,0-0.11,0-0.16s0-.11,0-0.16a0.29,0.29,0,0,1,0-.13L162,82.57a1.72,1.72,0,0,0-.12-0.43,0.74,0.74,0,0,0-.25-0.31,0.75,0.75,0,0,0-.45-0.11,1.29,1.29,0,0,1,0-.26,0.29,0.29,0,0,1,.08-0.19l0.7,0,0.65,0h0.65c0.22,0,.44,0,0.68,0a1,1,0,0,1,.48-0.07,2.14,2.14,0,0,1,.45.09l0.43,0.16a1.69,1.69,0,0,0,.42.12,0.25,0.25,0,0,0,.13.21,1.24,1.24,0,0,0,.25.1,0.2,0.2,0,0,0,.07.19l0.16,0.11a0.49,0.49,0,0,0,.09.32,1.68,1.68,0,0,0,.21.21c0,0.15.05,0.29,0.09,0.43a2.61,2.61,0,0,0,.13.4,0.41,0.41,0,0,1-.06.12,0.21,0.21,0,0,0,0,.18,0.45,0.45,0,0,1,.07.21,2,2,0,0,1,0,.28c0,0.1,0,.19,0,0.29a1.42,1.42,0,0,0,0,.28,0.48,0.48,0,0,1-.06.14l-0.08.13a0.8,0.8,0,0,0-.06.15,0.49,0.49,0,0,0,0,.19,2.46,2.46,0,0,0-.3.29l-0.28.32a3,3,0,0,1-.3.3,1.41,1.41,0,0,1-.37.23l-0.62.07-0.67.08a6.69,6.69,0,0,1-.68,0,2.74,2.74,0,0,1-.64-0.09,0.13,0.13,0,0,0-.09,0l0,0,0,0-0.06,0a0.2,0.2,0,0,0-.18-0.06l-0.24,0-0.24,0A0.25,0.25,0,0,1,161.67,86.71Zm0.57-3.63h0.08V82.93h-0.08v0.16ZM163,81.8a0.56,0.56,0,0,0-.16.27,1.84,1.84,0,0,0-.07.39,2.11,2.11,0,0,0,0,.42,1.33,1.33,0,0,0,.08.36,1.25,1.25,0,0,0-.09.49c0,0.19,0,.37,0,0.56s0,0.37,0,.55a1.22,1.22,0,0,1,0,.44,0.25,0.25,0,0,1,.07.14,1.1,1.1,0,0,1,0,.19c0,0.07,0,.14,0,0.21a2,2,0,0,0,0,.21,1,1,0,0,0,.41.14,1.92,1.92,0,0,0,.39,0l0.43-.06a2.2,2.2,0,0,1,.51,0,0.22,0.22,0,0,1,.1-0.12l0.17-.06,0.2,0,0.21,0a0.39,0.39,0,0,0,0-.09,0.05,0.05,0,0,1,0-.06,0.38,0.38,0,0,0,.17-0.13l0.12-.19,0.12-.2a0.48,0.48,0,0,1,.16-0.16,1.69,1.69,0,0,1,0-.45c0-.13.07-0.26,0.11-0.38a0.29,0.29,0,0,1-.09-0.21,1.48,1.48,0,0,1,0-.24l0.06-.26a0.61,0.61,0,0,0,0-.27h0.31a0.43,0.43,0,0,1,0-.15,0.2,0.2,0,0,1,0-.1l0.06-.07,0.07-.07V82.71a0.21,0.21,0,0,0-.15,0,0.3,0.3,0,0,0-.08.1,0.62,0.62,0,0,0,0,.13,0.25,0.25,0,0,1-.06.12A0.3,0.3,0,0,1,165.9,83a1,1,0,0,1-.13-0.19l-0.12-.21a0.33,0.33,0,0,0-.17-0.15V82.25L164.94,82a4.22,4.22,0,0,0-.59-0.19,3.49,3.49,0,0,0-.65-0.09A3.11,3.11,0,0,0,163,81.8Zm13.72-.5a0.28,0.28,0,0,1,.14-0.06l0.19,0h0.42a0.2,0.2,0,0,1,.05.1,1.06,1.06,0,0,1,0,.13,1.11,1.11,0,0,0,0,.13,0.2,0.2,0,0,0,.05.1,0.1,0.1,0,0,1-.06.11,0.16,0.16,0,0,0-.09.08,1,1,0,0,1,.08.32,0.81,0.81,0,0,1,0,.31,0.48,0.48,0,0,1-.15.23,0.41,0.41,0,0,1-.28.09,0.63,0.63,0,0,1-.16-0.18l-0.14-.24-0.14-.24a0.67,0.67,0,0,0-.18-0.19,0.45,0.45,0,0,0-.25-0.07,0.72,0.72,0,0,0-.34.09,0.52,0.52,0,0,0-.18-0.1,0.47,0.47,0,0,0-.18,0l-0.2,0h-0.24a0.5,0.5,0,0,0-.23.34,1.69,1.69,0,0,0,0,.44c0,0.16,0,.31,0,0.46a0.71,0.71,0,0,1-.06.38,0.18,0.18,0,0,0,.09.09,0.12,0.12,0,0,1,.07.11h0.6a0.49,0.49,0,0,0,.28.09,0.61,0.61,0,0,0,.26-0.06,0.81,0.81,0,0,0,.21-0.15l0.15-.17a0.05,0.05,0,0,0,0-.06l0,0,0,0a0.06,0.06,0,0,1,0-.06,0.32,0.32,0,0,1,.15-0.11,0.57,0.57,0,0,1,.21,0,0.41,0.41,0,0,1,.2,0,0.28,0.28,0,0,1,.13.14,1.09,1.09,0,0,0-.07.35,3.16,3.16,0,0,0,0,.37c0,0.13,0,.25,0,0.38a2.85,2.85,0,0,1,0,.37l-0.26.16a0.7,0.7,0,0,1-.35.07,1.21,1.21,0,0,0-.1-0.3,0.76,0.76,0,0,0-.19-0.25,0.55,0.55,0,0,0-.27-0.13,0.51,0.51,0,0,0-.33.07,0.19,0.19,0,0,0-.13-0.09h-0.18l-0.18,0-0.16,0-0.11.22c0,0.09,0,.19,0,0.29s0,0.21,0,.32a2.59,2.59,0,0,1,0,.34,1.21,1.21,0,0,1-.07.33,0.19,0.19,0,0,0,.07.14,0.48,0.48,0,0,0,.16.09,0.37,0.37,0,0,0,.18,0,0.25,0.25,0,0,0,.15-0.08,0.79,0.79,0,0,0,.21.06l0.28,0,0.28,0a0.48,0.48,0,0,0,.21-0.07,0.52,0.52,0,0,0,.41,0,0.78,0.78,0,0,0,.3-0.22,1.93,1.93,0,0,0,.22-0.33,2.17,2.17,0,0,1,.2-0.32,0.24,0.24,0,0,1,.25.07,0.5,0.5,0,0,1,.1.26,1.07,1.07,0,0,1,0,.32,1.09,1.09,0,0,1-.07.26,0.34,0.34,0,0,1,.08.16,0.6,0.6,0,0,1,0,.2,0.73,0.73,0,0,1-.06.19,0.27,0.27,0,0,1-.1.13,6.35,6.35,0,0,1-.91,0l-0.93,0-0.92,0a5.39,5.39,0,0,0-.86.05l-0.06,0a0.07,0.07,0,0,0,0,.06,0.29,0.29,0,0,0-.23-0.08,0.29,0.29,0,0,0-.23.08,0.08,0.08,0,0,0,0-.07l-0.09,0h-0.1a0.08,0.08,0,0,1-.06,0,0.3,0.3,0,0,1,0-.14l0-.11,0-.12a0.38,0.38,0,0,0,0-.16l0.29-.12a1.32,1.32,0,0,1,.31-0.1,0.59,0.59,0,0,1,0-.24l0-.21a0.87,0.87,0,0,0,0-.2,0.29,0.29,0,0,0-.07-0.19s0.06,0,.07,0a0.27,0.27,0,0,0,0-.07,0.26,0.26,0,0,1,0-.07s0,0,.07,0a1,1,0,0,1-.07-0.28,3.53,3.53,0,0,1,0-.37,2.6,2.6,0,0,1,0-.37,0.79,0.79,0,0,1,.07-0.27,0.26,0.26,0,0,1-.06-0.11,0.56,0.56,0,0,1,0-.16,0.52,0.52,0,0,1,0-.15,0.26,0.26,0,0,1,.06-0.11,0.27,0.27,0,0,1-.06-0.11,0.55,0.55,0,0,1,0-.31,0.27,0.27,0,0,1,.06-0.11,0.31,0.31,0,0,1-.06-0.13,0.83,0.83,0,0,1,0-.18c0-.07,0-0.14,0-0.21a1.21,1.21,0,0,0,0-.19,0.32,0.32,0,0,0-.16-0.09l-0.21,0-0.19-.06a0.18,0.18,0,0,1-.11-0.14,0.57,0.57,0,0,1,.11-0.25,0.46,0.46,0,0,1,.19-0.15,0.43,0.43,0,0,1,.24,0,0.6,0.6,0,0,1,.26.12,1.27,1.27,0,0,1,.54-0.14,5,5,0,0,1,.61,0l0.62,0a1.65,1.65,0,0,0,.57-0.07l0.16,0A0.17,0.17,0,0,1,176.72,81.3ZM188,81.1c0,0.09,0,.18,0,0.28s0,0.2,0,.29,0,0.19,0,.27a0.45,0.45,0,0,0,.07.22,0.48,0.48,0,0,0,0,.18,0.94,0.94,0,0,1,0,.19,0.25,0.25,0,0,1-.09.14,0.26,0.26,0,0,1-.21,0,1.25,1.25,0,0,1-.07-0.16l-0.07-.16a0.48,0.48,0,0,0-.09-0.13,0.31,0.31,0,0,0-.15-0.08,0.34,0.34,0,0,0-.18-0.29,0.85,0.85,0,0,0-.37-0.09,2.41,2.41,0,0,0-.44,0l-0.41,0-0.11.19-0.11.19-0.12.18a0.76,0.76,0,0,1-.15.15,0.46,0.46,0,0,1,.18.21,2.85,2.85,0,0,0,.13.26,0.65,0.65,0,0,0,.19.21,0.48,0.48,0,0,0,.34.05,1.8,1.8,0,0,0,1.06.45,0.16,0.16,0,0,0,0,.09l0.07,0.06L187.48,84a0.15,0.15,0,0,1,0,.09,0.29,0.29,0,0,1,.23,0,0.51,0.51,0,0,1,.12.14l0.1,0.16a0.25,0.25,0,0,0,.15.11,0.63,0.63,0,0,0,0,.22,0.88,0.88,0,0,0,.07.17L188.29,85a0.72,0.72,0,0,1,.06.17,0.27,0.27,0,0,1,0,.13l0,0.07a0.1,0.1,0,0,0,0,.06,0.18,0.18,0,0,0,.06.08,0.07,0.07,0,0,0-.07,0,0.25,0.25,0,0,0,0,.1s0,0.08,0,.12a0.37,0.37,0,0,1,0,.11,1.22,1.22,0,0,0-.29.32c-0.08.12-.16,0.24-0.24,0.36l-0.32.06a0.27,0.27,0,0,0-.21.18,0.15,0.15,0,0,0-.1,0H187l-0.16,0a0.36,0.36,0,0,0-.12.06l-0.47,0-0.56,0h-0.59l-0.58,0a2.13,2.13,0,0,1,0-.4c0-.14,0-0.28,0-0.42s0-.29,0-0.44a2.81,2.81,0,0,0,0-.47,0.28,0.28,0,0,1,.19-0.07h0.27a0.2,0.2,0,0,0,.06.2l0.16,0.1a0.81,0.81,0,0,0,.19.49,0.93,0.93,0,0,0,.41.26,1.74,1.74,0,0,0,.55.07,4.07,4.07,0,0,0,.62-0.06l0.33-.3a0.88,0.88,0,0,0,.24-0.39,0.06,0.06,0,0,0,0-.06h0l0,0a0.06,0.06,0,0,1,0-.06,0.05,0.05,0,0,1,0-.06l0,0,0,0a0.06,0.06,0,0,0,0-.06,0.88,0.88,0,0,0-.35-0.51,1.65,1.65,0,0,0-.63-0.24,0.1,0.1,0,0,0,0-.07l-0.05,0-0.05,0a0.1,0.1,0,0,1,0-.07,4,4,0,0,1-.85-0.24,2,2,0,0,1-.66-0.44,0.22,0.22,0,0,0,0-.15,0.6,0.6,0,0,0-.07-0.13l-0.09-.13a0.36,0.36,0,0,1-.06-0.15,1.06,1.06,0,0,1,0-.29,1.39,1.39,0,0,1,.05-0.29,1,1,0,0,1,.11-0.25,0.78,0.78,0,0,1,.16-0.19,0.38,0.38,0,0,1,0-.15,0.15,0.15,0,0,1,0-.08l0.09-.06,0.13-.09,0.15-.13,0.16-.13a0.76,0.76,0,0,1,.21-0.09,0.84,0.84,0,0,1,.27,0,4,4,0,0,1,.49-0.06h1Zm7.15,0.17a1.17,1.17,0,0,1,.28,0l0.29,0.06,0.27,0a0.42,0.42,0,0,0,.22,0,0.28,0.28,0,0,0,.2.05l0.26,0,0.27-.06a0.79,0.79,0,0,1,.25,0,0.25,0.25,0,0,1,.18.09,0.4,0.4,0,0,1,.06.27,0.84,0.84,0,0,1-.26.16l-0.28.14a0.77,0.77,0,0,0-.22.2,0.52,0.52,0,0,0-.08.34,0.05,0.05,0,0,0-.06,0,0.22,0.22,0,0,0,0,.06v0.07a0,0,0,0,1-.05,0,0.13,0.13,0,0,1,.06.07,0.07,0.07,0,0,0,.09,0,0.66,0.66,0,0,0,0,.23q0,0.1,0,.19a1.06,1.06,0,0,1,0,.18,0.4,0.4,0,0,1-.07.2,2.62,2.62,0,0,1,.07.44c0,0.15,0,.3,0,0.46s0,0.3,0,.44,0,0.27,0,.39a2.56,2.56,0,0,1,.09.34,1.35,1.35,0,0,0,.1.32,0.55,0.55,0,0,0,.19.23,0.52,0.52,0,0,0,.37,0,0.3,0.3,0,0,1,.08.19,1.86,1.86,0,0,1,0,.27h-0.4a0.08,0.08,0,0,0-.06.08c-0.26,0-.53,0-0.82,0s-0.57,0-.84,0a0.26,0.26,0,0,1-.15-0.09,0.31,0.31,0,0,1-.07-0.15,0.49,0.49,0,0,1,0-.18,0.71,0.71,0,0,1,.06-0.19,0.23,0.23,0,0,0,.13,0l0.08,0,0.08,0a0.21,0.21,0,0,1,.12,0,1.17,1.17,0,0,0,.2-0.35,1.88,1.88,0,0,0,.09-0.38,2,2,0,0,0,0-.38,3.21,3.21,0,0,0,0-.36,1.62,1.62,0,0,0,0-.44c0-.16,0-0.32,0-0.49s0-.35,0-0.53a3.23,3.23,0,0,1,0-.54,0.07,0.07,0,0,0,.09,0,0.12,0.12,0,0,1,.06-0.07,0.58,0.58,0,0,1-.18-0.17l-0.15-.2a0.91,0.91,0,0,0-.17-0.18,0.46,0.46,0,0,0-.25-0.09l-0.08-.15L195,81.57a0.09,0.09,0,0,1,0-.08l0.07-.05,0.05-.06A0.17,0.17,0,0,0,195.13,81.27Zm13.75,0.07v1.36l-0.1,0-0.09.06-0.11,0a0.35,0.35,0,0,1-.15,0,0.69,0.69,0,0,0-.12-0.27,1.65,1.65,0,0,0-.19-0.2l-0.21-.19a0.7,0.7,0,0,1-.16-0.24,0.84,0.84,0,0,1-.3,0l-0.29-.08a1.2,1.2,0,0,0-.28,0,0.49,0.49,0,0,0-.26.07,0.38,0.38,0,0,0-.27-0.09,0.66,0.66,0,0,0-.23.08L205.9,82a0.51,0.51,0,0,1-.23.09s-0.06,0,0,.09a0.28,0.28,0,0,1,0,.13,0.71,0.71,0,0,0-.25.26,2,2,0,0,0-.16.35l-0.12.39a1.89,1.89,0,0,1-.15.36c0,0.14,0,.26,0,0.37s0,0.21,0,.31,0,0.22,0,.34,0,0.27.06,0.45a3.46,3.46,0,0,1,.42.37,2.86,2.86,0,0,0,.46.38,1.62,1.62,0,0,0,.54.24,1.34,1.34,0,0,0,.69,0,0.14,0.14,0,0,1,.12,0l0.07,0.07,0.34-.2a2,2,0,0,1,.38-0.18c0-.12,0-0.23,0-0.34s0-.22,0-0.33,0-.23,0-0.34a3.32,3.32,0,0,0,0-.38,0.57,0.57,0,0,0-.25-0.14l-0.32-.07-0.34-.05a1.38,1.38,0,0,1-.31-0.07,0.34,0.34,0,0,1,0-.15,0.35,0.35,0,0,1,0-.1l0.06-.09a0.34,0.34,0,0,0,0-.1,3.74,3.74,0,0,0,.65,0H209a1.77,1.77,0,0,1,.53.1v0.3a0.65,0.65,0,0,0-.29.13,0.79,0.79,0,0,0-.21.25,0.88,0.88,0,0,0-.1.32,0.64,0.64,0,0,0,.06.35,0.65,0.65,0,0,0-.07.23,2.25,2.25,0,0,0,0,.64,0.65,0.65,0,0,0,.07.23,0.52,0.52,0,0,1-.05.26,0.55,0.55,0,0,1-.16.19,0.44,0.44,0,0,1-.21.09,0.32,0.32,0,0,1-.22-0.05,0.18,0.18,0,0,1-.14.11l-0.23,0h-0.24a0.25,0.25,0,0,0-.18.07,5.91,5.91,0,0,0-.65-0.08l-0.62-.06a4.4,4.4,0,0,1-.57-0.1,1.76,1.76,0,0,1-.5-0.21l0-.11a0.23,0.23,0,0,0-.1-0.13,1.69,1.69,0,0,1-.52-0.39,1,1,0,0,1-.24-0.64,1.13,1.13,0,0,1-.32-0.6,3.15,3.15,0,0,1-.05-0.87,2.19,2.19,0,0,0,.09-0.38c0-.14,0-0.27.08-0.39a1.57,1.57,0,0,1,.12-0.35,0.55,0.55,0,0,1,.23-0.24V82.18a2,2,0,0,0,.25-0.21l0.24-.23,0.25-.21a1.51,1.51,0,0,1,.28-0.17l0.44-.07,0.38-.06,0.37-.06,0.39,0a1,1,0,0,0,.39.11l0.47,0h0.49A1.39,1.39,0,0,1,208.88,81.35Zm8.62-.13,0.11,0.16a0.2,0.2,0,0,0,.19.07,0.49,0.49,0,0,0,.06.22,1.2,1.2,0,0,0,.12.17L218.09,82a0.54,0.54,0,0,1,.08.2,0.35,0.35,0,0,1,.17,0l0.12,0.09,0.11,0.1a0.44,0.44,0,0,0,.12.08,0.53,0.53,0,0,0,.1.3,1.4,1.4,0,0,0,.2.21l0.22,0.19a0.51,0.51,0,0,1,.15.25,1.48,1.48,0,0,1,.35.27l0.3,0.33,0.28,0.34a2,2,0,0,0,.31.3,0.13,0.13,0,0,0,.09-0.09,0.4,0.4,0,0,0,0-.16,0.57,0.57,0,0,0,0-.16,0.26,0.26,0,0,0-.06-0.12s0.06,0,.07,0a0.18,0.18,0,0,0,0-.07,0.16,0.16,0,0,1,0-.07s0,0,.07,0a0.15,0.15,0,0,1-.07-0.13,1.4,1.4,0,0,1,0-.21,1.68,1.68,0,0,0,0-.21,0.15,0.15,0,0,0-.08-0.13,2.51,2.51,0,0,0,.07-0.5,1.49,1.49,0,0,0-.06-0.5,0.92,0.92,0,0,0-.24-0.39,0.77,0.77,0,0,0-.45-0.2,0.6,0.6,0,0,1,0-.33,0.46,0.46,0,0,1,.17-0.2,3.73,3.73,0,0,0,.84.06l0.93-.06a0.93,0.93,0,0,1,.12.29,0.48,0.48,0,0,1,0,.32,0.42,0.42,0,0,0-.35.09,0.66,0.66,0,0,0-.19.3,1.28,1.28,0,0,0,0,.74,0.66,0.66,0,0,0,0,.3c0,0.13,0,.27,0,0.42s0,0.3,0,.44a0.68,0.68,0,0,1-.09.35l0,0.26c0,0.09,0,.19,0,0.29a2.37,2.37,0,0,1,0,.3,1.15,1.15,0,0,1-.06.28c0,0.11,0,.23.06,0.36s0,0.24,0,.36,0,0.22,0,.32a1,1,0,0,1,0,.25h-0.68a0.41,0.41,0,0,0-.23-0.22,0.45,0.45,0,0,0,0-.17c0-.05,0-0.09,0-0.13l0-.12a0.41,0.41,0,0,1,0-.14,0.71,0.71,0,0,1-.18-0.16l-0.14-.19a1.2,1.2,0,0,0-.16-0.17,0.61,0.61,0,0,0-.21-0.12,2.2,2.2,0,0,1-.16-0.25l-0.15-.26a1.31,1.31,0,0,0-.18-0.23,0.74,0.74,0,0,0-.25-0.16,0.81,0.81,0,0,0-.2-0.33L218.61,84a2.33,2.33,0,0,1-.27-0.26,0.77,0.77,0,0,1-.17-0.37,0.6,0.6,0,0,1-.17-0.08l-0.14-.12L217.74,83l-0.13-.13a0.32,0.32,0,0,0-.14.23,1.52,1.52,0,0,0,0,.28c0,0.1,0,.2,0,0.3a0.49,0.49,0,0,1-.07.28,0.52,0.52,0,0,1,.07.28c0,0.12,0,.25,0,0.39s0,0.28,0,.43a1.8,1.8,0,0,0,0,.38,0.75,0.75,0,0,0,.07.24,0.59,0.59,0,0,0,.13.16,0.71,0.71,0,0,0,.2.11l0.27,0.09a1,1,0,0,1,.06.23,1.09,1.09,0,0,1,0,.25,1.24,1.24,0,0,1,0,.24,0.43,0.43,0,0,1-.1.18,1.42,1.42,0,0,0-.49-0.12,4.3,4.3,0,0,0-.52,0l-0.54,0a2.09,2.09,0,0,1-.56-0.06v-0.6a0.27,0.27,0,0,0,.16,0l0.11-.09,0.12-.08a0.31,0.31,0,0,1,.18,0,1,1,0,0,0,.19-0.49,4.19,4.19,0,0,0,0-.59c0-.2,0-0.41,0-0.61a1.66,1.66,0,0,1,.07-0.54,0.74,0.74,0,0,1-.06-0.21,2.74,2.74,0,0,1,0-.28,1.24,1.24,0,0,1,0-.28,0.52,0.52,0,0,1,.07-0.21,0.13,0.13,0,0,1-.07-0.1,0.57,0.57,0,0,1,0-.16c0-.06,0-0.12,0-0.18a1.12,1.12,0,0,0,0-.17,0.4,0.4,0,0,0-.14-0.13l-0.17-.09-0.17-.1a0.43,0.43,0,0,1-.13-0.13,0.76,0.76,0,0,1,.06-0.26l0.09-.23h1.21Z"/></svg>