<svg id="Layer_1" data-name="Layer 1" xmlns="http://www.w3.org/2000/svg" viewBox="0 0 70 466"><defs><style>.cls-1{fill:#d4dce4;}.cls-2{fill:#b1babf;}</style></defs><title>portfolio-left</title><path class="cls-1" d="M43.38,4.32c0.29,0,.09-0.19-0.57-0.07a1.15,1.15,0,0,0-.31.32,1.06,1.06,0,0,1,.39-0.2A2.34,2.34,0,0,1,43.38,4.32Z"/><path class="cls-1" d="M40.75,7.82c-0.11.9,0.11,1.88,0.24,1.33a5.9,5.9,0,0,1,0-2,2.47,2.47,0,0,1,.56-1.07,10,10,0,0,1,.52-1.44,3.9,3.9,0,0,0-.7,1.44,6.53,6.53,0,0,0-.55,1.79C40.76,8.16,40.76,7.89,40.75,7.82Z"/><path class="cls-1" d="M41.62,81.85V81.37C41.63,81.5,41.62,81.67,41.62,81.85Z"/><path class="cls-1" d="M42,127.77a2,2,0,0,0,0-.51A1.87,1.87,0,0,0,42,127.77Z"/><path class="cls-1" d="M41.75,135.61l0-.46A2.71,2.71,0,0,0,41.75,135.61Z"/><path class="cls-1" d="M41.62,81.85l0,1.23A5.88,5.88,0,0,0,41.62,81.85Z"/><path class="cls-1" d="M42,17.94c0-.26,0-0.47,0-0.67l0,0.63Z"/><path class="cls-1" d="M41.26,61.6V61.23c0-.11,0-0.21-0.07-0.31Z"/><path class="cls-1" d="M41.24,46.06a1,1,0,0,0,.19.61,3.28,3.28,0,0,1-.09-0.77S41.28,45.95,41.24,46.06Z"/><path class="cls-1" d="M41.45,21.43l0-.44Z"/><path class="cls-1" d="M41.32,72.73a0.36,0.36,0,0,0,0,.14A0.22,0.22,0,0,0,41.32,72.73Z"/><path class="cls-1" d="M42.19,446.85s0,0,0,0S42.19,447,42.19,446.85Z"/><path class="cls-1" d="M44.13,460.42a1.63,1.63,0,0,0-.1.22,0.14,0.14,0,0,0,.06.08A1.54,1.54,0,0,1,44.13,460.42Z"/><path class="cls-1" d="M41.38,149.95v-0.06C41.38,149.51,41.38,149.72,41.38,149.95Z"/><path class="cls-1" d="M14.63,246.31c-0.85,0-.15-0.06.38-0.22s0.93-.32-0.23-0.11a2.12,2.12,0,0,1-.75.21c-0.17,0-.29,0-0.23.08A2,2,0,0,0,14.63,246.31Z"/><path class="cls-1" d="M42,18.34V19C42,18.69,42,18.49,42,18.34Z"/><path class="cls-1" d="M14.78,246h0l-0.25,0Z"/><path class="cls-1" d="M40.8,183a2.37,2.37,0,0,0,.06-0.34A1,1,0,0,0,40.8,183Z"/><path class="cls-1" d="M41.52,158.38l0,0.61Z"/><path class="cls-1" d="M39.49,194.34c-0.29.12-.39,0.13-0.79,0.28l0.13,0C39,194.53,39.16,194.47,39.49,194.34Z"/><path class="cls-1" d="M28.73,200.91a1.19,1.19,0,0,0,.1-0.17l0.11-.39-0.11.32A1.26,1.26,0,0,1,28.73,200.91Z"/><path class="cls-1" d="M41.94,406.39a3.78,3.78,0,0,1-.13.61C41.91,406.8,41.94,408.76,41.94,406.39Z"/><path class="cls-1" d="M41.91,17.95a1.1,1.1,0,0,1,.06.4V17.9S41.92,17.85,41.91,17.95Z"/><path class="cls-1" d="M39.38,195.58a9.09,9.09,0,0,1-1.11.29l-0.75.13-0.33,0A11.1,11.1,0,0,0,39.38,195.58Z"/><path class="cls-1" d="M42.63,310.89l0,0.49A3.66,3.66,0,0,0,42.63,310.89Z"/><path class="cls-1" d="M31.67,197.9a3,3,0,0,0-.79.69,1.76,1.76,0,0,0-.1.2A5.35,5.35,0,0,1,31.67,197.9Z"/><path class="cls-1" d="M41.81,407h0Z"/><path class="cls-1" d="M42.19,420.94c0-2-.19-0.95-0.3-1.37-0.07-2.4.13-1.11,0.22-1.93-0.06-1.5-.23-2.65-0.23-3.77,0-.08,0-0.3.08,0-0.15-1.59,0-4.71-.2-6.56a1.08,1.08,0,0,1,0-.24c-0.09.3-.19,0.35-0.25,0.28a10.39,10.39,0,0,1,0-2,3.37,3.37,0,0,0,.08.86l-0.05-.95c0.18-.85.06,1.29,0.19,1.29-0.05-1.85-.19-4-0.13-5.41,0.17-.29,0,3.31.2,1.42l-0.07,2.19c0.27-1.67,0,1.33.27-.21,0.06-2.88-.07-3.22,0-6.09-0.09-.65-0.14.21-0.23-0.43-0.13-4.08.46-3.21,0.27-6.21a9.76,9.76,0,0,1-.16-3.22l0.18,0.73c0.07-2.79-.25-1.6-0.06-4.51,0.06,0.52,0,2.19,0,1.77a15.31,15.31,0,0,0,0-2.79l0.18-.3v-9.53c0,0.18.09,0.75,0.16,0,0-4.15.15-8.85,0.29-12.86l-0.13-1.53c0-.36.07-0.66,0.1-0.27,0.07-1.56-.09-0.08-0.14-0.83s0.09-1.17.13-.61c-0.1-2.75-.22-7.84-0.06-10.74l0,0.57c0.07-2.26-.29-2.55-0.15-4.64l0,0.4c0.07-4.9-.06-10.31.15-14.05-0.21-.71.09-4.85-0.21-5.16,0.14-2.8.2-2,.29-5.94,0-1.05-.19-1.57-0.22-2.87l0.15,0-0.16-1.77,0.18-.94,0-1.22a2.56,2.56,0,0,1-.11,1c0-1,0-2.11,0-3a10.1,10.1,0,0,1,.15-1.65l-0.13-4.51a10.32,10.32,0,0,1,.12,1.45c-0.15-2.41.16-.44,0-2.64,0,0.3-.09-0.16-0.12-0.21,0.09-1.1.1-3.6,0.07-5.45l0.1,0.36v-10.8c-0.06,1.35-.24,1-0.25-0.07l0.17-.44c-0.09-.71-0.07,1.15-0.18-0.31s0.19-.94.24-0.14l0-1.7a1,1,0,0,1,.13.4c-0.1-.71.2-2.92,0-4l0-.1c-0.12-3.85-.59-5.49-0.67-8.49a7.94,7.94,0,0,1-.17-2.11,13.86,13.86,0,0,1,.25-1.66,6.81,6.81,0,0,0,.15-1,3,3,0,0,0-.17-1.1,4.47,4.47,0,0,0-3.39-2.62,4.29,4.29,0,0,0-1-.09,0.32,0.32,0,0,0-.22,0s0.12,0.05-.34.11a10.28,10.28,0,0,0-1.27-.07c-0.49,0-.78-0.09-0.13-0.09a5.88,5.88,0,0,1-3.28-1A8.23,8.23,0,0,1,30,258.34c0.18,0.43.38,0.85,0.22,0.66s-0.36-.7-0.53-1a0.94,0.94,0,0,1-.21-0.47l0.13,0.16a7.44,7.44,0,0,0-3.05-2.39,14.18,14.18,0,0,1-1.73-.73,5,5,0,0,1-1.36-1.09,5.7,5.7,0,0,1-1.38-2.94,7.16,7.16,0,0,1,.16-2.8l0,0.18,0.15-.52a6.17,6.17,0,0,1,.5-1.07,11.06,11.06,0,0,0,.71-1.18,2.3,2.3,0,0,0,.21-0.72,1.77,1.77,0,0,0-.1-0.84,1,1,0,0,1,.16.42,2.73,2.73,0,0,1,0,.58c0,0.07.08,0,.09-0.51a1.8,1.8,0,0,0-.49-1,2.83,2.83,0,0,0-.72-0.55,2.93,2.93,0,0,0-1.61-.33,5,5,0,0,0-2.49,1,13.18,13.18,0,0,1-3.93,2,3.16,3.16,0,0,1-2-.42,3.22,3.22,0,0,1-.9-1,10.66,10.66,0,0,1-.72-1.52A7.1,7.1,0,0,0,8.75,239a5,5,0,0,0-.86-0.48c-0.27-.13-0.65-0.24-0.78-0.3a2.14,2.14,0,0,1-.87-0.7l0,0.18a2.11,2.11,0,0,1-.7-1.27c-0.06.1,0.26,0.79,0,.38a4.11,4.11,0,0,1-.37-1.59,16,16,0,0,0-.31-1.89,7,7,0,0,0-.72-1.89,6,6,0,0,0-1.31-1.57,0.26,0.26,0,0,1-.07-0.12,1.53,1.53,0,0,1-.08-0.29l0-.15a0.37,0.37,0,0,1,0-.06,0.12,0.12,0,0,1,.05-0.09l0.12-.12,0.18-.19a2.53,2.53,0,0,0,.32-0.4A5.14,5.14,0,0,0,4,227.63a11.16,11.16,0,0,0,.75-1.82c0.39-1.22.67-2.42,1.12-3.48a4.65,4.65,0,0,1,2-2.44,3.28,3.28,0,0,1,.72-0.33c0.26-.1.45-0.13,1-0.36a3.57,3.57,0,0,0,1.47-1.8,15,15,0,0,0,.53-1.44l0.22-.77a2.93,2.93,0,0,1,.37-0.82,1.82,1.82,0,0,1,1.23-.9,1.2,1.2,0,0,0-.31.2,2.2,2.2,0,0,0-.25.27c0.67-.76,2.12-0.25,3.39.38L20,216.56a3.36,3.36,0,0,0,1.3.4,2.36,2.36,0,0,0,1.44-.36,2.7,2.7,0,0,0,1-1.06,2.11,2.11,0,0,0,.1-1.52,5.7,5.7,0,0,0-.49-1.13l-0.47-.94a12.2,12.2,0,0,1-.7-1.92c0.09,0.3.17,0.3,0.31,0.8a10.82,10.82,0,0,1-.37-2.42,13.73,13.73,0,0,1,.17-1.58,1.26,1.26,0,0,1,.41-0.53,7.8,7.8,0,0,1,1.17-1.37,3.86,3.86,0,0,1,1.26-.8,1.93,1.93,0,0,1-.44.29,8.76,8.76,0,0,1,1.72-.83c0.62-.22,1.21-0.44.79-0.37a4.63,4.63,0,0,0,1.58-.84,2.89,2.89,0,0,0,1-1.54,5.32,5.32,0,0,1,1.06-2.25,3.81,3.81,0,0,1,1.53-1.37,15.64,15.64,0,0,0,1.46-.71,6.7,6.7,0,0,0,1.92-.28,21.53,21.53,0,0,0,3.12-.67c-0.45.23,1.23-.34,0.72-0.06a5.12,5.12,0,0,0,1.93-1.26c0.41-.45.53-0.79,0.4-0.68a3.86,3.86,0,0,0,.8-2.28,8.51,8.51,0,0,0-.26-2.13,10.3,10.3,0,0,1-.28-3.14A121,121,0,0,1,42,173c0.23,0.15-.11,4.59.13,4.42,0-3.94-.12-6.22,0-10.11,0.05-1,.09.58,0.12,0.92,0-3.93.18-7.6,0.13-11.1a5.08,5.08,0,0,1,0,.74,5.17,5.17,0,0,0,0-1.53l0,0.67c-0.17,1.1-.26-2.74-0.34-2.87,0.27,1.18.13-3.45,0.47-1.59a1.81,1.81,0,0,0-.12-0.92c0-.67.07-0.89,0.14-0.2,0-2.47-.14-1.59-0.1-3.83a4.86,4.86,0,0,1,.12.69,35,35,0,0,1-.09-4.16c0,0.11.07-.1,0.06,0.46,0-3.25-.19-5.54-0.06-9.1,0.21,1.05.08-1.21,0.27-1.4l0-1.92-0.1.77c0-1.68-.11-3.16,0-4.6l0.07,1.25,0-3.14-0.08,1.78c-0.09-1.7-.24.18-0.17-2.05,0,0.45,0-1.68.12-2.55h0a24.29,24.29,0,0,1-.07-2.93c0.06-.32.21,0.26,0.25,0-0.16-.82,0-3.93-0.21-5,0,0.35.14,0.36,0.16,0.25l-0.13-.69c0-.78.06-0.89,0.14-0.77,0-2.34-.23.74-0.14-2,0,0.22,0,.11.05,0.57,0-2.79-.11-5.38-0.07-7.95,0.18-.76.06,2.24,0.22,1.37-0.06-3.69-.31-7.64-0.33-11.22V96c-0.27-.49.09-2.66-0.08-4.47,0,0.44.16,0.58,0.13,0.46,0-2.45-.17-5-0.33-8.7l0.08,0.46c0-1.44,0-3.8,0-5.35C42.07,78,42.07,77.06,42,77.6c0.31-4.81-.33-9.16,0-13.42C42,64.69,42,65.4,42,65l-0.08-3.63a5.56,5.56,0,0,0-.16,1.24,20.52,20.52,0,0,1-.13-2.38c0.08,1.63.18,0,.25-0.72,0,0.12-.07-0.12-0.11-0.06,0.2-1.9-.23-0.32-0.1-2.91l0.06,0.14c0-1-.11-1.86-0.09-2.91,0.13-.43.06,1,0.17,1.1,0-1.47-.25-2.9-0.11-4.22l0.07,2.14a21.53,21.53,0,0,0,.15-2.69V50.2L42,47.71l0,0.63c-0.34-1.84-.05-3.74-0.28-6.21,0.21,2.4.12,0.4,0.28,0.58a4.81,4.81,0,0,1,.13-1.32c-0.12-1.17.1-2-.08-3.6,0-.07,0-1.25.13-1,0-1.52-.09.36-0.15,0.23-0.17-2.34.2-5.51,0-8.88-0.1-2.91-.28-3.44-0.37-6.14,0.07-.91.18,0.74,0.18,0.74a39.13,39.13,0,0,0,0-4c0,0.28.08,0,.13-0.43a15.82,15.82,0,0,1-.13-2.21,8.27,8.27,0,0,1,.21,1.11l-0.11-2a12.37,12.37,0,0,0-.34-2c0-.37.3,0.78,0.39,1.28A20.18,20.18,0,0,0,41.32,12c-0.22-.82-0.38-1.51-0.48-1.73,0,0,0,.24.05,0.48L41,11.22c-0.11-.54.06-0.3,0.16,0.09a4.63,4.63,0,0,1,.32,1.93l-0.24-.94a21.75,21.75,0,0,0,.36,2.54c0.1,1.09.16,2.29,0.17,3.27l-0.22-.81,0.19,2c-0.05.42-.16,0.71-0.2-0.24-0.09,1.39.09,1.23,0,2.43,0,0.13,0,.07,0,0l0.07,1.36c0-.27-0.15.23-0.12-0.61-0.11,2.44.18,3.94,0,4.86v-0.2c0.08,3.39.15,0.33,0.34,2.87l-0.37,1.71,0.15,0.33a2.51,2.51,0,0,1-.08.91c0.11,1.3.07-.22,0.17,0.53-0.13,1.68.07,4.64-.18,5,0.12,0.6.09-1.61,0.17,0.19-0.26.51,0,2.08-.08,3.61-0.13-.47-0.06-1.93-0.18-0.39a33,33,0,0,1,0,4.29c0.18,0.06.07,2.82,0.13,5C41.41,50.76,41.36,55,41.3,57l0-.06a26.23,26.23,0,0,1,.19,4,1.91,1.91,0,0,1-.21-1.16v1.43a12.06,12.06,0,0,1,.12,1.71l-0.14-.36c0,1.9.18,3.83,0.11,6.28,0.13,0.14.34-1.95,0.45,0.64-0.07.1-.19,0.19-0.22-0.48a11.47,11.47,0,0,1,0,1.24l-0.13-1a13.47,13.47,0,0,0,.1,1.47c-0.1,0-.06.66-0.14,0.53s0-.78,0-1.12a24.33,24.33,0,0,1-.12,2.62c0.06-.09.13,0,0.15,0.73a7,7,0,0,1-.14,1.76,8.23,8.23,0,0,0,.17,1.7,3,3,0,0,1-.1.88c0.08,1,.1,4.6.24,3.49V81.2h0c0.2,3.22.06,6.7,0.18,9.9h0c0.1,1.91.12,4.25,0.25,5.61a1.78,1.78,0,0,1-.13,1.09,35.27,35.27,0,0,1,.06,3.73,5.78,5.78,0,0,1-.08-1.5,35.85,35.85,0,0,0,.07,4.36c-0.13-.69-0.14,1.43-0.1,2.33l0.08-1.33c0,1,0,1.9,0,2.8l-0.17-.49c-0.17,3.88.39,7,0,10,0.12,1,.08-2.11.22-1.19,0,1.79-.26,3.65-0.26,4.21-0.1,2.45.24,2.28,0.17,4.84,0.06-.33.22-0.64,0.27,1.28s-0.26,2.2-.3,1.07a1.84,1.84,0,0,1,0-.62c0-.58,0-1.34-0.11-0.63l0.06,0.23a18.55,18.55,0,0,1-.17,2.77c0,1.35.09,0.58,0.13-.42-0.1,2.29,0,3.58-.11,5.94,0-.37.11-0.72,0.1-0.35a35.77,35.77,0,0,0,.1,3.87c-0.11,1.33-.21-0.48-0.16,1.88-0.08,1.44-.16.3-0.2-0.27,0.09,2.15-.13,4-0.16,5.24l0-1.13c0,0.68,0,1.23,0,1.8l0.13-.65a6,6,0,0,1-.09,1.21c0.07,0.69.21-.52,0.29,0.84a25.72,25.72,0,0,1-.14,3c0.1-2.79-.16.31-0.15-2.06,0,0.46,0,1,0,1.68,0,0.1,0-.09,0-0.28-0.18,2.67.16,1.23,0.11,4-0.08-.35-0.18.64-0.17,1.09,0-1.11.16-.53,0.21,0.49-0.1,1.77,0,1.93,0,2.86l0.05-1.06a19.25,19.25,0,0,1,.06,2.48c-0.07.1,0-1.12-.06-0.68,0.13,1.38-.22,3.1-0.16,5-0.08.89-.17,0.08-0.23,0.86,0.07,2.15-.17,2.32-0.13,4.58,0.13-.65.11-0.76,0.19,0.83V166.7l0.12,2.38c0-1.12,0-2.36,0-3,0.07,1.14,0,1,.16.49-0.21,1.53,0,3-.12,4.8l-0.29-.06c-0.18,2.66,0,4.72-.15,8.18L41,178.34c0.1,0.47,0,2.14,0,3.26a2.36,2.36,0,0,0-.19,1.08,18.82,18.82,0,0,0,.3,2.86v1.56a15.19,15.19,0,0,0,.53,3,4.63,4.63,0,0,1,.17,1.16,3.12,3.12,0,0,1-.33,1.51c0.1-.37,0-0.29,0-0.33a6.08,6.08,0,0,1,.1-0.95,7.13,7.13,0,0,1-.42,1.44,4.71,4.71,0,0,1-.92,1,3.75,3.75,0,0,1-1.47.71,3.63,3.63,0,0,1-1.39.45c-0.11,0,0,0,0,0s-1.54.32-.66,0.28a10.81,10.81,0,0,0-5.06,1.38,7.44,7.44,0,0,0-2.88,4.08,3.15,3.15,0,0,1-2.11,1.66A12.59,12.59,0,0,0,24,203.69a0.44,0.44,0,0,1,.28-0.22,4.82,4.82,0,0,0-1.12.79,2.65,2.65,0,0,0-.48.57c-0.11.19-.27,0.36-0.44,0.67a6.3,6.3,0,0,0-.69,1.38c-0.29.68-.2,0.32-0.08-0.13s0.41-.91.16-0.5a2.91,2.91,0,0,0-.6,2.11,12.58,12.58,0,0,0,.6,3.27l-0.1-.22-0.08-.22a9.62,9.62,0,0,0,1.08,2.41,2.24,2.24,0,0,1,.4,1.22,1.43,1.43,0,0,1-.81,1s0.07-.07,0,0a1.35,1.35,0,0,1-1.12.16,7.11,7.11,0,0,1-1.53-.72c-1.1-.58-2.23-1.27-3.25-1.76,0.7,0.18.93,0.44,0.62,0.1s-0.42-.14-0.49-0.12a3.64,3.64,0,0,1-1.2-.37,4.29,4.29,0,0,0-1.32-.39,5,5,0,0,0-1.11,0,1.36,1.36,0,0,1,.33-0.12,2.44,2.44,0,0,1,.75-0.09,3.84,3.84,0,0,1,1,.17,2.6,2.6,0,0,0-1.94-.12,3.38,3.38,0,0,0-1.51,1.28l0-.16a7.52,7.52,0,0,0-.86,1.62c-0.18.44-.3,0.82-0.41,1.17a6,6,0,0,1-.45,1.12,2,2,0,0,1-.45.56,2.89,2.89,0,0,1-.86.39l0.33-.06c-0.81.37-1.12,0.55-1.46,0.7a2.28,2.28,0,0,0-.52.34,2.9,2.9,0,0,0-.69.74,1.75,1.75,0,0,0-.25.15l-0.23.17a8.78,8.78,0,0,0-1,2.55c-0.28,1.08-.5,2.27-0.84,3.21a38.5,38.5,0,0,1,1.25-4.88,23.09,23.09,0,0,0-1.25,4.26c0.12-.42.22-1,0.37-1.4a13.21,13.21,0,0,1-.49,2.12,5.33,5.33,0,0,1-1.38,2.3,0.59,0.59,0,0,0-.21.46c-0.05-.09-0.12,0-0.12.31a1.91,1.91,0,0,0,.06.47,1.23,1.23,0,0,0,.35.65,5.18,5.18,0,0,1,1.63,2.63A9.35,9.35,0,0,1,4.18,236a4.6,4.6,0,0,0,1.62,2.86,3.52,3.52,0,0,0,.74.45c0.13,0.06.28,0.11,0.41,0.15l0.32,0.11a3.77,3.77,0,0,1,1.13.7,6.35,6.35,0,0,1,1.53,2.41,6.26,6.26,0,0,0,1.93,3,0.71,0.71,0,0,1-.34-0.47L12,245.59c0.47,0.37,1.24.54,1.12,0.35a5,5,0,0,0,1.68,0,8.34,8.34,0,0,0,1.64-.42,13.41,13.41,0,0,0,1.53-.68c0.74-.32-0.88.58-0.77,0.58,1.09-.55,1.3-0.7,1.46-0.74a2.77,2.77,0,0,0,.9-0.47c-0.3.12,0.5-.69,1.57-0.81a2.87,2.87,0,0,0-.76.14,4.25,4.25,0,0,0-.76.33c1.23-.86,1.95-0.68,2.38-0.48a1.85,1.85,0,0,1,.61.53,0.44,0.44,0,0,1,.1.3,1.67,1.67,0,0,1-.26.68,3,3,0,0,0,.16-0.39,0.51,0.51,0,0,0,0-.28,2.7,2.7,0,0,1-.62,1.16,5.38,5.38,0,0,0-.6,1.05,7.81,7.81,0,0,0-.44,1.2,6.89,6.89,0,0,0-.18,2.46,5.11,5.11,0,0,0,.52,1.78c0.08,0.31.17,0.75-.15,0a6.23,6.23,0,0,0,2,2.83,6.37,6.37,0,0,0,1.52.94c0.27,0.13.56,0.21,0.83,0.31s0.49,0.15.72,0.24a5.67,5.67,0,0,1,2.32,1.59,5.37,5.37,0,0,1,.72,1.07c0.2,0.39.41,0.79,0.61,1.15l-0.23-.24a18.44,18.44,0,0,0,1.51,1.86c-0.06,0-.29-0.18,0,0.09a7.48,7.48,0,0,0,1.13.82,9.5,9.5,0,0,0,1.72.76l-0.45-.11a3.5,3.5,0,0,1-.45-0.14,6.69,6.69,0,0,0,2.81.64,9.78,9.78,0,0,0,1.23-.06,6,6,0,0,1,1,0A5.19,5.19,0,0,1,40,264a2.92,2.92,0,0,1,1.46,1.36,7.34,7.34,0,0,1-.13,1.45,15.59,15.59,0,0,0-.41,3l0-.06a37.49,37.49,0,0,0,.46,6.23,39.05,39.05,0,0,1,.4,5.83c-0.27,2.64-.18,9-0.33,13.2,0-.65.17,0.11,0.19,0.86,0,1,.14,2.76-0.06,2.6v-0.36a28.2,28.2,0,0,0-.16,4.4l0.26,0.26c-0.39,4.18.14,11-.21,13.25l0.13,3.26-0.14-.05c0,2.8,0,4.19,0,7.65l-0.1-.7c0,1.95.41,2.46,0.42,4.26l-0.21.54c0,3.4-.18,6.85,0,10.21a1.39,1.39,0,0,1-.1-0.71c0,1.6-.15,6.19.14,5.61-0.19,0,0,3.51,0,5.35l-0.14-.29a27.05,27.05,0,0,1,.26,3.77c0,0.51-.11.45-0.07-0.23-0.08,1.71.13,1.33,0,3.41l-0.08-.77a13.54,13.54,0,0,0,.12,2.59,18.74,18.74,0,0,1-.19,3.6,9.53,9.53,0,0,1,.12,2.24c0,0.14-.07-0.24-0.09-0.43-0.13,2.94.11,4.38-.06,6.4a0.65,0.65,0,0,0-.09.34c0-2.34.08-4.22,0.08-4-0.13,0-.17,1.89-0.33.38,0.08,1.52.24,4.11,0.15,5.95a1.81,1.81,0,0,1,0,.24v-0.19c0,0.42,0,.8,0,1.16,0,0.59-.06,1-0.07,1.52a27,27,0,0,0-.13,3.1c0.14-.07.09,1.16,0.23,0a4,4,0,0,1,0-.8v-0.34l0-2.34a14,14,0,0,1,0,2.56l0.2,1.32c-0.22,1.28-.38,3.76-0.51,4.11,0,2.88-.07,6.78.17,8.59a3.88,3.88,0,0,1-.13,1.24c0-.47,0-1,0-1.29a50.59,50.59,0,0,0,.15,5.24c-0.1,2.06-.16-1.16-0.15,1.67L41,399.78c-0.33,5.57.44,9.05,0.08,15.23a4.17,4.17,0,0,1,.06-0.73c-0.14,7,.26,14.5,0,21.45a21.05,21.05,0,0,0,.17,3.39l-0.15.43,0.18,2.06c0.14,2.92-.35,5.06-0.12,8.75l0.11-.47a23.21,23.21,0,0,1-.14,2.54,3.15,3.15,0,0,1-.33,1.34,2.45,2.45,0,0,1-.23.91l-0.09,0a5.18,5.18,0,0,0-.18,1.7,7.2,7.2,0,0,0,.3,1.65c0.31,1.24.23,1.16,0.17,1.23a0.5,0.5,0,0,0,0,.38L41,460.24l0.12,0.45a2.63,2.63,0,0,0,.27.69,1.78,1.78,0,0,0,1.27.86,1.64,1.64,0,0,0,.87-0.09,1.1,1.1,0,0,0,.56-0.63c0.14-.46.14-0.71,0.19-0.86s0.06-.2,0-0.11a8.61,8.61,0,0,0-.32.82,0.62,0.62,0,0,1-.43.43,1,1,0,0,0,.36-0.56c0.08-.31.16-0.6,0.16-0.6s0-.49-0.15-0.44a1,1,0,0,0-.41.55,2.1,2.1,0,0,1-.22.44,0.3,0.3,0,0,1-.34.05,0.77,0.77,0,0,1-.58-0.24,1.34,1.34,0,0,1-.28-0.46l-0.11-.32-0.1-.71,0.27,0.88a1.36,1.36,0,0,0,.27.59,2,2,0,0,1-.18-0.44c0-.15-0.11-0.4-0.17-0.57-0.13-.37-0.27-0.69-0.41-1a4.28,4.28,0,0,0-.13-0.87,9.42,9.42,0,0,1-.32-0.94,5.84,5.84,0,0,1-.18-1c0.1-.22.16,0.83,0.26-0.4,0-.88-0.35.82-0.16-0.65a4.33,4.33,0,0,0,.63-1.86c0.09-.16.09,0.11,0,0.61a12.23,12.23,0,0,0,.25-3.5c0.15-1.09,0-3.63.19-3.53C42.11,446.51,42,445,42,444c0.27,1.8,0-3.69.29-3.21-0.24-1.33-.13-4.81-0.27-7.17a3.28,3.28,0,0,1,0,.6c0-1.33.08-1.71,0.12-2.57a20.79,20.79,0,0,1-.38-3.35c0.18-1.63.24,1,.41,0.47-0.16.08-.18-2.83-0.31-2.27a7.66,7.66,0,0,1,.21-1.72c-0.25-.22-0.05-1.16-0.21-2.19a9.71,9.71,0,0,0,.14-2.44C42.09,419.18,42.19,420.94,42.19,420.94Zm0-47.06h0v0Zm0.06-4,0,1.72c-0.05.14-.1,0-0.09-0.41A8.38,8.38,0,0,0,42.24,369.93Zm-1.12,8.35a3.29,3.29,0,0,1,.06-0.92v1.09l0,0.07A0.89,0.89,0,0,1,41.12,378.27Z"/><path class="cls-1" d="M41.28,379.4v0.26l0-.37,0-.22v0.34Z"/><path class="cls-1" d="M41.64,81.29v0.08a1.58,1.58,0,0,1,0-.18Z"/><polygon class="cls-1" points="42.7 315.3 42.66 315.31 42.69 315.65 42.7 315.3"/><path class="cls-1" d="M41.9,59.5a1.5,1.5,0,0,0,0-.29A2,2,0,0,0,41.9,59.5Z"/><path class="cls-1" d="M41.93,50.09L42,48.76Z"/><path class="cls-1" d="M42,42.85A0.37,0.37,0,0,0,42,42.71h0Z"/><path class="cls-1" d="M42.47,157.9v0.28C42.49,158.84,42.48,158.39,42.47,157.9Z"/><path class="cls-1" d="M42.54,123.66l0.06,1.1A2.74,2.74,0,0,0,42.54,123.66Z"/><path class="cls-1" d="M39.62,195.49h0l-0.24.09Z"/><path class="cls-1" d="M42.6,126.35c0-.61,0-1.12,0-1.59C42.59,125.26,42.58,125.85,42.6,126.35Z"/><path class="cls-1" d="M41.33,11.46l-0.06-.34s0,0,0,0Z"/><path class="cls-1" d="M41.24,11.09l-0.09-.37A1.72,1.72,0,0,0,41.24,11.09Z"/><path class="cls-1" d="M41,9.95l0.07,0.39,0.08,0.39A7.43,7.43,0,0,0,41,9.95Z"/><path class="cls-1" d="M42,21.07L42,21.18A0.15,0.15,0,0,0,42,21.07Z"/><path class="cls-1" d="M42,24c0-.69.1-1.74,0.06-2.71l0-.09C42.1,21.63,41.91,23.32,42,24Z"/><path class="cls-1" d="M41.41,36.13l0-2.44c-0.05.43-.13,1-0.14-0.12C41.15,36.65,41.43,32.94,41.41,36.13Z"/><path class="cls-1" d="M41.32,43.69c0-1.31-.08,0-0.11-0.05C41.26,44.47,41.27,44.67,41.32,43.69Z"/><path class="cls-1" d="M41.86,98.35l-0.13-.13C41.77,99.23,41.78,98.23,41.86,98.35Z"/><polygon class="cls-1" points="42.64 108.79 42.71 107.81 42.59 107.34 42.64 108.79"/><polygon class="cls-1" points="41.76 114.97 41.74 114.53 41.79 116.21 41.76 114.97"/><path class="cls-1" d="M29.49,198.64l0.3-.2C30.2,197.84,30.1,197.56,29.49,198.64Z"/><path class="cls-1" d="M8.67,218.31a5,5,0,0,0-1,.32,3.58,3.58,0,0,0-1.08.74,5.34,5.34,0,0,1,1.18-.72Z"/><polygon class="cls-1" points="41.43 304.79 41.38 303.99 41.42 305.49 41.43 304.79"/><path class="cls-2" d="M50.24,208.51c-0.93-1-2.72-.14-3.81.29a13.33,13.33,0,0,0-3,2c-0.58.47-1,.93-1.59,1.43s-0.86.89-1.28,1.32a35.22,35.22,0,0,0-4.47,5.26,15.63,15.63,0,0,1-1.36,1.75c-0.58.68-1,1.43-1.55,2.15a1.12,1.12,0,0,1-1,.47,7,7,0,0,1-2.14-.29,3.62,3.62,0,0,1-1.13-.57,2.07,2.07,0,0,1-.66-0.75c-0.27-.32.12-0.36,0.35-0.64s0.58-.39.82-0.57c0.47-.32.86-0.68,1.32-1a27.37,27.37,0,0,0,2.88-2.61,10,10,0,0,0,1.75-2.26,3.9,3.9,0,0,0,.89-2.83c-0.31-1.43-3-.47-3.81,0a11.67,11.67,0,0,0-3.5,2.79,10.15,10.15,0,0,0-1.91,3.44,6.71,6.71,0,0,0-.19,2.15,2.18,2.18,0,0,0,.31,1.11c0.19,0.29-.54.54-0.86,0.68s-1.21.54-1.55,0.11a1,1,0,0,1,.16-1c0.19,0,.62-0.39.31-0.43-0.74-.18-0.89,1.15-0.78,1.47,0.12,0.54,1,.57,1.44.5a10.22,10.22,0,0,0,1.13-.43c0.23-.11.54-0.39,0.66-0.18a3.76,3.76,0,0,0,1.32,1,3.47,3.47,0,0,1,.54.21c0.31,0,.58.21,0.93,0.29a4,4,0,0,0,1.13.07,7.08,7.08,0,0,0,1,.07,3.52,3.52,0,0,1-.7.9c-0.23.25-.43,0.54-0.66,0.79-0.54.57-1.17,1.18-1.71,1.79a30.55,30.55,0,0,1-3,3.22c-0.08.14-.19,0.18-0.27,0.32-0.23.18-.23,0-0.51,0s-0.62-.21-1-0.32c-0.82-.21-1.63-0.43-2.53-0.61a13.52,13.52,0,0,0-5.09-.32c-1.83.32-3.58,0.5-4.94,1.72a1.56,1.56,0,0,0-.31,2.15,1.92,1.92,0,0,0,.82.72,3.42,3.42,0,0,1,.66.43c0.39,0,.74.14,1.13,0.21a7.34,7.34,0,0,0,2.33.14,15.55,15.55,0,0,0,4.67-.86,12,12,0,0,0,1.71-.72,2.3,2.3,0,0,1,.86-0.39,5,5,0,0,1,.82-0.5,6.3,6.3,0,0,1,1-.64l0.07,0,0,0a24.86,24.86,0,0,1,3.62,3.07c0.81,0.78,1.66,1.58,2.49,2.26l0,0a2.27,2.27,0,0,0,.35.32,1.33,1.33,0,0,0,.35.28,1.33,1.33,0,0,0,.56.48,1.58,1.58,0,0,0,.66.52h0l0,0v0a1.82,1.82,0,0,0,.64.57,2.29,2.29,0,0,1,.25.18l0.21,0.13a2.93,2.93,0,0,1,.59.41,1.86,1.86,0,0,0,.83.59,3.06,3.06,0,0,0,.66.47l0.87,0.53a12.17,12.17,0,0,0,2.64,1.34,8.58,8.58,0,0,0,2.48.47l0.47,0a2.66,2.66,0,0,0,.54-0.15,3.43,3.43,0,0,1,.42-0.12,1.35,1.35,0,0,0,.32-0.14,1,1,0,0,1,.44-0.15,1,1,0,0,0,.52-0.28,1.43,1.43,0,0,1,.39-0.25,0.79,0.79,0,0,0,.19-0.18,1.23,1.23,0,0,1,.16-0.16,1,1,0,0,0,.33-0.37,1.56,1.56,0,0,1,.22-0.35,2,2,0,0,0,.47-1,0.36,0.36,0,0,0-.08-0.23l0,0a0.85,0.85,0,0,0-.1.33,1.69,1.69,0,0,1-.05.22,2.42,2.42,0,0,1-.63.91,3,3,0,0,1-1.55.8,7.27,7.27,0,0,1-1.51.17,4.55,4.55,0,0,1-1.36-.2l-0.3-.08-0.29-.08a2.55,2.55,0,0,1-.77-0.23l-0.35-.14c-0.19-.12-0.38-0.22-0.6-0.34L39.68,241l-0.13-.07a3,3,0,0,0-.56-0.24l-0.37-.19a4,4,0,0,0-.46-0.23,0.89,0.89,0,0,1-.26-0.18,0.8,0.8,0,0,0-.24-0.17,0.94,0.94,0,0,1-.15-0.14,0.83,0.83,0,0,0-.13-0.12l-0.26-.2a4.54,4.54,0,0,0-.48-0.34,3.7,3.7,0,0,1-.9-0.62,1.54,1.54,0,0,0-.59-0.41,1.53,1.53,0,0,1-.59-0.53,2.28,2.28,0,0,1-.83-0.6,3.81,3.81,0,0,0-.45-0.39,9.65,9.65,0,0,1-.93-0.77,9.53,9.53,0,0,0-.91-0.75,4.74,4.74,0,0,1-.66-0.45l-0.22-.17c-0.32-.27-0.66-0.55-1-0.85l0,0a18.14,18.14,0,0,0-3.18-2.4,4.5,4.5,0,0,1,1.58-1.2c1.24-1.19,2.51-2.4,3.63-3.66,0.7-.72,1.32-1.43,1.94-2.15a3.42,3.42,0,0,1,.74-0.72,0.89,0.89,0,0,1,.58-0.11,2,2,0,0,1,.7-0.18,4.13,4.13,0,0,1,.58-0.25,4.57,4.57,0,0,0,.66-0.18c0.58-.25,1.13-0.5,1.71-0.79a2.68,2.68,0,0,1,1-.47,9.15,9.15,0,0,0,1-.68c0.35-.32.89-0.57,1.28-0.89a11.7,11.7,0,0,1,1.13-.86,19.36,19.36,0,0,0,1.63-1.4c0.23-.21.51-0.39,0.7-0.61,1-1.15,2.22-2.08,3.15-3.29A18.06,18.06,0,0,0,50,211.34C50.39,210.63,51,209.23,50.24,208.51Zm-22,9.77a12.44,12.44,0,0,1,1.67-3,13.85,13.85,0,0,1,2.37-2.54A6.55,6.55,0,0,1,35,211.2c1.71-.21.93,1.68,0.54,2.47a11.18,11.18,0,0,1-1.75,2.54A18.51,18.51,0,0,1,30.83,219c-0.82.64-2,1.47-2.76,1.93C27.64,221.11,28.07,218.61,28.23,218.29Zm-3.66,13.49a14.36,14.36,0,0,1-1.52.79,5,5,0,0,1-1.87.79,2.78,2.78,0,0,0-.58.25c-0.39.11-.78,0.18-1.17,0.29-0.7.07-1.36,0.25-2.1,0.36a9.6,9.6,0,0,1-3.81-.36c-1-.36-1.91-1-1.52-2.11a3.64,3.64,0,0,1,1.71-1.25,11.28,11.28,0,0,1,5.21-.89c0.54,0,1.13.14,1.59,0.18a3.12,3.12,0,0,1,1.28.21,14.06,14.06,0,0,0,1.75.54,8.26,8.26,0,0,1,1.59.47,0.57,0.57,0,0,0,.35.11C25.16,231.32,24.92,231.64,24.57,231.78Zm25-20.9a8.78,8.78,0,0,1-2.14,3c-0.47.39-.74,1-1.17,1.4s-1,.89-1.44,1.29c-0.86.82-1.75,1.58-2.72,2.4A17.6,17.6,0,0,1,35,222.76a1.08,1.08,0,0,0-.43.11,13.19,13.19,0,0,1,1.91-2.51c0.35-.5.74-1,1.09-1.4a14.15,14.15,0,0,0,1.28-1.68,6.38,6.38,0,0,1,1.24-1.47c0.31-.39.7-0.9,1.05-1.32,0.78-.89,1.71-1.68,2.53-2.47a17.16,17.16,0,0,1,2.53-2.4,5.52,5.52,0,0,1,2.49-1.11,1.06,1.06,0,0,1,1.36.89A2.87,2.87,0,0,1,49.62,210.88Z"/><path class="cls-2" d="M67.37,217.41a5.53,5.53,0,0,0,1-1.58,0.67,0.67,0,0,0-.68-0.41c-1.06,0-2.65,1.21-3.33,1.83v0.17a1.09,1.09,0,0,1-.34.21,63.51,63.51,0,0,0-5.15,5.65l-0.57.72a2.78,2.78,0,0,0-.8,1l-0.11.1v0.09l0,0-0.16,0-0.09.14c-1.12.8-3.3,2.74-3.92,3.25l-0.23.1v0.17a7,7,0,0,0-1.52,1.21,1.66,1.66,0,0,0-.72.69v0.1H50.59l-0.15.24c-0.23.21-2.35,2.1-2.46,2.1H47.86a4,4,0,0,1,.64-1,7.16,7.16,0,0,1,.45-1.34l0.34-.52c0.57-1.27,1-2.58,1.67-3.82,0.42-.79.76-1.69,1.21-2.41a16.75,16.75,0,0,0,.91-1.89,17.53,17.53,0,0,0,2.77-3.2,6.29,6.29,0,0,0,1.86-2.41,0.61,0.61,0,0,0-.19-0.41,1.54,1.54,0,0,0-.38-0.1c-0.87,0-2.84,2.1-3.3,2.72-0.15.21-1,1.41-1.14,1.52a25.67,25.67,0,0,0-2.12,3.82,7.63,7.63,0,0,0-.64,1.07,3.28,3.28,0,0,1-.11.41,34.14,34.14,0,0,0-2.43,2.62,8.34,8.34,0,0,0-1.63,1.55c-0.11.1-.49,0.31-0.68,0.45A22.05,22.05,0,0,0,43,232.37c-0.19.14-1.55,1.31-1.67,1.34v0.1H41.11a4.3,4.3,0,0,1-.91.9,2.31,2.31,0,0,0-.42.21v0.17H39.67l-0.76.59,0,0.14a0.23,0.23,0,0,0-.23.07c-0.57.34-1,.9-1.67,1.24a31.49,31.49,0,0,1-3.22,1.69,1.41,1.41,0,0,1-.34.14,8.18,8.18,0,0,1-1.33.17,0.68,0.68,0,0,1-.76-0.38,2.65,2.65,0,0,1,1-.52c0-.14.72-0.48,1-0.79a1.22,1.22,0,0,0,.8-0.45c0.45-.38,2.08-1.65,2.35-2a18.3,18.3,0,0,0,1.21-1.45l0.11-.1,0.11-.21h0.19c0.15-.41.61-0.79,0.8-1.28a1.79,1.79,0,0,0,.45-0.72,4.86,4.86,0,0,0,.53-0.79,6.56,6.56,0,0,0,.45-2.1,0.67,0.67,0,0,0-.45-0.72l-0.08-.1H39.67l0-.1H39.41l-0.11-.17H38.69c-2.69,0-5.46,2.58-7,4.38-0.3.31-.45,0.65-0.76,1-0.11.28-1,1.86-1,1.89a0.2,0.2,0,0,1,0,.21l-0.11.1a8.89,8.89,0,0,0-.23,1,0.08,0.08,0,0,0,.08.1l-0.11,0V236c0,0.34-.08.72-0.08,1.1a10.59,10.59,0,0,0,.45,1.83,0.47,0.47,0,0,1,0,.21,8.2,8.2,0,0,1-2.24.38,2.16,2.16,0,0,1-2.27-2.2,2.53,2.53,0,0,1,1.18-2.1c0.11-.07.34,0,0.38-0.17a0.38,0.38,0,0,0-.34-0.14,2.56,2.56,0,0,0-2,2.1c0,1.34.45,1.76,1.52,2.62,0.38,0,.68.24,0.95,0.24,0.11,0,.23,0,0.34,0s0.38,0,.49,0c0.95,0,1.78-.59,2.39-0.59a2.32,2.32,0,0,1,.53.17c0.19,0,1.4.17,1.55,0.17a10.94,10.94,0,0,0,1.74-.48l0.15-.21h0.23l0.08-.1a1.87,1.87,0,0,1,.3-0.07l0.15-.21a11.24,11.24,0,0,1,1.63-.72,1.77,1.77,0,0,1,.72-0.52,1.18,1.18,0,0,1,.53-0.31,5,5,0,0,0,.45-0.65,0.41,0.41,0,0,0,.42-0.1C38.69,236,39,236.13,39,236v-0.07a1.4,1.4,0,0,0,.64-0.45,16.14,16.14,0,0,0,1.67-1.28v-0.1h0.11a9.76,9.76,0,0,0,2.08-2A14.1,14.1,0,0,0,45,230.89c0.3-.45,1.1-0.93,1.63-1.55l0.11-.07a0.19,0.19,0,0,1,0-.14c0.42-.38.8-0.65,1.18-1a1.22,1.22,0,0,1,.23-0.31,0.8,0.8,0,0,1,.27-0.17v-0.17a2.17,2.17,0,0,1,.45-0.34A0.13,0.13,0,0,1,49,227s0,0,0,0a21.59,21.59,0,0,1-1.14,2.51,5.25,5.25,0,0,1-.34.9c-0.11.31-.42,0.62-0.53,1A13.32,13.32,0,0,1,46.3,233c-0.11.28-.34,0.52-0.45,0.79a4.6,4.6,0,0,0-.19.69,12,12,0,0,1-.91,1.65,3,3,0,0,1-.57.59,1.35,1.35,0,0,0-.11.28l-1.4,1.45c0,0.07-.49.62-0.49,0.62H42.1a3.17,3.17,0,0,1-.3.76,1,1,0,0,0,.27.55l0.23,0.07c1.44,0,1.59-1.17,2.46-1.69a6.92,6.92,0,0,1,.64-1.14l0.11-.1,0.38-.72a0.31,0.31,0,0,0,.08-0.24l0.15,0a1.49,1.49,0,0,1,.38-0.59,6.57,6.57,0,0,1,.8-1.62A18.33,18.33,0,0,0,48.88,233a0.88,0.88,0,0,0,.49-0.59c0.23,0,1-1,1.36-1.1a5.47,5.47,0,0,1,1.52-1.52,0.14,0.14,0,0,1,0-.1,7.12,7.12,0,0,0,1.55-1.38,3.06,3.06,0,0,0,1.33-1.1,1.78,1.78,0,0,0,.76-0.45c0.11-.07,0-0.21,0-0.28s0.23,0,.3,0a0.77,0.77,0,0,1,.23-0.24h0.11c-0.19.28-.35,0.59-0.52,0.88l-0.11.12a8.86,8.86,0,0,1-.44.81,0.78,0.78,0,0,1-.24.26,0.66,0.66,0,0,0-.09.29,25.37,25.37,0,0,0-1.84,3.16l-0.6,1A41.18,41.18,0,0,0,49,240.64c0,0.16,0,.26,0,0.42a1.49,1.49,0,0,0-.27.39l-0.07.52c-0.15.55-.37,1.1-0.51,1.69a7.73,7.73,0,0,0-.26,1.59c0,0.39-.05.78,0,1a1.61,1.61,0,0,0,.06.23c0,0.1,0,.19,0,0.29a5.92,5.92,0,0,0,.37,1.38l0.12,0.1a2.79,2.79,0,0,0,2.86,1.64,4.18,4.18,0,0,0,1.62-.63,0.16,0.16,0,0,0,0-.13,1.54,1.54,0,0,0,.73-0.88,3.86,3.86,0,0,0,.95-1.5v-0.06c0-.19-0.32-0.19-0.43-0.22a0.31,0.31,0,0,0-.1.13c0,0.1.13,0.19,0.14,0.29L53.53,248a2.9,2.9,0,0,1-2.72,1.62,3.33,3.33,0,0,0-.51-0.22,5.36,5.36,0,0,1-.76-2.45c-0.21-2.74,1-6,2.14-8.62l0.67-1.66,2-3.61c0.3-.58.63-1.2,1-1.79l0.09-.36c0.07-.1.22-0.13,0.29-0.23l0.09-.36c0.49-1,1.22-1.89,1.67-2.86l0.11-.1a0.35,0.35,0,0,0,0-.19l0.25-.16c0-.08.29-0.6,0.38-0.9h0a0.75,0.75,0,0,0,0-.14,1.42,1.42,0,0,0,.19-0.2h0c0.19-.23.45-0.59,0.63-0.83L59,224.88a10.32,10.32,0,0,1,1-1.2,1.47,1.47,0,0,0,.57-0.59c1.18-.41,1.67-1.76,2.84-2.24,0.15-.28.15-0.31,0.23-0.31a0.78,0.78,0,0,0,.23-0.1v-0.1a1.27,1.27,0,0,0,.8-0.69c0.61-.31,2.31-2,2.5-2C67.14,217.51,67.22,217.41,67.37,217.41Zm-13.11,3c0-.07,0-0.21,0-0.28l0.19-.1c0-.1,0-0.21.15-0.21a6.32,6.32,0,0,1,.95-1.69l0.15,0c0.19-.38,1-1.58,1.52-1.52h0v0.1a2.84,2.84,0,0,1-.61.93,5.34,5.34,0,0,1-1.33,1.52,7.81,7.81,0,0,1-1.18,1.48s0,0,0-.07S54.26,220.42,54.26,220.39ZM30.92,238.13c0-.21.08-0.41,0.08-0.69,0-.1-0.08-0.24-0.08-0.34V237L31,237v-0.28a5.75,5.75,0,0,1,.23-0.93,5.62,5.62,0,0,0,.23-1c0.08-.14.23-0.21,0.3-0.34s0-.21.08-0.28c0.45-.48.95-1.72,1.44-2.34,0.34-.55,2.12-2.38,2.16-2.58,0.42-.1,1.44-1.21,2.27-1.41l0-.1c0.11,0,.91-0.21,1-0.21a2.49,2.49,0,0,1,1.21.62,6.86,6.86,0,0,1-1.89,4.34,1.16,1.16,0,0,1-.34.48l0,0.21-0.27.07s0,0.1,0,.14a2.19,2.19,0,0,1-.3.28,2.88,2.88,0,0,1-.61.83,38.88,38.88,0,0,1-3.6,3l-0.23.1a5.45,5.45,0,0,1-1.7.9A0.68,0.68,0,0,1,30.92,238.13ZM42.21,240a0.34,0.34,0,0,1,0-.21,7.34,7.34,0,0,0,.27-0.69,3,3,0,0,0,.8-1A2,2,0,0,0,44,237.4a0.19,0.19,0,0,1,0,.14A6.19,6.19,0,0,1,42.21,240ZM67,217.2a26,26,0,0,1-4.13,3.55l-0.08.1a1.24,1.24,0,0,1-.53.41,0.85,0.85,0,0,1-.11.28,0.46,0.46,0,0,0-.27.1,5.71,5.71,0,0,1-.91.93c-0.08,0-.08,0-0.08,0a0.89,0.89,0,0,1,.3-0.34,27.11,27.11,0,0,1,2-2.48l0.15-.07a28.41,28.41,0,0,1,3-3.24c0.11-.07.19,0,0.3-0.07l0.11-.21a1.58,1.58,0,0,0,.64-0.31h0c0.11,0,.23.1,0.34,0.1a0.07,0.07,0,0,1,.08.07,0.31,0.31,0,0,0-.11.1l-0.11.31c0,0.1-.11.1-0.19,0.14s0,0.21,0,.28A4,4,0,0,1,67,217.2Z"/></svg>