<svg id="Layer_1" data-name="Layer 1" xmlns="http://www.w3.org/2000/svg" viewBox="0 0 70 466"><defs><style>.cls-1{fill:#d4dce4;}.cls-2{fill:#b1babf;}</style></defs><title>portfolio-right</title><path class="cls-1" d="M24.38,3.65c-0.27.09-.14,0.08,0.7,0.18a1.3,1.3,0,0,1,.32,0,1.45,1.45,0,0,1,.33.1,1.9,1.9,0,0,0-.68-0.28A2.89,2.89,0,0,0,24.38,3.65Z"/><path class="cls-1" d="M27.09,7.81c0.27,0.85.34,1.94,0.51,1.34A5.47,5.47,0,0,0,27,7.1,1.85,1.85,0,0,1,26.65,6,4.42,4.42,0,0,0,26,4.48a9.31,9.31,0,0,1,.56,1.6,16.8,16.8,0,0,1,.7,1.77C27.23,8.13,27.13,7.87,27.09,7.81Z"/><path class="cls-1" d="M25.7,81.84l0-.48C25.71,81.5,25.71,81.66,25.7,81.84Z"/><path class="cls-1" d="M25.15,127.77a2,2,0,0,0,0-.51A1.87,1.87,0,0,0,25.15,127.77Z"/><path class="cls-1" d="M25,135.62v-0.46A2.71,2.71,0,0,0,25,135.62Z"/><path class="cls-1" d="M25.7,81.84l-0.07,1.23A5.87,5.87,0,0,0,25.7,81.84Z"/><path class="cls-1" d="M26.65,17.95c0-.26,0-0.47,0-0.67v0.63Z"/><path class="cls-1" d="M25.79,61.6V61.23c0-.11,0-0.21-0.07-0.31Z"/><path class="cls-1" d="M25.76,46.07a1,1,0,0,0,.2.61,3.28,3.28,0,0,1-.1-0.77S25.8,45.95,25.76,46.07Z"/><path class="cls-1" d="M26,21.43L26,21Z"/><path class="cls-1" d="M25.68,72.72a0.36,0.36,0,0,0-.05.14A0.22,0.22,0,0,0,25.68,72.72Z"/><path class="cls-1" d="M26.91,446.85s0,0,0,0S26.91,447,26.91,446.85Z"/><path class="cls-1" d="M23.72,460.38a1.72,1.72,0,0,1,.12.23,0.15,0.15,0,0,0,.09,0A1.73,1.73,0,0,0,23.72,460.38Z"/><path class="cls-1" d="M25,150v-0.06C25,149.53,25,149.74,25,150Z"/><path class="cls-1" d="M53.32,245.15c0.64,0.12.12,0.14-.36,0.08s-0.88-.13.15,0.19a5.14,5.14,0,0,1,.66-0.08C54,245.27,54.11,245.27,53.32,245.15Z"/><path class="cls-1" d="M26.63,18.35V19C26.63,18.7,26.63,18.5,26.63,18.35Z"/><path class="cls-1" d="M53.11,245.43h0l0.21,0Z"/><path class="cls-1" d="M25.78,183a1.72,1.72,0,0,0,.07-0.33A1.09,1.09,0,0,0,25.78,183Z"/><path class="cls-1" d="M25.47,158.4v0Z"/><path class="cls-1" d="M28,195.08a4.14,4.14,0,0,0,.89.34l-0.13-.06A2.84,2.84,0,0,1,28,195.08Z"/><path class="cls-1" d="M38.34,201.28a2.9,2.9,0,0,1-.09-0.29l-0.14-.42,0.09,0.32A2,2,0,0,0,38.34,201.28Z"/><path class="cls-1" d="M27,406.39a3.78,3.78,0,0,1-.12.61C27,406.8,27,408.76,27,406.39Z"/><path class="cls-1" d="M26.57,18a1.1,1.1,0,0,1,.06.4V17.91S26.58,17.86,26.57,18Z"/><path class="cls-1" d="M28.87,194.24a7.5,7.5,0,0,0,.93.26c0.47,0.1,1,.19,1,0.19A12.64,12.64,0,0,1,28.87,194.24Z"/><path class="cls-1" d="M26.31,310.89l0,0.49A3.67,3.67,0,0,0,26.31,310.89Z"/><path class="cls-1" d="M37,196.81a7.94,7.94,0,0,1,.85,1c0.07,0.07.14,0.16,0.19,0.2l-0.14-.21a3,3,0,0,0-.34-0.44A4.84,4.84,0,0,0,37,196.81Z"/><path class="cls-1" d="M26.91,407h0Z"/><path class="cls-1" d="M27.19,420.95c0-2-.17-0.95-0.28-1.38,0-2.41.14-1.11,0.24-1.93,0-1.5-.2-2.66-0.19-3.78,0-.08,0-0.3.08,0-0.14-1.59,0-4.72-.18-6.57a1.08,1.08,0,0,1,0-.24c-0.09.3-.19,0.35-0.25,0.28a10.4,10.4,0,0,1,0-2,3.37,3.37,0,0,0,.08.86l-0.05-.95c0.17-.85.06,1.29,0.19,1.29-0.06-1.85-.21-4-0.17-5.41,0.17-.3.08,3.31,0.22,1.42l-0.06,2.19c0.26-1.67,0,1.33.27-.21,0-2.88-.1-3.22-0.07-6.1-0.1-.65-0.14.21-0.24-0.43-0.21-4.08.39-3.22,0.13-6.22a10.12,10.12,0,0,1-.27-3.21l0.2,0.73c0-2.79-.3-1.59-0.23-4.51,0.09,0.52.11,2.19,0.12,1.77a15.24,15.24,0,0,0-.17-2.79l0.16-.31c-0.09-3-.29-6.23-0.37-9.52,0.05,0.18.12,0.74,0.16,0-0.16-4.14-.11-8.85,0-12.85l-0.16-1.53c0-.36.06-0.66,0.09-0.28,0-1.56-.09-0.08-0.16-0.83s0.07-1.17.12-.61c-0.15-2.75-.32-7.83-0.17-10.73l0,0.56c0.05-2.26-.31-2.55-0.18-4.64l0,0.4c0.06-4.9-.08-10.31.15-14-0.21-.71.1-4.85-0.2-5.16,0.15-2.8.2-2,.3-5.94,0-1.05-.18-1.57-0.21-2.87l0.15,0-0.16-1.77,0.19-.94,0-1.22a2.54,2.54,0,0,1-.11,1c0-1,0-2.11,0-3a10.11,10.11,0,0,1,.15-1.65l-0.13-4.51a10.33,10.33,0,0,1,.13,1.45c-0.16-2.41.16-.44,0-2.64,0,0.3-.09-0.16-0.12-0.21,0.09-1.1.09-3.6,0-5.45l0.11,0.36c0-3.35-.08-7.05-0.11-10.81,0,1.35-.22,1-0.25-0.06l0.16-.44c-0.11-.71-0.05,1.15-0.19-0.31s0.18-.94.24-0.14l-0.07-1.7a1,1,0,0,1,.14.4c-0.1-.69.13-3,0-3.94l0-.09c0.12-3.66.47-5.36,0.55-8.48-0.14-.06-0.08-1.29-0.28-2.21a16.93,16.93,0,0,0-.18-1.77,5.73,5.73,0,0,1-.08-0.81,2,2,0,0,1,.15-0.7,3.59,3.59,0,0,1,2.62-1.83,5.52,5.52,0,0,0,1-.22s-0.11-.08.29-0.1a5,5,0,0,0,1.32.17c0.55,0,.9,0,0.15.09a6.88,6.88,0,0,0,3.9-1.22,8.93,8.93,0,0,0,2.86-3.67c-0.25.35-.53,0.81-0.44,0.55a3.09,3.09,0,0,1,.88-1.26l-0.09.16a5.28,5.28,0,0,1,2.61-2.1,17.75,17.75,0,0,0,1.84-.68,6.21,6.21,0,0,0,1.71-1.2A6.51,6.51,0,0,0,47,250.75a6.2,6.2,0,0,0-.34-3.39l0.08,0.21L46.48,247a7.28,7.28,0,0,0-.7-1.25,10.76,10.76,0,0,1-.72-1,1.21,1.21,0,0,1-.16-0.4A0.37,0.37,0,0,1,45,244s0,0.08,0,.16,0.09,0.33.11,0a0.91,0.91,0,0,1,.51-0.66,1.65,1.65,0,0,1,1-.24,3.63,3.63,0,0,1,1.9.8,10.82,10.82,0,0,0,4.38,2.12,3.47,3.47,0,0,0,3-.31,6,6,0,0,0,2.13-3.14,5.56,5.56,0,0,1,1.84-2.62,3.32,3.32,0,0,1,.64-0.35c0.24-.11.39-0.13,0.75-0.26a4.1,4.1,0,0,0,1.48-1l-0.23.12c0.35-.42.52-0.68,0.69-0.91a3.32,3.32,0,0,0,.45-0.82c-0.08.1-.54,1-0.3,0.41a4.66,4.66,0,0,0,.32-1c0.07-.37.08-0.67,0.11-1a13.54,13.54,0,0,1,.27-1.75,4.9,4.9,0,0,1,1.71-2.85,1.39,1.39,0,0,0,.38-0.56,2.69,2.69,0,0,0,.15-0.51,1.37,1.37,0,0,0-.26-1.26c-1.71-1.67-1.73-4.17-2.67-6.65a7.73,7.73,0,0,0-1-1.8,5.75,5.75,0,0,0-1.58-1.41,4.65,4.65,0,0,0-.94-0.47c-0.31-.12-0.72-0.26-0.77-0.3a2.17,2.17,0,0,1-.73-1.06,11.19,11.19,0,0,0-.64-1.4,6.2,6.2,0,0,0-.5-0.73l-0.62-.85a4.76,4.76,0,0,0-.6-0.69,2.68,2.68,0,0,0-1.23-.71,2.38,2.38,0,0,1,.66.15,3.42,3.42,0,0,1,.61.3,3,3,0,0,0-1.32-.6,3.72,3.72,0,0,0-1.36.07,9.79,9.79,0,0,0-2.22.88l-3.87,2.26a1.42,1.42,0,0,1-1.49.09,1.5,1.5,0,0,1-.52-0.54,0.84,0.84,0,0,1,0-.63,4.81,4.81,0,0,1,.38-0.89l0.49-1a11.5,11.5,0,0,0,.69-2.17,3.07,3.07,0,0,1-.18,1,6.77,6.77,0,0,0,.5-2.87,4.93,4.93,0,0,0-.25-1.39,2.11,2.11,0,0,0-.25-0.56,2.82,2.82,0,0,1-.25-0.83,5.37,5.37,0,0,0-1.55-1.69c-0.61-.45-1.2-0.74-1.48-0.95a2.54,2.54,0,0,1,.55.25,15.93,15.93,0,0,0-2-.89c-0.76-.26-1.17-0.38-0.88-0.21a2.8,2.8,0,0,1-1.82-1.56,8.5,8.5,0,0,0-1.25-2.7,8.56,8.56,0,0,0-1.95-1.6,3.87,3.87,0,0,0-1.73-.62,4.34,4.34,0,0,0-2-.63c-1.14-.21-2.44-0.33-3-0.47,0.41,0.07-1-.41-0.51-0.34-1.35-.46-2-1.49-1.94-1.23a5.65,5.65,0,0,1-.3-3.61,25,25,0,0,1,.48-3.23c0.22-4.68-.2-8.94-0.32-13.08,0.22,0.15.15,4.57,0.39,4.39-0.23-3.93-.45-6.19-0.49-10.09,0-1,.11.57,0.16,0.91-0.18-3.93-.14-7.6-0.33-11.09a5.07,5.07,0,0,1,.07.74,5.16,5.16,0,0,0-.1-1.52l0,0.67c-0.13,1.1-.36-2.73-0.44-2.85,0.31,1.16,0-3.46.42-1.6a1.81,1.81,0,0,0-.15-0.92c0-.67,0-0.89.13-0.21-0.1-2.47-.19-1.59-0.22-3.83a4.87,4.87,0,0,1,.14.69,33.42,33.42,0,0,1-.21-4.16c0,0.11.07-.11,0.07,0.46-0.06-3.25-.33-5.53-0.27-9.09,0.22,1,.06-1.21.25-1.4L26,132.21l-0.08.77c0-1.68-.16-3.16-0.1-4.6l0.08,1.25-0.05-3.14-0.06,1.78c-0.11-1.7-.24.18-0.2-2.05,0,0.45,0-1.68.11-2.55h0a24.28,24.28,0,0,1-.08-2.92c0.06-.32.21,0.26,0.25,0-0.16-.82,0-3.93-0.21-5,0,0.35.14,0.36,0.16,0.25l-0.13-.69c0-.78.06-0.89,0.14-0.76,0-2.34-.24.74-0.13-2,0,0.22,0,.11,0,0.57,0.06-2.79,0-5.38,0-7.94,0.19-.75,0,2.24.19,1.37,0-3.69-.14-7.65,0-11.22l0,0.67c-0.26-.5.17-2.66,0.09-4.47,0,0.44.13,0.58,0.11,0.46,0.09-2.44,0-5,0-8.71l0.06,0.46c0.09-1.44.1-3.8,0.16-5.35-0.06-.46,0-1.35-0.14-0.81,0.46-4.8-.09-9.16.26-13.42,0,0.51.05,1.22,0.05,0.81l0-3.63a5.57,5.57,0,0,0-.16,1.24,20.53,20.53,0,0,1-.11-2.38c0.07,1.63.19,0,.25-0.72,0,0.12-.07-0.12-0.11-0.06,0.21-1.9-.23-0.32-0.09-2.91l0.06,0.14c0-1-.11-1.86-0.1-2.91,0.13-.43.06,1,0.17,1.1,0-1.47-.26-2.9-0.13-4.22l0.08,2.14a21.08,21.08,0,0,0,.14-2.69v0.11l0.07-2.48,0,0.63c-0.35-1.84-.07-3.74-0.31-6.21,0.22,2.4.13,0.4,0.28,0.58a4.81,4.81,0,0,1,.13-1.32c-0.12-1.17.09-2-.09-3.6,0-.07,0-1.25.13-1,0-1.52-.08.36-0.15,0.23-0.17-2.34.2-5.51,0-8.88-0.09-2.91-.24-3.44-0.31-6.14,0.08-.91.17,0.75,0.17,0.75,0.08-1.47.08-2.57,0-4,0,0.28.08,0,.14-0.43a15.82,15.82,0,0,1-.09-2.21,8.27,8.27,0,0,1,.19,1.11l-0.07-2a9.6,9.6,0,0,1,.15-1.94c0.15-.33,0,0.82,0,1.28a23.62,23.62,0,0,1,.4-2.53,7.7,7.7,0,0,0,.2-1.83s0,0.24-.1.48l-0.11.48c0.1-.55.17-0.26,0.11,0.15a4.81,4.81,0,0,1-.51,1.89l0.17-.95a6.64,6.64,0,0,0-.52,2.48c0,1.08.09,2.29,0.07,3.26l-0.2-.81,0.15,2c-0.06.42-.18,0.71-0.2-0.25-0.11,1.39.06,1.23-.06,2.43,0,0.13,0,.07,0-0.05l0.05,1.36c0-.27-0.15.23-0.11-0.61-0.13,2.44.13,3.94,0,4.86v-0.2c0.06,3.39.15,0.33,0.32,2.87l-0.38,1.71L26,31.74a2.51,2.51,0,0,1-.08.91c0.1,1.3.07-.22,0.16,0.53-0.14,1.68.06,4.64-.18,5,0.12,0.6.09-1.61,0.17,0.19-0.26.51,0,2.08-.07,3.61-0.14-.47-0.07-1.93-0.18-0.39a33.44,33.44,0,0,1,0,4.29c0.18,0.06.08,2.82,0.15,5C25.95,50.76,25.92,55,25.85,57l0-.06A25.41,25.41,0,0,1,26,61a1.92,1.92,0,0,1-.2-1.16v1.43a12,12,0,0,1,.1,1.71l-0.14-.36c0,1.9.14,3.83,0,6.28,0.13,0.14.37-1.94,0.44,0.65C26.16,69.59,26,69.69,26,69a11.46,11.46,0,0,1,0,1.24l-0.11-1A13.46,13.46,0,0,0,26,70.69c-0.1,0-.08.66-0.15,0.53s0-.78,0-1.12a24.29,24.29,0,0,1-.18,2.62c0.06-.09.13,0,0.14,0.74a7,7,0,0,1-.19,1.76,8.22,8.22,0,0,0,.12,1.71,2.94,2.94,0,0,1-.12.87c0,1-.06,4.6.11,3.49V81.19h0c0.09,3.23-.23,6.7-0.23,9.9h0c0,1.91-.05,4.25,0,5.62a1.78,1.78,0,0,1-.17,1.09c0,1.46.07,1.63,0,3.73a5.78,5.78,0,0,1,0-1.51,35.88,35.88,0,0,0,0,4.37c-0.12-.7-0.17,1.43-0.14,2.33l0.1-1.33c0,1,0,1.9,0,2.8L25,107.7c-0.23,3.88.3,7,0,10,0.12,1,.08-2.11.22-1.19,0,1.79-.26,3.65-0.27,4.21-0.09,2.45.25,2.28,0.19,4.84,0.06-.33.21-0.64,0.28,1.28s-0.24,2.2-.29,1.07a1.84,1.84,0,0,1,0-.62c0-.58-0.05-1.34-0.11-0.63l0.06,0.23a18.58,18.58,0,0,1-.14,2.77c0.06,1.35.1,0.58,0.13-.42-0.07,2.29,0,3.58,0,5.94,0-.38.1-0.72,0.1-0.35a32.82,32.82,0,0,0,.18,3.87c-0.08,1.33-.22-0.48-0.12,1.89,0,1.44-.15.31-0.21-0.27,0.14,2.15,0,4,0,5.25l-0.06-1.13c0,0.68,0,1.23.05,1.8l0.11-.65a6,6,0,0,1-.05,1.22c0.09,0.68.19-.53,0.32,0.83a25.73,25.73,0,0,1,0,3c0-2.79-.15.31-0.22-2.05,0,0.46,0,1,0,1.68,0,0.1,0-.09,0-0.28-0.1,2.67.2,1.22,0.24,4-0.1-.35-0.16.64-0.13,1.1,0-1.12.14-.54,0.22,0.49,0,1.78.09,1.93,0.1,2.86v-1.06a20,20,0,0,1,.15,2.48c-0.07.11-.07-1.12-0.09-0.68,0.18,1.37-.1,3.11,0,5,0,0.89-.16.09-0.19,0.87,0.16,2.14-.07,2.33.07,4.58,0.1-.65.07-0.77,0.23,0.82l-0.17-3.71,0.23,2.38c0-1.12-.13-2.36-0.12-3,0.12,1.13.09,1,.18,0.48-0.15,1.53.17,3,.09,4.8l-0.3,0c-0.08,2.66.28,4.73,0.3,8.18l0-1.11a30.92,30.92,0,0,1,.12,3.24,2.48,2.48,0,0,0-.2,1.07c0.09-.05-0.07,2.5.08,2.82l-0.12.76-0.13.75c-0.16,1.37-.24,2.14-0.29,2.93a7.37,7.37,0,0,0,0,1.3,4.89,4.89,0,0,0,.44,1.69c-0.22-.37-0.21-0.26-0.26-0.27a1.7,1.7,0,0,1-.38-1.12,3.21,3.21,0,0,0,.64,1.8,3.44,3.44,0,0,0,1.2,1.21,10.33,10.33,0,0,0,1.7.8c0.39,0.07.54,0,1.54,0.2,0.11,0,0,0,0,0s1.56,0.19.71-.06a18.16,18.16,0,0,1,4.81,1.57A5.09,5.09,0,0,1,37.57,199a5.93,5.93,0,0,1,.46,1c0.1,0.36.15,0.63,0.22,1a3.83,3.83,0,0,0,2.62,2,11.21,11.21,0,0,1,2.64,1.16,0.57,0.57,0,0,1-.3-0.14c0.49,0.33.81,0.54,1,.72s0.4,0.26.55,0.39a2.39,2.39,0,0,1,.54.52A3.39,3.39,0,0,1,46,207c0.13,0.68,0,.34-0.13-0.05s-0.37-.8-0.21-0.42c0,0.22.24,0.93,0.3,1.88a6.08,6.08,0,0,1-.58,2.93l0.07-.21,0.05-.21c-0.26.64-.57,1.4-1,2.3a3.06,3.06,0,0,0-.36,1.75,1.86,1.86,0,0,0,.47.92,2.73,2.73,0,0,0,.79.62s-0.14,0,0,0a2.3,2.3,0,0,0,1.67,0,9,9,0,0,0,1.59-.9c1-.64,2.15-1.38,3.14-1.9-0.57.4-.86,0.56-0.44,0.44s0.35-.25.37-0.32a2,2,0,0,1,1.07-.6,4.32,4.32,0,0,1,1.26-.16,1.06,1.06,0,0,1,.8.29,0.79,0.79,0,0,0-.23-0.08,1.69,1.69,0,0,0-.54-0.06,3.25,3.25,0,0,0-.84.15,4.16,4.16,0,0,1,1.45,0,2.09,2.09,0,0,1,1.13.9l-0.13-.05a10,10,0,0,1,.84,1.41c0.21,0.4.36,0.72,0.53,1.08a9.7,9.7,0,0,0,.62,1.16,2.83,2.83,0,0,0,.61.68,3.81,3.81,0,0,0,1,.47L59,218.88a3,3,0,0,1,1.39.59,4.78,4.78,0,0,1,.44.37,6.63,6.63,0,0,1,.69.63,4.57,4.57,0,0,1,.13.51,8,8,0,0,1,1.13,2.28c0.36,1,.67,2.21,1.05,3.16-0.57-1-1.11-3.39-1.8-4.59,0.49,0.91,1.11,3.54,1.42,4.08a10,10,0,0,1-.45-1.41c0.24,0.6.49,1.3,0.82,2.08a6.76,6.76,0,0,0,1.55,2.34,0.37,0.37,0,0,1,.14.31c-0.06,0-.09,0-0.14.2a1.41,1.41,0,0,1-.31.65,5.34,5.34,0,0,0-1.14,1.22,6.48,6.48,0,0,0-.79,1.73c-0.35,1.2-.44,2.32-0.61,2.84a3.24,3.24,0,0,1-1.15,2.2,2.39,2.39,0,0,1-.53.32c-0.09,0-.19.07-0.29,0.11l-0.39.13a5,5,0,0,0-1.45.85,7.34,7.34,0,0,0-1.9,2.76,14.64,14.64,0,0,1-.65,1.42,3.67,3.67,0,0,1-.92,1.1c0.6-.33.41-0.15,0.07,0.14s-0.9.41-.75,0.53a2.72,2.72,0,0,1-1.44,0,7.58,7.58,0,0,1-1.45-.55,12.58,12.58,0,0,1-1.36-.79c-0.6-.45.88,0.43,0.84,0.3a4.47,4.47,0,0,1-1.25-.82,3.46,3.46,0,0,0-.69-0.63c0.19,0.34-.72-0.57-2.34-0.88a4.45,4.45,0,0,1,1,.36,5.35,5.35,0,0,1,.89.56,4.35,4.35,0,0,0-3.4-.69,2.56,2.56,0,0,0-1.29.83,1.69,1.69,0,0,0-.39,1.21,2.65,2.65,0,0,0,.54,1.29,4.11,4.11,0,0,1-.34-0.52,2.35,2.35,0,0,1-.25-0.72,4.11,4.11,0,0,0,.93,1.85,4,4,0,0,1,.5.83,6.91,6.91,0,0,1,.38,1,7.23,7.23,0,0,1,.06,3.52c-0.13.25-.34,0.54-0.12-0.09a5.55,5.55,0,0,1-1.57,2.32,5.38,5.38,0,0,1-1.21.82c-0.22.12-.45,0.19-0.68,0.29s-0.54.19-.8,0.31a7.15,7.15,0,0,0-2.65,2,7.56,7.56,0,0,0-.84,1.24,11,11,0,0,1-.64,1l0.09-.29a5.27,5.27,0,0,1-1.23,1.71c0-.05.15-0.24-0.09,0a5,5,0,0,1-.86.78,4.47,4.47,0,0,1-1.42.67l0.36-.17a2.6,2.6,0,0,0,.34-0.19,7,7,0,0,1-2.35.51c-0.37,0-.74,0-1.09,0a6.37,6.37,0,0,0-1.2,0,6.22,6.22,0,0,0-2.19.76,4,4,0,0,0-1.72,1.85,0.72,0.72,0,0,0-.31.52,3.17,3.17,0,0,0-.07,1.44,19.93,19.93,0,0,1,.2,2.8l0-.05c0,2.22-.15,4.15-0.27,6.06a47.68,47.68,0,0,0,0,6c-0.21,2.64,0,8.95-.14,13.2,0-.65.17,0.11,0.2,0.86,0,1,.16,2.75,0,2.6v-0.36a29,29,0,0,0-.14,4.4l0.26,0.26c-0.37,4.18.15,11-.2,13.24l0.13,3.26-0.14-.05c0,2.8-.06,4.19,0,7.65L25,326.2c0,2,.41,2.46.41,4.26l-0.21.54c0,3.4-.18,6.85,0,10.21a1.39,1.39,0,0,1-.1-0.71c0,1.6-.13,6.2.16,5.61-0.19,0,0,3.51.08,5.35l-0.14-.29a27.08,27.08,0,0,1,.3,3.77c0,0.51-.11.45-0.08-0.23-0.06,1.71.14,1.33,0.08,3.41l-0.1-.77a13.55,13.55,0,0,0,.16,2.59,19.54,19.54,0,0,1-.13,3.6,9.55,9.55,0,0,1,.17,2.24c0,0.14-.08-0.24-0.1-0.43-0.06,2.94.22,4.37,0.11,6.4a0.65,0.65,0,0,0-.08.34c0-2.34-.05-4.22,0-4-0.13,0-.13,1.89-0.32.39,0.12,1.52.37,4.1,0.34,5.95a1.82,1.82,0,0,1,0,.24l0-.19c0,0.43,0,.81,0,1.16,0,0.59,0,1,0,1.53a27,27,0,0,0,0,3.11c0.14-.08.14,1.15,0.23,0a4,4,0,0,1,0-.8l0-.4v0.06l-0.06-2.34a14,14,0,0,1,.11,2.56L26,380.61c-0.17,1.29-.22,3.78-0.34,4.12,0.14,2.87.18,6.77,0.46,8.57a3.87,3.87,0,0,1-.1,1.25c0-.47,0-1-0.08-1.29,0.09,1.63.08,4.84,0.27,5.23-0.07,2.06-.18-1.16-0.13,1.67L26,399.79c-0.26,5.57.51,9,.1,15.22a4.16,4.16,0,0,1,.07-0.73c-0.2,7,.06,14.5-0.24,21.44a21.06,21.06,0,0,0,.14,3.39l-0.15.43,0.17,2.06c0.12,2.92-.39,5.05-0.14,8.76l0.1-.48a19,19,0,0,0,.16,2.59,8.67,8.67,0,0,1,.21,1.43,3.89,3.89,0,0,1,.34.91l-0.06.06a4.57,4.57,0,0,1,.28,1.51,6.9,6.9,0,0,1-.16,1.58c-0.35,1.2-.43,1.08-0.5,1.1a0.49,0.49,0,0,0-.2.32c-0.06.13-.13,0.32-0.22,0.59l-0.15.47a1.82,1.82,0,0,1-.18.45c-0.15.43-1,.75-1.19,0.33-0.12-.23-0.23-0.6-0.35-0.79s-0.19-.23-0.12-0.1a3.77,3.77,0,0,1,.29.91,2.11,2.11,0,0,0,.19.42,0.5,0.5,0,0,1-.14-0.11A1,1,0,0,1,24,461.2c-0.09-.29-0.2-0.6-0.2-0.6s-0.4-.23-0.43-0.08a2.15,2.15,0,0,0,0,.47,2.18,2.18,0,0,0,.21.78,1.14,1.14,0,0,0,.52.5,1.69,1.69,0,0,0,.83.14,1.83,1.83,0,0,0,.45-0.12,1.86,1.86,0,0,0,.81-0.64,2.34,2.34,0,0,0,.37-0.85l0.07-.33,0.31-.62-0.25.85a2.84,2.84,0,0,1-.28.71,2,2,0,0,1-.22.31,2.13,2.13,0,0,0,.48-0.8c0.08-.26.11-0.4,0.16-0.6l0.24-1.06a3.24,3.24,0,0,0,.38-0.85,10.38,10.38,0,0,0,.13-1.11,6.84,6.84,0,0,0,0-1.14c0.08-.29.21,1.05,0.19-0.53-0.27-1.07,0,1-.41-0.7a10.48,10.48,0,0,0-.42-1.85c0-.17.1,0.07,0.24,0.49a21.48,21.48,0,0,1-.52-3.22c0.11-1.05,0-3.62.18-3.51-0.05-.34-0.17-1.89-0.18-2.87,0.26,1.8,0-3.69.31-3.21-0.23-1.33-.08-4.81-0.2-7.17a3.28,3.28,0,0,1,0,.6c0-1.33.1-1.71,0.15-2.57a20.58,20.58,0,0,1-.34-3.36c0.2-1.63.22,1,.41,0.48-0.16.08-.14-2.83-0.27-2.28a7.66,7.66,0,0,1,.23-1.71c-0.24-.22,0-1.16-0.18-2.19a9.71,9.71,0,0,0,.17-2.44C27.12,419.19,27.19,420.95,27.19,420.95Zm-0.83-47.08h0l0,1Zm-0.07-4,0,1.72c0,0.14-.1,0-0.1-0.41A8.37,8.37,0,0,0,26.29,369.91Zm-0.82,8.38a3.3,3.3,0,0,1,0-.92l0,1.09,0,0.07A0.89,0.89,0,0,1,25.47,378.3Z"/><path class="cls-1" d="M25.68,379.42l0,0.26,0-.37,0-.22v0.34Z"/><path class="cls-1" d="M25.73,81.28v0.08a1.58,1.58,0,0,1,0-.17Z"/><polygon class="cls-1" points="26.37 315.3 26.34 315.31 26.37 315.65 26.37 315.3"/><path class="cls-1" d="M26.44,59.5a1.5,1.5,0,0,0,0-.29A2,2,0,0,0,26.44,59.5Z"/><path class="cls-1" d="M26.47,50.09l0-1.33Z"/><path class="cls-1" d="M26.52,42.85a0.37,0.37,0,0,0-.06-0.14h0Z"/><path class="cls-1" d="M26.4,157.88v0.28C26.45,158.82,26.43,158.37,26.4,157.88Z"/><path class="cls-1" d="M25.67,123.66l0.07,1.1A2.73,2.73,0,0,0,25.67,123.66Z"/><path class="cls-1" d="M28.68,194.17h0l0.2,0.07Z"/><path class="cls-1" d="M25.74,126.35c0-.61,0-1.12,0-1.59C25.73,125.26,25.72,125.85,25.74,126.35Z"/><path class="cls-1" d="M27.31,11.65l0.08-.35s0,0,0,0Z"/><path class="cls-1" d="M27.38,11.25l0.06-.39A3.29,3.29,0,0,0,27.38,11.25Z"/><path class="cls-1" d="M27.52,10l0,0.42-0.05.42A3.74,3.74,0,0,0,27.52,10Z"/><path class="cls-1" d="M26.57,21.07l0.05,0.11A0.15,0.15,0,0,0,26.57,21.07Z"/><path class="cls-1" d="M26.56,24c0-.69.12-1.74,0.09-2.71l0-.09C26.69,21.64,26.48,23.32,26.56,24Z"/><path class="cls-1" d="M25.9,36.13l0-2.44c-0.05.43-.13,1-0.14-0.12C25.63,36.65,25.92,32.94,25.9,36.13Z"/><path class="cls-1" d="M25.83,43.7c0-1.31-.08,0-0.11-0.05C25.77,44.47,25.78,44.67,25.83,43.7Z"/><path class="cls-1" d="M25.28,98.34l-0.13-.13C25.16,99.22,25.21,98.22,25.28,98.34Z"/><polygon class="cls-1" points="25.83 108.8 25.92 107.81 25.8 107.35 25.83 108.8"/><polygon class="cls-1" points="24.89 114.97 24.87 114.52 24.91 116.21 24.89 114.97"/><path class="cls-1" d="M37.39,199.15v-0.33C37,198.33,36.8,198.31,37.39,199.15Z"/><path class="cls-1" d="M58.91,219c0.17,0.12.52,0.25,0.86,0.43a10.67,10.67,0,0,1,.94.58,5.68,5.68,0,0,0-1-.67A7.66,7.66,0,0,0,58.91,219Z"/><polygon class="cls-1" points="25.11 304.79 25.06 303.99 25.1 305.5 25.11 304.79"/><path class="cls-2" d="M13.84,222.29q0.64-.28,1.26-0.61a13.83,13.83,0,0,0,1.18-.72,10.81,10.81,0,0,0,1-.8,6.36,6.36,0,0,0,.83-0.86,4.11,4.11,0,0,0,.55-0.9,2.31,2.31,0,0,0,.2-0.92,2.55,2.55,0,0,0-.1-0.69,2.21,2.21,0,0,0-.32-0.67,2.11,2.11,0,0,0-1.41-.87,3.09,3.09,0,0,0-.84,0,3.57,3.57,0,0,0-.74.15,4,4,0,0,0-.63.26l-0.5.28L13.81,215a2.39,2.39,0,0,1,.54-0.44,3.85,3.85,0,0,1,.88-0.4,5.4,5.4,0,0,1,1.16-.23,5.11,5.11,0,0,1,1.38.07,5,5,0,0,1,1.49.49,4.16,4.16,0,0,1,1.08.8,3.23,3.23,0,0,1,.65,1,2.76,2.76,0,0,1,.22,1.05,3.33,3.33,0,0,1-.34,1.5,4.66,4.66,0,0,1-1,1.3,9.08,9.08,0,0,1-1.57,1.17,20.75,20.75,0,0,1-2.09,1.09l4.27,0.29,0.73-.87,0.93,0.45-0.52,2.27-7.48-1.32Z"/><path class="cls-2" d="M25.24,220.21a4.68,4.68,0,0,1,.41-2,3.72,3.72,0,0,1,1-1.34,3.58,3.58,0,0,1,1.46-.7,4.32,4.32,0,0,1,1.7,0,5.34,5.34,0,0,1,2,.72,4.58,4.58,0,0,1,1.34,1.28,5.14,5.14,0,0,1,.75,1.7,8.05,8.05,0,0,1,.22,2,5.33,5.33,0,0,1-.38,2,4,4,0,0,1-1,1.43,3.5,3.5,0,0,1-1.43.79,3.83,3.83,0,0,1-1.72.07A4.93,4.93,0,0,1,26.27,224a5.91,5.91,0,0,1-.79-1.78A7.33,7.33,0,0,1,25.24,220.21Zm4.51,4.9a1.46,1.46,0,0,0,.94-0.07,1.35,1.35,0,0,0,.61-0.64,3.82,3.82,0,0,0,.33-1.19,13,13,0,0,0,.1-1.71,9.18,9.18,0,0,0-.13-1.61,5.42,5.42,0,0,0-.4-1.32,2.93,2.93,0,0,0-.66-0.94,1.88,1.88,0,0,0-.91-0.47,1.52,1.52,0,0,0-.94.07,1.34,1.34,0,0,0-.61.62,3.5,3.5,0,0,0-.33,1.11,10.8,10.8,0,0,0-.1,1.54,9.07,9.07,0,0,0,.06,1,8.18,8.18,0,0,0,.18,1,6.66,6.66,0,0,0,.29.92,4,4,0,0,0,.41.78,2.64,2.64,0,0,0,.52.57A1.47,1.47,0,0,0,29.75,225.11Z"/><path class="cls-2" d="M13.89,241.41l2.14,0.1v-6.3H15.55l-0.55,0-0.57,0H13.88l-0.23-1.09,0.59-.09,0.73-.16,0.78-.19,0.73-.21,0.58-.19a1.82,1.82,0,0,0,.34-0.15l0.81,0.28,0,8.55,2,0.61v0.94l-6.27-1.1v-0.94Z"/><path class="cls-2" d="M23.1,239.63a6.05,6.05,0,0,1,1.08-3.52,6.22,6.22,0,0,1,1.18-1.27,7.31,7.31,0,0,1,1.45-.93,7.8,7.8,0,0,1,1.61-.57,7.26,7.26,0,0,1,1.65-.2l0.48,1A6.4,6.4,0,0,0,28,235a6,6,0,0,0-1.05.81,5.42,5.42,0,0,0-.83,1,4.9,4.9,0,0,0-.54,1.18,4.57,4.57,0,0,0-.2,1.31q0,0.45,0,.94a8.08,8.08,0,0,0,.1,1,5.88,5.88,0,0,0,.23.93,3.22,3.22,0,0,0,.39.8,2.34,2.34,0,0,0,.6.61,2.07,2.07,0,0,0,.84.33,1.52,1.52,0,0,0,.76,0,1.38,1.38,0,0,0,.62-0.43,2.21,2.21,0,0,0,.41-0.81,4.12,4.12,0,0,0,.15-1.17,4,4,0,0,0-.13-1,3.27,3.27,0,0,0-.37-0.88,2.44,2.44,0,0,0-.57-0.65,1.67,1.67,0,0,0-.75-0.34,2.33,2.33,0,0,0-.73,0,1.84,1.84,0,0,0-.5.15L26,237.95a1.13,1.13,0,0,1,.32-0.27,2.33,2.33,0,0,1,.54-0.24,3.15,3.15,0,0,1,.71-0.13,3.36,3.36,0,0,1,.84,0,3.55,3.55,0,0,1,1.36.52,3.73,3.73,0,0,1,1,.92,3.91,3.91,0,0,1,.59,1.19,4.62,4.62,0,0,1,.2,1.33,4.2,4.2,0,0,1-.29,1.58,3.18,3.18,0,0,1-2.21,1.95,4.18,4.18,0,0,1-1.82,0,4.61,4.61,0,0,1-1.73-.67A5.08,5.08,0,0,1,24.2,243a5.34,5.34,0,0,1-.82-1.59A5.8,5.8,0,0,1,23.1,239.63Z"/><path class="cls-1" d="M46.6,235s0-.14,0-0.13l-0.08.15Z"/><path class="cls-1" d="M46.23,234.6a0.39,0.39,0,0,0-.19.34,3.29,3.29,0,0,0,.23-0.24,0.09,0.09,0,0,1,.08.13s0.09,0.06.15,0a0.18,0.18,0,0,0-.29-0.09A0.14,0.14,0,0,1,46.23,234.6Z"/><path class="cls-1" d="M40.1,233l0,0Z"/><path class="cls-1" d="M36.28,232.07a0,0,0,0,0,.05,0S36.28,232.06,36.28,232.07Z"/><path class="cls-1" d="M35.66,231.75l0,0S35.68,231.74,35.66,231.75Z"/><path class="cls-1" d="M40.1,233L40,232.93C40,233,40,233,40.1,233Z"/><path class="cls-1" d="M45.3,234.8l0.06,0H45.3v0Z"/><path class="cls-1" d="M41.82,233.24h0l0-.06Z"/><path class="cls-1" d="M43.12,233.49a0.38,0.38,0,0,0-.09.18,0.13,0.13,0,0,1,.08-0.08A0.39,0.39,0,0,0,43.12,233.49Z"/><path class="cls-1" d="M45.13,234.18h0Z"/><path class="cls-1" d="M40.89,233a0.17,0.17,0,0,0,0-.05A0.12,0.12,0,0,0,40.89,233Z"/><path class="cls-1" d="M4.36,226.13v0S4.35,226.13,4.36,226.13Z"/><path class="cls-1" d="M3,225.12H3l0-.08Z"/><path class="cls-1" d="M34.5,231.32h0S34.52,231.31,34.5,231.32Z"/><path class="cls-1" d="M23.48,229c0.1,0.15-.24.11-0.08,0.29C23.39,229.25,23.61,229.14,23.48,229Z"/><path class="cls-1" d="M45.27,234.78h0Z"/><path class="cls-1" d="M23.4,229.31h0l0,0Z"/><path class="cls-1" d="M31.72,230.8a0.19,0.19,0,0,0,0,.07A0.12,0.12,0,0,0,31.72,230.8Z"/><path class="cls-1" d="M33.74,231.44l0,0Z"/><path class="cls-1" d="M30.61,230.76a0.07,0.07,0,0,0-.07,0v0A0,0,0,0,1,30.61,230.76Z"/><path class="cls-1" d="M29.5,230.52v0h0Z"/><path class="cls-1" d="M7.76,226.8a0.47,0.47,0,0,1,0-.13C7.73,226.77,7.56,226.77,7.76,226.8Z"/><path class="cls-1" d="M45.31,234.73a0.07,0.07,0,0,1,0,.05h0A0.08,0.08,0,0,0,45.31,234.73Z"/><path class="cls-1" d="M30.33,231.83l-0.17-.06Z"/><path class="cls-1" d="M15.74,228.52h0A0,0,0,0,0,15.74,228.52Z"/><path class="cls-1" d="M29.63,231.68a0.27,0.27,0,0,0-.08-0.12l0,0Z"/><path class="cls-1" d="M7.73,226.66h0Z"/><path class="cls-1" d="M6.5,226.74c0.17,0,.12-0.16.18-0.26,0.21,0,.06.15,0.11,0.26a1.69,1.69,0,0,1,.36-0.14,0.08,0.08,0,0,1,0,.08,4.13,4.13,0,0,0,.59-0.07,0.12,0.12,0,0,1,0,0,0.76,0.76,0,0,1,0-.25c0.08,0,.16-0.08.17,0s-0.06,0-.09.07l0.09,0c0,0.18-.12,0-0.15.16a0.9,0.9,0,0,1,.48,0c0,0.17-.29,0-0.16.18l-0.17-.1a1.87,1.87,0,0,1,0,.27c0.23,0.1.29,0,.52,0.07,0.07-.08,0-0.14.09-0.22,0.38-.09.18,0.48,0.48,0.31,0.09-.1.16-0.3,0.31-0.15l-0.1.17c0.23,0.07.19-.24,0.41-0.06a1.46,1.46,0,0,1-.17.05c0.13,0.18.13-.08,0.26-0.06v0.17c0.25,0,.55,0,0.83,0,0,0-.08.09,0,0.15a2.22,2.22,0,0,1,1,.35l0.16-.12a0.06,0.06,0,0,1,0,.1c0.12,0.08,0-.09.1-0.13a0.07,0.07,0,0,1,0,.14,1.07,1.07,0,0,1,.92.09l-0.06,0c0.18,0.1.28-.25,0.42-0.08l0,0a2.91,2.91,0,0,1,1.14.4c0.1-.19.38,0.18,0.47-0.1a1.28,1.28,0,0,0,.43.4,1.82,1.82,0,0,0,.29-0.16l0,0.15,0.18-.13,0,0.2,0.11,0a0.12,0.12,0,0,1-.06-0.13,0.36,0.36,0,0,1,.35.27l0.4,0a0.23,0.23,0,0,1-.15.09,1.19,1.19,0,0,1,.22.07,0.18,0.18,0,0,1,0-.12,0.55,0.55,0,0,0,.44.15l-0.05.1c0.27,0.09.6,0.08,0.91,0.15a0.14,0.14,0,0,1,.06-0.24V229c0.08-.09-0.08-0.08.07-0.17s0,0.2,0,.24l0.15,0a0.48,0.48,0,0,1-.06.13c0.08-.09.21,0.21,0.33,0.06v0c0.31,0.07.47,0,.72,0.09a0.39,0.39,0,0,1,.23-0.18,2.22,2.22,0,0,0,.59.28c0.17,0,.07-0.11.16-0.17,0,0.13.21,0.17,0.08,0.23a2.5,2.5,0,0,0,.72,0c0-.06-0.06-0.09,0-0.13a0.12,0.12,0,0,1,.11.14h0c0.43-.1.81,0.56,1.17,0.36h0l0.35-.07c0.14,0.05-.11.07,0,0.18a3.85,3.85,0,0,1,.85.07c0.14,0.42.78,0.14,1,.44v-0.09c0.09-.07.08,0.07,0.13,0.1s-0.07-.1,0-0.13a7.64,7.64,0,0,1,2,.64c0.24,0.08.24-.42,0.5-0.15l-0.12.14c0.53-.09,1,0.22,1.51.16a0.12,0.12,0,0,1-.09.07,0.26,0.26,0,0,0,.4,0c0.07,0,0,.09,0,0.15a0.77,0.77,0,0,1,.32,0s0,0-.06,0,0.3,0.08.27-.07a4.77,4.77,0,0,1,.48.13c0.13-.13.29,0.14,0.37-0.07-0.06.22,0.28,0.25,0.41,0.17a0.69,0.69,0,0,1,0,.17c0.13,0,.26,0,0.26-0.11,0.18,0.32.53-.11,0.59,0.26a7.5,7.5,0,0,1,1.14,0c-0.06.22-.39-0.06-0.42,0.17a1.91,1.91,0,0,1,.89,0c0.08,0-.07.09-0.11,0.12a9,9,0,0,0,.95.1,0.11,0.11,0,0,1-.08,0c0.06,0,.13.06,0.14,0H33.66c-0.06-.17.29-0.25,0.32-0.33-0.16.27,0.27,0.14,0,.46a0.14,0.14,0,0,0,.11-0.12c0.05,0,.06.07,0,0.14a1,1,0,0,1,.35-0.09,0.48,0.48,0,0,1-.08.11,0.35,0.35,0,0,1,.38-0.07s0,0.07-.05.06a1.91,1.91,0,0,1,.79,0c-0.13.19,0.09,0.09,0.06,0.28l0.17,0,0-.1a1,1,0,0,1,.4,0l-0.12.05,0.27,0-0.13-.1c0.16-.06,0-0.23.21-0.14a0.57,0.57,0,0,1,.19.16h0a0.23,0.23,0,0,1,.26,0,2,2,0,0,1-.06.24c0.1-.14.34,0,0.46-0.11a0.23,0.23,0,0,0-.05.15l0.08-.11a0.11,0.11,0,0,1,0,.15c0.19,0.07,0-.24.2-0.09a0.19,0.19,0,0,1-.06,0c0.22,0.1.47,0,.67,0.13,0,0.2-.2,0-0.16.17a4.25,4.25,0,0,1,1,0l-0.05,0c0.1-.25.19,0.18,0.37,0.09a0.15,0.15,0,0,0-.06.11,1.87,1.87,0,0,0,.76,0l-0.05.06a2.31,2.31,0,0,0,.43.16c0.05-.06.13,0,0.1-0.14,0.32,0.47.81,0,1.1,0.36,0,0-.11,0-0.08,0h0.32a0.26,0.26,0,0,0-.07-0.18,0.25,0.25,0,0,1,.22-0.08c-0.15,0,0,.18,0,0.26a0.82,0.82,0,0,1,0-.11c0.11,0.24.08-.22,0.26,0l0,0.06a0.5,0.5,0,0,1,.26,0c0,0.14-.1,0-0.13.15,0.12,0,.3-0.19.38,0s-0.14,0-.19,0a0.26,0.26,0,0,0,.19.19h0l0.19,0.11,0-.05c0.23-.31.33,0,0.58-0.17-0.25.17-.06,0.11-0.11,0.26s0.11,0.12.08,0.15a0.77,0.77,0,0,0,.32,0s0.1,0,.06.14c0.14,0,0-.09,0-0.15,0.23-.12.42,0.3,0.75,0.14s0.34-.19.59-0.22c0.06,0.09-.1.16-0.1,0.16a0.32,0.32,0,0,0,.33.07,0.12,0.12,0,0,0,0,.14c0.1,0,.1-0.16.21-0.06a0.72,0.72,0,0,1-.13.17c0.12,0,.25-0.09.37-0.1a0.22,0.22,0,0,1-.15.16A0.51,0.51,0,0,0,46,234.7l-0.07-.06s0,0.12,0,.13-0.15-.08-0.14-0.13h0.09c0-.3-0.33,0-0.49-0.08l0.11-.19-0.2.13c0-.06,0-0.18.06-0.19a1,1,0,0,1-.19-0.08,0,0,0,0,1,0,0l-0.13,0s0-.15.08-0.1a1.43,1.43,0,0,1-.41-0.09h0c-0.3,0-.06.14-0.31,0.27l-0.06-.4-0.06.14a0.07,0.07,0,0,1-.06-0.09c-0.13.08,0,.07-0.08,0.15-0.11-.17-0.4,0-0.38-0.27-0.08.1,0.12,0.12-.05,0.16,0-.26-0.18,0-0.29-0.14,0.07-.12.17,0,0.07-0.17-0.13.21-.24-0.1-0.36-0.08,0,0.18-.25,0-0.45,0a1.85,1.85,0,0,0-.48-0.27v0c-0.07.17-.24,0.1-0.37,0.11a0.21,0.21,0,0,1,.14-0.18l-0.12,0a0.2,0.2,0,0,1-.17.08l0.06-.13a1,1,0,0,1-.54,0c0,0.12.09,0.38-.15,0.42a0.23,0.23,0,0,1,.09-0.2,0.1,0.1,0,0,1-.11,0l0.11-.09c-0.08-.07-0.07.08-0.14,0.06s0-.08,0-0.16,0.06,0.05.09,0a0.33,0.33,0,0,1-.19-0.2,0.12,0.12,0,0,1-.09.13c-0.16,0,0-.13-0.11-0.2s-0.14,0-.17.11a0.13,0.13,0,0,1,0-.12c-0.1,0-.39-0.07-0.33.11h0a2.88,2.88,0,0,1-.82-0.2v0a1.38,1.38,0,0,0-.5,0,0.13,0.13,0,0,1-.06-0.17,0.3,0.3,0,0,1-.31-0.06c0.14-.06,0-0.08.14,0-0.15-.08-0.17-0.16-0.37-0.07,0.08-.11-0.09-0.18-0.17-0.16l0.09,0.11a0.66,0.66,0,0,1-.23-0.05l0.08-.15c-0.28-.27-0.66.21-0.83-0.18-0.11.09,0.16,0.12,0.05,0.23a1.47,1.47,0,0,1-.3-0.33,3,3,0,0,0-.44.09,0.19,0.19,0,0,1-.16.24,0.18,0.18,0,0,1,0-.31s0.05,0,0,0,0.12,0,.08-0.1l0,0.05c-0.06-.08-0.27-0.11-0.2-0.2-0.12,0-.07.08,0,0.13a3,3,0,0,0-.48-0.17s0,0.11,0,.11c-0.27-.13-0.15.08-0.35,0.06s0.09-.2-0.13-0.17,0-.16.07-0.2a0.5,0.5,0,0,1-.42-0.19l0.1,0a0.31,0.31,0,0,1-.16,0l0,0.13c-0.05,0-.1,0-0.09-0.09a0.66,0.66,0,0,1-.13.28c-0.06-.08-0.24,0-0.23-0.15,0.22,0.1,0-.16.21-0.14a0.18,0.18,0,0,1-.14,0,0,0,0,0,1,0,0c-0.19-.19-0.14.15-0.37,0.1a0.11,0.11,0,0,0-.06-0.17c0.09,0,0,.15-0.09.2s-0.17,0-.25,0l0.08,0.05a0.23,0.23,0,0,1-.23.06c0-.07.1,0,0.07-0.06a1.4,1.4,0,0,1-.41-0.15c-0.06-.07,0-0.16,0-0.22a2.66,2.66,0,0,1-.38-0.11c0,0.13,0,.1-0.11.19h0.33l-0.24.13a2.26,2.26,0,0,1,.26,0c-0.12.07-.1,0-0.08,0.15a1,1,0,0,0-.4-0.1l0.07-.29A3.31,3.31,0,0,0,32,231l0.08,0.07c-0.06.11-.18,0-0.29,0a0.27,0.27,0,0,0,0-.21c0,0.07-.21-0.05-0.28.13l-0.1-.16a4.8,4.8,0,0,0-.54.14c0.09-.09,0-0.18.17-0.22-0.07,0-.14,0-0.15,0a0.77,0.77,0,0,1-.28,0s-0.07.13-.16,0.11a0.08,0.08,0,0,1,0,0s-0.15,0-.1.16c-0.16-.35-0.65-0.12-0.79-0.42a3.91,3.91,0,0,1-.52,0s0,0,0,0c-0.18-.13-0.19.25-0.4,0.1s0.14-.06.08-0.13c0-.32-0.29,0-0.41-0.24h0a1.22,1.22,0,0,0-.51,0,0.08,0.08,0,0,0,0,0,1.08,1.08,0,0,1-.63.14c0.09-.11.1,0,0.09-0.18s0,0.21-.2.21A0.52,0.52,0,0,1,27,230l0.16,0c0-.19-0.21,0-0.28-0.09l0-.07a2.41,2.41,0,0,1-.55.09V230c-0.18.16-.1-0.13-0.27,0v-0.2a2.55,2.55,0,0,1-.55.11A1.45,1.45,0,0,1,26,229.7a0.49,0.49,0,0,0-.39,0,0.13,0.13,0,0,1,.13,0,0.54,0.54,0,0,1-.5.12c0.11-.37-0.46-0.2-0.54-0.52a3.24,3.24,0,0,1-1-.26c0.07,0.32-.11,0-0.16.29-0.09,0-.13,0-0.13,0l-0.23-.24c0-.1.1,0,0.11-0.12-0.19-.07-0.05-0.14-0.17-0.25,0,0.11-.1.14-0.2,0.07L23,229c-0.31.1-.18-0.3-0.49-0.2l0.11-.08a1,1,0,0,0-.71.09s0-.13,0-0.14a3.45,3.45,0,0,1-1-.11l0-.07c-0.07,0-.14.11-0.2,0s0-.07,0-0.08a0.31,0.31,0,0,1-.27,0l0.09-.07a1.52,1.52,0,0,0-.84.08,0.43,0.43,0,0,0-.32-0.4v0a3.25,3.25,0,0,0-1.07,0,3.4,3.4,0,0,0-1.05-.47c0,0.05,0,.17-0.11.17s-0.26.1-.21-0.1h0c0-.21-0.2-0.19-0.34-0.23l-0.08.25c-0.27-.45-0.95-0.06-1.06-0.44-0.1,0-.2,0-0.3.07l0-.14a2,2,0,0,0-.63-0.16l0.08-.09a4.83,4.83,0,0,0-.44.33v-0.22a1.38,1.38,0,0,0-.85-0.18,0.1,0.1,0,0,1,.08-0.09c-0.13,0-.49-0.25-0.5,0,0-.19-0.29-0.08-0.46,0l0.05-.13a0.48,0.48,0,0,1-.37.2s0-.12,0-0.07c-0.13-.1-0.14.1-0.3,0l0.08-.07c-0.14,0-.14,0-0.25.09a0.24,0.24,0,0,1-.27-0.22,0.17,0.17,0,0,1-.22.1,0.09,0.09,0,0,1,.06-0.08,2.58,2.58,0,0,1-.54-0.09,0.12,0.12,0,0,0,0-.09,1.59,1.59,0,0,1,.33.09c0-.13-0.13-0.18,0-0.33a0.72,0.72,0,0,1-.55.13,0.17,0.17,0,0,1,0,0h0a0.11,0.11,0,0,0-.1,0,0.35,0.35,0,0,0-.12-0.07c0-.11-0.17-0.1-0.25-0.12,0,0.14-.12.09,0,0.23s0,0,.07,0h0l0.2,0c-0.08.06-.16,0.1-0.23,0l-0.16.2c-0.07-.21-0.25-0.36-0.25-0.49a1.07,1.07,0,0,0-.78.15C9,226.23,9,226.12,9,226.07a0.28,0.28,0,0,0,.12,0,0.57,0.57,0,0,0-.48.11C8.44,226,8.72,226,8.48,226l0,0c-0.4-.39-0.86.3-1.29-0.19a0.11,0.11,0,0,1,0,.08c-0.55-.29-1.24-0.11-1.77-0.5-0.15-.09-0.2,0-0.32.09v-0.16L5,225.39c-0.27.07-.34-0.45-0.7-0.29l0,0.11c-0.11,0-.36,0-0.32-0.13s-0.06.1-.09,0V225l-0.3.07c-0.2-.1.1-0.3-0.21-0.38A0.44,0.44,0,0,0,3,225a0.14,0.14,0,0,1,.09.15l-0.11,0a0.54,0.54,0,0,0,0,.65l0.21-.1,0,0.12-0.15,0c0.06,0.12.14,0,.21,0a0.19,0.19,0,0,0,0,.14l0.22-.18c0,0.09-.12.16,0,0.23,0.1-.08,0-0.22.12-0.25,0.06,0.12,0,.2.14,0.13a0.1,0.1,0,0,1-.07.11,0.55,0.55,0,0,0,.32-0.09c0.06,0.15.31,0,.25,0.25A0.47,0.47,0,0,1,4.65,226c-0.21.23,0.3,0.08,0.2,0.35a1.13,1.13,0,0,1,.65-0.1s0,0-.06,0a0.53,0.53,0,0,1,.19.18A0.67,0.67,0,0,1,6,226.15c0.1,0.21-.13.21-0.13,0.39a2.15,2.15,0,0,0,.25-0.24,0.35,0.35,0,0,1,.1.25c0.07-.24.11,0,0.22-0.15,0.12,0.15,0,.23.17,0.2S6.5,226.74,6.5,226.74Zm4,0.44h0Zm0.33,0.07-0.14,0s0-.1.05-0.09A0.18,0.18,0,0,0,10.85,227.25Zm-0.49-1.1a0.05,0.05,0,0,1,.07.05h-0.1v0Z"/><path class="cls-1" d="M10.23,226.3h0l0,0,0,0h0Z"/><path class="cls-1" d="M40.14,233h0v0Z"/><polygon class="cls-1" points="15.36 228.51 15.37 228.47 15.33 228.5 15.36 228.51"/><path class="cls-1" d="M41.86,233.9a0.07,0.07,0,0,0,0,0A0.09,0.09,0,0,0,41.86,233.9Z"/><path class="cls-1" d="M42.64,234.1l0.1,0.07Z"/><path class="cls-1" d="M43.23,234.3l0-.06h0Z"/><path class="cls-1" d="M33.58,232.37h0C33.49,232.39,33.53,232.38,33.58,232.37Z"/><path class="cls-1" d="M36.51,232.67l-0.11,0S36.49,232.75,36.51,232.67Z"/><path class="cls-1" d="M30.35,231.84h0Z"/><path class="cls-1" d="M36.27,232.68a0.14,0.14,0,0,0,.13,0A0.21,0.21,0,0,0,36.27,232.68Z"/><path class="cls-1" d="M45.83,234.93h0v0h0Z"/><path class="cls-1" d="M45.87,234.92h0A0,0,0,0,0,45.87,234.92Z"/><path class="cls-1" d="M46,234.9l-0.08,0A0.06,0.06,0,0,0,46,234.9Z"/><path class="cls-1" d="M45,234.7l0,0Z"/><path class="cls-1" d="M44.8,234.66a0.42,0.42,0,0,0,.21.12l0,0A1.54,1.54,0,0,0,44.8,234.66Z"/><path class="cls-1" d="M43.92,233.82l0.2,0.08c0-.06-0.06-0.14,0-0.13C43.93,233.56,44.18,233.9,43.92,233.82Z"/><path class="cls-1" d="M43.3,233.61c0.11,0,0-.08,0-0.11S43.23,233.54,43.3,233.61Z"/><path class="cls-1" d="M38.74,232.61l0-.12C38.69,232.49,38.76,232.54,38.74,232.61Z"/><polygon class="cls-1" points="37.72 233.07 37.79 233.16 37.85 233.06 37.72 233.07"/><polygon class="cls-1" points="37.4 232.06 37.44 232.06 37.29 232.07 37.4 232.06"/><path class="cls-1" d="M29.72,230.44v0.16C29.78,230.58,29.83,230.41,29.72,230.44Z"/><path class="cls-1" d="M26.38,229.88c0-.08-0.1-0.15-0.18-0.09A0.63,0.63,0,0,0,26.38,229.88Z"/><polygon class="cls-1" points="16.5 227.46 16.58 227.43 16.45 227.44 16.5 227.46"/></svg>