<svg id="Layer_1" data-name="Layer 1" xmlns="http://www.w3.org/2000/svg" viewBox="0 0 90 90"><defs><style>.cls-1{fill:#b1babf;}</style></defs><title>stamp</title><path class="cls-1" d="M53.29,25.14c-0.93-1-2.72-.14-3.81.29a13.33,13.33,0,0,0-3,2c-0.58.47-1,.93-1.59,1.43s-0.86.89-1.28,1.32a35.22,35.22,0,0,0-4.47,5.26,15.63,15.63,0,0,1-1.36,1.75c-0.58.68-1,1.43-1.55,2.15a1.12,1.12,0,0,1-1,.47,7,7,0,0,1-2.14-.29A3.62,3.62,0,0,1,32,39a2.07,2.07,0,0,1-.66-0.75c-0.27-.32.12-0.36,0.35-0.64s0.58-.39.82-0.57c0.47-.32.86-0.68,1.32-1a27.37,27.37,0,0,0,2.88-2.61,10,10,0,0,0,1.75-2.26,3.9,3.9,0,0,0,.89-2.83c-0.31-1.43-3-.47-3.81,0A11.67,11.67,0,0,0,32,31.12a10.15,10.15,0,0,0-1.91,3.44,6.71,6.71,0,0,0-.19,2.15,2.18,2.18,0,0,0,.31,1.11c0.19,0.29-.54.54-0.86,0.68s-1.21.54-1.55,0.11a1,1,0,0,1,.16-1c0.19,0,.62-0.39.31-0.43-0.74-.18-0.89,1.15-0.78,1.47,0.12,0.54,1,.57,1.44.5a10.22,10.22,0,0,0,1.13-.43c0.23-.11.54-0.39,0.66-0.18a3.76,3.76,0,0,0,1.32,1,3.47,3.47,0,0,1,.54.21c0.31,0,.58.21,0.93,0.29a4,4,0,0,0,1.13.07,7.08,7.08,0,0,0,1,.07,3.52,3.52,0,0,1-.7.9c-0.23.25-.43,0.54-0.66,0.79-0.54.57-1.17,1.18-1.71,1.79a30.55,30.55,0,0,1-3,3.22c-0.08.14-.19,0.18-0.27,0.32-0.23.18-.23,0-0.51,0s-0.62-.21-1-0.32c-0.82-.21-1.63-0.43-2.53-0.61a13.52,13.52,0,0,0-5.09-.32c-1.83.32-3.58,0.5-4.94,1.72a1.56,1.56,0,0,0-.31,2.15,1.92,1.92,0,0,0,.82.72,3.42,3.42,0,0,1,.66.43c0.39,0,.74.14,1.13,0.21a7.34,7.34,0,0,0,2.33.14,15.55,15.55,0,0,0,4.67-.86,12,12,0,0,0,1.71-.72,2.3,2.3,0,0,1,.86-0.39,5,5,0,0,1,.82-0.5,6.3,6.3,0,0,1,1-.64l0.07,0,0,0a24.86,24.86,0,0,1,3.62,3.07c0.81,0.78,1.66,1.58,2.49,2.26l0,0a2.27,2.27,0,0,0,.35.32,1.33,1.33,0,0,0,.35.28,1.33,1.33,0,0,0,.56.48,1.58,1.58,0,0,0,.66.52h0l0,0v0a1.82,1.82,0,0,0,.64.57,2.29,2.29,0,0,1,.25.18L38.29,56a2.93,2.93,0,0,1,.59.41,1.86,1.86,0,0,0,.83.59,3.06,3.06,0,0,0,.66.47L41.23,58a12.17,12.17,0,0,0,2.64,1.34,8.58,8.58,0,0,0,2.48.47l0.47,0a2.66,2.66,0,0,0,.54-0.15,3.43,3.43,0,0,1,.42-0.12,1.35,1.35,0,0,0,.32-0.14,1,1,0,0,1,.44-0.15A1,1,0,0,0,49.07,59a1.43,1.43,0,0,1,.39-0.25,0.79,0.79,0,0,0,.19-0.18,1.23,1.23,0,0,1,.16-0.16A1,1,0,0,0,50.12,58a1.56,1.56,0,0,1,.22-0.35,2,2,0,0,0,.47-1,0.36,0.36,0,0,0-.08-0.23l0,0a0.85,0.85,0,0,0-.1.33,1.69,1.69,0,0,1-.05.22,2.42,2.42,0,0,1-.63.91,3,3,0,0,1-1.55.8,7.27,7.27,0,0,1-1.51.17,4.55,4.55,0,0,1-1.36-.2l-0.3-.08-0.29-.08a2.55,2.55,0,0,1-.77-0.23l-0.35-.14c-0.19-.12-0.38-0.22-0.6-0.34l-0.44-.24-0.13-.07A3,3,0,0,0,42,57.29l-0.37-.19a4,4,0,0,0-.46-0.23,0.89,0.89,0,0,1-.26-0.18,0.8,0.8,0,0,0-.24-0.17,0.94,0.94,0,0,1-.15-0.14,0.83,0.83,0,0,0-.13-0.12l-0.26-.2a4.54,4.54,0,0,0-.48-0.34,3.7,3.7,0,0,1-.9-0.62,1.54,1.54,0,0,0-.59-0.41,1.53,1.53,0,0,1-.59-0.53,2.28,2.28,0,0,1-.83-0.6,3.81,3.81,0,0,0-.45-0.39,9.65,9.65,0,0,1-.93-0.77,9.53,9.53,0,0,0-.91-0.75,4.74,4.74,0,0,1-.66-0.45L33.6,51c-0.32-.27-0.66-0.55-1-0.85l0,0a18.14,18.14,0,0,0-3.18-2.4A4.5,4.5,0,0,1,31,46.56c1.24-1.19,2.51-2.4,3.63-3.66,0.7-.72,1.32-1.43,1.94-2.15A3.42,3.42,0,0,1,37.27,40a0.89,0.89,0,0,1,.58-0.11,2,2,0,0,1,.7-0.18,4.13,4.13,0,0,1,.58-0.25,4.57,4.57,0,0,0,.66-0.18c0.58-.25,1.13-0.5,1.71-0.79a2.68,2.68,0,0,1,1-.47,9.15,9.15,0,0,0,1-.68c0.35-.32.89-0.57,1.28-0.89a11.7,11.7,0,0,1,1.13-.86,19.36,19.36,0,0,0,1.63-1.4c0.23-.21.51-0.39,0.7-0.61,1-1.15,2.22-2.08,3.15-3.29A18.06,18.06,0,0,0,53.06,28C53.45,27.25,54.07,25.86,53.29,25.14Zm-22,9.77a12.44,12.44,0,0,1,1.67-3,13.85,13.85,0,0,1,2.37-2.54A6.55,6.55,0,0,1,38,27.83c1.71-.21.93,1.68,0.54,2.47a11.18,11.18,0,0,1-1.75,2.54,18.51,18.51,0,0,1-2.92,2.76c-0.82.64-2,1.47-2.76,1.93C30.7,37.74,31.13,35.24,31.28,34.91ZM27.63,48.41a14.36,14.36,0,0,1-1.52.79,5,5,0,0,1-1.87.79,2.78,2.78,0,0,0-.58.25c-0.39.11-.78,0.18-1.17,0.29-0.7.07-1.36,0.25-2.1,0.36a9.6,9.6,0,0,1-3.81-.36c-1-.36-1.91-1-1.52-2.11a3.64,3.64,0,0,1,1.71-1.25A11.28,11.28,0,0,1,22,46.26c0.54,0,1.13.14,1.59,0.18a3.12,3.12,0,0,1,1.28.21,14.06,14.06,0,0,0,1.75.54,8.26,8.26,0,0,1,1.59.47,0.57,0.57,0,0,0,.35.11C28.21,47.94,28,48.27,27.63,48.41Zm25-20.9a8.78,8.78,0,0,1-2.14,3c-0.47.39-.74,1-1.17,1.4s-1,.89-1.44,1.29c-0.86.82-1.75,1.58-2.72,2.4a17.6,17.6,0,0,1-7.12,3.83,1.08,1.08,0,0,0-.43.11A13.19,13.19,0,0,1,39.56,37c0.35-.5.74-1,1.09-1.4a14.15,14.15,0,0,0,1.28-1.68,6.38,6.38,0,0,1,1.24-1.47c0.31-.39.7-0.9,1.05-1.32,0.78-.89,1.71-1.68,2.53-2.47a17.16,17.16,0,0,1,2.53-2.4,5.52,5.52,0,0,1,2.49-1.11,1.06,1.06,0,0,1,1.36.89A2.87,2.87,0,0,1,52.67,27.5Z"/><path class="cls-1" d="M70.42,34a5.53,5.53,0,0,0,1-1.58A0.67,0.67,0,0,0,70.73,32c-1.06,0-2.65,1.21-3.33,1.83V34a1.09,1.09,0,0,1-.34.21,63.51,63.51,0,0,0-5.15,5.65l-0.57.72a2.78,2.78,0,0,0-.8,1l-0.11.1v0.09l0,0-0.16,0L60.14,42c-1.12.8-3.3,2.74-3.92,3.25l-0.23.1v0.17a7,7,0,0,0-1.52,1.21,1.66,1.66,0,0,0-.72.69v0.1H53.64l-0.15.24c-0.23.21-2.35,2.1-2.46,2.1H50.91a4,4,0,0,1,.64-1A7.16,7.16,0,0,1,52,47.49L52.35,47c0.57-1.27,1-2.58,1.67-3.82,0.42-.79.76-1.69,1.21-2.41a16.75,16.75,0,0,0,.91-1.89,17.53,17.53,0,0,0,2.77-3.2,6.29,6.29,0,0,0,1.86-2.41,0.61,0.61,0,0,0-.19-0.41,1.54,1.54,0,0,0-.38-0.1c-0.87,0-2.84,2.1-3.3,2.72-0.15.21-1,1.41-1.14,1.52a25.67,25.67,0,0,0-2.12,3.82A7.63,7.63,0,0,0,53,41.84a3.28,3.28,0,0,1-.11.41,34.14,34.14,0,0,0-2.43,2.62,8.34,8.34,0,0,0-1.63,1.55c-0.11.1-.49,0.31-0.68,0.45A22.05,22.05,0,0,0,46,49c-0.19.14-1.55,1.31-1.67,1.34v0.1H44.17a4.3,4.3,0,0,1-.91.9,2.31,2.31,0,0,0-.42.21v0.17H42.73L42,52.31l0,0.14a0.23,0.23,0,0,0-.23.07c-0.57.34-1,.9-1.67,1.24a31.49,31.49,0,0,1-3.22,1.69,1.41,1.41,0,0,1-.34.14,8.18,8.18,0,0,1-1.33.17,0.68,0.68,0,0,1-.76-0.38,2.65,2.65,0,0,1,1-.52c0-.14.72-0.48,1-0.79a1.22,1.22,0,0,0,.8-0.45c0.45-.38,2.08-1.65,2.35-2a18.3,18.3,0,0,0,1.21-1.45l0.11-.1,0.11-.21h0.19c0.15-.41.61-0.79,0.8-1.28a1.79,1.79,0,0,0,.45-0.72,4.86,4.86,0,0,0,.53-0.79,6.56,6.56,0,0,0,.45-2.1,0.67,0.67,0,0,0-.45-0.72l-0.08-.1H42.73l0-.1H42.46l-0.11-.17H41.74c-2.69,0-5.46,2.58-7,4.38-0.3.31-.45,0.65-0.76,1-0.11.28-1,1.86-1,1.89a0.2,0.2,0,0,1,0,.21l-0.11.1a8.89,8.89,0,0,0-.23,1,0.08,0.08,0,0,0,.08.1l-0.11,0v0.07c0,0.34-.08.72-0.08,1.1A10.59,10.59,0,0,0,33,55.55a0.47,0.47,0,0,1,0,.21,8.2,8.2,0,0,1-2.24.38,2.16,2.16,0,0,1-2.27-2.2,2.53,2.53,0,0,1,1.18-2.1c0.11-.07.34,0,0.38-0.17a0.38,0.38,0,0,0-.34-0.14,2.56,2.56,0,0,0-2,2.1c0,1.34.45,1.76,1.52,2.62,0.38,0,.68.24,0.95,0.24,0.11,0,.23,0,0.34,0s0.38,0,.49,0c0.95,0,1.78-.59,2.39-0.59a2.32,2.32,0,0,1,.53.17c0.19,0,1.4.17,1.55,0.17a10.94,10.94,0,0,0,1.74-.48l0.15-.21h0.23l0.08-.1a1.87,1.87,0,0,1,.3-0.07l0.15-.21a11.24,11.24,0,0,1,1.63-.72,1.77,1.77,0,0,1,.72-0.52,1.18,1.18,0,0,1,.53-0.31A5,5,0,0,0,41.4,53a0.41,0.41,0,0,0,.42-0.1c-0.08-.21.23-0.1,0.23-0.24V52.55a1.4,1.4,0,0,0,.64-0.45,16.14,16.14,0,0,0,1.67-1.28v-0.1h0.11a9.76,9.76,0,0,0,2.08-2A14.1,14.1,0,0,0,48,47.52c0.3-.45,1.1-0.93,1.63-1.55l0.11-.07a0.19,0.19,0,0,1,0-.14c0.42-.38.8-0.65,1.18-1a1.22,1.22,0,0,1,.23-0.31,0.8,0.8,0,0,1,.27-0.17V44.11a2.17,2.17,0,0,1,.45-0.34,0.13,0.13,0,0,1,.08-0.1s0,0,0,0a21.59,21.59,0,0,1-1.14,2.51,5.25,5.25,0,0,1-.34.9c-0.11.31-.42,0.62-0.53,1a13.32,13.32,0,0,1-.68,1.52c-0.11.28-.34,0.52-0.45,0.79a4.6,4.6,0,0,0-.19.69,12,12,0,0,1-.91,1.65,3,3,0,0,1-.57.59,1.35,1.35,0,0,0-.11.28l-1.4,1.45c0,0.07-.49.62-0.49,0.62H45.15a3.17,3.17,0,0,1-.3.76,1,1,0,0,0,.27.55l0.23,0.07c1.44,0,1.59-1.17,2.46-1.69a6.92,6.92,0,0,1,.64-1.14l0.11-.1,0.38-.72A0.31,0.31,0,0,0,49,53.17l0.15,0a1.49,1.49,0,0,1,.38-0.59,6.57,6.57,0,0,1,.8-1.62,18.33,18.33,0,0,0,1.59-1.34A0.88,0.88,0,0,0,52.43,49c0.23,0,1-1,1.36-1.1a5.47,5.47,0,0,1,1.52-1.52,0.14,0.14,0,0,1,0-.1A7.12,7.12,0,0,0,56.9,44.9a3.06,3.06,0,0,0,1.33-1.1A1.78,1.78,0,0,0,59,43.35c0.11-.07,0-0.21,0-0.28s0.23,0,.3,0a0.77,0.77,0,0,1,.23-0.24h0.11c-0.19.28-.35,0.59-0.52,0.88L59,43.8a8.86,8.86,0,0,1-.44.81,0.78,0.78,0,0,1-.24.26,0.66,0.66,0,0,0-.09.29,25.37,25.37,0,0,0-1.84,3.16l-0.6,1A41.18,41.18,0,0,0,52,57.26c0,0.16,0,.26,0,0.42a1.49,1.49,0,0,0-.27.39l-0.07.52c-0.15.55-.37,1.1-0.51,1.69a7.73,7.73,0,0,0-.26,1.59c0,0.39-.05.78,0,1a1.61,1.61,0,0,0,.06.23c0,0.1,0,.19,0,0.29a5.92,5.92,0,0,0,.37,1.38l0.12,0.1a2.79,2.79,0,0,0,2.86,1.64,4.18,4.18,0,0,0,1.62-.63,0.16,0.16,0,0,0,0-.13,1.54,1.54,0,0,0,.73-0.88,3.86,3.86,0,0,0,.95-1.5V63.33c0-.19-0.32-0.19-0.43-0.22a0.31,0.31,0,0,0-.1.13c0,0.1.13,0.19,0.14,0.29l-0.6,1.11a2.9,2.9,0,0,1-2.72,1.62A3.33,3.33,0,0,0,53.35,66a5.36,5.36,0,0,1-.76-2.45c-0.21-2.74,1-6,2.14-8.62l0.67-1.66,2-3.61c0.3-.58.63-1.2,1-1.79l0.09-.36c0.07-.1.22-0.13,0.29-0.23L58.86,47c0.49-1,1.22-1.89,1.67-2.86l0.11-.1a0.35,0.35,0,0,0,0-.19l0.25-.16c0-.08.29-0.6,0.38-0.9h0a0.75,0.75,0,0,0,0-.14,1.42,1.42,0,0,0,.19-0.2h0c0.19-.23.45-0.59,0.63-0.83l-0.07-.06a10.32,10.32,0,0,1,1-1.2,1.47,1.47,0,0,0,.57-0.59c1.18-.41,1.67-1.76,2.84-2.24,0.15-.28.15-0.31,0.23-0.31a0.78,0.78,0,0,0,.23-0.1V37a1.27,1.27,0,0,0,.8-0.69c0.61-.31,2.31-2,2.5-2C70.2,34.14,70.27,34,70.42,34ZM57.32,37c0-.07,0-0.21,0-0.28l0.19-.1c0-.1,0-0.21.15-0.21a6.32,6.32,0,0,1,.95-1.69l0.15,0c0.19-.38,1-1.58,1.52-1.52h0v0.1a2.84,2.84,0,0,1-.61.93,5.34,5.34,0,0,1-1.33,1.52,7.81,7.81,0,0,1-1.18,1.48s0,0,0-.07S57.32,37,57.32,37ZM34,54.75c0-.21.08-0.41,0.08-0.69C34,54,34,53.82,34,53.72V53.65l0.11,0V53.34a5.75,5.75,0,0,1,.23-0.93,5.62,5.62,0,0,0,.23-1c0.08-.14.23-0.21,0.3-0.34s0-.21.08-0.28c0.45-.48.95-1.72,1.44-2.34,0.34-.55,2.12-2.38,2.16-2.58,0.42-.1,1.44-1.21,2.27-1.41l0-.1c0.11,0,.91-0.21,1-0.21a2.49,2.49,0,0,1,1.21.62,6.86,6.86,0,0,1-1.89,4.34,1.16,1.16,0,0,1-.34.48l0,0.21-0.27.07s0,0.1,0,.14a2.19,2.19,0,0,1-.3.28,2.88,2.88,0,0,1-.61.83,38.88,38.88,0,0,1-3.6,3l-0.23.1a5.45,5.45,0,0,1-1.7.9A0.68,0.68,0,0,1,34,54.75Zm11.29,1.89a0.34,0.34,0,0,1,0-.21,7.34,7.34,0,0,0,.27-0.69,3,3,0,0,0,.8-1A2,2,0,0,0,47,54a0.19,0.19,0,0,1,0,.14A6.19,6.19,0,0,1,45.27,56.65ZM70.08,33.83A26,26,0,0,1,66,37.38l-0.08.1a1.24,1.24,0,0,1-.53.41,0.85,0.85,0,0,1-.11.28,0.46,0.46,0,0,0-.27.1,5.71,5.71,0,0,1-.91.93c-0.08,0-.08,0-0.08,0a0.89,0.89,0,0,1,.3-0.34,27.11,27.11,0,0,1,2-2.48l0.15-.07a28.41,28.41,0,0,1,3-3.24c0.11-.07.19,0,0.3-0.07l0.11-.21a1.58,1.58,0,0,0,.64-0.31h0c0.11,0,.23.1,0.34,0.1a0.07,0.07,0,0,1,.08.07,0.31,0.31,0,0,0-.11.1L70.73,33c0,0.1-.11.1-0.19,0.14s0,0.21,0,.28A4,4,0,0,1,70.08,33.83Z"/><path class="cls-1" d="M87.62,45.27V45.6C87.48,45.66,87.49,45.2,87.62,45.27ZM87.4,49.09l0-.14c0-.08,0-0.2,0-0.31l0-.45A1,1,0,0,0,87.4,49.09Zm-0.22,1.2c0,0.16-.11.48,0,0.41l0.05-.4H87.17Zm-0.45,3.06s0.05-.2.08-0.4l0.07-.4A0.82,0.82,0,0,0,86.73,53.36ZM85.9,56.6l0.38-1.33A2.17,2.17,0,0,0,85.9,56.6Zm-0.27.58a0.29,0.29,0,0,0,0,.28l0.08-.23L85.79,57C85.73,56.94,85.67,57,85.64,57.18Zm-0.46,1.67,0.37-1.08A1.58,1.58,0,0,0,85.18,58.85Zm-0.7,1.83L85,59.24A2.79,2.79,0,0,0,84.48,60.68ZM83.86,62.1l0.25-.56,0.17-.38L84.36,61A1.94,1.94,0,0,0,83.86,62.1ZM83,63.86l0.26-.51C83.18,63.2,82.94,63.8,83,63.86Zm-0.59.93a0.92,0.92,0,0,0-.18.51s0.15-.25.28-0.5l0.26-.51A1.54,1.54,0,0,0,82.43,64.79Zm-0.94,1.58a4.12,4.12,0,0,0-.5,1l0.19-.3c0.11-.18.28-0.42,0.41-0.67l0.57-1A4.75,4.75,0,0,0,81.49,66.38Zm-1,1.6c-0.07.14-.3,0.39-0.16,0.38L80.6,68Zm-1.25,1.91,0.24-.33C79.44,69.42,79.18,69.84,79.29,69.89ZM77,72.54c-0.19.23-.38,0.47-0.61,0.71L75.7,74c-0.25.25-.49,0.51-0.75,0.76l-0.8.75c-0.52.51-1.09,1-1.59,1.44s-1,.87-1.39,1.27l1-.81,1-.87c0.18-.16.38-0.32,0.56-0.5l0.56-.54L74.88,75l0.28-.26,0.26-.27,0.92-1c0.27-.28.48-0.53,0.63-0.7l0.23-.27C77.16,72.41,77.05,72.58,77,72.54Zm-6.42,6.11L71,78.3C71,78.12,70.55,78.56,70.59,78.65Zm-1.06.76,0.33-.24C69.82,79,69.43,79.33,69.53,79.41ZM67.15,81l0.27-.18C67.4,80.66,67,80.9,67.15,81Zm-1.48.85,0.49-.28C66.11,81.42,65.58,81.73,65.66,81.84Zm-3.28,1.63,0.89-.4A1.21,1.21,0,0,0,62.38,83.47Zm-0.89.4,0.13-.05,0.28-.13,0.41-.18A1,1,0,0,0,61.48,83.87Zm-0.33.05c-0.15.08-.55,0.15-0.43,0.24L61.18,84Zm-1.39.51a1.4,1.4,0,0,0-.57.31l0.19-.07c0.12,0,.27-0.09.42-0.15l0.61-.24A1.78,1.78,0,0,0,59.77,84.44Zm-1.65.67,0.77-.26A0.89,0.89,0,0,0,58.12,85.11Zm-1.41.42,0.94-.27A1.22,1.22,0,0,0,56.71,85.53Zm-1.1.31,0.15,0,0.32-.09,0.47-.13A1.28,1.28,0,0,0,55.61,85.84Zm-2,.35a1.43,1.43,0,0,0-.51.2l0.48-.09,0.48-.11C54.09,86.09,53.88,86.12,53.65,86.18Zm-1.95.45,1.12-.2A1.68,1.68,0,0,0,51.7,86.64Zm-2.26.3,0.81-.1A0.84,0.84,0,0,0,49.44,86.93ZM48.22,87l0.65,0C48.87,86.83,48.25,86.91,48.22,87Zm-0.89.07,0.57,0C47.87,87,47.24,86.94,47.32,87.1ZM45,87.16h0.73l0.73,0A2.73,2.73,0,0,0,45,87.16Zm-2-.16c-0.14,0-.27,0-0.24.09l0.24,0h0.24C43.19,87,43.05,87,42.92,87Zm-2.32-.19-1.72-.21c-0.33,0-.69-0.13-1-0.18a1.74,1.74,0,0,0-.77,0l0.75,0.13,0.77,0.13,0.89,0.11c0.61,0.07,1.21.17,1.67,0.19L41.95,87A7.34,7.34,0,0,0,40.6,86.81Zm-4-.62a0.6,0.6,0,0,0-.5,0l0.48,0.11L37,86.39A0.58,0.58,0,0,0,36.56,86.19Zm-1.14-.14,0.4,0.09C35.88,86,35.39,85.89,35.42,86.05Zm-1.08-.37c-0.18-.05-0.37-0.06-0.34,0l0.31,0.09,0.22,0.06,0.1,0C34.7,85.8,34.52,85.73,34.34,85.68Zm-0.56-.11c-0.15,0-.46-0.18-0.41,0l0.39,0.11Zm-2.28-.62,0.62,0.21,0.43,0.14,0.2,0.06A2.58,2.58,0,0,0,31.5,84.95Zm-1.16-.4,0.14,0.05,0.32,0.11,0.46,0.16A1.22,1.22,0,0,0,30.34,84.55Zm-0.66-.33c-0.16,0-.5-0.26-0.48-0.11l0.45,0.18ZM29.08,84c-0.16,0-.5-0.26-0.48-0.11L29.05,84Zm-1.3-.48,0.67,0.3A0.71,0.71,0,0,0,27.78,83.5Zm-0.33-.26c-0.24-.13-0.53-0.27-0.85-0.43l-1-.52c-0.73-.34-1.5-0.78-2.23-1.2L23,80.91l-0.68-.44-1-.64a7,7,0,0,0-1.66-1l1.17,0.83c0.35,0.26.78,0.52,1.23,0.81l0.7,0.45c0.24,0.16.49,0.29,0.74,0.44l0.74,0.43c0.25,0.14.49,0.28,0.73,0.4l1.31,0.67,0.53,0.26,0.41,0.19,0.36,0.16C27.66,83.3,27.59,83.31,27.45,83.23Zm-8.28-4.84,0.39,0.3C19.66,78.6,19.26,78.31,19.18,78.39Zm-2.64-2.18,0.37,0.32C17.08,76.48,16.57,76,16.54,76.21Zm-2.11-2,0.28,0.29C14.87,74.41,14.51,74.09,14.44,74.16ZM14,73.64c-0.13-.11-0.35-0.45-0.39-0.31L14,73.69Zm-1.36-1.41,0.59,0.68A1.12,1.12,0,0,0,12.68,72.23ZM11.7,71L12,71.42C12.11,71.35,11.8,71,11.7,71Zm-0.45-.58,0.3,0.38C11.66,70.78,11.34,70.36,11.24,70.46ZM11,70c-0.09-.15-0.21-0.33-0.33-0.5A3.82,3.82,0,0,0,10,68.75l0.59,0.83c0.15,0.21.29,0.42,0.41,0.57l0.2,0.25A2,2,0,0,0,11,70ZM9.75,68.28c-0.08-.16-0.19-0.33-0.3-0.51a5.83,5.83,0,0,0-.67-0.86L9.36,67.8l0.39,0.61,0.19,0.27A2.67,2.67,0,0,0,9.75,68.28Zm-1-1.61c-0.12-.14-0.26-0.58-0.35-0.46l0.14,0.25,0.1,0.17,0,0.08ZM8,65.4a1,1,0,0,0-.39-0.53l0.32,0.57ZM6.3,62.23l0.37,0.82A0.91,0.91,0,0,0,6.3,62.23Zm-0.46-1.3C5.65,60.5,5.44,60,5.26,59.58S5,58.7,4.8,58.26L4.58,57.6c-0.07-.22-0.15-0.44-0.21-0.67-0.25-.9-0.52-1.8-0.74-2.73-0.09-.35-0.14-0.75-0.21-1.11a2.39,2.39,0,0,0-.29-0.95l0.08,0.44L3.31,53.1c0,0.2.09,0.42,0.15,0.66,0.11,0.48.23,1,.39,1.64l0.53,1.86L5,59.08c0.21,0.58.43,1.11,0.61,1.57s0.35,0.83.47,1.1l0.19,0.41A6.26,6.26,0,0,0,5.83,60.94ZM3,50.94c0-.26,0-0.53-0.08-0.8s-0.08-.54-0.13-0.81l-0.16-.75v0.13c0,0.08,0,.21,0,0.35l0.13,1.06c0.05,0.38.09,0.77,0.14,1.06l0.09,0.48C3.06,51.44,3,51.2,3,50.94ZM2.52,46.8l0.13,1.71A4,4,0,0,0,2.52,46.8Zm83.68,7.77,0.18-.79A0.84,0.84,0,0,0,86.19,54.57Zm-0.91,2a0.44,0.44,0,0,0-.21.33,0.67,0.67,0,0,0-.06.43,0.59,0.59,0,0,1,.27-0.25c0,0.12-.09.26,0,0.25a3.37,3.37,0,0,1,.32-0.58C85.49,56.71,85.34,57,85.28,56.59ZM16.79,75.81a1.54,1.54,0,0,0-.74-1.06c-0.23-.22-0.49-0.43-0.71-0.64a5.22,5.22,0,0,1-.51-0.56,0.8,0.8,0,0,0,.11.68c0.05-.16.07-0.12,0.26,0a0.8,0.8,0,0,0,.43.71c-0.23-.25,0-0.4.22-0.23a5.13,5.13,0,0,0,.48.66c-0.11-.09-0.27-0.3-0.28-0.17a2.3,2.3,0,0,0,.35.58C16.34,75.45,16.63,75.81,16.79,75.81ZM17.5,76.1a3,3,0,0,0-.57-0.45c0,0.29,0,.27-0.26.29l0.18,0.16C17,75.94,17.39,76.33,17.5,76.1ZM85.83,54.4a0.66,0.66,0,0,0,.11.61,1.07,1.07,0,0,0,.11-0.31C85.85,54.78,85.93,54.48,85.83,54.4Zm-0.12.38c-0.07.23-.16,0.48-0.23,0.76l-0.27.93c0.15,0.14.22-.3,0.32-0.49a0.84,0.84,0,0,0,0-.26A1.07,1.07,0,0,0,85.71,54.79ZM28.14,82.89a1,1,0,0,0-.61-0.2A0.91,0.91,0,0,0,28.14,82.89ZM86.63,45.33a1.88,1.88,0,0,1,.16-0.64c-0.06-.16-0.17,0-0.25,0v0.48A1.38,1.38,0,0,0,86.63,45.33ZM57.32,84.44a1.73,1.73,0,0,0,.81-0.34C58,84.12,58,84,58,84l-0.34.11-0.23.08-0.11,0C57.51,84.3,57.35,84.32,57.32,84.44Zm-5.94,1.22a0.58,0.58,0,0,1-.24,0,0.18,0.18,0,0,0,.11.2,0.48,0.48,0,0,0,.37-0.2c0,0.07.22,0,.18,0.11,0.25,0,.5-0.27.2-0.25-0.08,0,0,.13-0.22.15a1,1,0,0,0,.06-0.15l-0.31.06A0.16,0.16,0,0,1,51.38,85.66Zm-1.17.26a0.6,0.6,0,0,1-.33-0.06,3.52,3.52,0,0,1-.55.14A1,1,0,0,0,50.21,85.91ZM49,86a1.12,1.12,0,0,0-.63.08A1.25,1.25,0,0,0,49,86Zm-11.69-.46a1.35,1.35,0,0,0,.72.06c-0.05-.09-0.5-0.08-0.54-0.17s0.35,0.08.25-.06l-0.7-.13A1.19,1.19,0,0,1,37.33,85.59Zm-1.4-.32a1.17,1.17,0,0,0,.71.13,0.87,0.87,0,0,1-.43-0.28L36,85.06ZM35,85.05a3.85,3.85,0,0,0,.79.14c-0.22-.08.07-0.1,0-0.17l-0.93-.21C34.83,84.91,35.11,84.94,35,85.05Zm-3.55-1.2c0.15,0.38.87,0.34,1.38,0.64,0.11,0,.05-0.13.19-0.09-0.18.13,0.49,0.25,0.59,0.24s-0.18-.15-0.18-0.23l-0.53-.15c0,0.07-.09.08-0.2,0.06s-0.19-.09-0.11-0.15L32.08,84A0.9,0.9,0,0,1,31.45,83.85Zm-8.66-4c0.13-.06-0.18-0.18-0.3-0.28C22.38,79.63,22.66,79.82,22.79,79.83Zm-17-21.29c0,0.13.06,0.27,0.1,0.4A0.47,0.47,0,0,0,6,59.2C6,59,6,59,6.13,59s0-.11-0.08-0.22L6,58.55C5.85,58.62,5.88,58.67,5.75,58.54Zm-2-7.89a3.29,3.29,0,0,0,.08.6c0,0.18.08,0.37,0.13,0.66a0.59,0.59,0,0,0,.18-0.19L4,50.93C3.87,51.15,3.91,50.6,3.79,50.65Zm-0.17-2c0-.14,0-0.4-0.09-0.31a3.65,3.65,0,0,0,0,.53,3,3,0,0,1,0,.66,2.08,2.08,0,0,0,.18.3,0.6,0.6,0,0,0-.09.41,0.54,0.54,0,0,0,.3.44L3.9,49.83c-0.06-.15-0.28-0.59-0.08-0.63l0-.15c0-.09,0-0.21,0-0.33l0-.48C3.57,48.17,3.69,48.59,3.61,48.66Zm83.11-2.77c-0.11,0-.11.3-0.22,0.31v0.16Q86.71,46.37,86.72,45.89Zm-7,21.75c0.08-.33.45-0.43,0.52-0.81a0.74,0.74,0,0,1-.36.24l-0.3.47Zm-0.61.64c0,0.17.13,0.19,0.28-.09C79.35,68.07,79.24,68.17,79.13,68.29ZM77.6,70.63A6,6,0,0,0,78,70a0.14,0.14,0,0,0-.19,0l-0.25.31A0.79,0.79,0,0,1,77.6,70.63Zm-12,10.2,0.41-.24c0-.07-0.17,0-0.18-0.14l-0.28.16C65.72,80.67,65.55,80.76,65.65,80.83ZM54.83,85a1.16,1.16,0,0,0-.36.19c0.41-.09.78-0.18,0.65-0.37l-0.31.07C54.72,85,54.78,85,54.83,85Zm-1.33.24a0.68,0.68,0,0,0-.36.25C53.41,85.45,53.58,85.37,53.49,85.24Zm-1.06.37A6.25,6.25,0,0,0,53,85.47a1.27,1.27,0,0,0-.27-0.13l-0.16,0C52.59,85.45,52.29,85.48,52.43,85.61Zm-1.5.21a0.44,0.44,0,0,1-.42-0.12l-0.39.05A1,1,0,0,0,50.93,85.82Zm-6.6.44a1.44,1.44,0,0,0,.48,0,0.42,0.42,0,0,0-.16-0.18h-0.4C44.24,86.13,44.38,86.15,44.32,86.26Zm-0.24-.11A0.73,0.73,0,0,1,43.53,86H43.21C43.39,86.09,43.92,86.4,44.09,86.15Zm-1.35-.08c0,0.12.22,0.15,0.47,0.16C43.27,86.08,42.94,86,42.73,86.07Zm-19.4-5.89c0.28,0.08,0-.2,0-0.27l-0.13-.09A0.56,0.56,0,0,0,23.33,80.18Zm-2.59-1.73c-0.07-.23.15,0,0.25-0.08l-0.13-.09C20.76,78.24,20.33,78.17,20.74,78.45Zm-0.88-.69,0.06-.08-0.56-.44A0.89,0.89,0,0,0,19.86,77.76Zm-3.08-2.53c0.23,0.24.34,0.2,0.43,0.12l-0.12-.11L17,75.13C16.95,75.25,16.83,75.16,16.78,75.23ZM11.6,69.48c0.12,0.18.2,0.18,0.26,0.1a0.31,0.31,0,0,1-.14-0.3l-0.14-.19C11.56,69.27,11.72,69.44,11.6,69.48Zm-0.8-1.19a2.67,2.67,0,0,1,.25.41c0.11,0-.08-0.25.08-0.25L11,68.26C10.94,68.37,10.85,68.22,10.79,68.29ZM9.7,66.44A1.25,1.25,0,0,1,9.35,66C9.22,66.11,9.65,66.58,9.7,66.44Zm-0.77-1c0.14,0.3.24,0.18,0.34,0.17l-0.12-.21C9.09,65.48,9,65.37,8.93,65.41Zm9,10.74c0-.09.16,0,0.18-0.08l-0.3-.26C17.66,75.88,17.71,76,17.88,76.15Zm-0.29-.39-0.24-.21C17.21,75.61,17.54,75.9,17.59,75.76ZM15,73.22a1.45,1.45,0,0,0,.33.45c0.08,0,0-.1,0-0.16L15,73.17ZM86.59,45.49c0,0.08,0,.06-0.07.08v0.32C86.6,45.87,86.72,45.54,86.59,45.49Zm0,1c-0.06,0-.06.07-0.11,0.07v0.24C86.6,46.91,86.67,46.68,86.6,46.53ZM18.82,76.9c0.2,0.17.33,0.2,0.4,0.14l-0.13-.1C19,77,18.88,76.86,18.82,76.9ZM15.5,73.8a0.44,0.44,0,0,0,.16.18,0.32,0.32,0,0,0,.23.11l-0.17-.16-0.16-.17Zm-2.9-3.38L12.26,70C12.09,70,12.51,70.47,12.6,70.42Zm3.53,4.09a0.67,0.67,0,0,0,.39.17L16,74.19A0.47,0.47,0,0,0,16.14,74.52ZM27.5,82.17c0.09,0.18-.05.17,0.19,0.36,0.31,0-.18-0.19,0-0.29ZM45,86.07c0.07,0.11.22,0.08,0.08,0.21a3.49,3.49,0,0,0,.8,0c-0.08-.14-0.8,0-0.72-0.19H45ZM85.75,56c0-.06.05-0.08,0.09-0.06a5.69,5.69,0,0,1,.2-0.7C85.88,55.11,85.82,55.88,85.75,56ZM25.33,81.52c-0.22-.11-0.41-0.22-0.59-0.32l-0.51-.29-0.89-.5c-0.54-.34-1.07-0.68-1.79-1.17-0.05.08-.08,0.2-0.25,0.08C20.93,79.11,21,79,21.16,79l-0.52-.37c-0.13,0,0,.18-0.34-0.07,0.05-.08.15,0,0.08-0.11-0.49-.36-0.78-0.51-1.07-0.72,0.26,0.17,0,.19-0.13,0a2.16,2.16,0,0,0-.74-0.83,2.57,2.57,0,0,0-1-.61,1.36,1.36,0,0,0,.29.53,0.81,0.81,0,0,1,.6.42c0.19,0.07.28,0,.47,0.06a0.17,0.17,0,0,1-.07.22,15.65,15.65,0,0,1,1.59,1.38c0.06-.19.77,0.31,0.51,0.4a7.73,7.73,0,0,1,.66.44,1.58,1.58,0,0,0,.61.28,2.12,2.12,0,0,0,1.16.74,2.61,2.61,0,0,0,1.09.71,0.9,0.9,0,0,1,.55.35,4.58,4.58,0,0,0,1.2.5l0,0.09,0.51,0.26a1.68,1.68,0,0,0,.38-0.05,1.35,1.35,0,0,0,.92.67,8,8,0,0,0,.78.3,3.79,3.79,0,0,0,.56.13,2.09,2.09,0,0,0,1.28.5,4.72,4.72,0,0,0,1.23.54c0.27,0.09.55,0.18,0.8,0.24a4.62,4.62,0,0,0,.58.1c-0.08-.11-0.31-0.2-0.24-0.32,0.51,0.1.3,0.31,0.45,0.46,0.42,0.13.58,0.05,1,.16,0,0-.11,0,0,0.1s0.25,0.08.63,0.16L36.23,86c0.25,0.06.51,0.11,0.74,0.15l0.65,0.12,0.64,0.11c0.06-.1-0.23-0.12-0.12-0.24a0.67,0.67,0,0,0,.42-0.07,1.2,1.2,0,0,0-.78-0.21c-0.09,0,.06.2-0.34,0.08-0.18-.12.13,0,0.11-0.16-1-.17-1.9-0.39-2.75-0.58C34.37,85.1,34,85,33.53,84.85s-0.88-.24-1.35-0.41c-0.2.09-.61,0-0.8,0.1a0.87,0.87,0,0,1-.2-0.18c0.05,0,.25.05,0.2-0.08A0.89,0.89,0,0,0,30.64,84a2.83,2.83,0,0,1,.66.3c-0.32-.1-0.36.05-0.67,0a2.85,2.85,0,0,1-.32-0.31A0.57,0.57,0,0,1,30,83.88c0-.11-0.3-0.24,0-0.19-0.18,0-.46-0.16-0.62-0.17a2.79,2.79,0,0,0-1-.5c0,0.13.14,0.22,0.33,0.29a0.7,0.7,0,0,1,.42.22,6.64,6.64,0,0,1-.73-0.15,2.78,2.78,0,0,0-1.24-.6,1.64,1.64,0,0,0-.34-0.43,2.41,2.41,0,0,0-.68-0.42c-0.2,0,.23.24,0,0.16a1.07,1.07,0,0,0-.44-0.38c-0.2.13,0.2,0.29,0.32,0.44C25.67,82.25,25.12,81.51,25.33,81.52Zm3.9,2.09c0.14,0,.54.14,0.42,0.24S29.11,83.72,29.23,83.62Zm-4.76-2.21-0.21-.12c0-.17.17-0.13,0.33-0.09C24.86,81.4,24.47,81.26,24.47,81.41Zm-3-1.86c0-.12.26,0,0.37,0S21.66,79.74,21.44,79.55Zm65-27.41c0.07-.26,0-0.3-0.08-0.34a5.11,5.11,0,0,0-.18.83,3.68,3.68,0,0,0,0,.37,2.27,2.27,0,0,0,0,.31,1.38,1.38,0,0,0-.28.76c0.12,0.12.11-.48,0.24-0.27-0.12.31-.11,0.72,0,0.5-0.08-.41.13-0.56,0.08-1a0.13,0.13,0,0,0,.12-0.06c0.1,0,0,.31.08,0.27s0.09-.26.12-0.39,0-.26.07-0.39,0.08-.55.16-0.88A3.58,3.58,0,0,0,86.42,52.14Zm-48,34c-0.17.06,0.19,0.15,0,.24l1.47,0.19,0.81,0.11,0.83,0.07,0.83,0.07c0.27,0,.54,0,0.81,0,0.53,0,1,0,1.47,0a2.21,2.21,0,0,0,1.21,0c0.26,0,.44.08,0.73,0.05a3.73,3.73,0,0,1,.72-0.2,1.46,1.46,0,0,0,.48,0c0,0.1-.13.08,0,0.14a2,2,0,0,0,1-.18,0.63,0.63,0,0,0,.49.07c0-.11-0.29-0.07-0.1-0.17a0.74,0.74,0,0,0,.69-0.36l-0.4.05-0.27,0H49c0,0.11.29,0.07,0.1,0.17a1.1,1.1,0,0,0-.4,0c0-.07.21-0.06,0.15-0.15-0.92,0-1.7.18-2.16,0.18,0,0.12.4,0.06,0.17,0.17a1.57,1.57,0,0,0-.57-0.2c-0.66,0-1.29,0-1.92,0l-0.93,0c-0.31,0-.61,0-0.91,0l-1.8-.13L39,86C39.1,86.24,38.67,86.14,38.46,86.15Zm9.73,0.53c0.18-.17-0.68-0.17.15-0.15C48.33,86.59,48.44,86.69,48.19,86.68Zm-3,.12V86.7a2,2,0,0,1,.48,0A1,1,0,0,1,45.2,86.8Zm-7-1.09c0.62,0,1,.15,1.74.25,0.21,0-.1-0.07,0-0.14a1.68,1.68,0,0,0,.5.2,3,3,0,0,0,.62.09c0.44,0,.91,0,1.33.08a0.17,0.17,0,0,0,.17-0.13c-0.2-.11-0.23.15-0.4,0V86l-0.4,0c0,0.09,0,.18-0.25.12a1.05,1.05,0,0,1,.09-0.13l-0.3,0c-0.18,0-.42,0-0.65-0.06l-0.95-.12,0,0.14c-0.1,0-.16-0.07-0.14-0.12a1,1,0,0,1-.47-0.06v0l-0.17,0-0.38-.06L38,85.46A1.12,1.12,0,0,0,38.21,85.71ZM3.45,44.76a3.38,3.38,0,0,0-.09,1.13l0.06,1.18a0.59,0.59,0,0,0,0-.39c0-.17,0-0.31.13-0.26l0-1,0-.68c0-.19,0-0.31,0-0.31H3.38A0.76,0.76,0,0,0,3.45,44.76ZM55.39,85c0.51-.27,2-0.3,1.71-0.7l-1.68.48C55.5,84.85,55.37,84.9,55.39,85ZM80.55,66.46c0.14-.33.19-0.79,0.48-0.74,0.21-.35.34-0.64,0.48-0.91l0.21-.41c0.07-.14.15-0.29,0.25-0.44s0-.09-0.06-0.12a6,6,0,0,0,.67-1.06,11.35,11.35,0,0,0,.51-1.29,1.83,1.83,0,0,0,.44-1.11c0.07,0.13.12-.08,0.19-0.09,0.26-.7.53-1.35,0.74-2s0.45-1.3.63-2,0.4-1.33.55-2l0.26-1.09C86,52.79,86,52.41,86.12,52A0.33,0.33,0,0,0,86,51.67a3.46,3.46,0,0,0,.29-1,3,3,0,0,0,0-.93,0.91,0.91,0,0,0,.08-0.87c0.16,0.17.28-1.16,0.13-1.19,0-.22.08-0.49,0.13-0.71s-0.1.21-.22,0.07l-0.07.87c0.06,0,.09-0.05.12-0.15a0.56,0.56,0,0,1,0,.32c-0.08.14-.06-0.05-0.18,0l0,0.22c0,0.14,0,.35-0.05.62l-0.12,1-0.07.59c0,0.21,0,.42-0.09.65a42.4,42.4,0,0,1-1.59,6.49,39.61,39.61,0,0,1-2.61,6.15l-0.3.58-0.29.51-0.48.83c-0.13.23-.23,0.41-0.31,0.53l-0.12.18C80.33,66.63,80.37,66.54,80.55,66.46Zm-7.91,9.23c0.06,0,0,.09-0.07.16a20.21,20.21,0,0,0,3-2.89c-0.06-.1-0.22.09-0.29,0.05l-0.49.52s0.11,0,.19,0a0.76,0.76,0,0,1-.25.31l-0.1-.1-0.09.1L74.25,74l-0.77.73c-0.28.27-.56,0.54-0.78,0.72l-0.37.32C72.38,75.91,72.49,75.83,72.64,75.69Zm-38.87,9a1.69,1.69,0,0,0,.76.25c0.17,0,.07-0.14.13-0.18L34,84.56C34,84.68,33.75,84.56,33.78,84.69ZM28.71,83a0.64,0.64,0,0,0,.61,0l-0.44-.18-0.43-.2A1.46,1.46,0,0,0,28.71,83ZM6.34,60.22a4.88,4.88,0,0,0,.3.61,1.36,1.36,0,0,0,.27.34c-0.08,0-.06.09-0.1,0.13l0.54,1.12a4,4,0,0,0,.27.48c0.1,0.16.21,0.32,0.34,0.5a0.13,0.13,0,0,0-.13,0,2.61,2.61,0,0,0,.64,1,0.51,0.51,0,0,0,.11.4,0.23,0.23,0,0,0,.26,0l-0.22-.39c-0.13-.23-0.29-0.56-0.45-0.87l-0.45-.87c-0.06-.12-0.11-0.22-0.14-0.29l-0.05-.11-0.13.06c-0.1-.3-0.29-0.51-0.3-0.65s0.15,0.27.23,0.16l-0.18-.4c-0.1-.24-0.26-0.55-0.39-0.87L6.25,59.29A0.88,0.88,0,0,0,6.34,60.22ZM4.08,52a2,2,0,0,0,.06.92c0.09,0.31.21,0.62,0.27,0.88s0.1,0.48.14,0.74S4.64,55,4.71,55.3a9.23,9.23,0,0,0,.54,1.64,3.27,3.27,0,0,0,.52,1.42,0.93,0.93,0,0,0-.05-0.49h0l-0.13-.38C5.5,57.62,5.29,57,5.46,57l0-.05,0-.16-0.16-.56L5,55.47c-0.08-.29-0.17-0.6-0.24-0.92-0.14-.63-0.3-1.26-0.39-1.73L4.23,52A0.13,0.13,0,0,0,4.08,52Zm71.49,20.9a2.28,2.28,0,0,0,.81-0.81,3.42,3.42,0,0,1,.77-0.88,7.49,7.49,0,0,0,.28-0.69l-0.28.36c-0.17.22-.42,0.49-0.66,0.77l-0.66.76c-0.09.11-.17,0.19-0.23,0.24l-0.09.09A1.14,1.14,0,0,0,75.57,72.88Zm-9.26,7.49a0.86,0.86,0,0,0,.26,0,57,57,0,0,0,5.2-3.71c0.16-.18-0.11-0.06-0.11-0.14s0.27-.09.24-0.21c0.22-.15.1,0,0.09,0.11a1.88,1.88,0,0,0,.4-0.39c0-.12-0.21.09-0.24,0l-0.65.56L70,77.7c-0.55.41-1.11,0.8-1.53,1.1-0.21.15-.39,0.27-0.51,0.35l-0.2.13a0.56,0.56,0,0,1-.6.39l-0.37.24-0.25.16-0.12.07C66.46,80.2,66.29,80.3,66.31,80.37Zm-8.09,3.74a1.31,1.31,0,0,0,.87-0.41c0.14,0,.19,0,0.2.08A41,41,0,0,0,65.37,81c0.19-.14-0.19,0-0.14-0.08a0.32,0.32,0,0,0,.24-0.22l-0.53.3c-0.32.18-.76,0.39-1.19,0.62l-0.64.33-0.57.26L62,82.44s0,0.1.12,0.06a3.11,3.11,0,0,0-.36.16c0-.06-0.09,0-0.12-0.06l-0.5.22L60,83.27l-0.6.24c-0.19.08-.37,0.13-0.53,0.19l-0.52.17A1.27,1.27,0,0,0,58.21,84.11Zm13.41-6.63L72,77.19l0.39-.33,0.86-.73c0.3-.25.59-0.54,0.9-0.83s0.62-.58.93-0.89l0.91-1L76.44,73l0.43-.49,0.83-1,0.75-.94c0.1-.14-0.11-0.11,0-0.28A2.73,2.73,0,0,0,79,69.79c0.18-.22.36-0.47,0.55-0.74l0.55-.81c0.17-.28.34-0.54,0.51-0.78s-0.11-.08,0-0.21a1.41,1.41,0,0,0,.51-0.55c0.17-.25.29-0.56,0.46-0.84L82,65.15l0.22-.37,0.21-.38c0.27-.51.55-1,0.78-1.52,0-.19-0.12.06-0.06-0.12a5.23,5.23,0,0,0,.61-1.09c0.1-.22.19-0.44,0.29-0.68l0.26-.73c0-.15-0.28.17-0.17-0.24a0.68,0.68,0,0,0,.15-0.2c0.08,0-.09.33,0.08,0.29a3,3,0,0,0,.27-0.58c0.09-.23.18-0.48,0.25-0.69s-0.28.22-.29,0c0.17-.28.31-0.51,0.37-0.21l0.16-.46c-0.09,0-.23,0-0.09-0.29s0.08,0.28.19-.11S85,57.7,84.92,57.4c-0.27.79-.54,1.64-0.89,2.48l-0.25.64-0.13.32-0.14.32-0.58,1.28c-0.09.21-.2,0.42-0.3,0.63l-0.32.62c-0.21.41-.4,0.82-0.63,1.19L81,66l-0.15.27-0.16.26L80.4,67a1.12,1.12,0,0,1-.24.7,1,1,0,0,0,.07-0.43c-0.16.25-.33,0.54-0.53,0.82L79.08,69c-0.41.6-.9,1.19-1.34,1.76-0.05.1,0.1,0.09,0,.21a0.13,0.13,0,0,0-.16,0,42.38,42.38,0,0,1-10.88,9.5c-0.19.18,0.3,0,.09,0.15a1,1,0,0,0-.79.25c-0.15.14,0.18,0,0,.16a3.25,3.25,0,0,0-.63.36c0-.05.07-0.12,0-0.16L65,81.39l-0.31.17-0.51.28c-0.32.17-.62,0.33-1.11,0.53-0.08.09,0,.17-0.14,0.26l-0.08-.16a4.12,4.12,0,0,0-1.2.66,0.5,0.5,0,0,0-.33,0l-1.76.71c-0.5.19-1,.34-1.78,0.59-0.05.13,0.15,0,.2,0.08a0.74,0.74,0,0,0-.5.28c-0.13,0-.05-0.07,0-0.13s0.13-.12,0-0.13L56.16,85l-0.55.17c-0.17.06-.33,0.1-0.47,0.16-1.26.22-4,.72-5.21,0.94a0.28,0.28,0,0,1,.25,0c-0.23.08-.27,0-0.48,0.1,0.12,0.1,0,.12,0,0.25A13,13,0,0,0,51,86.48c0.08-.13-0.26,0-0.18-0.12a6.49,6.49,0,0,0,.66,0c0.13-.15.05-0.17-0.06-0.17a0.35,0.35,0,0,1-.3-0.07c0.31,0,.59-0.18.79-0.13s-0.25.07-.14,0.17a0.87,0.87,0,0,0,.51.09c0.37-.15.15-0.32-0.07-0.38a1.27,1.27,0,0,1,.49,0,0.26,0.26,0,0,1-.1.34,3.61,3.61,0,0,1,.73-0.13A1.29,1.29,0,0,0,54,85.87c-0.1-.06-0.56.15-0.65,0.07,0.09-.09-0.09-0.23.27-0.27,0,0.08-.11.13,0,0.23a2.93,2.93,0,0,0,.46-0.18c-0.1.21,0.31,0,.36,0.13,1.09-.27,2.74-0.58,3.16-1a0.14,0.14,0,0,0,.13.14l1.59-.55c0.25-.08.48-0.17,0.72-0.26l0.68-.26a20.31,20.31,0,0,0,2.49-1.15c0.39-.16.76-0.34,1.12-0.51s0.72-.34,1.06-0.53l1-.58c0.34-.19.67-0.38,1-0.6,0.65-.43,1.32-0.84,2-1.33l1-.73,1.06-.81c0.18-.17.06-0.26,0.27-0.44C71.92,77.24,71.61,77.4,71.63,77.48Zm-8,5c-0.08-.08.1-0.18,0.31-0.28l0,0.09A0.62,0.62,0,0,1,63.63,82.5Zm-6.69,2.63-0.62.18c-0.09-.09.2-0.13,0.11-0.21A1,1,0,0,1,56.94,85.13Zm-1.25.35a0.94,0.94,0,0,1-.24,0c0-.1-0.06-0.2.18-0.26C55.53,85.42,55.53,85.39,55.69,85.49ZM84.62,59.34l-0.18.45C84.21,59.8,84.51,59.33,84.62,59.34ZM76.29,73l-0.22.23A0.32,0.32,0,0,0,75.92,73C76.21,72.71,76.1,73,76.29,73Zm-6.74,5.75a3.34,3.34,0,0,1,.5-0.4C70.24,78.46,69.66,78.92,69.55,78.75ZM68,80a2.1,2.1,0,0,0-.6.26C67.44,80,68,79.8,68,80ZM55,85.59a0.27,0.27,0,0,1-.36-0.1C54.79,85.48,55.18,85.42,55,85.59ZM79.51,68.85c-0.12.12-.15-0.14,0-0.3C79.67,68.56,79.5,68.75,79.51,68.85Zm-13,11.94a0.66,0.66,0,0,1-.26.19c-0.07-.06.09-0.14,0-0.19C66.43,80.72,66.37,80.92,66.56,80.79Zm10.13-8.42c-0.13.17-.24,0.25-0.29,0.17C76.53,72.38,76.63,72.29,76.69,72.37ZM2.88,44.44c0,0.29.17,0.32,0.19,0.64-0.14.2-.15-0.2-0.22-0.4a1.3,1.3,0,0,0-.12.65c0.12,0,.06-0.35.21-0.16a1.53,1.53,0,0,1-.09.65,0.51,0.51,0,0,1,.11.32c0.06,0.34-.2,0-0.13.33s0.12-.29.21,0a1.66,1.66,0,0,0-.17,1c0,0.34.07,0.68,0.05,1,0,0.12,0,0,.11,0a2.32,2.32,0,0,0-.08.66c0.06,0.25.11,0.09,0.19,0.06a1.73,1.73,0,0,1-.09.66,4.94,4.94,0,0,0,.21.54c-0.07.05-.07-0.15-0.13-0.15,0,0.22,0,.45.06,0.71s0.09,0.51.13,0.78c0.11,0.54.2,1.1,0.3,1.64,0.11,0.25,0-.18.15-0.11a0.7,0.7,0,0,1,0,.59c0.1,0.53.23,1,.34,1.4a6.1,6.1,0,0,1,.28,1c0.11,0.3.27,0.26,0.38,0.56s-0.11.07-.15,0.13a2.22,2.22,0,0,0,.21.64,2.2,2.2,0,0,0,.28.4L4.89,58l0.33,1c0.12,0.36.28,0.73,0.43,1.1s0.29,0.75.43,1.09l0.4,0.91c0.12,0.18.08-.16,0.09-0.22s0.18,0.47.26,0.41c-0.21,0-.13.27,0,0.65s0.43,0.79.53,1a0.66,0.66,0,0,0,.23.06c0,0.34.13,0.47,0.18,0.82a2.41,2.41,0,0,1,.56.62c-0.06.11-.17-0.16-0.23-0.05a26.21,26.21,0,0,0,3.24,4.75,1.7,1.7,0,0,0,.75,1c0.1,0.18.18,0.32,0.28,0.48s0.25,0.33.47,0.58,0-.24.16,0a0.76,0.76,0,0,0,.48.55,2.89,2.89,0,0,0,.44.7c0.13,0.18.08-.15,0.22,0l0.11,0.12c0.2,0.18,0,.14,0,0.13a0.64,0.64,0,0,0,.36.22,0.72,0.72,0,0,1,.06-0.39L14.29,73c-0.25-.24-0.56-0.63-1-1.07l-0.63-.73-0.66-.84c-0.23-.29-0.48-0.59-0.7-0.91l-0.68-1L10.32,68,10,67.5l-0.62-1C9.18,66.23,9,65.91,8.84,65.62l-0.48-.83c-0.15-.25-0.27-0.5-0.38-0.71L7.7,63.51,7.45,63a0.38,0.38,0,0,0-.31-0.21c-0.05-.13,0-0.19.06-0.21A0.82,0.82,0,0,1,7,62.09c-0.14-.35-0.3-0.72-0.46-1.09s-0.31-.77-0.48-1.16C5.71,59,5.41,58.2,5.11,57.32A42.39,42.39,0,0,1,3.3,48.21c0-.49-0.05-1-0.08-1.49a6.22,6.22,0,0,0-.11-1.31,3.68,3.68,0,0,0,.05-1H2.88ZM11,69.62a1.29,1.29,0,0,1-.11-0.22c0.05-.12.18,0.13,0.25,0.11C11.29,69.76,11.09,69.63,11,69.62ZM6.85,62.69c0.09-.1.23,0.2,0.24,0.33A0.44,0.44,0,0,1,6.85,62.69Zm0.49,0.66,0.09,0a1.07,1.07,0,0,1,.12.3A0.33,0.33,0,0,1,7.34,63.35Zm-0.11-.22c-0.08-.16,0-0.19.08-0.22C7.46,63.2,7.33,63.15,7.23,63.14ZM3.64,52.3c0.09,0,.16.09,0.2,0.29S3.68,52.48,3.64,52.3Zm82.72-.66A3.27,3.27,0,0,1,86.49,51l0.18-.66a2.67,2.67,0,0,1,0-1.15l0.05-.35,0-.36c0-.24.06-0.48,0.08-0.71a0.21,0.21,0,0,0,.24.1,0.94,0.94,0,0,1,.06-0.32c-0.06-.18-0.14,0-0.22.07a27.39,27.39,0,0,1,0-3h0.23l0.19,0a0.36,0.36,0,0,1-.2.35c0.05,0.24.19-.13,0.21,0.08,0,0.53-.05,1.1-0.06,1.75s-0.08,1.35-.15,2.14H87a3.42,3.42,0,0,1,0,1.32c0,0.25-.08.51-0.13,0.75s-0.1.47-.13,0.67c-0.1,0,.11-0.44,0-0.34s0,0.26-.11.39C86.56,51.49,86.48,51.73,86.36,51.65ZM86.9,48.8c0.17,0.06.12-.56,0-0.64A5.13,5.13,0,0,0,86.9,48.8ZM86.65,49.9c0.17,0,.31-0.09.38-0.44A0.52,0.52,0,0,0,86.65,49.9ZM29.47,83.22a2.49,2.49,0,0,1,.93.25,0.14,0.14,0,0,1,0,.16l0.34,0.13,0.34,0.12c0.17,0.05.08-.13,0.15-0.17L31,83.61c-0.16-.05-0.38-0.14-0.59-0.22l-0.85-.34C29.5,83.14,29.36,83.1,29.47,83.22Zm-27-39.55V44C2.61,44.06,2.62,43.61,2.48,43.67Zm0.2-3.5s0,0.06,0,.14l0,0.31,0,0.45A1,1,0,0,0,2.68,40.17ZM2.91,39c0-.15.11-0.48,0-0.41L2.84,39H2.91ZM3.34,35.9s0,0,0,.12l0,0.28-0.07.4A0.81,0.81,0,0,0,3.34,35.9Zm0.82-3.24L4,33.33l-0.13.46c0,0.12-.06.21-0.06,0.21A2.21,2.21,0,0,0,4.16,32.66Zm0.25-.86s0,0.12-.07.23l-0.07.24C4.4,32.38,4.51,31.82,4.41,31.8Zm0.47-1.39L4.51,31.49A1.58,1.58,0,0,0,4.88,30.41Zm0.69-1.83-0.28.72-0.2.5C5,29.93,5,30,5,30A2.86,2.86,0,0,0,5.57,28.58Zm0.61-1.42-0.25.56c-0.13.28-.24,0.56-0.24,0.56A2,2,0,0,0,6.18,27.15ZM7,25.39l-0.26.51C6.86,26,7.1,25.45,7,25.39Zm0.59-.93a1,1,0,0,0,.17-0.51L7.7,24.1c-0.05.09-.12,0.22-0.19,0.34L7.25,25A1.54,1.54,0,0,0,7.61,24.46Zm0.93-1.59a4.41,4.41,0,0,0,.49-1l-0.19.3-0.2.31-0.21.36-0.57,1A4.76,4.76,0,0,0,8.54,22.87Zm0.95-1.61c0.07-.14.3-0.39,0.16-0.38l-0.22.34Zm1.24-1.91-0.24.33C10.58,19.82,10.85,19.4,10.73,19.35ZM13,16.69l0.6-.71,0.7-.73,0.75-.77,0.8-.75c0.27-.25.53-0.51,0.8-0.74l0.79-.7c0.26-.23.49-0.46,0.73-0.67s0.46-.41.65-0.6l-0.28.22c-0.18.14-.44,0.33-0.73,0.59-0.58.52-1.39,1.17-2.13,1.91s-1.47,1.47-2,2c-0.27.28-.47,0.54-0.62,0.7l-0.23.27C12.85,16.83,13,16.66,13,16.69Zm6.4-6.12L19,10.92C19,11.09,19.45,10.66,19.41,10.56Zm1.06-.76L20.13,10C20.17,10.19,20.56,9.88,20.47,9.8Zm2.38-1.58-0.27.18C22.59,8.55,23,8.3,22.84,8.22Zm1.48-.86-0.49.28C23.88,7.78,24.41,7.47,24.32,7.36ZM27.6,5.72l-0.89.4A1.21,1.21,0,0,0,27.6,5.72Zm0.89-.4-0.82.37A1,1,0,0,0,28.49,5.32Zm0.33-.05C29,5.18,29.37,5.11,29.25,5L28.8,5.2Zm2-.82-0.19.07-0.42.16-0.61.24A2.35,2.35,0,0,0,30.78,4.44Zm1.08-.37-0.77.26A0.89,0.89,0,0,0,31.86,4.07Zm1.4-.43-0.47.13-0.32.09-0.15,0A1.24,1.24,0,0,0,33.26,3.64Zm1.1-.31-0.94.27A1.25,1.25,0,0,0,34.36,3.33Zm2-.35a1.61,1.61,0,0,0,.5-0.2l-0.15,0-0.33.07L35.87,3C35.88,3.07,36.1,3,36.32,3Zm1.95-.46-1.12.2A1.68,1.68,0,0,0,38.27,2.52Zm2.26-.3-0.81.1A0.84,0.84,0,0,0,40.53,2.22Zm1.22-.1-0.65,0C41.1,2.32,41.72,2.23,41.75,2.12ZM42.65,2l-0.57,0C42.1,2.19,42.73,2.21,42.65,2ZM45,2L43.54,2A2.66,2.66,0,0,0,45,2ZM47.29,2H46.8C46.76,2.15,47.35,2.19,47.29,2Zm2.08,0.27,1.72,0.21L51.6,2.6l0.5,0.1a1.74,1.74,0,0,0,.77,0l-0.75-.13c-0.23,0-.49-0.1-0.77-0.13l-0.89-.11-0.89-.11c-0.28,0-.55,0-0.78-0.07L48,2.09A6.74,6.74,0,0,0,49.37,2.31Zm4,0.61a0.63,0.63,0,0,0,.5,0l-0.15,0-0.33-.07L53,2.72A0.58,0.58,0,0,0,53.41,2.92Zm1.14,0.13L54.15,3C54.1,3.07,54.58,3.21,54.55,3.05Zm1.08,0.37c0.18,0,.37.06,0.34,0l-0.31-.09-0.32-.07C55.28,3.3,55.45,3.38,55.63,3.42Zm0.56,0.11c0.15,0,.46.18,0.41,0l-0.39-.11ZM57.82,4a1.83,1.83,0,0,0,.65.12l-0.62-.21-0.43-.13-0.2-.06A1.83,1.83,0,0,0,57.82,4Zm1.81,0.51-0.93-.31A1.2,1.2,0,0,0,59.63,4.54Zm0.66,0.33c0.16,0,.51.26,0.48,0.11l-0.45-.18ZM60.9,5.11c0.16,0,.5.26,0.48,0.11L60.92,5Zm1.3,0.47-0.33-.15-0.23-.1-0.11,0A0.72,0.72,0,0,0,62.2,5.58Zm0.33,0.26c0.24,0.13.53,0.27,0.85,0.42l1,0.52L65,7.06c0.19,0.09.38,0.19,0.57,0.29L66.64,8,67,8.17c0.19,0.11.44,0.28,0.69,0.43l1,0.64a7.3,7.3,0,0,0,1.66,1l-1.17-.83-0.27-.19-0.3-.19-0.66-.42-0.7-.45-0.74-.43L65.7,7.32l-0.37-.21L65,6.92l-1.31-.67c-0.39-.19-0.72-0.33-0.95-0.44l-0.36-.16C62.32,5.78,62.39,5.77,62.53,5.85Zm8.29,4.82-0.19-.15-0.2-.15C70.34,10.46,70.74,10.75,70.82,10.67Zm2.64,2.18-0.37-.32C72.93,12.58,73.43,13,73.46,12.85Zm2.11,2-0.28-.29C75.14,14.64,75.5,15,75.57,14.88ZM76,15.4c0.13,0.11.35,0.45,0.39,0.31L76,15.35Zm1.36,1.41-0.59-.68A1.12,1.12,0,0,0,77.33,16.81Zm1,1.19L78,17.61C77.91,17.69,78.22,18.06,78.32,18Zm0.45,0.58-0.3-.38C78.36,18.26,78.68,18.67,78.78,18.57ZM80,20.28l-0.59-.83C79.29,19.24,79.14,19,79,18.89l-0.2-.25A6.37,6.37,0,0,0,80,20.28Zm0.24,0.47c0.09,0.16.19,0.33,0.3,0.5a5.84,5.84,0,0,0,.67.86l-0.57-.89c-0.28-.45-0.59-0.88-0.59-0.88A2.23,2.23,0,0,0,80.27,20.75Zm1,1.61c0.13,0.14.27,0.58,0.35,0.45l-0.14-.25-0.1-.17,0-.08Zm0.74,1.27a1,1,0,0,0,.39.53l-0.33-.57Zm1.7,3.16-0.18-.41-0.13-.28L83.37,26A0.94,0.94,0,0,0,83.75,26.79Zm0.47,1.3c0.18,0.44.39,0.89,0.57,1.36s0.32,0.87.47,1.31,0.3,0.88.43,1.33c0.24,0.9.53,1.8,0.75,2.73,0.09,0.35.14,0.75,0.21,1.11a2.51,2.51,0,0,0,.29.95l-0.08-.44c0-.14-0.05-0.31-0.1-0.51l-0.15-.66-0.18-.78c-0.06-.27-0.12-0.57-0.22-0.86C86,33,85.87,32.39,85.68,31.76l-0.62-1.83-0.62-1.57c-0.17-.46-0.36-0.83-0.47-1.09l-0.19-.41A5.69,5.69,0,0,0,84.22,28.08Zm2.85,10c0,0.26,0,.53.08,0.8a15.63,15.63,0,0,0,.29,1.55s0-.19-0.05-0.48l-0.13-1.06c-0.05-.38-0.09-0.77-0.15-1.05L87,37.35A7.17,7.17,0,0,0,87.06,38.07Zm0.51,4.14L87.44,40.5A4,4,0,0,0,87.57,42.21ZM3.88,34.69l-0.18.79A0.83,0.83,0,0,0,3.88,34.69Zm0.9-2A0.93,0.93,0,0,0,5,31.91a0.62,0.62,0,0,1-.27.25c0-.12.09-0.27,0-0.25a2.81,2.81,0,0,1-.32.58C4.58,32.54,4.72,32.3,4.78,32.67ZM73.21,13.24A1.57,1.57,0,0,0,74,14.29l0.71,0.64a5.12,5.12,0,0,1,.51.55,0.8,0.8,0,0,0-.11-0.68c-0.05.16-.07,0.12-0.26,0a0.82,0.82,0,0,0-.44-0.71c0.23,0.25,0,.4-0.22.23a5.16,5.16,0,0,0-.49-0.66c0.11,0.09.27,0.3,0.28,0.17a2.3,2.3,0,0,0-.35-0.58C73.67,13.6,73.37,13.24,73.21,13.24ZM72.5,13a3,3,0,0,0,.57.45c0-.29,0-0.27.26-0.29l-0.18-.16C73,13.11,72.61,12.73,72.5,13ZM4.24,34.85a0.66,0.66,0,0,0-.11-0.61,1.07,1.07,0,0,0-.11.31C4.22,34.48,4.14,34.78,4.24,34.85ZM4.35,34a1.23,1.23,0,0,0,0,.5c0-.12.08-0.24,0.11-0.36l0.12-.4,0.27-.93c-0.15-.14-0.22.3-0.32,0.49a0.85,0.85,0,0,0,0,.26A0.67,0.67,0,0,0,4.35,34ZM61.84,6.2a1,1,0,0,0,.61.2A0.92,0.92,0,0,0,61.84,6.2ZM3.46,43.93a1.89,1.89,0,0,1-.16.64c0.07,0.16.17,0,.25,0V44.09A1.35,1.35,0,0,0,3.46,43.93Zm29.2-39.2a1.85,1.85,0,0,0-.81.35c0.11,0,.09.06,0.12,0.11L32.65,5C32.47,4.88,32.63,4.85,32.66,4.73ZM38.83,3.5a0.18,0.18,0,0,0-.11-0.2,0.5,0.5,0,0,0-.37.21c0-.07-0.22,0-0.18-0.11-0.25,0-.5.27-0.2,0.25,0.08,0,0-.13.22-0.15a1,1,0,0,0-.06.15l0.31-.06A0.37,0.37,0,0,1,38.83,3.5Zm0.93-.26a0.6,0.6,0,0,1,.33.06,3.5,3.5,0,0,1,.55-0.14A1,1,0,0,0,39.76,3.24Zm1.19-.14A1.12,1.12,0,0,0,41.58,3,1.25,1.25,0,0,0,40.95,3.1ZM52.64,3.53a1.35,1.35,0,0,0-.72-0.06c0.05,0.09.5,0.08,0.54,0.17s-0.35-.08-0.25.06l0.7,0.13A1.18,1.18,0,0,1,52.64,3.53ZM54,3.84a1.1,1.1,0,0,0-.71-0.12,0.81,0.81,0,0,1,.43.27L54,4ZM55,4.06a3.85,3.85,0,0,0-.79-0.14c0.22,0.08-.07.1,0,0.17L55.08,4.3C55.14,4.2,54.86,4.17,55,4.06Zm3.55,1.19A0.76,0.76,0,0,0,58,4.9a3.93,3.93,0,0,1-.83-0.29c-0.11,0-.05.13-0.19,0.09,0.18-.13-0.49-0.25-0.59-0.24s0.18,0.15.18,0.23l0.53,0.15c-0.05-.14.48,0,0.31,0.09L57.9,5.11A0.9,0.9,0,0,1,58.53,5.25Zm8.67,4c-0.13.06,0.18,0.18,0.3,0.27C67.61,9.44,67.33,9.25,67.2,9.23ZM84.31,30.48A1.17,1.17,0,0,0,84,29.82C84.09,30,84,30,83.92,30L84,30.25c0,0.11.08,0.22,0.08,0.22S84.18,30.35,84.31,30.48Zm2,7.88c0-.5-0.13-0.68-0.22-1.26a0.59,0.59,0,0,0-.18.19L86,38.08C86.2,37.87,86.18,38.42,86.3,38.36Zm0.18,2c0,0.14,0,.4.09,0.31,0-.31-0.13-0.71-0.1-1.19a2,2,0,0,0-.18-0.3,0.61,0.61,0,0,0,.09-0.41,0.54,0.54,0,0,0-.3-0.44l0.11,0.87c0.06,0.15.28,0.59,0.08,0.63l0.06,0.47,0,0.48C86.52,40.84,86.4,40.42,86.47,40.35Zm-83.1,3c0.11,0,.11-0.31.22-0.31V42.9Q3.39,42.89,3.37,43.37Zm6.91-21.77c-0.08.33-.45,0.44-0.52,0.81a0.74,0.74,0,0,1,.36-0.24l0.3-.47Zm0.61-.65c0-.16-0.13-0.19-0.28.09C10.67,21.16,10.78,21.07,10.89,20.95Zm1.52-2.34a6,6,0,0,0-.42.59,0.14,0.14,0,0,0,.19,0l0.25-.31A0.78,0.78,0,0,1,12.42,18.61ZM24.34,8.37l-0.41.24c0,0.07.17,0,.18,0.14l0.28-.16C24.27,8.53,24.44,8.44,24.34,8.37ZM35.15,4.16A1.15,1.15,0,0,0,35.51,4c-0.41.09-.78,0.18-0.65,0.37l0.31-.07C35.26,4.2,35.19,4.2,35.15,4.16Zm1.33-.24a0.73,0.73,0,0,0,.35-0.25C36.56,3.71,36.39,3.8,36.48,3.92Zm1.06-.38a6.29,6.29,0,0,0-.62.15,1.3,1.3,0,0,0,.27.13l0.16,0C37.38,3.7,37.68,3.68,37.55,3.55ZM39,3.33a0.44,0.44,0,0,1,.42.12l0.39-.05A1,1,0,0,0,39,3.33Zm6.6-.46a1.44,1.44,0,0,0-.48,0,0.42,0.42,0,0,0,.16.18h0.4C45.73,3,45.59,3,45.65,2.87ZM45.89,3a0.73,0.73,0,0,1,.55.12h0.32C46.59,3,46.06,2.74,45.89,3Zm1.35,0.07c0-.12-0.22-0.14-0.47-0.16C46.7,3,47,3.13,47.24,3.06ZM66.66,8.89c-0.29-.07,0,0.19,0,0.27l0.13,0.09A0.55,0.55,0,0,0,66.66,8.89Zm2.59,1.72c0.07,0.23-.15,0-0.25.08l0.13,0.09C69.24,10.82,69.67,10.89,69.26,10.61Zm0.88,0.68-0.06.08,0.56,0.44A0.89,0.89,0,0,0,70.14,11.3Zm3.09,2.53c-0.23-.24-0.35-0.19-0.44-0.11l0.12,0.1L73,13.92C73.06,13.8,73.17,13.89,73.23,13.82Zm5.2,5.73c-0.12-.17-0.2-0.18-0.26-0.1a0.32,0.32,0,0,1,.14.29l0.14,0.19C78.47,19.76,78.3,19.59,78.42,19.55Zm0.81,1.19A2.66,2.66,0,0,1,79,20.33c-0.11,0,.08.25-0.08,0.25L79,20.78C79.08,20.67,79.18,20.82,79.23,20.74Zm1.1,1.85a1.38,1.38,0,0,1,.36.43C80.81,22.92,80.38,22.45,80.33,22.59Zm0.78,1c-0.14-.3-0.24-0.18-0.34-0.17l0.12,0.21C80.95,23.55,81,23.66,81.11,23.61Zm-9-10.71c0,0.09-.16,0-0.17.08l0.3,0.26C72.34,13.17,72.29,13.05,72.12,12.9Zm0.29,0.39,0.24,0.21C72.79,13.44,72.46,13.15,72.42,13.3Zm2.64,2.53a1.45,1.45,0,0,0-.33-0.45c-0.08,0,0,.11,0,0.16L75,15.87ZM3.5,43.77c0-.08,0-0.06.07-0.08V43.37C3.49,43.39,3.38,43.72,3.5,43.77Zm0-1c0.06,0,.06-0.07.11-0.07V42.42C3.48,42.35,3.43,42.58,3.49,42.73ZM71.18,12.16C71,12,70.86,12,70.78,12l0.13,0.1C71,12.08,71.12,12.2,71.18,12.16Zm3.33,3.09A0.66,0.66,0,0,0,74.12,15l0.17,0.16,0.17,0.17Zm2.91,3.37,0.34,0.44C77.93,19,77.51,18.57,77.42,18.62Zm-3.55-4.08a0.67,0.67,0,0,0-.39-0.17L74,14.86A0.47,0.47,0,0,0,73.87,14.54ZM62.48,6.91a0.44,0.44,0,0,0-.19-0.36c-0.31,0,.19.19,0,0.29ZM44.93,3.07C44.87,3,44.71,3,44.85,2.86a3.49,3.49,0,0,0-.8,0c0.08,0.14.8,0,.72,0.19h0.16ZM4.31,33.29c0,0.06-.05.08-0.09,0.06a6.8,6.8,0,0,1-.2.7A1.42,1.42,0,0,0,4.31,33.29ZM64.66,7.56c0.43,0.21.78,0.43,1.1,0.61l0.89,0.5c0.55,0.33,1.07.68,1.79,1.16,0.05-.08.08-0.2,0.25-0.08,0.38,0.22.31,0.34,0.14,0.36l0.52,0.37c0.13,0,0-.18.34,0.07-0.05.08-.15,0-0.08,0.11,0.49,0.36.78,0.5,1.07,0.71-0.26-.17,0-0.19.13,0a2.17,2.17,0,0,0,.74.83,2.69,2.69,0,0,0,1,.6,1.36,1.36,0,0,0-.29-0.53,0.83,0.83,0,0,1-.6-0.41c-0.18-.07-0.28,0-0.47-0.06a0.17,0.17,0,0,1,.07-0.22,3.49,3.49,0,0,1-.8-0.65,7.46,7.46,0,0,0-.79-0.73c-0.06.19-.77-0.31-0.51-0.4A4.91,4.91,0,0,0,67.89,9a1.37,1.37,0,0,0-.47-0.43,1.54,1.54,0,0,0-.7-0.3,2.61,2.61,0,0,0-1.09-.71,1,1,0,0,1-.55-0.35,4.58,4.58,0,0,0-1.2-.5l0-.09-0.51-.26a2.09,2.09,0,0,0-.39.06c0.11-.35-1.81-1.08-2.25-1.09a2.06,2.06,0,0,0-1.28-.5A8,8,0,0,0,56.91,4c0.08,0.11.31,0.2,0.24,0.33-0.51-.1-0.3-0.31-0.45-0.46-0.42-.13-0.58-0.05-1-0.16,0,0,.11,0,0-0.1l-0.17,0-0.46-.11-1.38-.32c-0.51-.11-1-0.19-1.4-0.26l-0.64-.11c-0.06.1,0.23,0.12,0.13,0.24a0.65,0.65,0,0,0-.42.07,1.21,1.21,0,0,0,.78.21c0.09,0-.06-0.2.34-0.08,0.18,0.12-.13,0-0.11.16A37.35,37.35,0,0,1,57.8,4.67c0.2-.09.61,0,0.8-0.1a0.86,0.86,0,0,1,.2.18c-0.05,0-.25-0.05-0.2.08a0.89,0.89,0,0,0,.75.29,2.83,2.83,0,0,1-.66-0.3c0.32,0.1.36-.05,0.67,0a2.38,2.38,0,0,1,.32.3,0.57,0.57,0,0,1,.32.05c0,0.11.3,0.24,0,.19,0.18,0,.46.16,0.62,0.17a0.77,0.77,0,0,0,.41.27,4.67,4.67,0,0,1,.6.23,0.35,0.35,0,0,0-.33-0.28,0.69,0.69,0,0,1-.42-0.22c0.28,0.09.44,0,.73,0.14a2.78,2.78,0,0,0,1.24.6,1.51,1.51,0,0,0,.34.43,2.52,2.52,0,0,0,.68.42c0.2,0-.23-0.24,0-0.16a1.08,1.08,0,0,0,.44.38c0.2-.13-0.2-0.29-0.32-0.44C64.31,6.82,64.86,7.57,64.66,7.56ZM60.75,5.47c-0.14,0-.54-0.14-0.42-0.24S60.87,5.37,60.75,5.47Zm4.76,2.19,0.21,0.12c0,0.17-.17.13-0.33,0.09C65.12,7.67,65.52,7.81,65.52,7.66Zm3,1.85c0,0.12-.26,0-0.37,0S68.33,9.33,68.55,9.51ZM3.66,37.12c-0.07.26,0,.3,0.08,0.34a4.37,4.37,0,0,0,.21-1.51,1.38,1.38,0,0,0,.28-0.76c-0.12-.12-0.11.48-0.24,0.27,0.12-.31.11-0.71,0-0.5,0.08,0.41-.13.56-0.08,1a0.13,0.13,0,0,0-.12.06c-0.1,0,0-.31-0.08-0.27a3.8,3.8,0,0,0-.19.79c0,0.27-.08.55-0.16,0.88A3.53,3.53,0,0,0,3.66,37.12ZM51.51,3c0.17-.06-0.19-0.15,0-0.24l-1.47-.18-0.81-.11-0.83-.07L47.61,2.3l-0.41,0H46.8c-0.53,0-1,0-1.47,0a0.7,0.7,0,0,0-.28-0.09,1.62,1.62,0,0,0-.32,0c-0.22,0-.44.08-0.61,0.09s-0.44-.08-0.73-0.05a4.55,4.55,0,0,1-.72.21,1.46,1.46,0,0,0-.48,0c0-.1.13-0.08,0-0.14a2,2,0,0,0-1,.18,0.63,0.63,0,0,0-.49-0.07c0,0.11.29,0.07,0.1,0.17a0.75,0.75,0,0,0-.69.37l0.4-.05,0.4,0c0-.11-0.29-0.07-0.1-0.17a1.1,1.1,0,0,0,.4,0c0,0.07-.21.06-0.15,0.15,0.46,0,.88-0.07,1.25-0.11l0.5-.06,0.4,0c0-.12-0.4-0.06-0.17-0.17a1.57,1.57,0,0,0,.57.2A37.23,37.23,0,0,1,51,3.11C50.87,2.88,51.31,3,51.51,3Zm-9.73-.5c-0.18.17,0.68,0.17-.15,0.15C41.64,2.56,41.53,2.45,41.78,2.47Zm3-.13V2.44a2,2,0,0,1-.48,0A1,1,0,0,1,44.77,2.34Zm7,1.07-0.42,0L51,3.31c-0.26,0-.54-0.1-0.93-0.14-0.21,0,.1.07,0,0.14a6.37,6.37,0,0,0-2.45-.36,0.17,0.17,0,0,0-.17.13c0.2,0.11.23-.15,0.4,0V3.17l0.4,0c0-.09,0-0.18.25-0.12a1,1,0,0,1-.09.13l1,0.07,0.95,0.12,0-.14c0.1,0,.16.07,0.14,0.12a1,1,0,0,1,.47.06v0l0.55,0.07L52,3.66A1.13,1.13,0,0,0,51.77,3.41ZM86.64,44.25a3.38,3.38,0,0,0,.09-1.13l0-.61c0-.2,0-0.39,0-0.58a0.58,0.58,0,0,0,0,.39c0,0.17,0,.31-0.12.26l0.05,2h0.18A0.94,0.94,0,0,0,86.64,44.25ZM34.58,4.18c-0.5.28-2,.31-1.7,0.7l1.68-.48C34.48,4.32,34.6,4.26,34.58,4.18ZM9.48,22.78c-0.14.34-.18,0.79-0.48,0.74-0.41.71-.56,1.13-0.94,1.76,0,0.09,0,.09.06,0.12a6,6,0,0,0-.67,1.06,13.68,13.68,0,0,0-.5,1.3,0.84,0.84,0,0,0-.29.47,4.52,4.52,0,0,0-.14.64C6.45,28.75,6.39,29,6.33,29L5.94,30c-0.07.17-.12,0.33-0.18,0.5L5.6,31,5.27,32c-0.11.32-.19,0.66-0.29,1L4.69,34c-0.1.34-.17,0.69-0.26,1L4.17,36.09C4.1,36.47,4,36.85,4,37.25a0.33,0.33,0,0,0,.08.34,3.65,3.65,0,0,0-.31,1.89,0.9,0.9,0,0,0-.07.87,1.53,1.53,0,0,0-.13,1.19c0,0.22-.08.49-0.13,0.71s0.1-.21.22-0.07l0.07-.87c-0.06,0-.09.05-0.12,0.15a0.56,0.56,0,0,1,0-.32c0.08-.14.06,0.05,0.18,0l0.06-.83c0.07-.53.16-1.28,0.28-2.19a43.38,43.38,0,0,1,1.57-6.5l0.29-.86,0.15-.43c0.05-.14.11-0.28,0.16-0.42,0.22-.56.43-1.11,0.65-1.63l0.68-1.5c0.22-.48.46-0.91,0.66-1.32l0.3-.58c0.09-.19.2-0.35,0.29-0.51l0.48-.83L9.58,23l0.12-.18C9.7,22.61,9.66,22.7,9.48,22.78Zm7.88-9.26c-0.06,0,0-.09.07-0.16L17,13.69,16.64,14l-0.77.72c-0.13.12-.26,0.24-0.38,0.37l-0.35.39-0.67.76c0.06,0.1.22-.09,0.29-0.05l0.49-.52s-0.11,0-.19,0a0.75,0.75,0,0,1,.25-0.31l0.1,0.1,0.34-.35,0.77-.73c0.28-.26.55-0.54,0.78-0.73l0.37-.32C17.63,13.31,17.51,13.38,17.36,13.53ZM56.2,4.42a1.66,1.66,0,0,0-.76-0.25c-0.17,0-.07.14-0.13,0.19l0.11,0,0.24,0.07L56,4.54C56,4.42,56.23,4.54,56.2,4.42ZM61.28,6.1a0.66,0.66,0,0,0-.61,0l0.44,0.17,0.3,0.13,0.14,0.06A1.42,1.42,0,0,0,61.28,6.1ZM83.15,27.85c0.08,0,.06-0.09.1-0.13L82.7,26.6a6.74,6.74,0,0,0-.62-1,0.13,0.13,0,0,0,.13,0,2.47,2.47,0,0,0-.64-1,0.52,0.52,0,0,0-.11-0.4,0.23,0.23,0,0,0-.26,0l0.22,0.39c0.14,0.23.29,0.55,0.46,0.87l0.45,0.87c0.13,0.24.2,0.4,0.2,0.4l0.13-.06c0.1,0.3.29,0.51,0.3,0.65s-0.15-.27-0.23-0.16l0.57,1.27,0.51,1.29C84.18,29.6,83.41,28,83.15,27.85ZM86,37a1.94,1.94,0,0,0-.06-0.92c-0.09-.31-0.22-0.62-0.28-0.88s-0.1-.48-0.14-0.74,0-.26-0.07-0.39l-0.09-.4a8.59,8.59,0,0,0-.54-1.64,3.28,3.28,0,0,0-.52-1.42,0.93,0.93,0,0,0,.05.49h0l0.13,0.38c0.11-.13.32,0.49,0.15,0.45l0.07,0.21c0,0.13.09,0.33,0.16,0.56l0.23,0.8c0.08,0.29.18,0.6,0.25,0.92l0.4,1.73L85.84,37A0.13,0.13,0,0,0,86,37ZM14.44,16.35a2.33,2.33,0,0,0-.81.82,3.43,3.43,0,0,1-.77.88c0,0.2-.27.51-0.28,0.7l0.28-.36c0.16-.22.41-0.49,0.65-0.77l0.66-.76,0.22-.25,0.09-.09A1.14,1.14,0,0,0,14.44,16.35Zm9.24-7.52a0.86,0.86,0,0,0-.26,0,57.07,57.07,0,0,0-5.19,3.73c-0.16.18,0.11,0.06,0.11,0.14s-0.27.09-.24,0.21c-0.22.15-.1,0-0.09-0.11a1.88,1.88,0,0,0-.4.39c0,0.12.21-.09,0.24,0l0.65-.56c0.39-.33.94-0.74,1.48-1.17,0.26-.22.55-0.41,0.81-0.6l0.72-.51c0.21-.15.38-0.27,0.51-0.35l0.2-.13a0.56,0.56,0,0,1,.6-0.39l0.74-.47C23.53,9,23.7,8.9,23.68,8.83Zm8.08-3.76a1.31,1.31,0,0,0-.87.41c-0.14,0-.19,0-0.2-0.08a40.9,40.9,0,0,0-6.08,2.82c-0.19.14,0.19,0,.14,0.08a0.32,0.32,0,0,0-.24.22L25,8.21c0.16-.09.34-0.19,0.55-0.3l0.64-.33c0.43-.22.86-0.45,1.2-0.59L28,6.75s0-.1-0.12-0.06a3.1,3.1,0,0,0,.36-0.16c0,0.06.09,0,.12,0.06l0.5-.23L30,5.91c0.41-.16.81-0.33,1.12-0.43l0.52-.17A1.27,1.27,0,0,0,31.76,5.07Zm-13.4,6.67c-0.25.18-.5,0.4-0.77,0.62l-0.86.73c-0.3.25-.59,0.55-0.9,0.83l-0.46.44c-0.16.15-.31,0.3-0.46,0.46-0.6.63-1.23,1.27-1.78,1.93-0.28.33-.57,0.65-0.83,1l-0.74.94c-0.1.14,0.11,0.11,0,.28a4.63,4.63,0,0,0-1.1,1.25c-0.18.27-.37,0.54-0.55,0.81s-0.34.54-.51,0.78,0.11,0.08,0,.21a1.42,1.42,0,0,0-.51.55c-0.16.26-.29,0.57-0.46,0.85a30.27,30.27,0,0,0-1.63,3c0,0.18.12-.06,0.06,0.12A9.17,9.17,0,0,0,5.72,29c0,0.15.28-.17,0.17,0.24a0.68,0.68,0,0,0-.15.2c-0.08,0,.09-0.33-0.08-0.29a7.22,7.22,0,0,0-.52,1.28c0,0.24.28-.22,0.29,0-0.17.29-.31,0.51-0.37,0.21L4.9,31.1c0.09,0,.23,0,0.09.28s-0.08-.28-0.19.11,0.23,0.05.33,0.36c0.27-.78.53-1.64,0.88-2.48,0.17-.42.33-0.86,0.52-1.29L7.11,26.8c0.18-.43.41-0.84,0.61-1.25L8,24.95c0.1-.2.2-0.4,0.32-0.59,0.45-.76.85-1.5,1.28-2.14a1.12,1.12,0,0,1,.24-0.7,1,1,0,0,0-.07.43l0.52-.82,0.62-.87c0.22-.3.42-0.61,0.65-0.9l0.68-.87c0.05-.1-0.1-0.09,0-0.21a0.13,0.13,0,0,0,.16,0,42.66,42.66,0,0,1,5.2-5.39,42.12,42.12,0,0,1,5.65-4.14c0.18-.19-0.29,0-0.09-0.15A1.06,1.06,0,0,0,24,8.38c0.15-.14-0.18,0,0-0.16a3.25,3.25,0,0,0,.63-0.36c0,0.05-.07.12,0,0.16,0.51-.31.85-0.49,1.17-0.66s0.63-.32,1.1-0.53c0.08-.09,0-0.17.14-0.26l0.08,0.16a4.12,4.12,0,0,0,1.2-.66,0.5,0.5,0,0,0,.33,0l1.75-.72c0.24-.1.5-0.18,0.78-0.28l1-.32c0.05-.14-0.15,0-0.2-0.08a0.72,0.72,0,0,0,.5-0.28c0.25,0-.31.25,0,0.26,0.51-.17,1-0.28,1.36-0.4s0.73-.23,1-0.34c1.26-.21,4-0.74,5.21-1a0.28,0.28,0,0,1-.25,0c0.23-.08.27,0,0.47-0.1-0.12-.1,0-0.11,0-0.25A13,13,0,0,0,39,2.67c-0.08.13,0.26,0,.18,0.12a4.56,4.56,0,0,0-.66,0c-0.26.3,0.31,0.07,0.36,0.23a7,7,0,0,1-.79.13C37.93,3,38.3,3.06,38.18,3a0.87,0.87,0,0,0-.51-0.09c-0.37.15-.15,0.32,0.07,0.38a1.27,1.27,0,0,1-.49,0,0.26,0.26,0,0,1,.1-0.34,3.61,3.61,0,0,1-.73.13,1.37,1.37,0,0,0-.68.23c0.1,0.06.56-.15,0.65-0.07-0.09.09,0.09,0.24-.27,0.28,0-.08.11-0.13,0-0.23a2.93,2.93,0,0,0-.46.18c0.1-.21-0.31,0-0.36-0.13-0.27.08-.58,0.14-0.9,0.21S34,3.69,33.7,3.77a3.17,3.17,0,0,0-1.32.58,0.14,0.14,0,0,0-.13-0.14l-1.59.55c-0.49.17-.95,0.36-1.39,0.53l-0.65.26L28,5.83c-0.41.2-.81,0.4-1.22,0.61L25.66,7c-0.36.18-.72,0.34-1.06,0.54l-1,.58-0.5.29-0.49.32-1,.64c-0.17.11-.33,0.22-0.49,0.34l-0.5.35c-0.33.24-.68,0.47-1,0.73l-1.06.81c-0.18.17-.06,0.26-0.27,0.44C18.08,12,18.39,11.81,18.37,11.74Zm8-5c0.08,0.08-.1.18-0.31,0.28l0-.09A0.62,0.62,0,0,1,26.36,6.69ZM33,4l0.62-.18c0.09,0.09-.2.13-0.11,0.21A1,1,0,0,1,33,4Zm1.25-.35a1.08,1.08,0,0,1,.24,0c0,0.1.06,0.2-.18,0.27C34.44,3.75,34.45,3.78,34.28,3.68ZM5.43,29.91l0.18-.45C5.84,29.45,5.55,29.92,5.43,29.91Zm8.3-13.67,0.11-.12L13.94,16a0.31,0.31,0,0,0,.15.25C13.8,16.52,13.91,16.26,13.72,16.24Zm6.72-5.77a3.33,3.33,0,0,1-.5.4C19.76,10.75,20.33,10.29,20.44,10.46ZM22,9.25A2.1,2.1,0,0,0,22.56,9C22.55,9.16,22,9.4,22,9.25ZM35,3.58a0.27,0.27,0,0,1,.36.1C35.18,3.69,34.8,3.74,35,3.58ZM10.51,20.39c0.12-.12.15,0.13,0,0.3C10.36,20.68,10.52,20.48,10.51,20.39Zm12.92-12a0.66,0.66,0,0,1,.26-0.19c0.07,0.06-.09.14,0,0.19C23.56,8.48,23.61,8.28,23.43,8.41Zm-10.1,8.45c0.13-.17.24-0.25,0.29-0.17C13.49,16.85,13.38,16.94,13.33,16.86ZM87.22,44.57A6.69,6.69,0,0,1,87,43.93c0.14-.2.15,0.2,0.22,0.4a1.3,1.3,0,0,0,.12-0.65c-0.12,0-.06.35-0.21,0.17a1.53,1.53,0,0,1,.09-0.65,0.51,0.51,0,0,1-.11-0.32c-0.06-.34.2,0,0.13-0.33s-0.12.29-.21,0a4.52,4.52,0,0,0,.11-2c0-.12,0,0-0.11,0A2.15,2.15,0,0,0,87.14,40C87.08,39.71,87,39.86,87,39.9A1.73,1.73,0,0,1,87,39.23a4.93,4.93,0,0,0-.21-0.54c0.07-.05.07,0.15,0.13,0.15,0-.22,0-0.45-0.06-0.71s-0.09-.51-0.14-0.78l-0.3-1.64c-0.11-.25,0,0.18-0.15.12a0.7,0.7,0,0,1,0-.59,13.35,13.35,0,0,0-.35-1.4,6.1,6.1,0,0,1-.28-1c-0.11-.3-0.27-0.26-0.38-0.56s0.11-.07.15-0.13a2,2,0,0,0-.49-1L85.17,31l-0.33-1L84.4,29c-0.15-.37-0.28-0.75-0.44-1.09L83.56,27c-0.12-.18-0.08.16-0.09,0.22s-0.18-.47-0.26-0.41c0.21,0,.13-0.28,0-0.65s-0.43-.79-0.53-1a0.65,0.65,0,0,0-.23-0.06,7.36,7.36,0,0,0-.19-0.82,2.39,2.39,0,0,1-.56-0.62c0.06-.11.17,0.16,0.23,0.05-0.26-.4-0.49-0.85-0.76-1.28l-0.81-1.29c-0.13-.22-0.27-0.42-0.42-0.61L79.49,20a7.78,7.78,0,0,0-.84-1,1.7,1.7,0,0,0-.75-1A4.9,4.9,0,0,0,77.15,17c-0.19-.21,0,0.24-0.16,0a0.76,0.76,0,0,0-.48-0.55,3.09,3.09,0,0,0-.18-0.33,4.13,4.13,0,0,0-.26-0.36c-0.13-.18-0.08.16-0.21,0l-0.11-.12c-0.2-.18,0-0.14,0-0.13a0.64,0.64,0,0,0-.36-0.22,0.73,0.73,0,0,1-.06.39l0.38,0.39c0.12,0.13.27,0.27,0.43,0.46l0.53,0.61,0.63,0.72c0.22,0.26.43,0.55,0.66,0.84s0.47,0.59.7,0.9l0.68,1c0.47,0.64.88,1.32,1.28,1.94,0.21,0.31.38,0.62,0.55,0.92l0.48,0.83,0.21,0.37L82.06,25l0.28,0.56L82.59,26a0.38,0.38,0,0,0,.3.21c0.06,0.13,0,.19-0.05.2a0.82,0.82,0,0,1,.2.53c0.14,0.35.3,0.72,0.46,1.09,0.09,0.18.17,0.38,0.24,0.57L84,29.18l0.25,0.6c0.09,0.2.17,0.41,0.25,0.62,0.15,0.42.31,0.85,0.45,1.29s0.23,0.75.34,1.13L85.61,34c0.1,0.39.18,0.78,0.27,1.17s0.19,0.78.26,1.17l0.21,1.16c0.07,0.38.14,0.76,0.18,1.14l0.14,1.11,0.07,0.54,0,0.53c0,0.49.05,1,.08,1.49A6.87,6.87,0,0,0,87,43.6a3.34,3.34,0,0,0,0,1h0.28ZM79,19.41a1.3,1.3,0,0,1,.11.22c-0.05.12-.18-0.13-0.25-0.11C78.74,19.27,78.93,19.41,79,19.41Zm4.17,6.92c-0.08.1-.24-0.2-0.24-0.33A0.46,0.46,0,0,1,83.19,26.33Zm-0.49-.66-0.09,0a1.07,1.07,0,0,1-.12-0.3A0.33,0.33,0,0,1,82.7,25.67Zm0.11,0.22c0.08,0.16,0,.19-0.08.22C82.58,25.82,82.71,25.88,82.81,25.89Zm3.63,10.83q-0.13,0-.2-0.29C86.35,36.34,86.39,36.53,86.44,36.71Zm-82.72.9a4,4,0,0,1-.13.68l-0.18.66a2.67,2.67,0,0,1,0,1.14c-0.06.46-.12,1-0.17,1.42A0.21,0.21,0,0,0,3,41.42a0.94,0.94,0,0,1-.06.32c0.06,0.18.14,0,.22-0.07a6.49,6.49,0,0,1,0,.7c0,0.23,0,.47,0,0.72,0,0.49,0,1-.05,1.61H2.92l-0.19,0a0.34,0.34,0,0,1,.19-0.35c-0.05-.24-0.19.13-0.21-0.08,0-.53.05-1.1,0.06-1.75s0.07-1.35.14-2.14H3.06a3.24,3.24,0,0,1,0-1.32c0.07-.5.18-1,0.25-1.42,0.1,0-.11.44,0,0.34s0-.26.11-0.39C3.51,37.77,3.6,37.53,3.71,37.61ZM3.19,40.46c-0.17-.06-0.12.56,0,0.64A5.14,5.14,0,0,0,3.19,40.46Zm0.24-1.11c-0.17,0-.31.09-0.38,0.44A0.53,0.53,0,0,0,3.43,39.36ZM60.51,5.87a2.48,2.48,0,0,1-.93-0.25,0.14,0.14,0,0,1,0-.16l-0.34-.12-0.34-.12c-0.17-.05-0.08.13-0.15,0.17L59,5.48c0.16,0.05.38,0.13,0.59,0.21L60.44,6C60.48,6,60.62,6,60.51,5.87Z"/><path class="cls-1" d="M9.79,36.49a0.14,0.14,0,0,0,.08-0.09,1.58,1.58,0,0,0,0-.15l0-.15A0.14,0.14,0,0,1,10,36a0.48,0.48,0,0,1,0-.23,1.52,1.52,0,0,1,.08-0.24,1.87,1.87,0,0,1,.12-0.23l0.11-.19a0.35,0.35,0,0,0,0-.1l0-.1a0.37,0.37,0,0,1,0-.1,0.36,0.36,0,0,1,0-.13l0.09,0,0.11,0,0.13,0,0.13,0-0.15.53a0.76,0.76,0,0,0,.24.25,1.54,1.54,0,0,0,.34.16l0.41,0.11L12,35.88,12.47,36a1.8,1.8,0,0,1,.37.16H13l0.2,0,0.19,0.07a0.46,0.46,0,0,1,.14.09h0.06l0,0,0.05,0,0.08,0a0.58,0.58,0,0,1,.06-0.18L13.92,36A0.85,0.85,0,0,0,14,35.8a0.26,0.26,0,0,0,0-.17A0.19,0.19,0,0,1,14,35.55a0.14,0.14,0,0,1,.12,0l0.05-.19s0,0-.06,0l-0.1,0a0.8,0.8,0,0,0,0-.59,0.91,0.91,0,0,0-.41-0.37,0.12,0.12,0,0,0,0-.13l-0.12-.08a0.3,0.3,0,0,1-.1-0.1,0.17,0.17,0,0,1,0-.17,1.3,1.3,0,0,1,.32,0L14.07,34l0.37,0.11,0.36,0.1a0.63,0.63,0,0,1,0,.28,3.29,3.29,0,0,1-.09.32l-0.1.3a0.59,0.59,0,0,0,0,.22,0.9,0.9,0,0,0-.1.22c0,0.08-.06.17-0.1,0.27a0,0,0,0,0,0,.06,0,0,0,0,1,0,.06,1.67,1.67,0,0,0-.07.21l-0.06.22-0.07.22a1.22,1.22,0,0,1-.11.22,0.4,0.4,0,0,1,0,.21c0,0.08,0,.16-0.07.25s0,0.17-.07.25a0.45,0.45,0,0,0,0,.21,0.21,0.21,0,0,1-.15,0l-0.19-.05a1,1,0,0,1,0-.22,0.61,0.61,0,0,1,.06-0.28,0.45,0.45,0,0,0-.23-0.24A2.11,2.11,0,0,0,13,36.76a3.71,3.71,0,0,0-.47-0.11l-0.4-.06L12,36.53l-0.12-.06-0.13,0a0.12,0.12,0,0,0-.09,0,0.64,0.64,0,0,0-.22-0.11l-0.22,0-0.21,0a0.44,0.44,0,0,1-.19-0.1,0.72,0.72,0,0,0-.27,0,0.84,0.84,0,0,0-.22.1,1.19,1.19,0,0,0-.19.16L10,36.66l-0.1-.09Zm4.39-2-0.11,0,0,0.11A0.13,0.13,0,0,0,14.18,34.44Zm-2.11-4.56a0.87,0.87,0,0,1,.11-0.19l0.13-.18,0.11-.17a0.32,0.32,0,0,0,0-.16,0.21,0.21,0,0,0,.1-0.12,1.24,1.24,0,0,0,.06-0.19l0-.2a0.58,0.58,0,0,1,.07-0.17,0.19,0.19,0,0,1,.12-0.09,0.3,0.3,0,0,1,.2,0,0.64,0.64,0,0,1,0,.23,1.56,1.56,0,0,0,0,.23,0.57,0.57,0,0,0,.06.22,0.39,0.39,0,0,0,.2.17,0,0,0,0,0,0,0l0,0,0,0a0,0,0,0,1,0,0l0.07,0a0.05,0.05,0,0,0,.06,0,0.5,0.5,0,0,0,.15.09l0.14,0L14,29.59a0.3,0.3,0,0,1,.11.11,2,2,0,0,1,.33.1l0.32,0.14L15,30.11l0.25,0.16,0.26,0.05a1.07,1.07,0,0,0,.26,0A0.41,0.41,0,0,0,16,30.29a0.4,0.4,0,0,0,.15-0.24,0.23,0.23,0,0,1,.16,0l0.18,0.08a0.25,0.25,0,0,1,0,.09l-0.06.09a0.24,0.24,0,0,0,0,.09,0.06,0.06,0,0,0,0,.07q-0.15.26-.29,0.56a6.36,6.36,0,0,0-.25.59,0.2,0.2,0,0,1-.11.08,0.24,0.24,0,0,1-.12,0l-0.12-.06-0.11-.1a0.17,0.17,0,0,0,0-.08,0.32,0.32,0,0,0,0-.07,0.44,0.44,0,0,1,0-.07,0.16,0.16,0,0,1,0-.08A0.88,0.88,0,0,0,15.32,31a1.48,1.48,0,0,0-.49-0.32l-0.26-.09a1.25,1.25,0,0,0-.28-0.17l-0.35-.14-0.38-.15a2.54,2.54,0,0,1-.37-0.19,0.05,0.05,0,0,0,0-.08,0.09,0.09,0,0,1,0-.06,0.46,0.46,0,0,1-.17.07l-0.19,0-0.18.06a0.36,0.36,0,0,0-.15.14H12.22a0.07,0.07,0,0,1,0,0V30a0.14,0.14,0,0,0,0-.06A0.12,0.12,0,0,0,12.07,29.88Zm3-5.44h0.15a0.15,0.15,0,0,0,.13-0.09,0.38,0.38,0,0,0,.16.06h0.31a0.41,0.41,0,0,1,.16,0,0.27,0.27,0,0,1,.1-0.09l0.11,0,0.11,0,0.11,0a0.41,0.41,0,0,0,.23.07l0.22,0L17,24.25a0.38,0.38,0,0,1,.22,0,1.12,1.12,0,0,1,.33-0.1l0.33,0,0.34,0a1.52,1.52,0,0,0,.33-0.06,0.1,0.1,0,0,0,0-.09,0.3,0.3,0,0,0-.08-0.09l-0.11-.06h-0.1s0,0,0,0l0,0,0,0s0,0,0,0a0.12,0.12,0,0,1-.12,0L18,23.53l-0.13-.09a0.11,0.11,0,0,0-.12,0,1.87,1.87,0,0,0-.28-0.27A1.11,1.11,0,0,0,17.12,23a0.69,0.69,0,0,0-.35,0,0.58,0.58,0,0,0-.32.19A0.45,0.45,0,0,1,16.26,23a0.35,0.35,0,0,1,0-.19,2.83,2.83,0,0,0,.41-0.49l0.38-.6a0.71,0.71,0,0,1,.23.05,0.36,0.36,0,0,1,.17.17,0.32,0.32,0,0,0-.1.26,0.5,0.5,0,0,0,.1.25,0.88,0.88,0,0,0,.22.2,0.93,0.93,0,0,0,.24.12,0.51,0.51,0,0,0,.17.15l0.27,0.17,0.28,0.19a0.52,0.52,0,0,1,.18.21l0.18,0.09,0.19,0.11,0.18,0.13a0.87,0.87,0,0,1,.15.16l0.25,0.12L20,24.22l0.2,0.14a0.71,0.71,0,0,1,.14.13l-0.3.42a0.31,0.31,0,0,0-.24,0,0.37,0.37,0,0,0-.1-0.08l-0.09,0-0.09,0-0.1,0a0.53,0.53,0,0,1-.17,0H19l-0.18,0a0.46,0.46,0,0,0-.17.07H18.44l-0.23,0H18a0.57,0.57,0,0,0-.21.08,0.62,0.62,0,0,0-.29,0L17.21,25l-0.28,0a0.59,0.59,0,0,1-.3-0.06L16.5,25l-0.13,0-0.14,0-0.13,0a0.24,0.24,0,0,0,.08.19l0.18,0.12,0.19,0.12a0.37,0.37,0,0,1,.14.17,0.39,0.39,0,0,1,.2.08L17.13,26l0.26,0.2a1.37,1.37,0,0,0,.24.15,0.54,0.54,0,0,0,.18.06,0.42,0.42,0,0,0,.16,0,0.55,0.55,0,0,0,.16-0.07l0.18-.13,0.17,0.06,0.16,0.11,0.13,0.13a0.31,0.31,0,0,1,.07.14,1.07,1.07,0,0,0-.29.25,3.39,3.39,0,0,0-.23.32l-0.23.35a1.58,1.58,0,0,1-.28.32l-0.37-.27a0.2,0.2,0,0,0,0-.11,0.87,0.87,0,0,0,0-.11,0.47,0.47,0,0,1,0-.11,0.24,0.24,0,0,1,.07-0.12,0.76,0.76,0,0,0-.22-0.34A3.18,3.18,0,0,0,17,26.53l-0.38-.26a1.29,1.29,0,0,1-.3-0.28l-0.16-.06-0.19-.11-0.17-.13a0.38,0.38,0,0,1-.1-0.14,0.1,0.1,0,0,1-.1,0l-0.1-.06-0.11-.09-0.1-.07a0.3,0.3,0,0,0-.14,0L15,25.42l-0.13.06a0.34,0.34,0,0,1-.14,0,0.57,0.57,0,0,1-.14-0.15l-0.1-.16ZM22.33,22a0.33,0.33,0,0,1,0,.15,0.31,0.31,0,0,1-.14.14A0.23,0.23,0,0,1,22,22.25a1,1,0,0,1-.13-0.15,0.1,0.1,0,0,0,0,0v0l0,0,0.06,0a0.52,0.52,0,0,1,0-.13l0-.13,0-.12a0.37,0.37,0,0,0,0-.13,3.24,3.24,0,0,0-.27-0.31l-0.3-.31-0.27-.31A1.35,1.35,0,0,1,21,20.19a0,0,0,0,0,0,0H20.93a0,0,0,0,1,0,0,0.17,0.17,0,0,0,0-.1l-0.07-.1-0.07-.1a0.22,0.22,0,0,1,0-.1l-0.29-.23a1.29,1.29,0,0,0-.29-0.18,0.56,0.56,0,0,0-.3,0,0.57,0.57,0,0,0-.31.17,1,1,0,0,1-.14-0.15,0.22,0.22,0,0,1-.05-0.15l0.41-.34,0.38-.32,0.36-.33c0.12-.11.24-0.24,0.36-0.37a0.78,0.78,0,0,1,.23-0.28,1.62,1.62,0,0,1,.3-0.18l0.33-.13a1.32,1.32,0,0,0,.3-0.15,0.19,0.19,0,0,0,.18.05l0.19-.07a0.15,0.15,0,0,0,.14.07l0.14,0a0.37,0.37,0,0,0,.22.13h0.22l0.27,0.2,0.28,0.16a0.29,0.29,0,0,1,0,.1,0.16,0.16,0,0,0,.08.11,0.33,0.33,0,0,1,.15.08L24,18l0.14,0.17a1.05,1.05,0,0,0,.14.15,0.34,0.34,0,0,1,0,.11l0,0.11a0.69,0.69,0,0,0,0,.11,0.38,0.38,0,0,0,.09.12,1.8,1.8,0,0,0,0,.32c0,0.11,0,.21,0,0.32a2.21,2.21,0,0,1,0,.32,1.08,1.08,0,0,1-.09.32l-0.32.36-0.34.38c-0.12.12-.24,0.24-0.37,0.35a2.07,2.07,0,0,1-.41.28l-0.05,0a0.1,0.1,0,0,0,0,0v0a0.06,0.06,0,0,1,0,0,0.15,0.15,0,0,0-.13.06l-0.11.14L22.49,22A0.19,0.19,0,0,1,22.33,22Zm-1.75-3.45a0.44,0.44,0,0,0,0,.23,1.41,1.41,0,0,0,.15.26,1.64,1.64,0,0,0,.22.24,1,1,0,0,0,.23.16,1,1,0,0,0,.2.32l0.3,0.31L22,20.39a0.91,0.91,0,0,1,.2.27,0.2,0.2,0,0,1,.11,0l0.11,0.1,0.11,0.12L22.65,21a0.72,0.72,0,0,0,.3-0.13,1.38,1.38,0,0,0,.22-0.21l0.21-.25a1.65,1.65,0,0,1,.29-0.26,0.17,0.17,0,0,1,0-.12A0.51,0.51,0,0,1,23.73,20l0.1-.11,0.11-.12,0-.05a0,0,0,0,1,0-.05,0.3,0.3,0,0,0,0-.16,1.66,1.66,0,0,0,0-.17l0-.17a0.35,0.35,0,0,1,0-.17,1.28,1.28,0,0,1-.2-0.27l-0.13-.27a0.22,0.22,0,0,1-.16-0.08l-0.11-.15L23.15,18A0.47,0.47,0,0,0,23,17.85l0.17-.16-0.08-.08a0.16,0.16,0,0,1,0-.07,0.32,0.32,0,0,1,0-.07s0,0,0-.07L23,17.32a0.16,0.16,0,0,0-.07.1,0.25,0.25,0,0,0,0,.1l0,0.1a0.18,0.18,0,0,1,0,.1,0.23,0.23,0,0,1-.17.06l-0.17,0-0.17-.06a0.26,0.26,0,0,0-.17,0l-0.1-.11-0.42.14a3.25,3.25,0,0,0-.43.2,2.63,2.63,0,0,0-.41.28A2.4,2.4,0,0,0,20.58,18.58Zm0.23,1.12,0,0-0.08-.09,0,0Zm6.59-6.77L27.5,13.1l0.11,0.19,0.11,0.17a0.34,0.34,0,0,0,.13.11,0.35,0.35,0,0,0,0,.13,0.73,0.73,0,0,1,.05.14,0.19,0.19,0,0,1,0,.13,0.2,0.2,0,0,1-.13.09L27.71,14l-0.11-.08-0.11,0a0.23,0.23,0,0,0-.13,0,0.26,0.26,0,0,0-.23-0.12,0.65,0.65,0,0,0-.28.09,1.89,1.89,0,0,0-.28.19l-0.25.19a1.53,1.53,0,0,0,0,.17c0,0.06,0,.11,0,0.17s0,0.11,0,.16a0.57,0.57,0,0,1,0,.16,0.35,0.35,0,0,1,.2.07l0.19,0.12a0.49,0.49,0,0,0,.2.06,0.36,0.36,0,0,0,.24-0.1A1.36,1.36,0,0,0,28,14.9a0.12,0.12,0,0,0,.06,0h0.14l0.06,0a0.23,0.23,0,0,1,.17-0.07l0.14,0,0.13,0.07a0.19,0.19,0,0,0,.14,0,0.48,0.48,0,0,0,.1.13L29,15.29l0.11,0.07,0.11,0.09a0.2,0.2,0,0,1,0,.09V15.6a0.08,0.08,0,0,0,0,0l0.07,0a0.05,0.05,0,0,0,0,.06,0.19,0.19,0,0,0,0,.07l0.06,0.08,0,0.07a0.92,0.92,0,0,0-.06.32c0,0.11,0,.22,0,0.33l-0.19.16a0.2,0.2,0,0,0-.06.19,0.11,0.11,0,0,0-.08,0L29,17l-0.09.09a0.29,0.29,0,0,0-.06.09l-0.32.16-0.37.21-0.38.24-0.36.26a1.63,1.63,0,0,1-.18-0.25l-0.16-.28-0.17-.29A2.12,2.12,0,0,0,26.68,17a0.22,0.22,0,0,1,.09-0.12l0.17-.1a0.15,0.15,0,0,0,.12.1h0.14a0.62,0.62,0,0,0,.32.24,0.7,0.7,0,0,0,.37,0,1.31,1.31,0,0,0,.39-0.17,3.12,3.12,0,0,0,.38-0.28l0.1-.32a0.67,0.67,0,0,0,0-.34,0,0,0,0,0,0,0H28.68a0,0,0,0,1,0,0,0,0,0,0,1,0,0l0,0,0,0a0,0,0,0,0,0,0,0.66,0.66,0,0,0-.43-0.2,1.24,1.24,0,0,0-.5.09,0.08,0.08,0,0,0,0,0h-0.1a0.08,0.08,0,0,1,0,0,3.1,3.1,0,0,1-.65.18,1.53,1.53,0,0,1-.6,0,0.16,0.16,0,0,0-.06-0.1l-0.1-.06-0.11,0a0.27,0.27,0,0,1-.1-0.07,0.79,0.79,0,0,1-.13-0.18,1,1,0,0,1-.08-0.21,0.76,0.76,0,0,1,0-.21,0.58,0.58,0,0,1,0-.18,0.29,0.29,0,0,1-.07-0.1,0.11,0.11,0,0,1,0-.07l0-.07a0.48,0.48,0,0,0,.05-0.11l0-.14A1,1,0,0,1,25.83,14a0.57,0.57,0,0,1,.1-0.14,0.65,0.65,0,0,1,.17-0.12,3,3,0,0,1,.3-0.23l0.31-.19L27,13.15ZM33,10.54a0.22,0.22,0,0,1,.08-0.08l0.13-.06,0.15-.05,0.15-.06a0.16,0.16,0,0,1,.06.06l0.05,0.09,0,0.08a0.15,0.15,0,0,0,.06.05,0.08,0.08,0,0,1,0,.09,0.12,0.12,0,0,0,0,.08,0.75,0.75,0,0,1,.14.21,0.61,0.61,0,0,1,.06.23,0.38,0.38,0,0,1,0,.2,0.31,0.31,0,0,1-.17.14,0.47,0.47,0,0,1-.16-0.09l-0.17-.13-0.17-.13A0.49,0.49,0,0,0,33,11.08a0.34,0.34,0,0,0-.19,0,0.56,0.56,0,0,0-.21.16,0.39,0.39,0,0,0-.15,0l-0.13,0-0.13.07L32,11.4a0.37,0.37,0,0,0-.07.3,1.23,1.23,0,0,0,.11.32l0.15,0.32a0.52,0.52,0,0,1,.06.29,0.14,0.14,0,0,0,.09,0,0.09,0.09,0,0,1,.08.06l0.43-.16a0.38,0.38,0,0,0,.22,0,0.45,0.45,0,0,0,.17-0.11,0.62,0.62,0,0,0,.11-0.17,1.17,1.17,0,0,0,.06-0.17,0,0,0,0,0,0,0H33.37a0,0,0,0,1,0,0,0.24,0.24,0,0,1,.08-0.12,0.42,0.42,0,0,1,.14-0.08,0.31,0.31,0,0,1,.15,0,0.21,0.21,0,0,1,.13.06,0.8,0.8,0,0,0,0,.27,2.25,2.25,0,0,0,.11.26l0.13,0.26a2.19,2.19,0,0,1,.12.26l-0.14.18a0.53,0.53,0,0,1-.23.15A1,1,0,0,0,33.72,13a0.59,0.59,0,0,0-.21-0.12,0.43,0.43,0,0,0-.23,0,0.39,0.39,0,0,0-.22.14A0.15,0.15,0,0,0,33,13l-0.12.05-0.12.08-0.1.06,0,0.19,0.1,0.2,0.11,0.22a1.85,1.85,0,0,1,.09.24,0.9,0.9,0,0,1,0,.26,0.15,0.15,0,0,0,.09.08l0.13,0a0.29,0.29,0,0,0,.13,0,0.19,0.19,0,0,0,.09-0.1h0.17l0.21-.06L34,14.12A0.36,0.36,0,0,0,34.08,14a0.4,0.4,0,0,0,.3-0.09,0.6,0.6,0,0,0,.15-0.24,1.43,1.43,0,0,0,.07-0.3,1.65,1.65,0,0,1,.06-0.28,0.18,0.18,0,0,1,.19,0,0.38,0.38,0,0,1,.14.16,0.82,0.82,0,0,1,.08.23,0.88,0.88,0,0,1,0,.21,0.26,0.26,0,0,1,.1.1,0.44,0.44,0,0,1,.06.14,0.54,0.54,0,0,1,0,.15,0.22,0.22,0,0,1,0,.12,4.91,4.91,0,0,1-.64.26l-0.67.22-0.66.22a4.08,4.08,0,0,0-.6.27l0,0a0.06,0.06,0,0,0,0,0,0.27,0.27,0,0,0-.32.12,0.06,0.06,0,0,0-.05,0H32.17l-0.07,0a0.06,0.06,0,0,1-.06,0,0.23,0.23,0,0,1,0-.1s0-.06,0-0.09a0.53,0.53,0,0,0,0-.09,0.27,0.27,0,0,0,0-.11l0.18-.16a1.05,1.05,0,0,1,.19-0.16,0.45,0.45,0,0,1-.06-0.17l0-.16a0.73,0.73,0,0,0,0-.15,0.22,0.22,0,0,0-.1-0.11s0,0,0,0v-0.1s0,0,0,0A0.74,0.74,0,0,1,32,13.71a2.78,2.78,0,0,1-.12-0.26,1.86,1.86,0,0,1-.09-0.27,0.6,0.6,0,0,1,0-.21,0.2,0.2,0,0,1-.07-0.06,0.42,0.42,0,0,1-.06-0.11,0.39,0.39,0,0,1,0-.11,0.2,0.2,0,0,1,0-.09,0.2,0.2,0,0,1-.07-0.06,0.4,0.4,0,0,1-.06-0.1,0.39,0.39,0,0,1,0-.11,0.2,0.2,0,0,1,0-.1,0.23,0.23,0,0,1-.08-0.08A0.59,0.59,0,0,1,31.38,12l0-.15a1,1,0,0,0-.05-0.14,0.24,0.24,0,0,0-.14,0l-0.16,0H30.83a0.14,0.14,0,0,1-.12-0.07,0.45,0.45,0,0,1,0-.21,0.34,0.34,0,0,1,.09-0.15A0.34,0.34,0,0,1,31,11.23a0.46,0.46,0,0,1,.22,0A1,1,0,0,1,31.53,11,3.75,3.75,0,0,1,32,10.84l0.45-.14a1.28,1.28,0,0,0,.39-0.2h0.13A0.13,0.13,0,0,1,33,10.54Zm7.75-2a0.19,0.19,0,0,0,.12,0A0.19,0.19,0,0,0,41,8.52a0.16,0.16,0,0,0,.09.07H41.2l0.1,0,0.13,0a0.42,0.42,0,0,1,0,.31,0.53,0.53,0,0,1-.14.18l-0.18.16a0.28,0.28,0,0,0-.09.22,0.24,0.24,0,0,0-.19.14,0.69,0.69,0,0,0,0,.24,0.91,0.91,0,0,0-.21.27,1,1,0,0,0-.1.35,1.74,1.74,0,0,0-.23.39,1.32,1.32,0,0,0-.1.48,0.11,0.11,0,0,0-.06,0l0,0.06,0,0.06a0.12,0.12,0,0,1-.07,0,3.19,3.19,0,0,0,0,.42,1.42,1.42,0,0,0,.09.4,0.67,0.67,0,0,0,.2.28,0.42,0.42,0,0,0,.34.07,0.44,0.44,0,0,1,0,.26,0.31,0.31,0,0,1-.1.16H40.27l-0.14,0a0.23,0.23,0,0,0-.11.08,0.53,0.53,0,0,0-.28,0l-0.34.06-0.32,0a0.25,0.25,0,0,1-.22-0.1,0.27,0.27,0,0,1,0-.1,0.27,0.27,0,0,1,0-.08l0-.07a0.21,0.21,0,0,0,0-.08l0.12,0a0.09,0.09,0,0,1,.08,0,0.7,0.7,0,0,0,.2-0.44,1.16,1.16,0,0,0-.07-0.48A1.7,1.7,0,0,0,39,11.48a1.91,1.91,0,0,0-.3-0.32l0-.14q-0.29-.3-0.56-0.62a6.35,6.35,0,0,1-.52-0.69,0.45,0.45,0,0,1-.24,0,0.35,0.35,0,0,1-.17-0.1,0.37,0.37,0,0,1-.09-0.18,0.5,0.5,0,0,1,0-.23l0.42,0,0.39,0L38.33,9l0.43-.11,0,0.23L38.6,9.3l-0.17.15a0.19,0.19,0,0,0,0,.13,0.28,0.28,0,0,0,.06.09l0.09,0.07,0.08,0.08a0.08,0.08,0,0,1,0,.07,0.1,0.1,0,0,0,0,.07L38.75,10l0.07,0.05,0.08,0.05L39,10.19a0.73,0.73,0,0,1,.11.2,0.7,0.7,0,0,0,.12.2l0.1,0.1,0.1,0.09,0.09,0.11a0.47,0.47,0,0,1,.07.15l0.14,0a0.35,0.35,0,0,0,0-.12l0-.13a0.37,0.37,0,0,1,0-.11,0.19,0.19,0,0,1,.09-0.08l0-.22,0,0,0,0,0,0H40a0.61,0.61,0,0,1,0-.27l0.1-.22a1.45,1.45,0,0,0,.09-0.23,0.63,0.63,0,0,0,0-.29,0.43,0.43,0,0,0-.2-0.12l-0.24-.07,0-.29a1.57,1.57,0,0,1,.3-0.05l0.27,0,0.23,0A0.47,0.47,0,0,0,40.79,8.56Zm12.61,1.79c0.1,0,.15-0.06.16-0.2H53.5l0,0,0,0H53.36a0.68,0.68,0,0,1-.09-0.17l-0.07-.18L53.11,9.7A0.53,0.53,0,0,0,53,9.55l0.08-.1,0.08-.1,0.25,0.06,0.28,0,0.25,0.06a0.49,0.49,0,0,1,.19.1,0,0,0,0,1,0,0h0.14a0,0,0,0,0,0,0,0.31,0.31,0,0,0,.21.09l0.25,0a0.5,0.5,0,0,1,.21.07,0.21,0.21,0,0,1,.08.21,0.83,0.83,0,0,1-.2.13l-0.22.1-0.21.11a0.7,0.7,0,0,0-.18.16,2.56,2.56,0,0,1,0,.53c0,0.2-.07.4-0.11,0.61S54,12,54,12.18l-0.14.52c0,0.09,0,.18,0,0.27a0.88,0.88,0,0,0,0,.24,0.47,0.47,0,0,0,.12.19,0.47,0.47,0,0,0,.25.11s0,0.07,0,.11a0.72,0.72,0,0,1,0,.11,0.25,0.25,0,0,1,0,.1,0.18,0.18,0,0,1-.07.08,4.7,4.7,0,0,0-.8-0.22l-0.71-.1s0,0,0,0l0,0h0a0,0,0,0,1,0,0,0.49,0.49,0,0,1,.08-0.13,0.25,0.25,0,0,0,0-.17,0.5,0.5,0,0,0,.21,0,0.49,0.49,0,0,1,.21,0,0.67,0.67,0,0,1,0-.21l0.06-.17a0.47,0.47,0,0,0,0-.14,0.22,0.22,0,0,0-.06-0.14,0.78,0.78,0,0,0,.17-0.31,3.73,3.73,0,0,0,.08-0.37q0-.19.08-0.38a1.12,1.12,0,0,1,.15-0.36,0.36,0.36,0,0,1,0-.16,0.48,0.48,0,0,1,0-.15l0.05-.16a1.39,1.39,0,0,0,.06-0.19,1,1,0,0,0-.35.31,1.84,1.84,0,0,0-.23.5,0.46,0.46,0,0,0-.21.13,0.51,0.51,0,0,0-.11.27s0,0,0,0l0,0,0,0h0a0.44,0.44,0,0,1-.08.19L52.51,12l-0.11.14a0.5,0.5,0,0,0-.07.21l-0.09.08-0.09.11a0.4,0.4,0,0,0-.05.13,0.17,0.17,0,0,0,0,.14l-0.16.29a1.49,1.49,0,0,1-.19.25l-0.34-.07a4.51,4.51,0,0,0,0-.82q0-.39-0.12-0.76L51.14,11A7.18,7.18,0,0,1,51,10.19l-0.14,0a1.33,1.33,0,0,0-.15.36c0,0.13-.06.27-0.08,0.4l-0.07.39a1.65,1.65,0,0,1-.1.35,0.13,0.13,0,0,0,.09.13,0.61,0.61,0,0,0,0,.14l0,0.16a0.68,0.68,0,0,1,0,.14,0.16,0.16,0,0,1-.07.08,0.27,0.27,0,0,0,.08.21l0.17,0.15a0.47,0.47,0,0,1,.13.18,0.36,0.36,0,0,1,0,.28,0.17,0.17,0,0,0-.13,0l-0.1,0a0.17,0.17,0,0,0-.09-0.08L50.25,13l-0.18,0A0.18,0.18,0,0,0,50,13a0.25,0.25,0,0,0-.15-0.08l-0.19,0-0.2,0a0.44,0.44,0,0,1-.19-0.08,0.34,0.34,0,0,1,.11-0.26,0.68,0.68,0,0,1,.21-0.11l0.23-.08A0.32,0.32,0,0,0,50,12.2a1,1,0,0,1,0-.3A1.92,1.92,0,0,1,50,11.57a2.38,2.38,0,0,1,.1-0.32c0-.1.08-0.2,0.13-0.29a1.43,1.43,0,0,1,0-.24,2.52,2.52,0,0,1,0-.3,2.55,2.55,0,0,1,.07-0.29,0.68,0.68,0,0,1,.11-0.21,0.11,0.11,0,0,1,0-.08,0.44,0.44,0,0,1,0-.13,0.49,0.49,0,0,1,0-.12,0.12,0.12,0,0,1,.07-0.06,3.38,3.38,0,0,1-.22-0.33,1.61,1.61,0,0,0-.24-0.32l0.08-.1,0.08-.1a6.77,6.77,0,0,0,.8.26,3.09,3.09,0,0,0,.82.09,0.31,0.31,0,0,0,.14.21,0.39,0.39,0,0,1-.34.22,1.19,1.19,0,0,0-.06.27,1,1,0,0,0,0,.22,0.84,0.84,0,0,0,0,.19l0.07,0.18a0.67,0.67,0,0,0-.06.32,1,1,0,0,0,.06.24q0,0.11.08,0.23a0.55,0.55,0,0,1,0,.29,0.32,0.32,0,0,1,.06.12l0,0.14,0,0.15a0.35,0.35,0,0,0,.06.12,0.58,0.58,0,0,0,.25-0.19,2.92,2.92,0,0,0,.19-0.28l0.18-.29a0.72,0.72,0,0,1,.23-0.22,0.46,0.46,0,0,1,0-.15,0.53,0.53,0,0,1,.06-0.11l0.07-.1A0.43,0.43,0,0,0,53,10.45h0.08l0.05,0,0,0h0.06a0.06,0.06,0,0,0,0,0l0,0,0,0a0.1,0.1,0,0,1,0-.06,0.07,0.07,0,0,1,.05,0l0,0,0,0A0.06,0.06,0,0,0,53.39,10.35ZM50.51,11l0-.17-0.17,0A0.14,0.14,0,0,0,50.51,11Zm0.61-1.45a0.14,0.14,0,0,1,0-.06l0-.06a0.07,0.07,0,0,0,0,0,0,0,0,0,0,0,0,0.14,0.14,0,0,1,0,.06l0,0.06a0.08,0.08,0,0,0,0,0A0,0,0,0,0,51.11,9.51Zm9.68,2.24s0.06,0,0,0l0,0.08a1.84,1.84,0,0,1,.57.41,0.76,0.76,0,0,1,.19.54,1.16,1.16,0,0,1,.21.52,1.79,1.79,0,0,1,0,.61,3.13,3.13,0,0,1-.21.65,5.15,5.15,0,0,1-.36.66l0,0,0,0,0,0,0,0a0.58,0.58,0,0,1-.15.25,1.08,1.08,0,0,1-.2.14l-0.21.11a0.63,0.63,0,0,0-.19.16L59.8,16a3.35,3.35,0,0,1-.53,0,2.33,2.33,0,0,1-.54-0.11,1.54,1.54,0,0,1-.53-0.32l0,0,0,0,0,0,0,0-0.13-.17a0.46,0.46,0,0,0-.23-0.13A1.35,1.35,0,0,1,57.54,15l-0.12-.25-0.12-.25a1.09,1.09,0,0,0-.16-0.23,0.21,0.21,0,0,0,0-.13l0-.11a0.45,0.45,0,0,1,0-.12,0.28,0.28,0,0,1,.06-0.15,0.39,0.39,0,0,1-.09-0.27,1,1,0,0,1,.07-0.29l0.14-.3a1.21,1.21,0,0,0,.1-0.29,2.71,2.71,0,0,1,.8-0.9,1.51,1.51,0,0,1,1-.24,0.3,0.3,0,0,1,.23-0.1,0.92,0.92,0,0,1,.26.05L60,11.54a0.91,0.91,0,0,0,.24.08l0.11,0.08,0.15,0.06,0.16,0A0.2,0.2,0,0,0,60.79,11.75Zm-1.71.15A0.11,0.11,0,0,1,59,12l-0.08,0H58.77a0.15,0.15,0,0,0-.06.06l-0.05.07-0.07.06a0.11,0.11,0,0,1-.09,0,3.69,3.69,0,0,0-.27.37A3.84,3.84,0,0,0,58,13a2.21,2.21,0,0,0-.16.46,0.75,0.75,0,0,0,0,.41,0,0,0,0,1,0,0s0,0,0,0,0.08,0.25.12,0.37a3.34,3.34,0,0,1,.11.37l0.13,0.1,0.14,0.09L58.35,15a0.22,0.22,0,0,1,.06.12l0.83,0.39a0.2,0.2,0,0,1,.16,0,0.58,0.58,0,0,1,.2.08l0.1-.05,0.1-.05,0.11,0,0.12,0a0.23,0.23,0,0,1,.31-0.11A1.1,1.1,0,0,1,60.5,15l0.19-.26a2,2,0,0,0,.16-0.27,0.69,0.69,0,0,0,.07-0.29H61l0,0a0.09,0.09,0,0,0,0,0,3.86,3.86,0,0,1,0-.41q0-.21,0-0.42l-0.06,0a0,0,0,0,1,0,0A0.32,0.32,0,0,0,61,13a1.06,1.06,0,0,0-.09-0.16l-0.1-.15a0.36,0.36,0,0,1-.06-0.17,0.35,0.35,0,0,1-.19-0.11l-0.12-.15a0.62,0.62,0,0,0-.13-0.13,0.25,0.25,0,0,0-.2,0A0.11,0.11,0,0,0,60,12l-0.14,0-0.13,0a0.07,0.07,0,0,1-.06-0.07l-0.15,0-0.15,0H59.25A0.49,0.49,0,0,1,59.08,11.9Zm0-.2,0-.1-0.11,0C58.92,11.62,58.94,11.68,59,11.7Zm1.57,3.83,0-.1-0.11-.05A0.13,0.13,0,0,0,60.61,15.53Zm5.53-.2a0.66,0.66,0,0,1,.28.1,1.58,1.58,0,0,1,.24.19l0.23,0.23,0.23,0.23a0.57,0.57,0,0,0,0,.16l0.05,0.16,0.06,0.16a1.13,1.13,0,0,1,0,.16,0.6,0.6,0,0,1-.07.14L67.14,17l-0.08.15a0.45,0.45,0,0,0,0,.14l-0.28.14-0.28.12a1.23,1.23,0,0,1-.29.06,0.73,0.73,0,0,1-.3,0,0.31,0.31,0,0,0-.06.18c0,0.07,0,.14,0,0.2a0.61,0.61,0,0,1,0,.17,0.17,0.17,0,0,1-.12.11s0,0,0,.06a0.23,0.23,0,0,1,.08.06,0.41,0.41,0,0,0-.09.22,1,1,0,0,0,0,.2,1.44,1.44,0,0,1,0,.2,0.35,0.35,0,0,1-.07.21l0.19,0.26a1.2,1.2,0,0,1,.17.26A0.53,0.53,0,0,1,66,20a0.56,0.56,0,0,1-.17.31,0.53,0.53,0,0,1-.16-0.12l-0.09-.13-0.09-.13a0.56,0.56,0,0,0-.14-0.13,0.3,0.3,0,0,0,0-.22,1.79,1.79,0,0,0-.14-0.21,4.9,4.9,0,0,1,0-.71,5.27,5.27,0,0,0,0-.72,0.57,0.57,0,0,0,.11-0.23,0.44,0.44,0,0,0,0-.21,0.67,0.67,0,0,0-.09-0.2L65,17.13a0.39,0.39,0,0,0-.22,0,0.44,0.44,0,0,0-.16.1,0.77,0.77,0,0,0-.13.17l-0.11.19-0.13.18a0.47,0.47,0,0,1-.17.13,0.07,0.07,0,0,1,0,.06l0,0.07L64,18.1,64,18.17a0.44,0.44,0,0,0,.07.13l0.1,0.13,0.1,0.12a0.48,0.48,0,0,1,.07.13l-0.17.23-0.37-.24-0.34-.25-0.34-.27-0.37-.31a0.41,0.41,0,0,1,.16-0.19,0.32,0.32,0,0,1,.18,0,0.66,0.66,0,0,1,.19.05l0.19,0.07a3.28,3.28,0,0,0,.22-0.29l0.22-.31,0.22-.28a1,1,0,0,1,.23-0.21,0.84,0.84,0,0,1,.14-0.3L64.71,16,65,15.71a1.54,1.54,0,0,0,.2-0.31,0.48,0.48,0,0,0,0-.29,0.4,0.4,0,0,0-.2-0.26,0.19,0.19,0,0,0,0-.09,0.91,0.91,0,0,1,0-.1,0.31,0.31,0,0,1,0-.09,0.11,0.11,0,0,1,.07-0.06,0.16,0.16,0,0,1,.17,0l0.15,0.15,0.15,0.16a0.17,0.17,0,0,0,.16.05,0.21,0.21,0,0,0,.08.08L66,15.08l0.11,0.11A0.25,0.25,0,0,1,66.15,15.33Zm-0.27.3a6,6,0,0,0-.37.47,2,2,0,0,1-.33.37,1.75,1.75,0,0,0-.05.23,0.25,0.25,0,0,0,.08.21L65.51,17l0.3,0.07a1,1,0,0,0,.3,0A0.61,0.61,0,0,0,66.39,17a0.59,0.59,0,0,1,0-.13l0.07-.13,0.08-.13,0.07-.13a0.35,0.35,0,0,0,0-.16,0.86,0.86,0,0,0-.08-0.15L66.42,16l-0.11-.15-0.1,0-0.1-.06L66,15.66Zm7.37,6.46-0.78.68-0.08,0-0.08,0-0.08,0a0.28,0.28,0,0,1-.07-0.09,0.52,0.52,0,0,0,.09-0.21,1.2,1.2,0,0,0,0-.21c0-.07,0-0.14,0-0.21a0.54,0.54,0,0,1,.06-0.21,0.63,0.63,0,0,1-.14-0.19l-0.1-.2A1,1,0,0,0,72,21.18a0.37,0.37,0,0,0-.17-0.12,0.29,0.29,0,0,0-.08-0.2,0.5,0.5,0,0,0-.16-0.09l-0.19-.05a0.39,0.39,0,0,1-.16-0.09s-0.05,0-.08,0a0.21,0.21,0,0,1-.08.07,0.55,0.55,0,0,0-.27,0,1.51,1.51,0,0,0-.28.09l-0.28.12a1.44,1.44,0,0,1-.28.1l-0.19.2-0.17.17-0.18.19-0.23.26a2.76,2.76,0,0,1,0,.43,2.17,2.17,0,0,0,0,.45,1.22,1.22,0,0,0,.14.43,1,1,0,0,0,.37.37,0.11,0.11,0,0,1,.06.07s0,0,0,.07L70,23.76a1.52,1.52,0,0,1,.29.13l0.21-.16,0.21-.15,0.21-.16,0.21-.19a0.44,0.44,0,0,0,0-.21A2.16,2.16,0,0,0,71,22.8l-0.14-.22a1.14,1.14,0,0,1-.11-0.21,0.27,0.27,0,0,1,.08-0.07l0.08,0H71l0.08,0a2.88,2.88,0,0,0,.3.4L71.71,23,72,23.34a1.33,1.33,0,0,1,.2.35L72,23.84a0.5,0.5,0,0,0-.22-0.1,0.61,0.61,0,0,0-.25,0,0.68,0.68,0,0,0-.23.11,0.48,0.48,0,0,0-.17.21,0.49,0.49,0,0,0-.16.07l-0.19.15-0.17.17a0.5,0.5,0,0,0-.1.15,0.39,0.39,0,0,1-.18.1,0.41,0.41,0,0,1-.19,0A0.33,0.33,0,0,1,70,24.64a0.24,0.24,0,0,1-.08-0.15,0.14,0.14,0,0,1-.14,0l-0.13-.12-0.13-.13a0.19,0.19,0,0,0-.13-0.07,4.53,4.53,0,0,0-.28-0.41l-0.28-.38A3.46,3.46,0,0,1,68.63,23a1.35,1.35,0,0,1-.13-0.39l0-.08a0.18,0.18,0,0,0,0-.12,1.29,1.29,0,0,1,0-.49,0.79,0.79,0,0,1,.24-0.46A0.86,0.86,0,0,1,68.94,21a2.44,2.44,0,0,1,.47-0.46l0.26-.13,0.27-.15a1.19,1.19,0,0,1,.26-0.1,0.4,0.4,0,0,1,.25,0L70.59,20l0.25,0,0.25,0,0.25,0a1.13,1.13,0,0,1,.24.07l0.26,0.22,0.23,0.19,0.22,0.18L72.5,21a0.78,0.78,0,0,0,.13.28l0.22,0.29,0.23,0.28A1,1,0,0,1,73.25,22.09ZM76.62,27a2.88,2.88,0,0,1-.28.4L76,27.8l-0.34.38a2.63,2.63,0,0,0-.28.4H75.27a0.27,0.27,0,0,0-.13.07,0.09,0.09,0,0,1,0,.07,0.06,0.06,0,0,0,0,.07,0.42,0.42,0,0,0-.13.09L74.9,29l-0.1.11a0.41,0.41,0,0,1-.15.09,0.11,0.11,0,0,1,0,.07l-0.05.07,0,0.07a0.1,0.1,0,0,0,0,.07,0.79,0.79,0,0,0-.27.23,1,1,0,0,0-.13.27c0,0.09-.05.19-0.08,0.28a0.9,0.9,0,0,1-.12.27s0-.06,0,0l-0.08,0a3,3,0,0,0-.2-0.36l-0.21-.32-0.19-.3a1.48,1.48,0,0,1-.14-0.32l0.1-.05h0.26l0.07,0.12a0.35,0.35,0,0,0,.26,0A0.8,0.8,0,0,0,74,29.12a1.33,1.33,0,0,0,.2-0.24,1.65,1.65,0,0,0,.13-0.23l-0.07-.13-0.07-.13L74.1,28.3A0.19,0.19,0,0,0,74,28.24a0.06,0.06,0,0,0,0-.07,0.09,0.09,0,0,1,0-.07L74,28l-0.1-.09-0.08-.1a0.13,0.13,0,0,1,0-.11,0.17,0.17,0,0,0-.11-0.06H73.42a0.17,0.17,0,0,1-.11-0.06,0.42,0.42,0,0,0-.19.07L73,27.77l-0.15.08a0.25,0.25,0,0,1-.18,0,0.33,0.33,0,0,0,0,.11L72.73,28l0.05,0.09a0.61,0.61,0,0,1,0,.13,0.25,0.25,0,0,0-.15,0l-0.18.1a1.16,1.16,0,0,0-.11-0.31,3.21,3.21,0,0,0-.18-0.31l-0.2-.3-0.19-.28,0.4-.23a1.14,1.14,0,0,0,.17.2,0.51,0.51,0,0,0,.19.11,0.43,0.43,0,0,0,.22,0,0.67,0.67,0,0,0,.26-0.13,1.05,1.05,0,0,0,.5,0L74.1,27a0.88,0.88,0,0,0,.42,0A2.22,2.22,0,0,0,75,26.82a0.78,0.78,0,0,0,.28,0l0.3-.05,0.3,0a0.56,0.56,0,0,1,.27,0l0.15-.08A0.51,0.51,0,0,1,76.62,27Zm-3.95.72,0,0,0,0h0a0.06,0.06,0,0,0,0,0,0.16,0.16,0,0,1,0-.06l0-.06a0.16,0.16,0,0,0,0-.07,0.16,0.16,0,0,0,0-.08,0.22,0.22,0,0,0-.15.12A0.5,0.5,0,0,0,72.67,27.74Zm1.43-.15a0.54,0.54,0,0,1,.16.17,1.68,1.68,0,0,1,.1.21l0.1,0.21a0.65,0.65,0,0,0,.13.18,1.52,1.52,0,0,1,.27-0.15,0.3,0.3,0,0,1,.23,0,0.37,0.37,0,0,1,0-.24,0.49,0.49,0,0,1,.1-0.2,1.2,1.2,0,0,1,.19-0.18l0.22-.17-0.09-.15a2.2,2.2,0,0,1-.35.08l-0.34,0-0.35.07A1.68,1.68,0,0,0,74.11,27.59Zm0.27,1.17c0.06,0.07.15,0.07,0.26,0s0,0,0,0l0,0,0,0a0,0,0,0,0,0,0Zm0.4-.23a0.13,0.13,0,0,0,.15,0A0.13,0.13,0,0,0,74.77,28.53Zm0.35-.2,0,0,0.1-.06,0,0ZM75.27,28h0l0.07,0a0.08,0.08,0,0,0,0-.05,0.06,0.06,0,0,0,0-.06H75.34l-0.07,0a0.09,0.09,0,0,0,0,.05A0.06,0.06,0,0,0,75.27,28Zm3.9,4.62-0.09.11a0.15,0.15,0,0,0,0,.16,0.37,0.37,0,0,0-.15.09l-0.1.12-0.09.13a0.4,0.4,0,0,1-.12.1,0.26,0.26,0,0,1,0,.13,0.53,0.53,0,0,1,0,.11l0,0.1a0.34,0.34,0,0,0,0,.11,0.41,0.41,0,0,0-.19.14,1,1,0,0,0-.1.19l-0.09.2a0.38,0.38,0,0,1-.15.17,1.12,1.12,0,0,1-.12.32l-0.17.29-0.18.28a1.51,1.51,0,0,0-.15.3,0.1,0.1,0,0,0,.08,0h0.12l0.11-.05a0.2,0.2,0,0,0,.07-0.07s0,0,0,0h0.1s0,0,0,0A0.12,0.12,0,0,1,78,35.6l0.15,0,0.15,0a0.11,0.11,0,0,0,.08-0.09,1.93,1.93,0,0,0,.38-0.06,1.13,1.13,0,0,0,.35-0.16,0.7,0.7,0,0,0,.23-0.26,0.58,0.58,0,0,0,0-.37,0.46,0.46,0,0,1,.25-0.06,0.35,0.35,0,0,1,.18.08,2.84,2.84,0,0,0,.15.62q0.11,0.31.25,0.66A0.72,0.72,0,0,1,80,36a0.37,0.37,0,0,1-.24,0,0.32,0.32,0,0,0-.15-0.24,0.51,0.51,0,0,0-.26-0.07,0.9,0.9,0,0,0-.29.05,0.92,0.92,0,0,0-.24.12,0.5,0.5,0,0,0-.23,0l-0.3.12L78,36.21a0.52,0.52,0,0,1-.27,0l-0.18.08-0.21.09-0.22.07-0.22,0-0.24.13-0.25.11-0.23.08-0.19,0-0.15-.49a0.31,0.31,0,0,0,.11-0.22l0.13,0,0.09,0L76.22,36l0.1,0a0.54,0.54,0,0,1,.07-0.16l0.1-.15a1,1,0,0,0,.09-0.15,0.49,0.49,0,0,0,0-.18l0.15-.18L76.93,35a0.94,0.94,0,0,0,.13-0.19,0.56,0.56,0,0,0,.06-0.22,0.62,0.62,0,0,0,.19-0.22l0.12-.26a1.76,1.76,0,0,1,.13-0.25,0.59,0.59,0,0,1,.23-0.2,0.47,0.47,0,0,1,0-.14,0.85,0.85,0,0,1,.05-0.13l0.07-.12L78,33.1a0.24,0.24,0,0,0-.2,0l-0.2.07-0.21.08a0.37,0.37,0,0,1-.22,0,0.4,0.4,0,0,1-.18.12l-0.28.09-0.32.08a1.34,1.34,0,0,0-.27.1,0.52,0.52,0,0,0-.16.11,0.42,0.42,0,0,0-.09.13,0.56,0.56,0,0,0,0,.17c0,0.06,0,.14,0,0.22l-0.15.1-0.18.06-0.18,0a0.31,0.31,0,0,1-.15,0,1.1,1.1,0,0,0,0-.38A3.44,3.44,0,0,0,75,33.62l-0.14-.39a1.57,1.57,0,0,1-.09-0.42l0.44-.14a0.21,0.21,0,0,0,.07.1l0.09,0.06,0.08,0.07a0.23,0.23,0,0,1,.05.13,0.75,0.75,0,0,0,.4,0,3.12,3.12,0,0,0,.43-0.11l0.44-.15a1.25,1.25,0,0,1,.41-0.07l0.14-.09,0.2-.09,0.21-.05a0.39,0.39,0,0,1,.17,0,0.1,0.1,0,0,1,.06-0.08l0.11,0,0.13,0,0.12,0a0.3,0.3,0,0,0,.06-0.13s0-.1,0-0.15a1.13,1.13,0,0,1,0-.14,0.33,0.33,0,0,1,.07-0.13,0.56,0.56,0,0,1,.2,0H78.9ZM18.94,63.39a0.22,0.22,0,0,1,.1.06l0.09,0.11,0.09,0.14,0.09,0.13a0.16,0.16,0,0,1,0,.08L19.2,64,19.13,64a0.15,0.15,0,0,0,0,.07,0.07,0.07,0,0,1-.09,0,0.12,0.12,0,0,0-.09,0,0.73,0.73,0,0,1-.17.19,0.61,0.61,0,0,1-.21.11,0.38,0.38,0,0,1-.21,0,0.31,0.31,0,0,1-.17-0.14,0.49,0.49,0,0,1,0-.18l0.09-.19,0.09-.19a0.48,0.48,0,0,0,0-.19,0.34,0.34,0,0,0-.06-0.19,0.55,0.55,0,0,0-.2-0.17,0.39,0.39,0,0,0,0-.15,0.36,0.36,0,0,0-.06-0.12L18,62.77l-0.11-.14a0.37,0.37,0,0,0-.31,0,1.22,1.22,0,0,0-.28.18L17,63a0.53,0.53,0,0,1-.27.12,0.14,0.14,0,0,0,0,.09,0.09,0.09,0,0,1,0,.09l0.26,0.38a0.38,0.38,0,0,0,.07.21,0.46,0.46,0,0,0,.15.13,0.62,0.62,0,0,0,.19.07l0.18,0,0,0a0.1,0.1,0,0,0,0,0,0.1,0.1,0,0,1,0,0l0,0a0.24,0.24,0,0,1,.13,0,0.42,0.42,0,0,1,.11.11,0.31,0.31,0,0,1,.05.14,0.21,0.21,0,0,1,0,.14,0.82,0.82,0,0,0-.25.1l-0.23.16-0.22.19-0.22.17L16.71,65a0.53,0.53,0,0,1-.2-0.19,0.91,0.91,0,0,0,.14-0.19,0.59,0.59,0,0,0,.07-0.23,0.43,0.43,0,0,0,0-.23A0.39,0.39,0,0,0,16.51,64a0.15,0.15,0,0,0,0-.12,0.4,0.4,0,0,0-.08-0.11l-0.11-.09-0.09-.09-0.19,0-0.17.15-0.19.16-0.21.14a0.93,0.93,0,0,1-.24.1,0.15,0.15,0,0,0-.05.11,0.37,0.37,0,0,0,0,.14,0.29,0.29,0,0,0,.07.12,0.19,0.19,0,0,0,.12.06,0.6,0.6,0,0,0,.05.16,1.59,1.59,0,0,0,.11.19l0.13,0.17a0.37,0.37,0,0,0,.13.1,0.4,0.4,0,0,0,.16.27,0.6,0.6,0,0,0,.26.09,1.4,1.4,0,0,0,.3,0h0.28a0.18,0.18,0,0,1,.06.19,0.38,0.38,0,0,1-.12.17,0.82,0.82,0,0,1-.21.13l-0.2.07a0.26,0.26,0,0,1-.07.12,0.45,0.45,0,0,1-.12.09l-0.14,0a0.21,0.21,0,0,1-.12,0,4.89,4.89,0,0,1-.41-0.56l-0.37-.6-0.37-.59a4.07,4.07,0,0,0-.4-0.52l0,0h0a0.27,0.27,0,0,0-.2-0.29,0.06,0.06,0,0,0,0-.06l0-.07,0-.07a0.06,0.06,0,0,1,0-.06,0.23,0.23,0,0,1,.09-0.06l0.09,0,0.09,0a0.28,0.28,0,0,0,.1-0.07l0.2,0.13a1.05,1.05,0,0,1,.2.15,0.45,0.45,0,0,1,.15-0.1l0.15-.06,0.13-.07a0.22,0.22,0,0,0,.09-0.13s0,0,0,0l0,0,0,0s0,0,0,0a0.75,0.75,0,0,1,.14-0.16L15.85,63l0.24-.14a0.58,0.58,0,0,1,.2-0.07,0.19,0.19,0,0,1,0-.09l0.09-.08,0.11-.05h0.09a0.2,0.2,0,0,1,0-.09l0.09-.08,0.11-.05H17a0.24,0.24,0,0,1,.06-0.1l0.11-.09L17.25,62,17.37,62a0.24,0.24,0,0,0,0-.14l-0.06-.15a0.84,0.84,0,0,1,0-.15,0.14,0.14,0,0,1,0-.13,0.45,0.45,0,0,1,.2,0,0.34,0.34,0,0,1,.17.05,0.33,0.33,0,0,1,.12.14,0.46,0.46,0,0,1,0,.21,1,1,0,0,1,.32.28,3.78,3.78,0,0,1,.25.39l0.24,0.41a1.28,1.28,0,0,0,.29.33l0,0.12A0.13,0.13,0,0,1,18.94,63.39Zm5,5.46,0,0.11a0.59,0.59,0,0,1,0,.12,0.36,0.36,0,0,1-.08.1,0.18,0.18,0,0,1-.12,0,0.68,0.68,0,0,0-.29-0.15,0.72,0.72,0,0,0-.29,0,1.15,1.15,0,0,0-.3.11l-0.29.17a0.21,0.21,0,0,0-.15,0l-0.15.06L22,69.46a0.21,0.21,0,0,1-.15,0,0.91,0.91,0,0,1-.31.2l-0.31.09-0.32.1a0.89,0.89,0,0,0-.31.22,0.07,0.07,0,0,0-.06,0l-0.06,0-0.06,0a0.07,0.07,0,0,1-.06,0l-0.12.12s0,0,0,0H20.14a0,0,0,0,1,0,0,1.63,1.63,0,0,1-.24.15,0.84,0.84,0,0,1-.24.08,0.52,0.52,0,0,1-.24,0,0.73,0.73,0,0,1-.24-0.14,0.27,0.27,0,0,0,0-.15,0.23,0.23,0,0,1,0-.15l0,0h0.09a0.86,0.86,0,0,1,.08-0.33l0.15-.33c0.05-.11.1-0.22,0.15-0.33a0.74,0.74,0,0,0,.05-0.33l0,0h0l0,0,0-.06a0.24,0.24,0,0,1,0-.11,0.13,0.13,0,0,0,0-.11l0.11-.2a1.64,1.64,0,0,0,.1-0.19,1.09,1.09,0,0,0,.07-0.19,0.4,0.4,0,0,0,0-.19,0.3,0.3,0,0,0,.07-0.09l0-.09,0-.09a0.36,0.36,0,0,1,.1-0.09,0.1,0.1,0,0,1,0-.07,0.06,0.06,0,0,0,0-.07q0.17-.13.08-0.24a0.41,0.41,0,0,0,.12-0.2,0.49,0.49,0,0,0,0-.2,1.08,1.08,0,0,0-.06-0.2,1,1,0,0,1-.06-0.21l0.2-.2L20.93,66l0.27,0.25,0.3,0.29,0.4,0.38a0.63,0.63,0,0,1-.11.18,0.59,0.59,0,0,1-.17.11l-0.18-.11A0.49,0.49,0,0,0,21.25,67a1.14,1.14,0,0,0-.27.37,3.24,3.24,0,0,0-.13.37q-0.05.18-.12,0.37a1.21,1.21,0,0,1-.23.37,0.09,0.09,0,0,1,0,.07,0.05,0.05,0,0,0,0,.07l-0.14.14a0,0,0,0,0,0,.05l0,0.05a0.72,0.72,0,0,0-.13.14,0.11,0.11,0,0,0,0,.15,0.4,0.4,0,0,0-.13.12,0.5,0.5,0,0,0-.05.12,0.91,0.91,0,0,0,0,.12,0.42,0.42,0,0,1,0,.12,1.13,1.13,0,0,0,.43-0.12l0.43-.24a0.14,0.14,0,0,0,.12,0l0.12-.06,0.12-.06a0.13,0.13,0,0,1,.12,0,1.79,1.79,0,0,1,.32-0.2l0.32-.14,0.32-.13,0.32-.15a2.06,2.06,0,0,1,0-.28A0.85,0.85,0,0,0,22.59,68l0.2-.2a1,1,0,0,1,.27.22l0.27,0.31,0.28,0.3A1,1,0,0,0,23.93,68.84Zm3.8,2.86a0.22,0.22,0,0,1,.11,0L28,71.79l0.13,0.09L28.24,72a0.15,0.15,0,0,1,0,.09l0,0.09,0,0.09a0.15,0.15,0,0,0,0,.08,0.07,0.07,0,0,1-.08,0,0.12,0.12,0,0,0-.09,0,0.74,0.74,0,0,1-.09.24,0.62,0.62,0,0,1-.15.18,0.38,0.38,0,0,1-.19.08,0.31,0.31,0,0,1-.21-0.06,0.48,0.48,0,0,1,0-.18c0-.07,0-0.14,0-0.21s0-.14,0-0.21a0.47,0.47,0,0,0,0-.19,0.34,0.34,0,0,0-.12-0.15,0.55,0.55,0,0,0-.25-0.08,0.39,0.39,0,0,0-.07-0.14,0.36,0.36,0,0,0-.1-0.09l-0.13-.07-0.16-.09a0.37,0.37,0,0,0-.29.11,1.24,1.24,0,0,0-.2.27l-0.17.31a0.53,0.53,0,0,1-.2.21,0.13,0.13,0,0,0,0,.09,0.09,0.09,0,0,1,0,.1L26,72.74a0.38,0.38,0,0,0,.14.17,0.46,0.46,0,0,0,.19.07,0.6,0.6,0,0,0,.2,0l0.17,0a0,0,0,0,0,0,0l0,0,0,0a0,0,0,0,1,0,0,0.25,0.25,0,0,1,.14,0,0.43,0.43,0,0,1,.14.06,0.31,0.31,0,0,1,.1.11,0.21,0.21,0,0,1,0,.14,0.83,0.83,0,0,0-.2.19,2.28,2.28,0,0,0-.15.24l-0.14.26a2.1,2.1,0,0,1-.14.24H26.26a0.53,0.53,0,0,1-.25-0.1,0.89,0.89,0,0,0,.06-0.23,0.6,0.6,0,0,0,0-.24,0.43,0.43,0,0,0-.12-0.2,0.39,0.39,0,0,0-.24-0.1,0.15,0.15,0,0,0,0-.11L25.54,73l-0.14,0-0.11,0L25.13,73l-0.1.2-0.12.22-0.14.21a0.9,0.9,0,0,1-.19.18,0.15,0.15,0,0,0,0,.12,0.36,0.36,0,0,0,.06.12,0.28,0.28,0,0,0,.11.09,0.19,0.19,0,0,0,.13,0,0.56,0.56,0,0,0,.11.13l0.17,0.14,0.18,0.11a0.36,0.36,0,0,0,.16,0,0.4,0.4,0,0,0,.25.2,0.6,0.6,0,0,0,.28,0,1.42,1.42,0,0,0,.28-0.11l0.26-.11a0.18,0.18,0,0,1,.12.15,0.38,0.38,0,0,1,0,.2,0.83,0.83,0,0,1-.14.2,0.84,0.84,0,0,1-.16.13,0.26,0.26,0,0,1,0,.14,0.47,0.47,0,0,1-.08.13l-0.12.1a0.22,0.22,0,0,1-.12,0,4.92,4.92,0,0,1-.58-0.37l-0.57-.42-0.57-.41A4,4,0,0,0,23.72,74h0l0,0a0.27,0.27,0,0,0-.29-0.19,0.06,0.06,0,0,0,0-.06l0-.05-0.05-.05a0.06,0.06,0,0,1,0-.06,0.23,0.23,0,0,1,.06-0.09l0.07-.05,0.07-.06a0.27,0.27,0,0,0,.06-0.1l0.24,0.05a1,1,0,0,1,.24.07,0.45,0.45,0,0,1,.1-0.15l0.12-.11,0.1-.11a0.22,0.22,0,0,0,0-.15s0,0,0,0l0,0,0,0s0,0,0,0a0.74,0.74,0,0,1,.08-0.2,2.61,2.61,0,0,1,.14-0.24,1.9,1.9,0,0,1,.17-0.22A0.6,0.6,0,0,1,25,72.1a0.2,0.2,0,0,1,0-.1,0.41,0.41,0,0,1,.05-0.11l0.08-.09,0.08,0a0.21,0.21,0,0,1,0-.1,0.41,0.41,0,0,1,.05-0.11l0.08-.09,0.08,0a0.24,0.24,0,0,1,0-.11,0.61,0.61,0,0,1,.07-0.12l0.09-.13,0.08-.12a0.24,0.24,0,0,0-.06-0.13l-0.11-.12-0.1-.12a0.14,0.14,0,0,1,0-.14,0.44,0.44,0,0,1,.17-0.11,0.35,0.35,0,0,1,.18,0,0.34,0.34,0,0,1,.16.08,0.45,0.45,0,0,1,.12.18,1,1,0,0,1,.4.14,3.75,3.75,0,0,1,.38.27l0.37,0.29a1.25,1.25,0,0,0,.39.2l0.08,0.1A0.13,0.13,0,0,1,27.74,71.7Zm3.58,1.93,0,0.14a0.15,0.15,0,0,0,.11.11,0.37,0.37,0,0,0,0,.17,1,1,0,0,0,0,.15l0,0.15a0.38,0.38,0,0,1,0,.16,0.27,0.27,0,0,1,.11.08l0.06,0.1,0,0.1a0.33,0.33,0,0,0,.06.09,0.41,0.41,0,0,0,0,.24,1.08,1.08,0,0,0,.08.2l0.1,0.2a0.38,0.38,0,0,1,0,.22,1.11,1.11,0,0,1,.17.3q0.06,0.16.11,0.32l0.1,0.32a1.57,1.57,0,0,0,.13.31,0.1,0.1,0,0,0,.09,0,0.3,0.3,0,0,0,.07-0.1,0.46,0.46,0,0,0,0-.12,0.2,0.2,0,0,0,0-.1s0,0,.05,0l0,0,0,0s0,0,.05,0a0.12,0.12,0,0,1,0-.12l0.06-.15,0.06-.14a0.11,0.11,0,0,0,0-.12,1.93,1.93,0,0,0,.2-0.33,1.13,1.13,0,0,0,.11-0.36,0.7,0.7,0,0,0,0-.34,0.58,0.58,0,0,0-.26-0.27A0.46,0.46,0,0,1,33,74.52a0.35,0.35,0,0,1,.18-0.09,2.84,2.84,0,0,0,.57.29L34.43,75a0.72,0.72,0,0,1,0,.24,0.36,0.36,0,0,1-.13.21,0.32,0.32,0,0,0-.27,0,0.5,0.5,0,0,0-.22.15,0.88,0.88,0,0,0-.15.26,0.91,0.91,0,0,0-.06.27,0.5,0.5,0,0,0-.11.2l-0.11.3q-0.06.16-.12,0.31a0.52,0.52,0,0,1-.16.22L33,77.27q0,0.11-.07.21a1.82,1.82,0,0,1-.09.21,0.88,0.88,0,0,1-.12.18c0,0.09,0,.18-0.06.27s-0.05.18-.08,0.26l-0.09.23a0.72,0.72,0,0,1-.1.16l-0.47-.2a0.31,0.31,0,0,0-.09-0.23,0.36,0.36,0,0,0,.06-0.12l0-.1a0.93,0.93,0,0,0,0-.09,0.31,0.31,0,0,1,0-.11,0.53,0.53,0,0,1-.08-0.16l0-.17a0.87,0.87,0,0,0-.06-0.17,0.47,0.47,0,0,0-.11-0.15,1.69,1.69,0,0,1,0-.23c0-.08,0-0.15,0-0.23a1,1,0,0,0-.06-0.22,0.57,0.57,0,0,0-.13-0.19,0.62,0.62,0,0,0,0-.29l-0.12-.26a1.83,1.83,0,0,1-.11-0.26,0.59,0.59,0,0,1,0-.31,0.45,0.45,0,0,1-.1-0.11L31,75.08l0-.13-0.05-.13a0.25,0.25,0,0,0-.17.12,1.22,1.22,0,0,0-.08.2l-0.07.22a0.37,0.37,0,0,1-.14.18,0.4,0.4,0,0,1,0,.22c0,0.08-.07.18-0.12,0.27l-0.14.29a1.38,1.38,0,0,0-.1.27,0.56,0.56,0,0,0,0,.19,0.43,0.43,0,0,0,0,.15,0.55,0.55,0,0,0,.1.14l0.16,0.14a0.74,0.74,0,0,1,0,.18,0.83,0.83,0,0,1-.07.18,0.87,0.87,0,0,1-.1.15,0.31,0.31,0,0,1-.12.1,1.09,1.09,0,0,0-.31-0.23l-0.36-.16L29,77.29a1.57,1.57,0,0,1-.38-0.21l0.18-.42a0.21,0.21,0,0,0,.12,0l0.1,0,0.11,0a0.23,0.23,0,0,1,.13,0,0.77,0.77,0,0,0,.28-0.29A3.15,3.15,0,0,0,29.7,76l0.17-.43a1.26,1.26,0,0,1,.21-0.36,0.58,0.58,0,0,1,0-.17,1.81,1.81,0,0,1,.06-0.21,1,1,0,0,1,.09-0.19,0.38,0.38,0,0,1,.11-0.12,0.1,0.1,0,0,1,0-.09,0.48,0.48,0,0,1,0-.11l0.06-.12,0-.12a0.3,0.3,0,0,0-.05-0.13l-0.09-.12-0.09-.12a0.35,0.35,0,0,1-.05-0.13,0.57,0.57,0,0,1,.12-0.17l0.13-.13Zm6.44,2.19a0.46,0.46,0,0,0,.18.12l0.17,0,0.17,0a0.4,0.4,0,0,1,.16.07,0.12,0.12,0,0,1,.09,0h0.14l0.14,0a0.12,0.12,0,0,1,.07.07,0.54,0.54,0,0,1,.29,0l0.31,0.09a1.27,1.27,0,0,0,.29.06,0.29,0.29,0,0,0,.24-0.1l0.16,0,0.16,0,0.14,0a0.22,0.22,0,0,1,.1.07,0.3,0.3,0,0,1-.06.18l-0.11.14a0.58,0.58,0,0,0-.09.14,0.19,0.19,0,0,0,0,.17,2.6,2.6,0,0,0-.12.25l-0.1.27-0.06,0,0,0,0,0h0s0-.06,0-0.06l-0.09,0a0.52,0.52,0,0,0,0-.2l-0.07-.18a1,1,0,0,1-.05-0.18,0.54,0.54,0,0,1,0-.23l-0.07,0,0,0a0.17,0.17,0,0,0,0,.06v0.07H39.42a0,0,0,0,0,0,0l-0.35-.16-0.34-.16q0,0.1,0,.22a0.19,0.19,0,0,1-.09.18,0.34,0.34,0,0,1,0,.13,1.07,1.07,0,0,1,0,.18,0.82,0.82,0,0,1,0,.17,0.23,0.23,0,0,1-.07.11,2.61,2.61,0,0,1-.06.52l-0.12.56c0,0.19-.07.38-0.1,0.56a1.64,1.64,0,0,0,0,.53,0.64,0.64,0,0,0,.12.12l0.13,0.11a0.65,0.65,0,0,1,.11.13,0.37,0.37,0,0,1,.06.16l-0.08.11a0.22,0.22,0,0,1-.1.09,0.66,0.66,0,0,0-.23-0.14L38,80.21l-0.29,0-0.26,0-0.18-.08-0.17,0H36.89l-0.23,0a0.85,0.85,0,0,0,0-.19l0-.17s0.06,0,.06,0a0.35,0.35,0,0,1,0-.09,1.64,1.64,0,0,0,.48,0,0.82,0.82,0,0,0,.37-0.15,0.33,0.33,0,0,1,0-.19,1.78,1.78,0,0,1,0-.23l0.06-.21a0.24,0.24,0,0,0,0-.15,8.57,8.57,0,0,0,.31-1,4.41,4.41,0,0,0,.12-1l-0.12,0-0.13,0-0.11,0a0.11,0.11,0,0,1-.06-0.06H37.42l-0.23,0a0.55,0.55,0,0,0-.19.11,0.48,0.48,0,0,0-.13.2h-0.1l-0.07,0-0.06.05-0.07,0a0.24,0.24,0,0,1-.18-0.15,0.39,0.39,0,0,1,0-.22,0.92,0.92,0,0,1,.11-0.24l0.14-.19a0.15,0.15,0,0,1,0-.16,0.21,0.21,0,0,1,.13-0.11,0,0,0,0,0,0,0l0,0,0,0s0,0,0,0a0.21,0.21,0,0,1,.21-0.1,1,1,0,0,1,.27.09l0.28,0.13A0.35,0.35,0,0,0,37.75,75.82Zm9.72,5a0.33,0.33,0,0,1-.1.11,0.31,0.31,0,0,1-.2,0,0.23,0.23,0,0,1-.08-0.14,1,1,0,0,1,0-.19l0,0,0,0,0,0h0.07l0.08-.1,0.09-.09,0.09-.09a0.38,0.38,0,0,0,.07-0.11,3.2,3.2,0,0,0,0-.41l-0.06-.43c0-.14,0-0.28,0-0.41a1.38,1.38,0,0,1,0-.36,0,0,0,0,0,0,0H47.41a0,0,0,0,1,0,0,0.18,0.18,0,0,0,0-.1,1.16,1.16,0,0,0,0-.12s0-.08,0-0.12a0.22,0.22,0,0,1,0-.1l-0.1-.36a1.25,1.25,0,0,0-.13-0.32A0.56,0.56,0,0,0,47,77.13a0.56,0.56,0,0,0-.35,0,1,1,0,0,1,0-.2,0.22,0.22,0,0,1,0-.15l0.53,0,0.49,0,0.49-.06,0.51-.09a0.77,0.77,0,0,1,.35-0.1,1.62,1.62,0,0,1,.35,0l0.34,0.08a1.31,1.31,0,0,0,.33.05,0.19,0.19,0,0,0,.11.15l0.19,0.05a0.15,0.15,0,0,0,.07.14L50.59,77a0.37,0.37,0,0,0,.1.23l0.17,0.14q0,0.17.11,0.32a2,2,0,0,0,.14.29,0.31,0.31,0,0,1,0,.1,0.16,0.16,0,0,0,0,.14,0.33,0.33,0,0,1,.07.15,1.42,1.42,0,0,1,0,.21c0,0.07,0,.15,0,0.22a1.11,1.11,0,0,0,0,.21,0.35,0.35,0,0,1,0,.11l0,0.1a0.65,0.65,0,0,0,0,.12,0.37,0.37,0,0,0,0,.15,1.87,1.87,0,0,0-.2.25L50.72,80a2.32,2.32,0,0,1-.2.25,1.09,1.09,0,0,1-.26.2l-0.46.11-0.5.11-0.51.07a2,2,0,0,1-.49,0H48.23l0,0,0,0,0,0a0.15,0.15,0,0,0-.14,0l-0.18.05-0.18,0A0.19,0.19,0,0,1,47.47,80.81ZM47.58,78h0.06V77.9H47.57V78ZM48,77a0.43,0.43,0,0,0-.1.22,1.38,1.38,0,0,0,0,.3,1.65,1.65,0,0,0,0,.32,1.05,1.05,0,0,0,.09.27,1,1,0,0,0,0,.38q0,0.21.06,0.42c0,0.14.05,0.28,0.08,0.41a0.9,0.9,0,0,1,0,.34,0.19,0.19,0,0,1,.06.1,0.83,0.83,0,0,1,0,.14c0,0.05,0,.1,0,0.16a1.58,1.58,0,0,0,0,.16,0.73,0.73,0,0,0,.32.07,1.41,1.41,0,0,0,.29,0l0.32-.08a1.64,1.64,0,0,1,.39,0,0.17,0.17,0,0,1,.07-0.1l0.12-.06,0.15,0,0.16,0a0.31,0.31,0,0,0,0-.07,0,0,0,0,1,0-.05,0.29,0.29,0,0,0,.12-0.12l0.07-.15,0.07-.16a0.36,0.36,0,0,1,.1-0.13,1.26,1.26,0,0,1,0-.34c0-.1,0-0.2,0-0.3a0.22,0.22,0,0,1-.08-0.15,1,1,0,0,1,0-.19l0-.2a0.46,0.46,0,0,0,0-.2l0.23,0a0.32,0.32,0,0,1,0-.11,0.16,0.16,0,0,1,0-.08l0-.06,0-.06V77.37a0.16,0.16,0,0,0-.11,0,0.24,0.24,0,0,0-.05.08,0.51,0.51,0,0,0,0,.1,0.19,0.19,0,0,1,0,.09,0.23,0.23,0,0,1-.18-0.05,0.76,0.76,0,0,1-.12-0.14l-0.11-.15A0.26,0.26,0,0,0,50,77.26l0-.15L49.53,77a3.27,3.27,0,0,0-.46-0.09,2.65,2.65,0,0,0-.5,0A2.36,2.36,0,0,0,48,77Zm7.3-1.92A0.21,0.21,0,0,1,55.43,75l0.13-.05,0.16,0,0.15,0a0.16,0.16,0,0,1,.06.06L56,75l0,0.09a0.15,0.15,0,0,0,.06.06,0.07,0.07,0,0,1,0,.09,0.12,0.12,0,0,0,0,.08,0.76,0.76,0,0,1,.13.22,0.61,0.61,0,0,1,0,.23,0.38,0.38,0,0,1-.06.2,0.31,0.31,0,0,1-.18.13,0.48,0.48,0,0,1-.16-0.1l-0.16-.14-0.16-.14a0.49,0.49,0,0,0-.17-0.1,0.34,0.34,0,0,0-.19,0,0.55,0.55,0,0,0-.22.14,0.39,0.39,0,0,0-.15,0l-0.13,0-0.14.06-0.17.06a0.38,0.38,0,0,0-.09.3,1.25,1.25,0,0,0,.09.33l0.13,0.33a0.53,0.53,0,0,1,0,.29,0.13,0.13,0,0,0,.08,0,0.09,0.09,0,0,1,.07.06l0.44-.14a0.37,0.37,0,0,0,.22,0,0.45,0.45,0,0,0,.17-0.1,0.6,0.6,0,0,0,.12-0.16,1.19,1.19,0,0,0,.07-0.16,0,0,0,0,0,0,0H55.57a0,0,0,0,1,0,0,0.24,0.24,0,0,1,.08-0.11,0.44,0.44,0,0,1,.14-0.07,0.31,0.31,0,0,1,.15,0,0.21,0.21,0,0,1,.12.07,0.83,0.83,0,0,0,0,.27,2.41,2.41,0,0,0,.09.27l0.11,0.27a2.11,2.11,0,0,1,.1.26l-0.15.17a0.53,0.53,0,0,1-.23.13,0.92,0.92,0,0,0-.14-0.19,0.59,0.59,0,0,0-.2-0.14,0.43,0.43,0,0,0-.23,0,0.39,0.39,0,0,0-.23.13,0.14,0.14,0,0,0-.12,0l-0.13,0-0.12.08-0.11.06,0,0.19,0.09,0.2,0.1,0.23a1.89,1.89,0,0,1,.08.24,0.92,0.92,0,0,1,0,.26,0.15,0.15,0,0,0,.08.08l0.13,0a0.28,0.28,0,0,0,.14,0,0.19,0.19,0,0,0,.09-0.09h0.17l0.21,0L56,78.7a0.37,0.37,0,0,0,.14-0.1,0.4,0.4,0,0,0,.31-0.07,0.59,0.59,0,0,0,.16-0.23A1.4,1.4,0,0,0,56.72,78a1.64,1.64,0,0,1,.08-0.27,0.18,0.18,0,0,1,.19,0,0.37,0.37,0,0,1,.13.16,0.82,0.82,0,0,1,.06.23,0.88,0.88,0,0,1,0,.21,0.25,0.25,0,0,1,.09.1,0.44,0.44,0,0,1,0,.14,0.54,0.54,0,0,1,0,.15,0.21,0.21,0,0,1,0,.11,4.76,4.76,0,0,1-.65.22l-0.69.18-0.68.18a4.08,4.08,0,0,0-.62.23l0,0a0.05,0.05,0,0,0,0,0,0.22,0.22,0,0,0-.18,0,0.22,0.22,0,0,0-.15.11,0.06,0.06,0,0,0-.05,0H54.09a0.06,0.06,0,0,1-.06,0,0.23,0.23,0,0,1,0-.11s0-.06,0-0.09a0.57,0.57,0,0,0,0-.09,0.27,0.27,0,0,0,0-.11l0.19-.15a1,1,0,0,1,.2-0.15,0.45,0.45,0,0,1-.05-0.17V78.76a0.69,0.69,0,0,0,0-.15,0.22,0.22,0,0,0-.1-0.12s0,0,0,0a0.2,0.2,0,0,0,0-.05,0.2,0.2,0,0,1,0-.05s0,0,0,0a0.73,0.73,0,0,1-.11-0.19A2.7,2.7,0,0,1,54,77.9,1.85,1.85,0,0,1,54,77.63a0.63,0.63,0,0,1,0-.21,0.2,0.2,0,0,1-.07-0.07,0.4,0.4,0,0,1-.05-0.11,0.39,0.39,0,0,1,0-.12,0.2,0.2,0,0,1,0-.09A0.2,0.2,0,0,1,53.78,77a0.42,0.42,0,0,1-.05-0.11,0.39,0.39,0,0,1,0-.12,0.19,0.19,0,0,1,0-.09,0.23,0.23,0,0,1-.08-0.08,0.62,0.62,0,0,1-.05-0.13l0-.15a1,1,0,0,0,0-.14,0.24,0.24,0,0,0-.14,0H53.05A0.14,0.14,0,0,1,52.94,76a0.46,0.46,0,0,1,0-.21,0.34,0.34,0,0,1,.1-0.15,0.33,0.33,0,0,1,.16-0.07,0.45,0.45,0,0,1,.22,0,1,1,0,0,1,.36-0.22,3.67,3.67,0,0,1,.44-0.13l0.46-.11a1.27,1.27,0,0,0,.4-0.18h0.13A0.13,0.13,0,0,1,55.34,75.06Zm5.08-2.38,0.09,0.19,0.09,0.2,0.1,0.18a0.35,0.35,0,0,0,.12.12,0.36,0.36,0,0,0,0,.14,0.71,0.71,0,0,1,0,.14,0.19,0.19,0,0,1,0,.13,0.2,0.2,0,0,1-.14.08l-0.1-.09-0.1-.09-0.11-.06a0.23,0.23,0,0,0-.13,0,0.26,0.26,0,0,0-.22-0.14,0.64,0.64,0,0,0-.28.06,1.9,1.9,0,0,0-.29.17l-0.26.17a1.48,1.48,0,0,0,0,.17c0,0.06,0,.11,0,0.17a1.54,1.54,0,0,1,0,.16,0.57,0.57,0,0,1-.05.16,0.35,0.35,0,0,1,.19.08l0.18,0.13a0.5,0.5,0,0,0,.2.08A0.36,0.36,0,0,0,60,74.77a1.36,1.36,0,0,0,.87-0.06,0.12,0.12,0,0,0,.06,0l0.07,0,0.07,0a0.11,0.11,0,0,1,.06,0,0.23,0.23,0,0,1,.17-0.05l0.13,0.05,0.12,0.08a0.19,0.19,0,0,0,.14,0,0.5,0.5,0,0,0,.09.14l0.1,0.09L62,75.26l0.1,0.1a0.21,0.21,0,0,1,0,.09s0,0,0,.06a0.08,0.08,0,0,0,0,0l0.07,0a0.05,0.05,0,0,0,0,.05,0.19,0.19,0,0,0,0,.07l0,0.08,0,0.07a0.92,0.92,0,0,0-.09.32c0,0.11,0,.22,0,0.33l-0.2.15a0.2,0.2,0,0,0-.08.19H61.78l-0.1.06L61.59,77a0.29,0.29,0,0,0-.06.08l-0.33.13-0.38.18-0.4.21L60,77.82a1.6,1.6,0,0,1-.16-0.26l-0.14-.29L59.59,77a2.07,2.07,0,0,0-.19-0.3,0.21,0.21,0,0,1,.1-0.12l0.18-.09a0.15,0.15,0,0,0,.11.11h0.14a0.62,0.62,0,0,0,.3.26,0.71,0.71,0,0,0,.37,0,1.32,1.32,0,0,0,.4-0.14,3.06,3.06,0,0,0,.4-0.25l0.12-.32a0.66,0.66,0,0,0,0-.34,0,0,0,0,0,0,0H61.47a0,0,0,0,1,0,0,0,0,0,0,1,0,0l0,0,0,0a0,0,0,0,0,0,0A0.67,0.67,0,0,0,61,75.41a1.25,1.25,0,0,0-.51.05,0.08,0.08,0,0,0,0,0h-0.1a0.08,0.08,0,0,1,0,0,3.12,3.12,0,0,1-.66.12,1.52,1.52,0,0,1-.6-0.07,0.17,0.17,0,0,0,0-.11l-0.09-.07-0.11-.06a0.27,0.27,0,0,1-.09-0.08,0.79,0.79,0,0,1-.11-0.19,1,1,0,0,1-.06-0.22,0.75,0.75,0,0,1,0-.21,0.61,0.61,0,0,1,0-.18,0.3,0.3,0,0,1-.06-0.1,0.11,0.11,0,0,1,0-.07l0-.07,0.06-.1,0.06-.14a0.93,0.93,0,0,1,.07-0.14,0.55,0.55,0,0,1,.11-0.13,0.63,0.63,0,0,1,.18-0.11,2.83,2.83,0,0,1,.32-0.21l0.33-.17L60,72.89Zm2.14-1.14a0.86,0.86,0,0,1,.19-0.11L63,71.35l0.18-.09a0.32,0.32,0,0,0,.12-0.12,0.21,0.21,0,0,0,.15-0.05L63.55,71l0.14-.15a0.59,0.59,0,0,1,.15-0.12,0.19,0.19,0,0,1,.15,0,0.3,0.3,0,0,1,.15.14A0.64,0.64,0,0,1,64,71a1.52,1.52,0,0,0-.11.2,0.58,0.58,0,0,0-.05.22,0.4,0.4,0,0,0,.09.25,0,0,0,0,0,0,0,0.17,0.17,0,0,0,0,0l0,0.05a0,0,0,0,1,0,0l0.07,0a0.05,0.05,0,0,0,.07,0,0.49,0.49,0,0,0,.08.16l0.09,0.11,0.08,0.11a0.31,0.31,0,0,1,0,.15,2,2,0,0,1,.23.25c0.07,0.09.14,0.19,0.2,0.28L65,73.23l0.14,0.26,0.2,0.17a1,1,0,0,0,.2.16,0.42,0.42,0,0,0,.22.06A0.4,0.4,0,0,0,66,73.76a0.23,0.23,0,0,1,.13.09L66.27,74l-0.08.06-0.1.05L66,74.18a0.06,0.06,0,0,0,0,.07l-0.53.33A6.36,6.36,0,0,0,65,75a0.2,0.2,0,0,1-.13,0,0.23,0.23,0,0,1-.11-0.06,0.37,0.37,0,0,1-.08-0.12,0.53,0.53,0,0,1,0-.14,0.17,0.17,0,0,0,.08,0l0-.06,0-.06a0.16,0.16,0,0,1,.07-0.05,0.87,0.87,0,0,0,0-.31,1.48,1.48,0,0,0-.11-0.28,1.54,1.54,0,0,0-.15-0.24l-0.18-.21a1.24,1.24,0,0,0-.16-0.29L64,72.8l-0.25-.32a2.45,2.45,0,0,1-.22-0.34,0.06,0.06,0,0,0,0-.06,0.08,0.08,0,0,1,0-.07,0.46,0.46,0,0,1-.19,0l-0.18-.06-0.18,0a0.36,0.36,0,0,0-.2.05l-0.11-.06-0.11-.06a0.07,0.07,0,0,1,0-.06l0-.06a0.16,0.16,0,0,0,0-.06A0.13,0.13,0,0,0,62.56,71.55Zm5.8-4.7,0.71,0.75a0.25,0.25,0,0,0,0,.08l0,0.08a0.28,0.28,0,0,1,0,.08,0.29,0.29,0,0,1-.08.08,0.52,0.52,0,0,0-.21-0.09H68.26a0.54,0.54,0,0,1-.21,0,0.63,0.63,0,0,1-.18.14l-0.2.11a0.94,0.94,0,0,0-.18.12,0.38,0.38,0,0,0-.11.18,0.29,0.29,0,0,0-.19.09,0.49,0.49,0,0,0-.08.16c0,0.06,0,.12,0,0.19a0.38,0.38,0,0,1-.08.17S67,69,67,69a0.21,0.21,0,0,1,.07.07,0.55,0.55,0,0,0,0,.27,1.5,1.5,0,0,0,.1.28l0.13,0.28a1.41,1.41,0,0,1,.11.28l0.21,0.18,0.18,0.16L68,70.7l0.27,0.22a2.73,2.73,0,0,1,.43,0,2.17,2.17,0,0,0,.45,0,1.23,1.23,0,0,0,.43-0.15,1,1,0,0,0,.36-0.39A0.1,0.1,0,0,1,70,70.28h0.07L70.16,70a1.47,1.47,0,0,1,.11-0.3l-0.17-.2L70,69.29l-0.17-.2-0.2-.2a0.44,0.44,0,0,0-.21.05l-0.21.12-0.21.15a1.13,1.13,0,0,1-.21.12,0.27,0.27,0,0,1-.08-0.08,0.29,0.29,0,0,1,0-.08l0-.08a0.26,0.26,0,0,0,0-.08A2.9,2.9,0,0,0,69,68.69l0.35-.34L69.65,68A1.33,1.33,0,0,1,70,67.82L70.15,68a0.49,0.49,0,0,0-.09.22,0.6,0.6,0,0,0,0,.25,0.67,0.67,0,0,0,.12.23,0.48,0.48,0,0,1,.3.32l0.16,0.19,0.18,0.16a0.48,0.48,0,0,0,.16.09,0.39,0.39,0,0,1,.11.17,0.41,0.41,0,0,1,0,.19A0.33,0.33,0,0,1,71,70a0.24,0.24,0,0,1-.15.09,0.14,0.14,0,0,1,0,.14l-0.11.13-0.13.13a0.19,0.19,0,0,0-.06.13,4.51,4.51,0,0,0-.4.29l-0.37.29a3.3,3.3,0,0,1-.37.24,1.34,1.34,0,0,1-.39.15l-0.08,0a0.18,0.18,0,0,0-.12,0,1.27,1.27,0,0,1-.49.06,0.79,0.79,0,0,1-.47-0.22,0.86,0.86,0,0,1-.49-0.16,2.44,2.44,0,0,1-.48-0.45,1.72,1.72,0,0,0-.15-0.26l-0.16-.26A1.21,1.21,0,0,1,66.49,70a0.41,0.41,0,0,1,0-.25l-0.12-.13a1.53,1.53,0,0,0,0-.25c0-.08,0-0.17,0-0.25s0-.17,0-0.25a1.11,1.11,0,0,1,.07-0.24l0.21-.27,0.18-.24,0.17-.22,0.19-.23a0.78,0.78,0,0,0,.27-0.14l0.28-.23L68.09,67A1.06,1.06,0,0,1,68.36,66.85Zm2.33-2.91h0.15A0.15,0.15,0,0,0,71,63.85a0.37,0.37,0,0,0,.17.06h0.31a0.4,0.4,0,0,1,.16,0,0.26,0.26,0,0,1,.1-0.09l0.11,0,0.11,0,0.11,0a0.41,0.41,0,0,0,.23.07l0.22,0,0.21-.06a0.38,0.38,0,0,1,.22,0,1.15,1.15,0,0,1,.32-0.1l0.33,0,0.33,0a1.57,1.57,0,0,0,.33-0.06,0.1,0.1,0,0,0,0-.09,0.3,0.3,0,0,0-.08-0.09L74,63.26h-0.1s0,0,0,0l0,0,0,0s0,0,0,0a0.12,0.12,0,0,1-.12,0L73.63,63l-0.13-.09a0.11,0.11,0,0,0-.12,0,1.93,1.93,0,0,0-.28-0.26,1.14,1.14,0,0,0-.34-0.18,0.69,0.69,0,0,0-.35,0,0.59,0.59,0,0,0-.32.2,0.45,0.45,0,0,1-.19-0.16,0.35,0.35,0,0,1,0-.19,2.81,2.81,0,0,0,.4-0.5l0.37-.6a0.71,0.71,0,0,1,.23,0,0.36,0.36,0,0,1,.18.17,0.32,0.32,0,0,0-.1.26,0.5,0.5,0,0,0,.11.25,0.89,0.89,0,0,0,.22.2,0.91,0.91,0,0,0,.25.12,0.52,0.52,0,0,0,.18.15L74,62.51l0.28,0.19a0.52,0.52,0,0,1,.18.21L74.6,63l0.19,0.11L75,63.24a0.86,0.86,0,0,1,.15.16l0.25,0.12,0.24,0.13,0.2,0.14a0.7,0.7,0,0,1,.14.13l-0.3.42a0.31,0.31,0,0,0-.24,0,0.35,0.35,0,0,0-.1-0.08l-0.09,0-0.09,0-0.1,0a0.55,0.55,0,0,1-.17,0H74.69l-0.18,0a0.48,0.48,0,0,0-.17.07H74.12l-0.23,0H73.66a0.57,0.57,0,0,0-.21.09,0.62,0.62,0,0,0-.29,0l-0.28.06-0.28.05a0.6,0.6,0,0,1-.3-0.05l-0.13.07-0.13,0-0.14,0-0.13,0a0.24,0.24,0,0,0,.08.19L72,64.9,72.23,65a0.37,0.37,0,0,1,.14.17,0.4,0.4,0,0,1,.2.07l0.24,0.17,0.26,0.2a1.39,1.39,0,0,0,.25.15,0.55,0.55,0,0,0,.18.06,0.42,0.42,0,0,0,.16,0,0.55,0.55,0,0,0,.16-0.07L74,65.62l0.17,0.06,0.16,0.11,0.13,0.13a0.32,0.32,0,0,1,.07.14,1.08,1.08,0,0,0-.29.25,3.26,3.26,0,0,0-.23.32L73.79,67a1.6,1.6,0,0,1-.28.33l-0.38-.26a0.2,0.2,0,0,0,0-.12,1,1,0,0,0,0-.11,0.43,0.43,0,0,1,0-.11,0.24,0.24,0,0,1,.07-0.12A0.76,0.76,0,0,0,73,66.27,3.19,3.19,0,0,0,72.66,66l-0.38-.26A1.26,1.26,0,0,1,72,65.46l-0.16-.06-0.19-.11-0.17-.13a0.39,0.39,0,0,1-.1-0.14,0.1,0.1,0,0,1-.09,0L71.16,65l-0.11-.08-0.1-.07a0.3,0.3,0,0,0-.14,0l-0.13.07L70.54,65a0.35,0.35,0,0,1-.14,0,0.58,0.58,0,0,1-.14-0.15l-0.1-.16Z"/></svg>