<svg id="Layer_1" data-name="Layer 1" xmlns="http://www.w3.org/2000/svg" viewBox="0 0 550 155.55"><defs><style>.cls-1{fill:#fff;}</style></defs><title>white_logo</title><path class="cls-1" d="M165.69,120.72a2.36,2.36,0,0,0-.53,1.16,4.4,4.4,0,0,1-.27.77,9.28,9.28,0,0,1-3.22,3.14,18.36,18.36,0,0,1-7.91,2.78,54,54,0,0,1-7.7.6,33.46,33.46,0,0,1-7-.69c-0.51-.11-1-0.19-1.53-0.27s-1-.16-1.48-0.26a17.86,17.86,0,0,1-3.95-.81c-0.57-.16-1.14-0.32-1.78-0.47-0.95-.41-1.95-0.77-3.06-1.17-0.75-.27-1.51-0.55-2.24-0.84l-0.67-.23a19.6,19.6,0,0,0-2.84-.83c-0.64-.19-1.28-0.42-1.91-0.66s-1.56-.57-2.37-0.78a5,5,0,0,1-1.34-.64,4.44,4.44,0,0,0-1.21-.58,4.64,4.64,0,0,1-.76-0.48,4.05,4.05,0,0,0-.65-0.41c-0.42-.2-0.85-0.43-1.35-0.69a25.31,25.31,0,0,0-2.44-1.17,20.89,20.89,0,0,1-4.61-2.16,8.67,8.67,0,0,0-3-1.42,7.58,7.58,0,0,1-3-1.85,12.61,12.61,0,0,1-4.24-2.07,19.34,19.34,0,0,0-2.31-1.36,50,50,0,0,1-4.75-2.67,49.45,49.45,0,0,0-4.63-2.6,26.73,26.73,0,0,1-3.35-1.57l-1.13-.59C76.81,101,75.11,100,73.38,99l-0.23-.14c-5.56-3.29-11.3-6.67-17-8.56a15.52,15.52,0,0,1,5.28-3.91c4.31-4.13,8.71-8.34,12.61-12.71,2.43-2.48,4.59-5,6.75-7.45a11.85,11.85,0,0,1,2.57-2.48,3.1,3.1,0,0,1,2-.37,6.82,6.82,0,0,1,2.43-.62c0.68-.12,1.35-0.87,2-0.87a15.87,15.87,0,0,0,2.29-.62c2-.87,3.91-1.74,5.94-2.73,0.81-.25,2.43-1.86,3.37-1.61,1.08-1,2.43-1.24,3.37-2.36,1.21-1.12,3.1-2,4.45-3.11a40.64,40.64,0,0,1,3.91-3c2-1.24,3.78-3.35,5.67-4.85,0.81-.75,1.75-1.37,2.43-2.11,3.37-4,7.69-7.21,10.93-11.43a62.71,62.71,0,0,0,5.94-8.2c1.35-2.49,3.51-7.33.81-9.82-3.24-3.36-9.45-.5-13.23,1s-7,4.6-10.26,7.08c-2,1.62-3.64,3.23-5.53,5-1.62,1.49-3,3.11-4.45,4.6A122.26,122.26,0,0,0,90,47.92,54.25,54.25,0,0,1,85.27,54c-2,2.36-3.51,5-5.4,7.45-1.08,1.24-1.35,1.37-3.51,1.61a24.27,24.27,0,0,1-7.42-1,12.56,12.56,0,0,1-3.91-2,7.18,7.18,0,0,1-2.29-2.61c-0.94-1.12.41-1.24,1.22-2.24,0.67-.62,2-1.37,2.83-2,1.62-1.12,3-2.36,4.59-3.6,3.64-2.61,6.75-6,10-9.07a34.83,34.83,0,0,0,6.07-7.83c1.75-2.86,3.91-6.09,3.1-9.82-1.08-5-10.39-1.61-13.23.13-4.59,2.61-8.91,5.59-12.15,9.69a35.22,35.22,0,0,0-6.61,11.93c-0.81,2.48-.68,5-0.68,7.46A7.57,7.57,0,0,0,59,56c0.67,1-1.89,1.86-3,2.36-1.48.62-4.18,1.86-5.4,0.37-0.81-1.24,0-2.36.54-3.48,0.68,0,2.16-1.37,1.08-1.49-2.57-.62-3.11,4-2.7,5.09,0.41,1.86,3.37,2,5,1.74a35.51,35.51,0,0,0,3.91-1.49c0.81-.37,1.89-1.37,2.29-0.62,0.94,1,3.37,3.36,4.59,3.48,0.68,0,1.21.62,1.89,0.74,1.08,0.12,2,.75,3.24,1,0.94,0,3,.62,3.91.25,0.14,0.37,2.83,0,3.37.25,0,0.87-1.89,2.24-2.43,3.11C74.48,68.17,73.8,69.16,73,70c-1.89,2-4,4.1-5.94,6.21A106.07,106.07,0,0,1,56.66,87.43c-0.27.5-.68,0.62-0.94,1.12-0.81.62-.81,0.13-1.75,0s-2.16-.75-3.37-1.12c-2.84-.75-5.67-1.49-8.77-2.11-5.67-1.24-11.74-2.11-17.68-1.12-6.34,1.12-12.42,1.74-17.14,6-2.16,2-3,5.09-1.08,7.46a6.66,6.66,0,0,0,2.84,2.48c0.27,0.25,2,1,2.29,1.49,1.35,0.13,2.57.5,3.91,0.75,2.57,0.87,5.53.5,8.1,0.5a54,54,0,0,0,16.2-3,41.75,41.75,0,0,0,5.94-2.48c0.81-.25,1.89-1.49,3-1.37,0.81-.87,2-1.12,2.83-1.74A21.87,21.87,0,0,1,54.63,92l0.23-.14,0.21-.26c6.13,2.56,12.29,6.55,18.8,10.78,4.15,2.7,8.45,5.49,12.72,7.86l0.18,0.13a11,11,0,0,0,1.77,1.12,7,7,0,0,0,1.78,1,6.71,6.71,0,0,0,2.84,1.67c0.55,0.51,2.52,1.79,3.35,1.79h0l0.19,0.12,0,0.17c0.06,0.51,2.23,1.49,3.28,2a12.72,12.72,0,0,1,1.27.62l1.07,0.44a16.35,16.35,0,0,1,3,1.43c1.35,1,3.14,2,4.23,2a17,17,0,0,0,3.35,1.63c1.46,0.58,3,1.19,4.45,1.84a76.51,76.51,0,0,0,13.5,4.66,62.33,62.33,0,0,0,12.64,1.64c0.81,0,1.61,0,2.4-.09a18.86,18.86,0,0,0,2.75-.5c0.72-.17,1.43-0.33,2.15-0.43a8.89,8.89,0,0,0,1.65-.49,7,7,0,0,1,2.22-.53,6.22,6.22,0,0,0,2.65-1,8.3,8.3,0,0,1,2-.86,3.79,3.79,0,0,0,.95-0.62,5.62,5.62,0,0,1,.79-0.57,4.33,4.33,0,0,0,1.66-1.3,5.61,5.61,0,0,1,1.14-1.23c1-1,2.43-2.27,2.4-3.3a1.05,1.05,0,0,0-.43-0.81A0.46,0.46,0,0,0,165.69,120.72ZM91.35,53.14c1.21-1.74,2.56-3.36,3.78-4.85,1.35-1.86,3.37-3.73,4.45-5.84a22.16,22.16,0,0,1,4.32-5.09c1.08-1.37,2.43-3.11,3.64-4.6,2.7-3.11,5.94-5.84,8.77-8.57,2.43-3.11,5.8-5.84,8.77-8.32A19.15,19.15,0,0,1,133.72,12c2.43-.25,4.59.62,4.73,3.11,0.27,1.86-.95,3.48-1.62,5.09-1.35,3.6-4.59,7.7-7.42,10.31-1.62,1.37-2.57,3.48-4,4.85s-3.37,3.11-5,4.47c-3,2.86-6.07,5.47-9.45,8.32-6.75,6-15.93,11.18-24.7,13.29a3.76,3.76,0,0,0-1.48.37C86.22,58.73,89.05,55.87,91.35,53.14ZM62.6,45.93c1.75-3.6,3.1-7.58,5.8-10.56s4.86-6.34,8.23-8.82c2.43-2,6.07-4.72,9.31-5.22,5.94-.75,3.24,5.84,1.89,8.57C86.49,33,84.06,36,81.76,38.73c-2.7,3.6-6.61,6.58-10.12,9.57-2.83,2.24-7,5.09-9.58,6.71C60.57,55.75,62.06,47.05,62.6,45.93ZM49.91,92.77a49.83,49.83,0,0,1-5.26,2.73c-1.75.87-4.32,2.73-6.48,2.73a9.66,9.66,0,0,0-2,.87c-1.35.37-2.7,0.62-4,1-2.43.25-4.72,0.87-7.29,1.24-4.59.25-9.18,0.25-13.23-1.24C8.07,98.86,5,96.62,6.32,92.77c0.95-1.86,4-3.6,5.94-4.35a39.15,39.15,0,0,1,18.08-3.11c1.89,0.12,3.91.5,5.53,0.62a10.83,10.83,0,0,1,4.45.75,48.81,48.81,0,0,0,6.07,1.86c1.48,0.37,5,1.12,5.53,1.61a2,2,0,0,0,1.21.37C51.94,91.15,51.13,92.27,49.91,92.77Z" transform="translate(-4.85 -1.91)"/><path class="cls-1" d="M114.81,53.92c-1.05,0-2.1.72-2.1,1.55a2.15,2.15,0,0,0,1.05,1.32c0.79,0,1.58-.36,2.24-0.36a11.47,11.47,0,0,1,.39-1.43l-0.26-.6A1.45,1.45,0,0,0,114.81,53.92Z" transform="translate(-4.85 -1.91)"/><path class="cls-1" d="M388.49,83l7.89-13.27c1.18-2.15,2.5-4.42,3.94-6.58l0.39-1.31c0.26-.36.79-0.48,1.05-0.84l0.39-1.32c2-3.59,4.74-6.93,6.58-10.52l0.39-.36a1.4,1.4,0,0,0,.13-0.72l0.92-.6a30.07,30.07,0,0,0,1.71-3.83,50.16,50.16,0,0,0,3.68-4.54,1.41,1.41,0,0,1,.13-0.84l0.66-.36a7.85,7.85,0,0,1,.79-1.44,37.47,37.47,0,0,1,4.74-5.86,5.11,5.11,0,0,0,2-2c4.08-1.43,5.79-6.1,9.87-7.77,0.52-1,.52-1.08.79-1.08a2.71,2.71,0,0,0,.79-0.36V19c1.05-.36,2.63-1.44,2.76-2.39,2.1-1.08,8-6.93,8.68-7.06-0.26-.36,0-0.72.53-0.72,0.79-1.31,3.42-4.06,3.42-5.5,0-1-1.58-1.43-2.37-1.43-3.68,0-9.21,4.18-11.57,6.34v0.6a3.77,3.77,0,0,1-1.19.72c-6.44,6-12.23,12.91-17.89,19.61l-2,2.51A9.64,9.64,0,0,0,413,35l-0.4.36v0.36l-0.66.12c-0.53,1-2,2.51-2.24,3.71-2.37.84-12.89,10.28-15.52,12.43l-0.79.36V53a24.34,24.34,0,0,0-5.26,4.18c-1.18.36-1.71,1.43-2.5,2.39V59.9h-0.4l-0.52.84c-0.79.72-8.15,7.29-8.55,7.29h-0.4c0.4-1.43,1.58-2.39,2.24-3.47a24.84,24.84,0,0,1,1.58-4.66l1.18-1.79c2-4.42,3.55-9,5.79-13.27,1.45-2.75,2.63-5.86,4.21-8.37a58.15,58.15,0,0,0,3.16-6.58c1.45-.72,9.21-9.8,9.6-11.12,1.45-.36,6.44-7.05,6.44-8.37A2.11,2.11,0,0,0,409.27,9,5.36,5.36,0,0,0,408,8.61c-3,0-9.86,7.29-11.44,9.45-0.53.72-3.42,4.9-3.95,5.26a89.13,89.13,0,0,0-7.37,13.27A26.48,26.48,0,0,0,383,40.29a11.4,11.4,0,0,1-.4,1.44c-1.05,1.08-8.29,8.37-8.42,9.09-1.45.48-4.6,4.3-5.66,5.38-0.39.36-1.71,1.08-2.37,1.56-0.92.84-7.23,6.7-7.37,7.41-0.66.48-5.39,4.54-5.79,4.66v0.36h-0.66a14.93,14.93,0,0,1-3.16,3.11,8,8,0,0,0-1.45.72v0.6h-0.4l-2.63,2-0.13.48a0.79,0.79,0,0,0-.79.24c-2,1.2-3.55,3.11-5.79,4.31a109.27,109.27,0,0,1-11.18,5.86,4.89,4.89,0,0,1-1.18.48,28.39,28.39,0,0,1-4.6.6c-1.05,0-2.5-.24-2.63-1.31a9.21,9.21,0,0,1,3.42-1.79c0.13-.48,2.5-1.67,3.42-2.75A4.24,4.24,0,0,0,328,81.18c1.58-1.31,7.23-5.74,8.16-6.81,1.18-1.56,3.42-3.59,4.21-5l0.4-.36,0.4-.72h0.66c0.53-1.44,2.1-2.75,2.76-4.43,0.79-.48,1.05-1.55,1.58-2.51A16.83,16.83,0,0,0,348,58.58a22.75,22.75,0,0,0,1.58-7.29A2.31,2.31,0,0,0,348,48.78l-0.26-.36h-0.4l-0.13-.36H346.4l-0.39-.6h-2.1c-9.34,0-18.94,9-24.33,15.19-1.05,1.08-1.58,2.27-2.63,3.35-0.4,1-3.42,6.46-3.42,6.58a0.69,0.69,0,0,1,0,.72l-0.39.36a30.86,30.86,0,0,0-.79,3.35,0.28,0.28,0,0,0,.26.36l-0.4.12v0.24c0,1.2-.26,2.51-0.26,3.83,0,3.23,1.58,4.66,1.58,6.34a1.63,1.63,0,0,1-.13.72,28.45,28.45,0,0,1-7.76,1.31,7.49,7.49,0,0,1-7.89-7.65c0-2.27,1.58-6.34,4.08-7.29,0.4-.24,1.18,0,1.31-0.6a1.34,1.34,0,0,0-1.18-.48c-3.16,0-7,4.54-7,7.29,0,4.66,1.58,6.1,5.26,9.09,1.31,0,2.37.84,3.29,0.84,0.39,0,.79-0.12,1.18-0.12,0.66,0,1.31.12,1.71,0.12,3.29,0,6.18-2,8.29-2a8.05,8.05,0,0,1,1.84.6c0.66,0,4.87.6,5.39,0.6a38,38,0,0,0,6-1.67l0.53-.72h0.79l0.26-.36c0.13-.24.66,0,1.05-0.24l0.53-.72a39,39,0,0,1,5.65-2.51,6.14,6.14,0,0,1,2.5-1.79c0.66-.36,1.05-1.08,1.84-1.08,0.26-1.19,1.58-1.19,1.58-2.27a1.41,1.41,0,0,0,1.45-.36c-0.26-.72.79-0.36,0.79-0.84V77.48a4.85,4.85,0,0,0,2.24-1.55c0.92,0,4.6-3.83,5.79-4.43V71.14h0.39c1.84-1.43,6.58-5.26,7.23-6.93,1.71-.48,3.16-3.11,5.13-4.18,1.05-1.55,3.81-3.23,5.66-5.38l0.39-.24a0.67,0.67,0,0,1,.13-0.48c1.45-1.31,2.76-2.27,4.08-3.47,0.4-.36.4-1,0.79-1.08,0.13-.36.53-0.24,0.92-0.6v-0.6A7.54,7.54,0,0,1,379.29,47a0.45,0.45,0,0,1,.26-0.36c0.13,0,.13,0,0.13.12-0.79,3-2.76,5.86-3.95,8.73a18.24,18.24,0,0,1-1.18,3.11c-0.4,1.08-1.45,2.15-1.84,3.47a46.23,46.23,0,0,1-2.37,5.26c-0.39,1-1.18,1.79-1.58,2.75a15.94,15.94,0,0,0-.66,2.39,41.47,41.47,0,0,1-3.16,5.74,10.3,10.3,0,0,1-2,2,4.65,4.65,0,0,0-.39,1l-4.87,5c-0.13.24-1.71,2.15-1.71,2.15h-0.26c0.26,1-1.05,1.67-1.05,2.63a3.36,3.36,0,0,0,.92,1.91l0.79,0.24c5,0.12,5.52-4.06,8.55-5.86a24,24,0,0,1,2.24-3.95l0.39-.36,1.31-2.51a1.06,1.06,0,0,0,.26-0.84l0.53-.12c0.52-.6.26-1.31,1.31-2a22.79,22.79,0,0,1,2.76-5.62c1.18-.48,4.34-3.83,5.52-4.66,0.66-.6,1.71-1,1.71-2,0.79,0,3.55-3.35,4.73-3.82,0.66-1.79,3.81-4.07,5.26-5.26a0.49,0.49,0,0,1,.13-0.36c1.58-1.08,4.47-3.35,5.39-4.78a10.6,10.6,0,0,0,4.6-3.83C402.3,47,403,46,403.75,45.55c0.39-.24,0-0.72.13-1,0.39-.12.79,0,1.05-0.12s0.39-.84.79-0.84h0.39c-1.58,2.39-2.76,5.14-4.21,7.29a3.08,3.08,0,0,1-.92,1,2.67,2.67,0,0,0-.4,1.08c-2.1,2-5.39,8.85-7.23,11.6L391,68.27c-4.6,7.17-12.89,21.64-15.26,29.17-0.13.6,0,1-.13,1.55a6,6,0,0,0-1.05,1.44l-0.4,1.91c-0.66,2-1.58,4.06-2.24,6.22a31.39,31.39,0,0,0-1.31,5.86c0,1.43-.4,2.87-0.4,3.83a6.11,6.11,0,0,0,.13.84c0,0.36-.13.72-0.13,1.08a22.27,22.27,0,0,0,.92,5.14l0.4,0.36c1.84,4.18,4.21,6.22,9.47,6.22,0.92,0,5.13-1.43,5.79-2.27a0.66,0.66,0,0,0,.13-0.48c1.45-.6,2.24-2.15,2.76-3.23,1.45-.6,2.89-4.18,3.68-5.5v-0.24c0-.72-1.05-0.72-1.45-0.84a1.26,1.26,0,0,0-.39.48c0,0.36.39,0.72,0.39,1.08l-2.37,4.07c-2.24,3.59-5,5.86-9.86,5.86A10.43,10.43,0,0,0,378,130a20,20,0,0,1-2-9.09c0-10.16,5.13-22.24,9.73-31.8ZM426,25.47c0.53-1.44,5.79-7.05,7-8.61l0.53-.24c0.66-1.31,9.21-10.52,10.39-11.24,0.39-.24.66,0,1.05-0.24l0.4-.72c0.79-.36,1.58-0.36,2.23-1.08h0.13c0.4,0,.79.36,1.19,0.36a0.25,0.25,0,0,1,.26.24,1.08,1.08,0,0,0-.39.36l-0.4,1.08c0,0.36-.39.36-0.66,0.48-0.13.36,0,.72-0.13,1a13.9,13.9,0,0,1-1.45,1.31c-3.94,4.66-9.34,8.49-14.33,12.32l-0.26.36a4.3,4.3,0,0,1-1.84,1.43,3,3,0,0,1-.4,1,1.58,1.58,0,0,0-.92.36,19.83,19.83,0,0,1-3.16,3.23c-0.26,0-.26-0.12-0.26-0.12A3.09,3.09,0,0,1,426,25.47Zm-28-1.91c0.13-.24,0-0.72.13-1l0.66-.36c0-.36,0-0.72.53-0.72,0.4-2.15,2.24-3.95,3.29-5.86l0.53-.12c0.66-1.31,3.42-5.5,5.26-5.26h0.13v0.36a9.85,9.85,0,0,1-2.1,3.23c-0.26,1-3.68,4.9-4.6,5.26a27.13,27.13,0,0,1-4.08,5.14s-0.13,0-.13-0.24S398,23.67,398,23.55Zm-81,61.58c0-.72.26-1.44,0.26-2.39,0-.36-0.26-0.84-0.26-1.2V81.3l0.39-.12v-1a20,20,0,0,1,.79-3.23c0.66-1.31.39-2.27,0.79-3.35,0.26-.48.79-0.72,1.05-1.19,0.26-.24,0-0.72.26-1,1.58-1.67,3.29-6,5-8.13,1.18-1.91,7.37-8.25,7.5-9,1.45-.36,5-4.18,7.89-4.9l0.13-.36c0.4-.12,3.16-0.72,3.55-0.72a8.63,8.63,0,0,1,4.21,2.15c-0.13,6-2.76,10.4-6.58,15.07a4,4,0,0,1-1.18,1.67l-0.13.72-0.92.24c0,0.12-.13.36-0.13,0.48a7.62,7.62,0,0,1-1.05,1c0,0.72-1.58,2.15-2.1,2.87-1.84,2.51-12.23,10-12.49,10.4l-0.79.36c-0.39.72-4.73,2.87-5.92,3.11A2.37,2.37,0,0,1,316.94,85.13Zm39.19,6.58A1.19,1.19,0,0,1,356,91c0-.72.92-1.43,0.92-2.39a10.43,10.43,0,0,0,2.76-3.47,6.9,6.9,0,0,0,2.5-2.51,0.67,0.67,0,0,1,.13.48C362.32,84.53,357.72,91.11,356.14,91.7Z" transform="translate(-4.85 -1.91)"/><path class="cls-1" d="M554.46,65.28c-1.19-3.35-4.73-1.91-7.23-.6a24.58,24.58,0,0,0-4.47,2.75c-0.79.48-1.58,1.08-2.37,1.67-0.13.24-.92,1.2-1.31,1,1.31-1.79,4.47-7.17.4-8-1.45-.24-3.29.84-4.34,1.44a9.49,9.49,0,0,1-2.63.84c-0.26,0-1.71.72-1.45-.12,0.13-.36.79-1.19-0.13-1.19a2.45,2.45,0,0,0-1.58.48c-1.32,1.32.79,2.15,2,2a9.39,9.39,0,0,0,4.08-1.19,5.9,5.9,0,0,1,2-1c0.53-.12,1.71-0.36,1.05.48-0.92,1.2-2,2.39-3,3.59l-3,4.42-0.66,1.2-0.79.72-1.31,1.55a15.55,15.55,0,0,0-1.32,1.79,17,17,0,0,1-1.45,1.79c-0.87,1.18-1.94,2.77-3,4.37-1.16.57-1.62,1.93-2.89,2.56-1.05,1.31-2.63,2-3.81,3.11a10.51,10.51,0,0,0-1.18,1.31l-1.05.12v0.36a32.24,32.24,0,0,0-5.39,2.75c-0.79-.24-2.37,1-3.55,1a4.94,4.94,0,0,1-1.58-.36,4.32,4.32,0,0,1-.39-1.67,9.35,9.35,0,0,1,.53-2l0.26-.12-0.26-.6,0.92-1.08c0.53-1.31.79-2.75,1.31-4.06,1.58-.84,3.16-3.59,5-4.07,1.84-3.11,5-5.38,6.05-9l-0.4-.6a4.1,4.1,0,0,0-1.45-.36c-4.6,0-13,11.48-14.6,15.18a36.18,36.18,0,0,1-1.45,3.35,1.13,1.13,0,0,0-.92.48c-0.4.84-5.26,3.71-6.18,3.71-0.39,0-1.05.24-1.58,0.24s-0.39-.6-0.39-1A14.77,14.77,0,0,1,492.12,89l0.66-.36a3.34,3.34,0,0,1,.4-1.43,2.14,2.14,0,0,0,.53-0.6c0.26-.36.26-0.72,0.4-0.84a1.48,1.48,0,0,1,.66-0.6,40.51,40.51,0,0,0,3-4.9,37.39,37.39,0,0,0,5-4.9,17.44,17.44,0,0,1,1.31-2h0.4l0.26-.36a1.19,1.19,0,0,1,.79-0.36h0.26c0.52-1.79,8.68-8.13,10.52-8.13,1.18,0,1.84-.6,3-0.6a12.4,12.4,0,0,1,2.23.36,6.21,6.21,0,0,1,1.71,4.54v1.31a1.44,1.44,0,0,0-.79,1.32v0.36a13.31,13.31,0,0,0-2.37,3.35A2.48,2.48,0,0,0,518.56,77a3.89,3.89,0,0,1,.13.72h0.39c1.31,0,3.68-4.78,4.21-5.62a1.48,1.48,0,0,1,.66-0.6,6.8,6.8,0,0,0,.79-3.11c0-3.47-2.63-5.74-6.44-5.74A19.18,19.18,0,0,0,509,65.16a1.48,1.48,0,0,0-.79.72,7.4,7.4,0,0,0-1.45.72l-2,1.68a47.77,47.77,0,0,0-6.18,5c-0.39.36-.39,0.72-0.79,1.08a9.35,9.35,0,0,1-1.19.72l-0.26.6a28.57,28.57,0,0,0-2.63,2.87,1.28,1.28,0,0,0-.79,1.08L492,80.94l-0.4.24c-0.39.57-.83,1.27-1.28,2-1.29.5-1.8,1.85-2.53,2.5-2.5,2.15-12.23,9.09-17.89,9.93-0.13,0-1.31,1-1.58.72,0.4-1.43,2.24-3.47,3-4.66l1.05-1.44,3.16-4.78c0.39,0,.79-0.48,1.18-0.48,0.4-.48.26-1,1.05-1,0.92-.72,5.39-4.78,5.79-5.62,0.92-1.08,1.58-1.67,1.58-3.11A1.5,1.5,0,0,0,483.31,74a6.63,6.63,0,0,0-2.76,1.08c-3.81,2-5.39,4.78-8.15,7.89a2.43,2.43,0,0,0-.92.72,21.86,21.86,0,0,0-1.31,2.39c-0.26.36-.66,0.48-0.79,0.72-0.79.84-1.45,2.75-2.37,3.47-0.26.12-.66,0-0.92,0.12a4.27,4.27,0,0,1-.79.72,16.77,16.77,0,0,1-5.79,2.15,1.78,1.78,0,0,1-1.31-.48c0-1.79,1.31-3.11,1.58-4.78,0.92-.84,1.19-1.91,2-2.63,0.26-1.55,2.37-3.47,2.37-3.83a1,1,0,0,0-.13-0.6c0.79,0,.92-0.72,1.31-1.08a27.55,27.55,0,0,1,2.24-2.75,1.7,1.7,0,0,0,1.05-.48,4.63,4.63,0,0,1,.4-1,22.42,22.42,0,0,1,2.5-2.51l0.92-.36c0.79-1,.52-1.67,2-2.27,2.1-2.87,7.1-5.26,10.78-6.34l0.53,0.24,0.4-.36c0.66,0.36,1.05,0,1.71,0a21.56,21.56,0,0,1,2.76.12c1.18,1.31,2.37,2.63,2.37,4.18s-3,5.14-4.21,6.7c-0.79-.12-3.16,1.67-3.16,2.39v0.36a1.07,1.07,0,0,0,.92.36,5,5,0,0,0,1.45-.48l0.26-.36a5.22,5.22,0,0,1,1.32-1.07c0.66-1.91,4.87-4.78,4.87-8.25s-3.42-5.26-6.84-5.26c-16.57,0-25.52,15.3-27.36,15.3,0,0.84-1.05,1.43-1.58,2.15a24.3,24.3,0,0,0-2.55,4,91,91,0,0,1-8.5,6.74c-0.4-.36-1.45.72-1.84,0.84-2.63,1.31-5.13,3.47-8.42,3.47l-0.4-.12c0-1.91,1.18-3.71,2-5.5l0.66-.12a73,73,0,0,1,7.23-9.68,17.14,17.14,0,0,0,1.58-1.43c0.13-.24,0-0.6.13-0.72a4.82,4.82,0,0,1,1.18-1.07V76c0.26-.36.92-0.36,1.05-0.72a10.55,10.55,0,0,1-.13-2c0-2.51-2.5-3.47-4.6-4.66a0.24,0.24,0,0,0-.26-0.24h-0.13a7.63,7.63,0,0,1-.92-2.39c0-.84,1.71-2.51,2.1-3V62.29l0.39-.48a4.66,4.66,0,0,0,.4-1.43,2.67,2.67,0,0,0-.66-1.55l-0.53-.24c-3,0-5.65,3.47-5.65,6,0,1.44.79,2.75,0.79,4.43-1.31,2.39-4.34,4.66-5.92,7.05-0.26.36,0,.72-0.26,1h-0.66l-0.39,1.08-0.39.12a1.19,1.19,0,0,0-.13.72l-2.63,2.75s0,0.05,0,.07a2.73,2.73,0,0,0-.75,1c-1.19,0-1.45.72-2.24,1.43-0.79,0-1.31,1-2.1,1.31h-0.79l-0.39.36a18,18,0,0,1-4.21.6,2.94,2.94,0,0,1-1.71-.6V85.72c0-.72.66-0.36,0.92-1,0.39,0,.39-0.6.52-0.72,0.79-1,2-1.67,2.63-2.39a6.3,6.3,0,0,0,1.18-2l0.4-.12a0.63,0.63,0,0,0,.26-0.6,2.91,2.91,0,0,0,.92-0.84c0.79-1.31.4-1.67,1.58-2.75v-0.6c0.79-1.08,2.1-2.15,2.1-3.59,0-.72-0.53-1.43-0.53-2.15-1.31-1-1.71-1.68-3.68-1.68-5,0-4.6,3.11-7.89,4.18-0.92,3.11-3.42,4.9-3.42,8.49,0,3.11,2.24,5.74,2.24,6.22,0,1.67-6.31,6-7.76,6.7s-3.81,1.55-5.39,1.55a2.59,2.59,0,0,1-1.45-.24A4.54,4.54,0,0,1,401,91.7c0-.72.4-4.06,1.18-4.18-0.26-1.67,3.55-7.65,5-9.33l0.4-1.08c1.58-2,4.21-3.83,5.39-6.22,1.45-.36,2.76-2.15,4.34-2.63l0.26-.36c1.18-.72,2.37-1,3.42-1.91,1.71-.12,3.55-1.44,5.52-1.44a8.13,8.13,0,0,1,3.81,1,0.71,0.71,0,0,1,.39.72c0,0.6-.39,1.79.66,1.68h0.13a0.66,0.66,0,0,0,.79-0.72V67s0.26,0,.26-0.12a1.37,1.37,0,0,0-1.05-1c-0.13-1.07-1.31-1.31-2.1-2l-2.89-.12a26.74,26.74,0,0,0-11.71,2.87c-1.71.72-3,1.79-4.6,2.51-0.66,1.08-2.1,1.79-2.89,2.75a4.58,4.58,0,0,1-.39,1,1.59,1.59,0,0,0-.92.36c-0.26,0-6.18,7.65-6.44,7.77-0.13.36,0,1-.13,1.31l-0.53.12a5.23,5.23,0,0,1-.52,2c-0.39,1.44-.79,1.31-0.79,3.11l-0.26.36a3.71,3.71,0,0,0-.13,1.2,8.72,8.72,0,0,0,1.58,4.54h0.39c0.4,1.19,1.58,1.55,2.63,2,0.53-.36,1.32,0,2,0a6.27,6.27,0,0,0,2.37-.84,39.14,39.14,0,0,0,6-3.11c2.24-1.44,3.55-3.47,5.92-4.54a4.16,4.16,0,0,0,2.1.48c0.79,0,3.94-.36,4.73-0.48l0.26-.36a10.29,10.29,0,0,0,1.71-.72c0.66,0.36,1.05-.36,1.58-0.36a17.14,17.14,0,0,1,2.24-2,2.43,2.43,0,0,1,.38-0.57,11.89,11.89,0,0,0,1.2-.86c0-.24.26-0.36,0.26-0.6a0.51,0.51,0,0,0-.06-0.24,55.92,55.92,0,0,1,4.66-5c-0.26-1.31,1.31-1.79,1.71-2.51a4.53,4.53,0,0,0,.39-1h0.4a4,4,0,0,1,1.45-1.44,10.61,10.61,0,0,1,1.19-2,4.29,4.29,0,0,0,1.58.36c0.26,0,.4,0,0.4-0.12a2.59,2.59,0,0,0,1.71.48,1.09,1.09,0,0,0,.4-0.12c0,0.72,1.19.84,1.19,1.68,0,1.55-3.42,4.18-4.6,5.38v0.6h-0.39l-0.26.48h-0.53v0.36l-4.6,5.14v0.72c-0.26.6-1.19,0.72-1.45,1.31,0.26,0.84-1.05,1.44-1.45,2.15-0.13.36-1.31,3.11-1.31,3.47l0.92,4.31c1.05,0.24,1.31,1.31,2.23,1.31a8.28,8.28,0,0,0,4.6-1.44,4.47,4.47,0,0,0,1.18-.36c1.84-1.08,3.81-2.39,5.79-3.35,0.26-.12.26-0.72,0.66-0.84,0.13-.24.53,0,0.92-0.36l-0.13-.6,0.52,0.36c0.66-.48,3.68-2.39,3.68-3.11V86.92l0.39,0.24c0.13,0,.4-0.24.53-0.24a4.41,4.41,0,0,1,1.13-1.27l-0.08.2c-0.39,1.08-.39,3.11-0.92,3.83,0,0.24-.26.36-0.26,0.6,0,1.79,2,4.54,4.21,4.54,1.58,0,2.63-1.19,4.21-1.19s1.58-1.08,2.37-1.08h0.26v0.24c0,0.36-3.16,5-3.81,6a6.11,6.11,0,0,1-1.58,1.67,3,3,0,0,0-1.58.48,105,105,0,0,0-20.65,13.63l-0.13.36a4.32,4.32,0,0,1-1.05.72,3.5,3.5,0,0,0-.79,1.32c-1.45.36-8,9.09-8.42,10.4-0.4,1.08-1.45,1.43-1.84,2.51-0.13.72,0.26,0.6-.39,1.43a2.72,2.72,0,0,0-.13,1,24.56,24.56,0,0,0,.53,2.75l2.89,1.19h0.39c2,0,4.21-1.19,5.92-2l1.19-.36c1.05-.48,1.31-1.43,2.89-1.43a4.92,4.92,0,0,1,2-1.55c0.39,0,.52-0.36.52-0.84h0.4c2.1-1.19,3.68-2.87,5.66-4.06,0.26-.24.26-1,0.66-1.2a4.89,4.89,0,0,1,.92-0.72c1.18-1.08,6.18-6.69,6.18-7.77,1.18,0.12,5-7.05,5.79-8.37h0.39v-0.36a14.61,14.61,0,0,0,1.32-1.67,1.25,1.25,0,0,1,.52-1.08c4.6-8.49,3.81-5.74,13.81-10.28a14.52,14.52,0,0,1,1.58-.6l0.26-.6,4.34-2.51,0.26-.36,0.4-.36,0.79-.48A15.4,15.4,0,0,0,487,87.28a12,12,0,0,1,2-1.54,14.81,14.81,0,0,0-1.82,5.73,1.76,1.76,0,0,0,1.45,2v0.6a3.42,3.42,0,0,0,2.37.72c2,0,3.94-1.19,5.65-1.91a24.15,24.15,0,0,1,3.29-2.27h0.26v1.56c2,1.67,2.37,3.35,5.66,3.35,2.37,0,1.58,0,2.1-.72h0.79c0.66-.36,3.42-1.91,4.21-1.91,0.39-.48,0-0.72.26-0.84-0.26.12,0.4,0.12,0.4,0.12a0.63,0.63,0,0,0,.53-0.48V91.46a1,1,0,0,0,.4.24,0.48,0.48,0,0,0,.39-0.24,38.46,38.46,0,0,0,3.42-2.15c0.4-.36.26-1,0.66-1.31a0.57,0.57,0,0,1,.4.36,20.54,20.54,0,0,0,2.39-2c-0.48.69-.93,1.34-1.34,1.89a20.18,20.18,0,0,0-1.31,1.67c-0.26.48-1.05,1.32-.92,1.91s2,1.44,2.63,1.19c1.58-.6,2-1.91,3.16-2.87a16.61,16.61,0,0,0,2.37-2.87c2.1-2.51,5.13-6.7,7.1-9.45a21.66,21.66,0,0,1,3-3.71,8,8,0,0,0,1.71-1.91c0.53-.6,1.32-0.6,1.84-1.19,0.66-1.08,1.84-1.56,2.76-2.39,1.31-1.08,3-1.91,4.47-2.87a13.37,13.37,0,0,1,3-1.31,3.76,3.76,0,0,1,2-.24c0.66,1.2-.26,2.75-0.79,3.83s-1.45,2.39-2.24,3.59c-0.66.84-1.31,1.91-2.1,2.87-1.05,1.19-2,2.39-2.89,3.59-1.31,1.56-2.37,3.23-3.55,4.78-1.84,2.39-3.55,4.78-5.13,7.29a51,51,0,0,0-3.16,4.9L531,97.2c-0.4.72-.53,1.56-0.92,2.27a27.67,27.67,0,0,0-3,10.64,22.1,22.1,0,0,0,.26,5.86,1.62,1.62,0,0,0,.13,1.08,2.15,2.15,0,0,1,.79,1.08,3.67,3.67,0,0,0,1.32,1.79c1.05,1,2.5,2.75,4.08,3a10.94,10.94,0,0,0,1.84.6,16.38,16.38,0,0,0,2.37.36,25.1,25.1,0,0,0,2.63-.48,14,14,0,0,0,2.1-.6l1.31-.6a9.43,9.43,0,0,1,1.71-1.44c0.92-.48.92-1.08,1.45-1.91a10.11,10.11,0,0,0,1.31-1.91c0.13-.48-0.13-1,0-1.32s0.26-.48.26-0.84c-0.13-.84-1.18,0-1.31.24-0.53.72,0,1.2-.26,2s-0.92,1.2-1.18,1.91a1.13,1.13,0,0,1-.66.84,3.42,3.42,0,0,0-.79.6,8.09,8.09,0,0,1-1.84,1.19c-2.89,1.56-8.15,1.56-9.73-1.55a3.08,3.08,0,0,1-.66-1.08L532,118a8.17,8.17,0,0,1-.26-2.51c0.13-1.79.4-3.71,0.66-5.38a29.41,29.41,0,0,1,1.84-5.74,19.3,19.3,0,0,1,.92-2.51c0.13-.6.79-1.2,0.92-1.79,0.26-1.67,1.45-3.23,2.37-4.54,0.53-.72.66-1.55,1.19-2.15L541,91.23c2-3.35,4.34-6.58,6.71-9.8a17.54,17.54,0,0,0,1.45-2.63c0.26-.36.79-0.6,1.05-1L551,76.28l1.31-2C553.93,71.5,555.64,68.27,554.46,65.28Zm-45.9,16c0-.72,1.31-1.43,1.31-2.51V78.43c0.66,0.36.26-.36,0.92-0.36h0.13A1.45,1.45,0,0,1,512,76.64c0-.6,2.37-3.47,2.89-3.83v-0.6c0.26,0,.66-0.12,1.05-0.12s0.26,0.12.26,0.36-0.79.48-.79,1.07c0,1.43-2.24,1.91-2.24,3.59a0.48,0.48,0,0,0-.39.24c-0.4.36-4.08,3.95-4.21,4.31V81.3ZM483.7,75.68a5.48,5.48,0,0,1-1.31,2.39l-0.66.36c0,0.36-3,3.11-3.55,3.47C478.58,80.46,482,76,483.7,75.68ZM417.95,85a0.31,0.31,0,0,1-.4-0.24,5.11,5.11,0,0,1-.26-2,5,5,0,0,1,1.19-3.59c0.66-3.71,2.1-4.42,3.81-7.29l0.4-1.08,0.66-.24a11.53,11.53,0,0,0,1.18-1.44c0.26-.12.79-0.12,0.79-0.48V68.39h0.4c1.05,0,1.58.6,2.37,1v1.43a4,4,0,0,1-.53,2.15l-0.4.24a8.06,8.06,0,0,1-1.05,2.15C425.31,76.76,419.13,85,417.95,85Zm25.65-19.85-0.4.72c-0.66-.36,0-2.51,0-3.11a3.64,3.64,0,0,1,1.58-2.87c1.71-1.08.92,1.79,0.66,2.39A13.57,13.57,0,0,1,443.59,65.16Zm12.75,41.37-2.76,4.9-0.66.24,0.26,0.36-0.66.36c-0.39,1.31-2.63,4.78-3.81,5.5a0.67,0.67,0,0,0-.13.48c-0.66,1.07-2.1,1.79-2.5,2.75l-0.13.6a16.56,16.56,0,0,0-3.55,3.71l-1.05.6v0.36l-0.79.36c-0.39.36-.79,1.08-1.45,1.68a3.32,3.32,0,0,0-1.19.36v0.48c-1.18,1.2-8,5.5-9.6,5.5a7.45,7.45,0,0,1-2-.6,1.06,1.06,0,0,0-.26-0.84l-0.4-.36c0-1,.66-2,0.79-3.11l0.66-.24a17.08,17.08,0,0,1,2.23-3.94l-0.26-.36,0.66-.24,0.13-.36,1.45-1.91c0.4-.72,1.45-1,1.84-1.67V120.4c0.79-1,1.71-1.32,2.1-2.39l0.39-.12,0.26-.36c1.18-.6,2.37-2.63,3.81-3,0.13-1.08,1.71-1.2,2-2.51,2.63-.72,3.95-2.75,6.18-3.83,0.66-.48,9.6-6.22,10.26-6.22h0.4c0-.12.4-0.36,0.4-0.48s0.39,0,.39.12A38.47,38.47,0,0,1,456.35,106.53Zm32.88-21.35a0.3,0.3,0,0,0-.13-0.06l0.26-.6a1.82,1.82,0,0,1,.09.2Zm33.64-.49,0-.16,0,0Z" transform="translate(-4.85 -1.91)"/><path class="cls-1" d="M288.67,41.78c-0.24-.56-0.5-1.11-0.78-1.67a8.4,8.4,0,0,0-.9-1.43L285.2,36A13.54,13.54,0,0,0,277,30.9a19.86,19.86,0,0,0-2.57-.3,8.2,8.2,0,0,0-2.57.3l-2.63.6a6.88,6.88,0,0,0-1.19.36l-1.2.48a11.33,11.33,0,0,0-4.18,2q-1.79,1.38-3.83,2.81-0.6.36-1.14,0.72a3,3,0,0,0-.9,1,3.21,3.21,0,0,1-.6.84,0.82,0.82,0,0,0-.12,1,0.74,0.74,0,0,0,.84-0.24l0.48-.72a2.63,2.63,0,0,1,.66-0.84q0.42-.36.9-0.72l3.71-2.63a10,10,0,0,1,2.21-1.31q1.14-.48,2.45-1.08a20.43,20.43,0,0,1,5-1.49,8.7,8.7,0,0,1,5.14.42,19.27,19.27,0,0,0,2,.72,3.28,3.28,0,0,1,1.79,1.2,8.89,8.89,0,0,0,1.49,1.79,13.61,13.61,0,0,1,1.61,1.79,10.43,10.43,0,0,1,1.31,2.15q0.48,1.08,1,2.39l0.72,1.91a4.07,4.07,0,0,1,.06,1.19,3.94,3.94,0,0,0,.06,1.2,20.18,20.18,0,0,1,.24,3v3a6.19,6.19,0,0,1-.12,1.2l-0.24,1.19a0.93,0.93,0,0,0,0,.66,0.47,0.47,0,0,1-.12.54,1.19,1.19,0,0,0-.3.42l-0.18.54a11.87,11.87,0,0,1-.84,3q-0.6,1.37-1.2,2.93a7.21,7.21,0,0,1-1.19,2,7.42,7.42,0,0,0-1.2,1.55,6.87,6.87,0,0,1-1.55,2.21,8.07,8.07,0,0,0-1.56,2,3,3,0,0,1-.9,1,3.65,3.65,0,0,0-.9.84,3.6,3.6,0,0,0-.54,1,1.67,1.67,0,0,1-.78.9,2.29,2.29,0,0,0-.9,1,4.14,4.14,0,0,1-.78,1.08l-2,1.79a10.06,10.06,0,0,1-2.09,1.61q-1.14.66-2.21,1.26t-2.33,1.26q-1.14.54-2.33,1.14a13,13,0,0,1-2.57,1l-0.27,0c0-.1.05-0.2,0.07-0.3l-1.07.42-0.36,0,0,0.11c-0.25.09-.51,0.18-0.75,0.25-0.78.15-2.07,0.94-2.87,0.84a1.44,1.44,0,0,0-.65.27c-0.39.14-.79,0-1.18,0.16a15,15,0,0,1-3,1.21c0.49-1.13,1.25-2,1.61-3l1.24-2.27c0.12-.25.51-0.39,0.64-0.64a3.79,3.79,0,0,1,.36-1.13A21.11,21.11,0,0,1,256,78.16c1.14-1.4,3.09-2.08,4.5-3.24l2.18-1.8a2.7,2.7,0,0,1,1-.53,2.57,2.57,0,0,0,.76-0.89c1.15-1.15,2.71-1.57,3.58-3.21l0.89-1a3.88,3.88,0,0,1,0-1.24A1.66,1.66,0,0,0,269,65a1.17,1.17,0,0,0-.44-0.52c-3.35-1.75-7.82,2.36-9.85,4.53-2.9,3.1-6.19,6.23-8.55,9.8-0.32.48-.6,1-0.88,1.47-0.17.14-.33,0.27-0.5,0.4a2.73,2.73,0,0,1-.62.27,1.26,1.26,0,0,0-.47.35,5.55,5.55,0,0,1-.76.6c-0.25.19-.5,0.35-0.76,0.52s-0.69.46-1,.71a3.31,3.31,0,0,0-.46.43,2.76,2.76,0,0,1-.31.45c-1.78.78-8,4.38-9.27,4.48a1.88,1.88,0,0,1-1.07-.13,4.33,4.33,0,0,1,1.32-3.2c0.5-2,2.51-3.3,3.42-5.08l0.38-.24c2.37-3.29,5.29-6.4,7-9.84l0-.42,0.38-.24,0.2-.76c0.24-.89.62-1.72,0.78-2.65,0.12-.69.5-2,0-2.59a2.8,2.8,0,0,0-2-.32,3.89,3.89,0,0,0-1.4,1.55c-0.39.69-.72,1.43-1.1,2.15a37.39,37.39,0,0,1-3.08,4.67c-0.33.44-.78,0.84-1.1,1.31s-0.41.78-.67,1.11a4.53,4.53,0,0,0-.73,1.08,11,11,0,0,1-1.24,1.56c-0.5.8-.94,1.65-1.42,2.47a26.21,26.21,0,0,1-1.56,2.4c-0.27.37-.57,0.72-0.87,1.07h-0.16a0.69,0.69,0,0,0-.47.62l-0.14.14c-0.4.19-1,.21-1.09,0.32-0.39.36-.39,0.72-0.79,1.08a6.39,6.39,0,0,1-1.45,1.19l-0.4.72-0.66.12-0.39.6c-2.1,2.15-9.34,6.46-12.89,6.46-2.5,0-3.42-.84-3.42-3,0-1.91,1.18-6.81,2.5-7.89,2.5,0,3.29-.72,5.52-1.08,0-.48,2.37-1.79,2.89-2.15a22.17,22.17,0,0,1,1.84-1.43l0.26-.36c0.39-.36.79-0.24,0.92-0.6a0.46,0.46,0,0,0,.26-0.48l0.79-.6c0.4-.12.4-0.72,0.79-1l0.79-.36V74.37h0.4c0.79-.72,3.16-4.31,3.95-4.66,0-.24,1.58-2.51,1.58-3.71,0-.48-0.13-0.84-0.13-1.44-1.05-.12-1.05-1.19-2.76-1.19-2.89,0-7.5,2.63-9.86,4.18-0.53.84-2,1.44-2.76,2.15-3.42,2.87-5.39,5-9.6,11.48a11,11,0,0,0-1.45,4.8c-1,1.22-2.55,1.94-3.94,3a5.29,5.29,0,0,1-1.18,1.31l-0.79.12v0.36A27.88,27.88,0,0,0,195,93.5c-0.79-.24-2.37,1-3.55,1a6.62,6.62,0,0,1-1.45-.6l0.4-.36c1.05-.72,2-2.39,2.76-2.75,2.24-1.08,3.81-6.34,4.87-8.85,1.18-3.47,2.37-12.08,4.21-14.71l0.79-.6c0.39-.36.39-0.72,0.79-1.08a20.7,20.7,0,0,0,1.71-1.67,10.83,10.83,0,0,0,1.84-4.18l-0.13-.48a4.71,4.71,0,0,0-5,0l-0.4.48h-0.39c-0.92,1.79-2.63,3-3.29,4.78-0.92,2.51-2.24,4.9-2.76,7.41-1.84,1.08-3.68,2.27-5.52,3.35-0.26.24-.39,0-0.66,0.24l-0.13.72a4.53,4.53,0,0,0-2.37,1.91l-0.79.36a40.83,40.83,0,0,0-4.47,4.52,5.68,5.68,0,0,0-1,1c-0.4.12-.53,0.48-2.37,2.75-0.79.84-1.31,1.79-2.23,2.63l-3.29,2.75a7.19,7.19,0,0,1-3,1.56c-0.66.12-1.19,0.6-1.84,0.72s-1.05-.12-1.45,0c-1.84-.84-1.19-4.54-0.92-6a19.22,19.22,0,0,1,.66-2.63,19.57,19.57,0,0,1,.66-2.63,18.47,18.47,0,0,1,2-4.31,7.24,7.24,0,0,0,1.05-2.27c0-.84.66-1.56,0.92-2.39,0.53-1.2,1.31-2.39,2-3.71a5.07,5.07,0,0,0,1.05-1.79,5.93,5.93,0,0,1,.79-1.56,3.51,3.51,0,0,0,.39-1.08,0.71,0.71,0,0,0,.4-0.24c0.13-.72,1.05-1.08,1.18-1.79a19,19,0,0,1,2.24-3.83c0.66-.84,1.05-2.51,2-3s2.24,0.12,3.16,0,1.71-.24,2.63-0.24a35.32,35.32,0,0,0,4.87-1.08c3.42-.72,6.44-2.51,9.34-4.18a46.85,46.85,0,0,0,4.08-2.75l1.18-.72c0.66,0,1.05-1.08,1.58-1.31,1.05-.84,2.1-1.19,3-2a13.42,13.42,0,0,1,1.84-1.91,3.73,3.73,0,0,0,1.58-1.55,20.44,20.44,0,0,1,1.71-1.67c0.66-.72,1.05-1.31,1.71-1.91A7.53,7.53,0,0,0,219,36a3.76,3.76,0,0,1,.53-0.72,2.71,2.71,0,0,0,1.18-1.19l0.79-1.2,1.18-1.31a10.13,10.13,0,0,1,1.18-1.67c0.26,0,.92-1.31,1.19-1.56a19.85,19.85,0,0,1,1.31-2.27,9.2,9.2,0,0,1,1.05-1.91,2.09,2.09,0,0,0,.26-1l0.53-1a5.55,5.55,0,0,0,.26-1.56c0-.24.26-0.48,0.26-0.72a5.91,5.91,0,0,0,0-2.15c-0.13-1.2-1.05-1.79-2.1-2.27-3.16-1.43-6.31-.6-9.47.36a23.83,23.83,0,0,0-4.6,2.39l-2.24,1.56a8,8,0,0,0-1.71,1.08,5.38,5.38,0,0,1-1.71,1.19l-2.23,1.79a50.55,50.55,0,0,0-3.95,3.35,105.33,105.33,0,0,0-7.5,7.41c-1.58,1.91-3.68,3.95-5.39,6L185,43.76a44.13,44.13,0,0,1-2.89,3.47,12.31,12.31,0,0,0-1.58,1.91,6.24,6.24,0,0,0-.79,1.19,48.54,48.54,0,0,1-3.29,4.54c-0.66,1-.92.84-2.23,0.72l-2.89-.24a49.29,49.29,0,0,0-5.92-.6,22.25,22.25,0,0,0-6.31.36,15.38,15.38,0,0,0-4.6,1.91,13,13,0,0,0-1.31,1.44c-0.39.48-1.18,0.84-1.18,1.43,0,0.84,1.18.24,1.45-.12l1.18-1.31A10.14,10.14,0,0,1,159,56.07a4.79,4.79,0,0,1,2.23-.24c0.92,0.12,1.84-.24,2.76-0.12s2-.12,3,0a17.87,17.87,0,0,0,2.5.24,12.21,12.21,0,0,0,2.89.48,11.16,11.16,0,0,1,2.89.36c-0.53,1-1.45,1.91-2,2.87a11.79,11.79,0,0,0-1.58,2.75c-0.26.84-1.05,1.32-1.31,2.15a4.29,4.29,0,0,1-.92,1.67c-0.92-3.11-7.37-1.08-9.34,0s-4.34,2.87-6.18,4.18a31.77,31.77,0,0,0-6.18,6.1,26,26,0,0,0-1.71,2.27,7.67,7.67,0,0,0-1.18,2.27,18.75,18.75,0,0,1-1.18,2.27l-0.09.19,0-.07v0.16l0,0.05-0.37-.34c-0.4.36-.4,0.84-0.79,1.2l-0.39.24a2.1,2.1,0,0,1-1.45,1.43l-0.13.72a5.88,5.88,0,0,1-1.05.36,12.68,12.68,0,0,1-2,2.39c-0.4.24-1.05,0.24-1.05,0.72v0.24c-0.52-.24-0.4.12-0.79,0.36h-0.4c-2.76,1.56-4.73,3.11-8.42,3.47a3.93,3.93,0,0,1-.39-1.31c0-1,2.24-5.26,2.76-6.34,1.05-1.08,1.71-2.75,2.5-3.83,3.42-4.78,7.76-9.09,9.6-14.59,0.53-1.08.13-2.39,0.39-3.59l-1.84-1.43H139c-2.63-.24-5.79,1.55-8,2.63a14.11,14.11,0,0,0-3.16,3,1.32,1.32,0,0,0-.79.12v0.36c-1.45.6-2.89,2.27-4.08,3.35v0.36h-0.4a19.68,19.68,0,0,0,2.24-3.47c0.79-.72,2-1.43,2.37-2.51a2.25,2.25,0,0,0,.39-1.32c0-.36-0.13-0.72-0.13-1.31a12.23,12.23,0,0,0-2.24-.48c-0.13,0-.66.12-0.79,0.12-1.18.36-6.44,7.18-7,8.61l-0.39.12c-0.66,1-1.45,3.47-1.84,4.18-0.13.36-.66,0.36-0.79,0.72l-2,3c-0.39.48-1.05,0.72-1.45,1.2-0.29.32-.66,0.73-1.06,1.21-1.35.52-1.69,2-3,2.62-0.92,1.31-2.5,2-3.95,3.11a10.5,10.5,0,0,1-1.18,1.31l-0.79.12v0.36a27.83,27.83,0,0,0-5.39,2.75c-0.79-.24-2.5,1-3.68,1-0.53,0-2.5.12-2.5-1.31C89.82,91.46,91,90.39,91.14,89c0.66-.36,3.29-4.42,3.29-4.54V84.17A17.34,17.34,0,0,0,96,82.74a6.29,6.29,0,0,1,.13-0.84l0.79-.36c0.26-.36-0.13-0.72.4-1.08,0.26-.84,1.05-1,1.45-1.55V78.43l0.39-.24V77.83l0.66-.12a12.69,12.69,0,0,1,2-2.39c0.13-.36,0-0.6.13-1l0.79-.36V73.53l0.39-.24a37.22,37.22,0,0,0,2.63-3.59c0.66-.72,1.84-1.43,2.37-2.51a2.18,2.18,0,0,0,.26-1.32V64.56a15,15,0,0,0-2.24-.48c-0.39,0-.52.12-0.79,0.12-1.31.36-12,13.63-12.76,15.07l-1.05,1a1.47,1.47,0,0,1-.92,1.31c-1.05,1.91-2,4.66-3.68,6.46a38.33,38.33,0,0,0-.53,4.06c0.4,2.51,2,3.47,5.39,3.47,2.37,0,1.31,0,2.24-.72h0.52c0.79-.36,3.42-1.91,4.21-1.91a3,3,0,0,0,.39-0.84c-0.13.12,0.26,0.12,0.39,0.12a1.4,1.4,0,0,0,.66-0.48l-0.26-.24c0.26,0,.4.24,0.66,0.24a0.48,0.48,0,0,1,.4-0.24c0.92-.72,2.63-1.43,3.16-2.15a6.22,6.22,0,0,0,.66-1.31,0.81,0.81,0,0,1,.53.36A8.09,8.09,0,0,0,107,87c-1.71,2.36-3.22,4.86-3.22,6.27a2.94,2.94,0,0,0,.39,1c0.26,0,.92,0,0.92.36,2.37-.72,3.16-2.39,4.73-3.83a9.32,9.32,0,0,1,1.18-.84V89.55l0.4-.24c0.79-1,1.45-2.15,2.63-2.75,0.39-1.56,3.94-6.34,5-8.37a4.66,4.66,0,0,0,2.23-1.79c1.58-1.43,5-5.5,6.58-6l0.13-.6h0.39l0.26-.36c0.79-.48,1.58-1.55,2.37-2.15,0.26-.12.66,0,1.05-0.12V66.83c0.39-1,5.52-2.39,7-2.39h0.79c-0.66,3.23-7,9.44-7.23,10.64-0.79,1-1.58,1.67-2.37,2.75a1,1,0,0,1-.13.6c-0.53.72-1.45,1.08-1.84,1.79a11,11,0,0,0-.79,1.67c-0.26.48-.79,0.72-1.05,1.2a4.67,4.67,0,0,1-.4,1l-0.39.12-0.39,1.31-0.79.6c0,0.12-1.45,5.26-1.45,5.26,0,1.91.26,3.47,2.24,4.31h0.66c2.5,0,7.89-2.75,10.13-3.95a0.25,0.25,0,0,0,.26-0.24c0-.12-0.26-0.36-0.26-0.48h0.26a2,2,0,0,0,.79-0.24c1.18-.72,1.58-1.79,2.76-2.39a2.65,2.65,0,0,0,.79-1.43L141,87.28c0-.12.66-0.72,0.66-0.84V86.08a3.24,3.24,0,0,0,1.42-1.22c-0.14.33-.27,0.65-0.37,1L142,88.47c-0.26.72,0,1.43-.26,2.15-0.53,1.44.26,2.75,1.05,4.07a3.61,3.61,0,0,0,2.76.84,8.12,8.12,0,0,0,1.84-.72,5.86,5.86,0,0,0,1.45-1,5.65,5.65,0,0,0,1.71-1.08c0.26-.6,1.45-0.6,2-1.08a7.16,7.16,0,0,1,1.05-.72c0.92-1,2.24-1.67,3.29-2.63l0.79-.36c0.26-.24.13-0.48,0.39-0.72a8.39,8.39,0,0,0,1.84-1.79,6.39,6.39,0,0,0,1.45-2.15c0-.12,1.05-1.31,1.32-1.19-0.53.48-.26,1.19-0.66,1.67a4.66,4.66,0,0,0-.53,1.79,11.07,11.07,0,0,0-.26,3.59,7.73,7.73,0,0,0,1.05,3.47,3.44,3.44,0,0,1,.92,1.44l1.32,0.72a4.42,4.42,0,0,0,3.68.24,9.89,9.89,0,0,0,3.68-1.56c0.79-.6,1.71-1.08,2.5-1.79a16.33,16.33,0,0,0,2.23-1.91l0.92-1c0.4-.36.66-1,1.18-1.55,0.79-.72,1.31-1.67,2.37-2.51,0-.69,1.31-1.26,1.43-1.94l1.73-1.65,0.26-.48c3-1.67,7.1-5.74,9.86-6.46-0.52,3.11-3.81,17.1-8.42,17.1-1.31,0-2.5-1-3.94-1-2.24,0-5.79.24-5.79,2.87s3.95,3.47,6.18,3.47a10.68,10.68,0,0,0,6.18-1.91,4.76,4.76,0,0,0,2.63.72c2.37,0,1.45,0,2.24-.72H194c0.79-.36,3.42-1.91,4.21-1.91a3,3,0,0,0,.39-0.84c0,0.12.26,0.12,0.39,0.12a1.4,1.4,0,0,0,.66-0.48l-0.26-.24c0.26,0,.39.24,0.66,0.24a0.48,0.48,0,0,1,.4-0.24c1.05-.72,2.63-1.43,3.16-2.15a6,6,0,0,0,.66-1.31,0.81,0.81,0,0,1,.53.36,6.76,6.76,0,0,0,1.49-1.23c0,0.67,0,1.33,0,2l2.63,3.71c2,0.72,3.16,1.79,5.79,1.79s2.89-1.31,5.13-1.67c0.38-.35,0-0.69.25-0.82a0.81,0.81,0,0,0,.54,0,2.86,2.86,0,0,1,.66-0.6l0.13,0.36a1.8,1.8,0,0,1,.66-0.36,41.37,41.37,0,0,1,3.55-2.39l0.26-.12c0-.36-0.4-0.72.13-1a0.4,0.4,0,0,1,.4.36c0.4,0,2.89-2.63,4.08-2.87a0.56,0.56,0,0,0-.39-0.36v-0.6a1.7,1.7,0,0,1,.52.6,2.06,2.06,0,0,1,.78-1,23.11,23.11,0,0,0-.38,3c0.14,1.69,1.55,1.26,2,2.29,0.52,0,1.2.12,1.85,0.06,0.92-.07,2.08-0.38,2.41-1.16a3.36,3.36,0,0,1,.69-0.13q0.33-.08.66-0.19a8.68,8.68,0,0,0,1.18-.5c0.71-.36,1.38-0.81,2.06-1.24a12.78,12.78,0,0,1,1.56-.88,7,7,0,0,1,.86-0.33,1,1,0,0,0,.36-0.17,2.51,2.51,0,0,1,.36-0.2c0.28-.15.51-0.37,0.79-0.52a4.81,4.81,0,0,1,.94-0.45,4.13,4.13,0,0,0,.5-0.14,1,1,0,0,1,.33-0.13h0.11a20.23,20.23,0,0,1-1.07,1.76c-0.77,1.11-1.87,3.84-2.81,4.6a19.28,19.28,0,0,1-2.47.82c-1.05,0-1.82.68-2.87,0.84a10.23,10.23,0,0,0-2.73,1c-1.68.8-3.51,1.23-5.33,1.91a38.27,38.27,0,0,0-5.19,2.27c-3.25,1.34-6.88,2.7-9.71,4.78-1.54,1.16-3.35,2.09-4.89,3.26s-3.07,2.7-4.61,3.87a19.19,19.19,0,0,1-1.67,1.29c-0.51.39-.63,0.89-1.14,1.28a12.24,12.24,0,0,0-3.82,3.84,5.54,5.54,0,0,1-1,1.4,17.81,17.81,0,0,0-1.52,1.66c-0.5.76-.74,1.64-1.24,2.27l-1.12,1.89c-1.36,2.52-2.85,5.42-2,8.49,0.44,1.47.91,3.69,2.38,4.51a7.76,7.76,0,0,0,5.56.93l3.4-.61a4.79,4.79,0,0,0,1.82-.8c0.26-.13-0.27-0.24.38-0.38a2.86,2.86,0,0,0,1.43-.54c1-.65,2.07-1.18,3.1-1.71a46.18,46.18,0,0,0,8.51-5.36c1.29-.91,2.44-1.94,3.72-3l1.67-1.42,1.27-1.4c1.39-1.66,3.05-3.2,4.45-4.85a25.48,25.48,0,0,1,3-3.44,29.84,29.84,0,0,0,3.91-5.08,14.52,14.52,0,0,0,1.91-2l0.62-1.26c1.64-2.16,3.41-4.32,4.91-6.73,1.38-1.9,2.5-4,3.75-6.07,0.5-.76,1.11-2.39,2-2.54a19.84,19.84,0,0,1,2.47-.95A19.78,19.78,0,0,0,258,86.15a18,18,0,0,1,2.36-.52l0-.08c3.54-.67,6.56-3.09,10-4.15a3.06,3.06,0,0,0,.35-0.29,20.76,20.76,0,0,1,1.91-1.49A13.63,13.63,0,0,0,274.56,78l4.06-3.83,1.79-2a2.15,2.15,0,0,1,.6-0.6,1.81,1.81,0,0,0,.6-0.72,14.42,14.42,0,0,1,1-1.73l1.14-1.61,0.36-.36,0.36-.36a1.07,1.07,0,0,0,.3-0.54,2,2,0,0,1,.18-0.54l1.31-1.91a13.59,13.59,0,0,0,1.26-2.39,22.88,22.88,0,0,0,.9-2.63,16.28,16.28,0,0,0,1-2.75q0.36-1.43.6-2.87a25.32,25.32,0,0,0,.3-5.8A12.54,12.54,0,0,0,288.67,41.78ZM266,66.06c0.52-.26.9-0.77,1.44-0.29a1.36,1.36,0,0,1,0,1.24,5.56,5.56,0,0,1-2.28,2.8c-1.29.91-2.56,2.06-3.72,3L258.4,75C258,74.75,265.11,66.71,266,66.06Zm-47.17,7.47h0.39c0.4-1.07.79-.72,1.31-1.43V71.74h0.66a6.87,6.87,0,0,0,.79-1.32,47.68,47.68,0,0,1,5.52-4.54l1.31-.36,1.58-1.07a2.87,2.87,0,0,1,1.32,1.43,17.61,17.61,0,0,1-2,4.18l-0.92.48c-0.66.6-.92,1.31-1.45,1.67a10.23,10.23,0,0,0-.4,1.08c-1.84.6-3.16,3.47-4.21,3.47l-0.26.6-0.79.36-0.13.36c-0.66.48-1.58,0.48-1.84,1.43-1.58.36-2.76,1.67-4.21,2-0.79.12-1.31,0-2.1,0.12C214,79.63,217.39,75.08,218.84,73.53Zm-16.18-8.37c0-2,1.71-3.47,2.37-5.5a0.27,0.27,0,0,0,.53-0.12,1.4,1.4,0,0,1,.66.48c0,2.27-2.37,3.83-3.55,5.62V65.16ZM182.41,54.4a5,5,0,0,1,.92-1.31,3.74,3.74,0,0,0,1.19-1.91,4.21,4.21,0,0,0,1.18-1.43,10.77,10.77,0,0,1,1.58-1.79,9.29,9.29,0,0,0,1.45-2.15,35,35,0,0,1,2.89-3.59,3.66,3.66,0,0,0,1.45-1.67,6.91,6.91,0,0,1,1.58-1.79,9.88,9.88,0,0,1,1.05-1.43c0.26-.24.4-0.6,0.79-1,1.05-1.08,2.1-2.27,3.29-3.35a8.46,8.46,0,0,1,1.45-1.56,9.22,9.22,0,0,0,1.05-1.31,39.06,39.06,0,0,1,4.21-3.71l4.21-3.71,2.37-1.91,0.79-.84a2.89,2.89,0,0,0,.92-0.36l2-1.43a6.47,6.47,0,0,0,1.58-.84c0-.36,1.45-0.84,1.84-0.84a13.3,13.3,0,0,1,2-.72,9.32,9.32,0,0,1,4.47.84c1.18,0.72,1.18,2.51.92,3.47a14.25,14.25,0,0,1-.66,2.51,6.93,6.93,0,0,1-.92,2.27c-0.53.6-.66,1.32-1.18,1.91a23.25,23.25,0,0,0-1.58,2.27A16.43,16.43,0,0,1,221.86,31l-0.79,1A3.43,3.43,0,0,1,220,33.24c-0.26.24-.26,0.48-0.53,0.72s-0.53.48-.66,0.72c-1.18,1.43-2.5,2.75-3.81,4.06a41.76,41.76,0,0,1-6.84,6.46c-1.45,1.08-2.63,2.15-4.08,3.11l-1.84,1.08A9.65,9.65,0,0,1,200,51.05a33.46,33.46,0,0,1-8.81,3.83,2.66,2.66,0,0,1-1.05.36,1.71,1.71,0,0,0-1.05.24c-0.66.48-1.71,0.24-2.5,0.36-1.84.48-3.55,0.24-5.39,0.36C181.49,55.47,182.15,55,182.41,54.4ZM109.81,85a3.13,3.13,0,0,1-1.18,1.79c-0.79,2.15-2.63,3.83-3.55,5.74l-0.26-.36c0.39-2.15,3.81-5.26,5-7.41h0V85Zm53.79-6a9,9,0,0,1-1.71,2.15,37.1,37.1,0,0,0-2.76,3.47,35.19,35.19,0,0,1-3.81,3.71,16.25,16.25,0,0,0-1.71,1.31,10.4,10.4,0,0,1-2,1.2c-1.58.84-3,2-4.73,2.87l-0.79.48c-1.71.72-.52-2.75-0.39-3.23,0.66-1.55.92-3.23,1.71-4.78,0.66-1.31.92-3.35,2.1-4.31,0.53-.6.4-1.31,0.92-1.79a11,11,0,0,1,1.05-1.56c0.66-.72.92-1.56,1.58-2.27L154.66,74a23.94,23.94,0,0,1,3.42-3.71,7.17,7.17,0,0,0,.92-1l1.05-.84a9.68,9.68,0,0,1,1.84-1.44,9.26,9.26,0,0,1,4.34-1.43c4.08-.12.92,5,0.26,6.46-0.39.72-.52,1.55-0.92,2.15a8.72,8.72,0,0,0-1.05,2.27C164.13,77.36,164,78.31,163.6,79Zm17.88,16.5c-1.71,0-4.08-.36-4.08-2.27,0-1.56,2.24-1.79,3.55-1.79a20.21,20.21,0,0,1,4.87.72l0.66,0.72C186,94.09,182.4,95.53,181.48,95.53Zm60.14-2.16-1.5,2.53-2.88,4.55c-2.13,3.17-4.4,6.46-6.79,9.51a97.67,97.67,0,0,1-13.33,14.93,58.73,58.73,0,0,1-7.58,5.57c-3.22,2.21-7.22,4.69-11.3,4.58a4.4,4.4,0,0,1-4-2.6,23.25,23.25,0,0,1-.49-3,6.84,6.84,0,0,1,0-2.85,17.65,17.65,0,0,0,1.21-3.38,10.63,10.63,0,0,0,1.63-2.53l1.24-2.27c0.51-.51,1.8-1.17,1.91-1.92a2.6,2.6,0,0,1,1-1.39,9.46,9.46,0,0,1,1.52-1.66,49,49,0,0,1,4.6-4.36,70.51,70.51,0,0,1,10.8-7.78,77.8,77.8,0,0,1,9.85-4.66c1.17-.53,2.47-0.95,3.77-1.49A24.9,24.9,0,0,1,234,94.11l1.17-.29a2.06,2.06,0,0,0,1-.53,21.17,21.17,0,0,1,3-1A14.81,14.81,0,0,1,243,91.09,10.58,10.58,0,0,0,241.63,93.37Z" transform="translate(-4.85 -1.91)"/><path class="cls-1" d="M143.63,146.26q0.54,0,.54.79a4.57,4.57,0,0,1-.62,2.15,6.94,6.94,0,0,1-1.87,2.18l-0.16.2,2.17,0.06a0.76,0.76,0,0,1,.72.18c0,0.14-.24.24-0.72,0.3-0.17,0-.88.07-2.14,0.15-0.14,0-.2,0-0.2.09a0.57,0.57,0,0,0,.23.16,4.2,4.2,0,0,1,.72.52,5.57,5.57,0,0,1,1.32,1.7,4.21,4.21,0,0,1,.47,1.85,0.82,0.82,0,0,1-.22.58,0.67,0.67,0,0,1-.49.24,0.52,0.52,0,0,1-.47-0.35,7.87,7.87,0,0,0-.42-0.76l-0.49.79a0.67,0.67,0,0,1-.55.38,0.56,0.56,0,0,1-.4-0.18,0.57,0.57,0,0,1-.19-0.4,2.7,2.7,0,0,0,.2-0.8,10.3,10.3,0,0,0,.2-2.1,1.73,1.73,0,0,0-.12-0.71,0.37,0.37,0,0,0-.28-0.28,0.3,0.3,0,0,0-.26.17c0,0.14-.06.27-0.09,0.39a3.69,3.69,0,0,1-.45,1A4.77,4.77,0,0,1,138.5,156a3.51,3.51,0,0,1-1.78.55,0.43,0.43,0,0,1-.53-0.44,0.39,0.39,0,0,1,.26-0.37,0.36,0.36,0,0,0,.27-0.29c0-.13-0.15-0.2-0.45-0.2h-0.33q-0.78,0-.77-0.51a0.53,0.53,0,0,1,.17-0.41,0.61,0.61,0,0,1,.43-0.16l0.25,0a2.34,2.34,0,0,0,.38,0,6.15,6.15,0,0,0,2.8-.54,1.49,1.49,0,0,0,1-1.29c0-.14,0-0.21-0.14-0.21a0.57,0.57,0,0,0-.24.17,3,3,0,0,1-.44.34,5.39,5.39,0,0,1-1.56.55,9.75,9.75,0,0,1-2.26.27,1.51,1.51,0,0,1-.73-0.16,0.44,0.44,0,0,1-.3-0.32,0.67,0.67,0,0,1,.34-0.47,1.3,1.3,0,0,0,.37-0.34,1.27,1.27,0,0,0-.29,0l-0.48,0-0.33,0a0.66,0.66,0,0,1-.41-0.13,0.36,0.36,0,0,1-.18-0.29c0-.29.22-0.44,0.65-0.44l0.4,0,0.41,0,0.19,0a1.51,1.51,0,0,0-.37-0.36,0.53,0.53,0,0,1-.26-0.35c0-.24.31-0.39,0.93-0.45,0.21,0,.64,0,1.28,0a6.66,6.66,0,0,1,3.34,1.12,0.17,0.17,0,0,0,.09-0.18,1.2,1.2,0,0,0-.79-1.12,7.14,7.14,0,0,0-2.43-.51l-0.51,0h-0.44c-0.69,0-1-.21-1-0.63a0.38,0.38,0,0,1,.28-0.36,4.54,4.54,0,0,1,.82-0.14,1.94,1.94,0,0,0,.75-0.14,0.24,0.24,0,0,0-.2-0.15L136.2,148a0.34,0.34,0,0,1-.2-0.33,0.47,0.47,0,0,1,.22-0.38,0.84,0.84,0,0,1,.51-0.16,3.42,3.42,0,0,1,1.71.58,4.12,4.12,0,0,1,2,2.13c0,0.2.09,0.39,0.15,0.59a1,1,0,0,0,.28.52h0a0.48,0.48,0,0,0,.28-0.35,2.16,2.16,0,0,0,.14-0.82,10.58,10.58,0,0,0-.12-1.48,10,10,0,0,1-.12-1.13,0.57,0.57,0,0,1,.63-0.65,0.83,0.83,0,0,1,.64.62l0.14,0.35a0.13,0.13,0,0,0,.09.1,0.43,0.43,0,0,0,.3-0.28c0.1-.23.19-0.45,0.28-0.69A0.58,0.58,0,0,1,143.63,146.26Zm4.25,4.89a0.88,0.88,0,0,0-.39.69,0.8,0.8,0,0,0,.34.59,1,1,0,0,0,.63.29,1.07,1.07,0,0,0,.75-0.31,0.94,0.94,0,0,0,.34-0.69,0.85,0.85,0,0,0-.29-0.58,0.81,0.81,0,0,0-.56-0.29A1.3,1.3,0,0,0,147.88,151.14Zm277.18-4.54c0.09,0.23.18,0.46,0.28,0.69a0.43,0.43,0,0,0,.31.28,0.13,0.13,0,0,0,.09-0.1l0.13-.35a0.83,0.83,0,0,1,.64-0.62,0.57,0.57,0,0,1,.63.65,9.49,9.49,0,0,1-.13,1.13,11.13,11.13,0,0,0-.12,1.48,2.17,2.17,0,0,0,.14.82,0.47,0.47,0,0,0,.28.35h0a1,1,0,0,0,.28-0.52c0.05-.19.1-0.39,0.15-0.59a4.11,4.11,0,0,1,2-2.13,3.41,3.41,0,0,1,1.71-.58,0.84,0.84,0,0,1,.51.16,0.48,0.48,0,0,1,.22.38,0.35,0.35,0,0,1-.2.33l-0.53.18a0.24,0.24,0,0,0-.2.15,1.94,1.94,0,0,0,.75.14,4.6,4.6,0,0,1,.82.14,0.38,0.38,0,0,1,.28.36c0,0.42-.35.63-1,0.63h-0.44l-0.51,0a7.14,7.14,0,0,0-2.43.51,1.2,1.2,0,0,0-.79,1.12,0.17,0.17,0,0,0,.09.18,6.68,6.68,0,0,1,3.34-1.12c0.64,0,1.07,0,1.28,0,0.62,0.06.93,0.21,0.93,0.45a0.54,0.54,0,0,1-.26.35,1.53,1.53,0,0,0-.37.36l0.19,0,0.4,0,0.4,0c0.44,0,.65.15,0.65,0.44a0.36,0.36,0,0,1-.18.29,0.67,0.67,0,0,1-.41.13l-0.33,0-0.48,0a1.26,1.26,0,0,0-.29,0,1.3,1.3,0,0,0,.37.34,0.68,0.68,0,0,1,.34.47,0.44,0.44,0,0,1-.3.32,1.52,1.52,0,0,1-.73.16,9.78,9.78,0,0,1-2.26-.27,5.33,5.33,0,0,1-1.55-.55,3,3,0,0,1-.44-0.34,0.62,0.62,0,0,0-.24-0.17c-0.09,0-.14.07-0.14,0.21a1.49,1.49,0,0,0,1,1.29,6.15,6.15,0,0,0,2.8.54,2.32,2.32,0,0,0,.38,0l0.25,0a0.6,0.6,0,0,1,.43.16,0.53,0.53,0,0,1,.18.41q0,0.51-.77.51h-0.33c-0.3,0-.45.07-0.45,0.2a0.35,0.35,0,0,0,.27.29,0.39,0.39,0,0,1,.26.37,0.43,0.43,0,0,1-.53.44,3.5,3.5,0,0,1-1.78-.55,4.79,4.79,0,0,1-1.55-1.52,3.63,3.63,0,0,1-.45-1l-0.09-.39a0.3,0.3,0,0,0-.26-0.17,0.38,0.38,0,0,0-.28.28,1.8,1.8,0,0,0-.12.71,10.46,10.46,0,0,0,.19,2.1,2.7,2.7,0,0,0,.2.8,0.64,0.64,0,0,1-.58.59,0.66,0.66,0,0,1-.55-0.38l-0.49-.79a8,8,0,0,0-.42.76,0.53,0.53,0,0,1-.47.35,0.66,0.66,0,0,1-.48-0.24,0.81,0.81,0,0,1-.22-0.58,4.21,4.21,0,0,1,.46-1.85,5.49,5.49,0,0,1,1.32-1.7,4.13,4.13,0,0,1,.72-0.52,0.53,0.53,0,0,0,.22-0.16s-0.06-.08-0.2-0.09c-1.25-.07-2-0.12-2.14-0.15-0.48-.06-0.72-0.16-0.72-0.3a0.76,0.76,0,0,1,.72-0.18l2.18-.06-0.16-.2a7,7,0,0,1-1.87-2.18A4.53,4.53,0,0,1,424,147c0-.52.18-0.79,0.54-0.79A0.58,0.58,0,0,1,425.06,146.61Zm-5.62,4.22a0.81,0.81,0,0,0-.56.29,0.85,0.85,0,0,0-.29.58,0.94,0.94,0,0,0,.34.69,1.08,1.08,0,0,0,.75.31,1,1,0,0,0,.63-0.29,0.8,0.8,0,0,0,.34-0.59,0.89,0.89,0,0,0-.39-0.69A1.3,1.3,0,0,0,419.43,150.83Z" transform="translate(-4.85 -1.91)"/><path class="cls-1" d="M171.86,146.88a0.51,0.51,0,0,1,.26-0.11,2,2,0,0,1,.35,0h0.77a0.37,0.37,0,0,1,.1.19,2,2,0,0,1,0,.24,2.06,2.06,0,0,0,0,.23,0.36,0.36,0,0,0,.1.18,0.18,0.18,0,0,1-.11.19,0.29,0.29,0,0,0-.16.15,1.84,1.84,0,0,1,.15.59,1.47,1.47,0,0,1-.06.56,0.89,0.89,0,0,1-.27.42,0.75,0.75,0,0,1-.51.16,1.16,1.16,0,0,1-.29-0.34l-0.26-.44-0.27-.44a1.23,1.23,0,0,0-.33-0.34,0.83,0.83,0,0,0-.45-0.14,1.32,1.32,0,0,0-.61.17A1,1,0,0,0,170,148a0.86,0.86,0,0,0-.33,0l-0.36,0a3,3,0,0,1-.44,0,0.91,0.91,0,0,0-.43.62,3.1,3.1,0,0,0,0,.81c0,0.29.05,0.57,0.08,0.85a1.3,1.3,0,0,1-.12.7,0.32,0.32,0,0,0,.16.16,0.21,0.21,0,0,1,.12.2h1.11a0.91,0.91,0,0,0,.51.16,1.11,1.11,0,0,0,.47-0.12,1.49,1.49,0,0,0,.39-0.28,2.79,2.79,0,0,0,.28-0.32,0.09,0.09,0,0,0,0-.1l-0.07,0-0.07,0a0.1,0.1,0,0,1,0-.1,0.58,0.58,0,0,1,.27-0.2,1,1,0,0,1,.38-0.07,0.75,0.75,0,0,1,.36.09,0.52,0.52,0,0,1,.23.25,2,2,0,0,0-.14.64,5.84,5.84,0,0,0,0,.68c0,0.23,0,.46.08,0.7a5.21,5.21,0,0,1,0,.68l-0.47.29a1.29,1.29,0,0,1-.64.14,2.22,2.22,0,0,0-.19-0.55,1.4,1.4,0,0,0-.36-0.46,1,1,0,0,0-.5-0.23,0.94,0.94,0,0,0-.61.13,0.35,0.35,0,0,0-.25-0.16,1,1,0,0,0-.32,0l-0.33.09a1,1,0,0,1-.29.06l-0.2.41c0,0.16,0,.34.07,0.53s0,0.39.06,0.6a4.74,4.74,0,0,1,0,.62,2.21,2.21,0,0,1-.13.61,0.36,0.36,0,0,0,.14.25,0.88,0.88,0,0,0,.29.16,0.69,0.69,0,0,0,.33,0,0.45,0.45,0,0,0,.28-0.15,1.44,1.44,0,0,0,.39.11,4.16,4.16,0,0,0,.52,0,3.22,3.22,0,0,0,.51,0,0.87,0.87,0,0,0,.38-0.13,1,1,0,0,0,.76.06,1.43,1.43,0,0,0,.54-0.4,3.54,3.54,0,0,0,.41-0.61,4,4,0,0,1,.37-0.58,0.44,0.44,0,0,1,.45.13,0.91,0.91,0,0,1,.18.47,2,2,0,0,1,0,.59,2,2,0,0,1-.14.48,0.62,0.62,0,0,1,.14.3,1.1,1.1,0,0,1,0,.36,1.33,1.33,0,0,1-.1.35,0.5,0.5,0,0,1-.19.23,11.65,11.65,0,0,1-1.66,0l-1.71-.08c-0.57,0-1.13-.05-1.69-0.06a9.89,9.89,0,0,0-1.59.1l-0.11,0a0.14,0.14,0,0,0,0,.1,0.54,0.54,0,0,0-.42-0.15,0.53,0.53,0,0,0-.42.15,0.14,0.14,0,0,0-.09-0.12l-0.16,0-0.18,0a0.14,0.14,0,0,1-.12-0.08,0.55,0.55,0,0,1,0-.27,2,2,0,0,1,.07-0.2,1.53,1.53,0,0,0,.07-0.21,0.69,0.69,0,0,0,0-.29,4.76,4.76,0,0,0,.54-0.22,2.42,2.42,0,0,1,.57-0.19,1.09,1.09,0,0,1,0-.44l0.09-.39a1.6,1.6,0,0,0,0-.36,0.53,0.53,0,0,0-.14-0.34c0.07,0,.11,0,0.12,0a0.5,0.5,0,0,0,0-.12,0.48,0.48,0,0,1,0-.12s0,0,.12,0a1.78,1.78,0,0,1-.12-0.51,6.5,6.5,0,0,1,0-.68,4.78,4.78,0,0,1,0-.67,1.45,1.45,0,0,1,.14-0.5,0.48,0.48,0,0,1-.11-0.2,1,1,0,0,1,0-.29,1,1,0,0,1,0-.28,0.48,0.48,0,0,1,.11-0.2,0.5,0.5,0,0,1-.11-0.21,1,1,0,0,1,0-.56,0.49,0.49,0,0,1,.11-0.2,0.57,0.57,0,0,1-.12-0.25,1.53,1.53,0,0,1,0-.34c0-.12,0-0.25,0-0.38a2.22,2.22,0,0,0,0-.36,0.58,0.58,0,0,0-.3-0.17l-0.38-.09a2,2,0,0,1-.36-0.11,0.34,0.34,0,0,1-.2-0.26,1,1,0,0,1,.2-0.46,0.83,0.83,0,0,1,.34-0.27,0.79,0.79,0,0,1,.43,0,1.11,1.11,0,0,1,.48.21,2.32,2.32,0,0,1,1-.25,9.16,9.16,0,0,1,1.11,0l1.14,0.07a3,3,0,0,0,1.05-.12l0.29,0.09A0.3,0.3,0,0,1,171.86,146.88Zm24.83-.16,0.13,0.25a1.32,1.32,0,0,1,.12.29,0.86,0.86,0,0,1,0,.3,0.43,0.43,0,0,1-.14.27,1.66,1.66,0,0,0-.77.24,1.71,1.71,0,0,0-.5.5,2.68,2.68,0,0,0-.32.69,7.2,7.2,0,0,0-.2.8,0.53,0.53,0,0,0-.26.25c-0.05.11-.11,0.24-0.16,0.36s-0.1.25-.16,0.37a0.52,0.52,0,0,1-.26.26,2.19,2.19,0,0,1-.18.88,7.19,7.19,0,0,1-.38.7,7.26,7.26,0,0,0-.38.7,2.16,2.16,0,0,0-.17.9,0.16,0.16,0,0,0-.13.08l-0.06.15a0.6,0.6,0,0,1-.07.14,0.16,0.16,0,0,1-.16,0v0.43c-0.06,0-.09,0-0.1,0l0,0.07,0,0.07a0.09,0.09,0,0,1-.1,0,4,4,0,0,1-.16.68,2,2,0,0,1-.27.55,1.26,1.26,0,0,1-.44.38,1.72,1.72,0,0,1-.65.19,0.69,0.69,0,0,0-.29-0.23,0.54,0.54,0,0,1-.27-0.25,0.2,0.2,0,0,1,0-.12,0.13,0.13,0,0,1,0-.05l0.06,0a0.1,0.1,0,0,0,0-.06,2.06,2.06,0,0,1-.43-0.69q-0.16-.4-0.3-0.83t-0.31-.81a1.82,1.82,0,0,0-.47-0.65,0.22,0.22,0,0,1,0-.11l0.06-.09a0.36,0.36,0,0,0,0-.12,0.44,0.44,0,0,0,0-.18,0.57,0.57,0,0,1-.18-0.19,0.32,0.32,0,0,0-.23-0.15q-0.08-.26-0.14-0.53a4,4,0,0,0-.15-0.51,2.66,2.66,0,0,0-.21-0.44,0.93,0.93,0,0,0-.33-0.33,0.71,0.71,0,0,0,0-.27l-0.07-.22a1.27,1.27,0,0,1-.06-0.23,0.84,0.84,0,0,1,0-.31,0.24,0.24,0,0,1-.12-0.13,0.14,0.14,0,0,0-.17-0.07c0-.34,0-0.52-0.27-0.55a1,1,0,0,0-.14-0.55,1.22,1.22,0,0,0-.34-0.35,2.67,2.67,0,0,0-.45-0.24,2.1,2.1,0,0,1-.45-0.25V147l0.94-.07,0.88,0,1,0,1.33,0a1.52,1.52,0,0,1,.11.49,1.4,1.4,0,0,1-.11.48,2.67,2.67,0,0,1-.51.12,1.16,1.16,0,0,0-.46.16,2.74,2.74,0,0,0,.17,1.09,7.71,7.71,0,0,0,.41.85q0.23,0.4.43,0.84a2.9,2.9,0,0,1,.24,1,0.23,0.23,0,0,1,.12.13,0.13,0.13,0,0,0,.16.07v0.49a0.1,0.1,0,0,0,.12.06h0.17a1.71,1.71,0,0,0,0,.47,0.27,0.27,0,0,0,.27.23,1,1,0,0,0,0,.42,1.12,1.12,0,0,0,.12.29,2.42,2.42,0,0,0,.16.25,1,1,0,0,1,.14.28,2.73,2.73,0,0,0,.52-0.94c0.12-.36.22-0.74,0.31-1.14a0.33,0.33,0,0,0,.23-0.18,1.73,1.73,0,0,0,.11-0.31,1.58,1.58,0,0,1,.11-0.31,0.31,0.31,0,0,1,.25-0.17,4.45,4.45,0,0,1,.19-0.89c0.09-.27.19-0.54,0.3-0.79l0.33-.77a6.91,6.91,0,0,0,.29-0.81,4.43,4.43,0,0,1-.53-0.41,2.05,2.05,0,0,0-.57-0.35v-0.7a2.42,2.42,0,0,1,.85-0.08l1,0.07c0.33,0,.67,0,1,0A2.44,2.44,0,0,0,196.68,146.72Zm18.38,0.16a0.51,0.51,0,0,1,.26-0.11,2,2,0,0,1,.35,0h0.77a0.37,0.37,0,0,1,.1.19,2,2,0,0,1,0,.24,2,2,0,0,0,0,.23,0.36,0.36,0,0,0,.1.18,0.18,0.18,0,0,1-.11.19,0.29,0.29,0,0,0-.16.15,1.84,1.84,0,0,1,.15.59,1.48,1.48,0,0,1-.06.56,0.89,0.89,0,0,1-.27.42,0.75,0.75,0,0,1-.51.16,1.16,1.16,0,0,1-.29-0.34l-0.26-.44-0.27-.44a1.23,1.23,0,0,0-.33-0.34,0.83,0.83,0,0,0-.45-0.14,1.32,1.32,0,0,0-.61.17,1,1,0,0,0-.32-0.18,0.86,0.86,0,0,0-.33,0l-0.36,0a3,3,0,0,1-.44,0,0.91,0.91,0,0,0-.43.62,3.1,3.1,0,0,0,0,.81c0,0.29.05,0.57,0.08,0.85a1.3,1.3,0,0,1-.12.7,0.32,0.32,0,0,0,.16.16,0.21,0.21,0,0,1,.12.2H213a0.91,0.91,0,0,0,.51.16,1.11,1.11,0,0,0,.47-0.12,1.49,1.49,0,0,0,.39-0.28,2.78,2.78,0,0,0,.28-0.32,0.09,0.09,0,0,0,0-.1l-0.07,0-0.07,0a0.1,0.1,0,0,1,0-.1,0.58,0.58,0,0,1,.27-0.2,1,1,0,0,1,.38-0.07,0.75,0.75,0,0,1,.36.09,0.52,0.52,0,0,1,.23.25,2,2,0,0,0-.14.64,5.79,5.79,0,0,0,0,.68c0,0.23,0,.46.08,0.7a5.21,5.21,0,0,1,0,.68l-0.47.29a1.29,1.29,0,0,1-.64.14,2.22,2.22,0,0,0-.19-0.55,1.4,1.4,0,0,0-.36-0.46,1,1,0,0,0-.5-0.23,0.94,0.94,0,0,0-.61.13,0.35,0.35,0,0,0-.25-0.16,1,1,0,0,0-.32,0l-0.33.09a1,1,0,0,1-.29.06l-0.2.41c0,0.16,0,.34.07,0.53s0,0.39.06,0.6a4.79,4.79,0,0,1,0,.62,2.21,2.21,0,0,1-.13.61,0.36,0.36,0,0,0,.14.25,0.88,0.88,0,0,0,.29.16,0.69,0.69,0,0,0,.33,0,0.45,0.45,0,0,0,.28-0.15,1.44,1.44,0,0,0,.39.11,4.16,4.16,0,0,0,.52,0,3.22,3.22,0,0,0,.51,0,0.87,0.87,0,0,0,.38-0.13,1,1,0,0,0,.76.06,1.43,1.43,0,0,0,.54-0.4,3.54,3.54,0,0,0,.41-0.61,4,4,0,0,1,.37-0.58,0.44,0.44,0,0,1,.45.13,0.91,0.91,0,0,1,.18.47,2,2,0,0,1,0,.59,2,2,0,0,1-.14.48,0.63,0.63,0,0,1,.14.3,1.1,1.1,0,0,1,0,.36,1.33,1.33,0,0,1-.1.35,0.5,0.5,0,0,1-.19.23,11.65,11.65,0,0,1-1.66,0l-1.71-.08c-0.57,0-1.13-.05-1.69-0.06a9.89,9.89,0,0,0-1.59.1l-0.11,0a0.14,0.14,0,0,0,0,.1,0.54,0.54,0,0,0-.42-0.15,0.53,0.53,0,0,0-.42.15,0.14,0.14,0,0,0-.09-0.12L209,157l-0.18,0a0.14,0.14,0,0,1-.12-0.08,0.55,0.55,0,0,1,0-.27,2,2,0,0,1,.07-0.2,1.53,1.53,0,0,0,.07-0.21,0.69,0.69,0,0,0,0-.29,4.76,4.76,0,0,0,.54-0.22,2.41,2.41,0,0,1,.57-0.19,1.09,1.09,0,0,1,0-.44l0.09-.39a1.61,1.61,0,0,0,0-.36,0.53,0.53,0,0,0-.14-0.34c0.07,0,.11,0,0.12,0a0.49,0.49,0,0,0,0-.12,0.48,0.48,0,0,1,0-.12s0,0,.12,0a1.78,1.78,0,0,1-.12-0.51,6.46,6.46,0,0,1,0-.68,4.78,4.78,0,0,1,0-.67,1.45,1.45,0,0,1,.14-0.5,0.48,0.48,0,0,1-.11-0.2,1,1,0,0,1,0-.29,1,1,0,0,1,0-.28,0.48,0.48,0,0,1,.11-0.2,0.5,0.5,0,0,1-.11-0.21,1,1,0,0,1,0-.56,0.49,0.49,0,0,1,.11-0.2,0.57,0.57,0,0,1-.12-0.25,1.53,1.53,0,0,1,0-.34c0-.12,0-0.25,0-0.38a2.22,2.22,0,0,0,0-.36,0.58,0.58,0,0,0-.3-0.17l-0.38-.09a2,2,0,0,1-.36-0.11,0.34,0.34,0,0,1-.2-0.26A1,1,0,0,1,209,147a0.83,0.83,0,0,1,.34-0.27,0.79,0.79,0,0,1,.43,0,1.11,1.11,0,0,1,.48.21,2.32,2.32,0,0,1,1-.25,9.16,9.16,0,0,1,1.11,0l1.14,0.07a3,3,0,0,0,1.05-.12l0.29,0.09A0.3,0.3,0,0,1,215.07,146.88Zm16.81-.14,0.19,0.29a0.37,0.37,0,0,0,.35.13,0.89,0.89,0,0,0,.11.41,2.21,2.21,0,0,0,.21.31l0.23,0.3a1,1,0,0,1,.15.36,0.64,0.64,0,0,1,.31.07,1.37,1.37,0,0,1,.23.16l0.2,0.18a0.8,0.8,0,0,0,.23.15,1,1,0,0,0,.19.55,2.56,2.56,0,0,0,.37.38l0.4,0.34a0.93,0.93,0,0,1,.28.46,2.71,2.71,0,0,1,.65.5c0.19,0.2.37,0.4,0.54,0.6l0.52,0.62a3.7,3.7,0,0,0,.57.56,0.24,0.24,0,0,0,.16-0.16,0.74,0.74,0,0,0,.06-0.29,1,1,0,0,0,0-.3,0.48,0.48,0,0,0-.11-0.21c0.07,0,.12,0,0.13,0a0.33,0.33,0,0,0,0-.13,0.29,0.29,0,0,1,0-.12s0.06,0,.13,0a0.28,0.28,0,0,1-.14-0.25,2.57,2.57,0,0,1,0-.38,3.08,3.08,0,0,0,0-.38,0.27,0.27,0,0,0-.15-0.24,4.6,4.6,0,0,0,.13-0.92,2.73,2.73,0,0,0-.11-0.91,1.69,1.69,0,0,0-.43-0.72,1.41,1.41,0,0,0-.83-0.36,1.09,1.09,0,0,1,0-.61,0.85,0.85,0,0,1,.31-0.36,6.83,6.83,0,0,0,1.55.1l1.71-.1a1.7,1.7,0,0,1,.23.53,0.88,0.88,0,0,1-.09.58,0.76,0.76,0,0,0-.65.16,1.21,1.21,0,0,0-.34.55,2.35,2.35,0,0,0,0,1.36,1.21,1.21,0,0,0-.06.56c0,0.24,0,.5.06,0.77s0,0.54,0,.81a1.24,1.24,0,0,1-.16.64l0.06,0.48c0,0.17,0,.35,0,0.54a4.35,4.35,0,0,1,0,.55,2.1,2.1,0,0,1-.1.51c0,0.21.08,0.43,0.12,0.66s0.06,0.45.07,0.66,0,0.41,0,.59a1.77,1.77,0,0,1-.06.45H238a0.75,0.75,0,0,0-.42-0.41,0.83,0.83,0,0,0,0-.31c0-.09,0-0.17,0-0.25s0-.15-0.07-0.22a0.75,0.75,0,0,1,0-.26,1.3,1.3,0,0,1-.32-0.29l-0.26-.34a2.21,2.21,0,0,0-.29-0.32,1.12,1.12,0,0,0-.38-0.23,4,4,0,0,1-.3-0.47l-0.28-.48a2.42,2.42,0,0,0-.34-0.42,1.36,1.36,0,0,0-.47-0.3,1.49,1.49,0,0,0-.37-0.61c-0.16-.16-0.33-0.31-0.51-0.46a4.28,4.28,0,0,1-.49-0.48,1.42,1.42,0,0,1-.31-0.67,1.09,1.09,0,0,1-.31-0.15,2.1,2.1,0,0,1-.26-0.21l-0.23-.24a2.66,2.66,0,0,0-.23-0.23,0.59,0.59,0,0,0-.25.42,2.79,2.79,0,0,0,0,.52c0,0.18,0,.36,0,0.55a0.89,0.89,0,0,1-.14.52,1,1,0,0,1,.14.51c0,0.22,0,.46,0,0.72s0,0.52,0,.79a3.29,3.29,0,0,0,0,.7,1.37,1.37,0,0,0,.14.44,1.07,1.07,0,0,0,.25.29,1.3,1.3,0,0,0,.36.2l0.5,0.16a1.77,1.77,0,0,1,.12.42,2,2,0,0,1,0,.47,2.26,2.26,0,0,1-.08.44,0.78,0.78,0,0,1-.19.33,2.6,2.6,0,0,0-.9-0.22,7.89,7.89,0,0,0-1,0l-1,0a3.82,3.82,0,0,1-1-.1v-1.11a0.5,0.5,0,0,0,.29-0.08l0.2-.16a1.13,1.13,0,0,1,.22-0.15,0.57,0.57,0,0,1,.33,0,1.85,1.85,0,0,0,.35-0.9,7.67,7.67,0,0,0,0-1.08c0-.37,0-0.74,0-1.11a3,3,0,0,1,.12-1,1.37,1.37,0,0,1-.11-0.39,5,5,0,0,1-.06-0.52,2.27,2.27,0,0,1,0-.51,1,1,0,0,1,.14-0.38,0.25,0.25,0,0,1-.14-0.19,1.05,1.05,0,0,1,0-.29c0-.1,0-0.21,0-0.33a2.05,2.05,0,0,0,0-.31,0.73,0.73,0,0,0-.25-0.24l-0.31-.17a2.54,2.54,0,0,1-.31-0.18,0.8,0.8,0,0,1-.24-0.25,1.39,1.39,0,0,1,.1-0.48c0.06-.14.12-0.28,0.17-0.42h2.22Zm23.29-.08a1.14,1.14,0,0,0,.49.21,2,2,0,0,0,.43,0l0.4,0a1,1,0,0,1,.42.09,0.29,0.29,0,0,1,.2-0.12,1.46,1.46,0,0,1,.35,0,1.48,1.48,0,0,1,.35,0,0.29,0.29,0,0,1,.2.12,1.3,1.3,0,0,1,.69-0.12l0.77,0.07a3.15,3.15,0,0,0,.71,0,0.7,0.7,0,0,0,.53-0.36h0.78a2,2,0,0,1,.35,0,0.53,0.53,0,0,1,.27.12,0.71,0.71,0,0,1-.06.46l-0.2.38a1.46,1.46,0,0,0-.15.36,0.45,0.45,0,0,0,.12.38,6,6,0,0,0-.16.64c0,0.22-.08.45-0.12,0.68a0.24,0.24,0,0,0-.16,0l-0.08.06-0.07.07a0.14,0.14,0,0,1-.1,0c0-.1,0-0.15-0.07-0.14h-0.22a1.22,1.22,0,0,0-.16-0.47l-0.24-.38a2.47,2.47,0,0,1-.21-0.41,1.33,1.33,0,0,1-.08-0.55,0.25,0.25,0,0,0-.18,0,0.14,0.14,0,0,0-.08.09,0.4,0.4,0,0,0,0,.16q0,0.09,0,.18h-0.21l-0.07,0a0.11,0.11,0,0,0,0,.11q-0.44-.12-0.9-0.21a6.66,6.66,0,0,1-.89-0.22l0.12,0.51a0.46,0.46,0,0,1-.12.46,0.83,0.83,0,0,1,.11.3,2.59,2.59,0,0,1,0,.43,2,2,0,0,1,0,.43,0.57,0.57,0,0,1-.12.29,6.35,6.35,0,0,1,.1,1.26q0,0.68,0,1.39c0,0.47,0,.93,0,1.38a3.86,3.86,0,0,0,.28,1.24,1.5,1.5,0,0,0,.34.23l0.37,0.2a1.57,1.57,0,0,1,.32.25,0.86,0.86,0,0,1,.21.36,2.37,2.37,0,0,0-.14.31,0.57,0.57,0,0,1-.2.25,1.56,1.56,0,0,0-.6-0.22,3.67,3.67,0,0,0-.7,0l-0.71.06-0.63.07A1.93,1.93,0,0,0,256,157a2.41,2.41,0,0,0-.4,0l-0.43.06a3.6,3.6,0,0,1-.56,0,2,2,0,0,0-.12-0.44l-0.16-.39q0.15,0.05.14-.06a0.78,0.78,0,0,1,0-.21,3.92,3.92,0,0,0,1.14-.23,2,2,0,0,0,.8-0.54,0.78,0.78,0,0,1-.14-0.44,4.64,4.64,0,0,1,0-.56l0-.52a0.58,0.58,0,0,0,0-.35,20.75,20.75,0,0,0,.23-2.59,10.66,10.66,0,0,0-.23-2.54h-0.6l-0.27,0a0.25,0.25,0,0,1-.17-0.12l-0.59.15a2.33,2.33,0,0,0-.53.22,1.34,1.34,0,0,0-.4.35,1.19,1.19,0,0,0-.22.53,0.41,0.41,0,0,0-.23,0,0.49,0.49,0,0,0-.14.12l-0.11.15a0.36,0.36,0,0,1-.14.12,0.58,0.58,0,0,1-.49-0.27,0.92,0.92,0,0,1-.1-0.53,2.22,2.22,0,0,1,.15-0.62,4.55,4.55,0,0,1,.23-0.52,0.35,0.35,0,0,1-.11-0.37,0.51,0.51,0,0,1,.25-0.33,0.09,0.09,0,0,0,0-.1l-0.07,0-0.07,0s0,0,0-.1a0.5,0.5,0,0,1,.46-0.35,2.34,2.34,0,0,1,.69.07l0.74,0.18A0.85,0.85,0,0,0,255.17,146.66Zm36.73,10.15a0.82,0.82,0,0,1-.27.24,0.76,0.76,0,0,1-.48,0,0.54,0.54,0,0,1-.14-0.35,2.3,2.3,0,0,1,0-.47,0.26,0.26,0,0,0,.11,0l0.09-.07,0.11,0a0.4,0.4,0,0,1,.17,0,1.18,1.18,0,0,1,.22-0.22l0.25-.19,0.24-.19a0.88,0.88,0,0,0,.2-0.23,7.67,7.67,0,0,0,0-1c0-.35,0-0.7,0-1s0-.67,0-1a3.27,3.27,0,0,1,.14-0.86,0.1,0.1,0,0,0,0-.1l-0.07,0-0.07,0a0.1,0.1,0,0,1,0-.1,0.43,0.43,0,0,0,.11-0.23c0-.1,0-0.19,0-0.29s0-.2,0-0.29a0.53,0.53,0,0,1,.09-0.23l-0.14-.88a3.15,3.15,0,0,0-.23-0.79,1.35,1.35,0,0,0-.46-0.56,1.37,1.37,0,0,0-.83-0.2,2.36,2.36,0,0,1,0-.48,0.54,0.54,0,0,1,.14-0.34l1.28,0,1.2,0h1.18c0.4,0,.81,0,1.25-0.08a1.86,1.86,0,0,1,.88-0.14,3.93,3.93,0,0,1,.83.17c0.27,0.09.53,0.18,0.79,0.29a3.1,3.1,0,0,0,.77.22,0.46,0.46,0,0,0,.23.38,2.28,2.28,0,0,0,.45.18,0.37,0.37,0,0,0,.13.35l0.29,0.19a0.89,0.89,0,0,0,.17.59,3.08,3.08,0,0,0,.38.38c0,0.27.1,0.54,0.16,0.79a4.79,4.79,0,0,0,.25.74,0.76,0.76,0,0,1-.12.22,0.39,0.39,0,0,0,0,.33,0.83,0.83,0,0,1,.14.39,3.64,3.64,0,0,1,0,.51c0,0.18,0,.36,0,0.54a2.6,2.6,0,0,0,0,.51,0.88,0.88,0,0,1-.12.26,2.14,2.14,0,0,0-.14.23,1.47,1.47,0,0,0-.12.27,0.9,0.9,0,0,0,0,.35,4.5,4.5,0,0,0-.56.54l-0.51.58a5.44,5.44,0,0,1-.55.54,2.59,2.59,0,0,1-.68.42c-0.36,0-.74.07-1.14,0.13s-0.82.11-1.23,0.14a12.27,12.27,0,0,1-1.24,0,5,5,0,0,1-1.18-.16,0.23,0.23,0,0,0-.16,0l-0.08.06-0.07.07a0.15,0.15,0,0,1-.1,0,0.36,0.36,0,0,0-.34-0.11l-0.44.08a3.36,3.36,0,0,1-.44.06A0.46,0.46,0,0,1,291.9,156.81Zm1-6.65h0.15v-0.29h-0.15v0.29Zm1.39-2.37a1,1,0,0,0-.29.49,3.38,3.38,0,0,0-.14.71,3.87,3.87,0,0,0,0,.77,2.43,2.43,0,0,0,.15.66,2.29,2.29,0,0,0-.17.9c0,0.34,0,.69,0,1s0,0.68.07,1a2.24,2.24,0,0,1-.08.81,0.45,0.45,0,0,1,.12.26,2,2,0,0,1,0,.35c0,0.12,0,.25,0,0.39a3.58,3.58,0,0,0,0,.38,1.77,1.77,0,0,0,.74.26,3.52,3.52,0,0,0,.72,0l0.79-.1a4,4,0,0,1,.94,0,0.41,0.41,0,0,1,.19-0.21,1.34,1.34,0,0,1,.31-0.12,2,2,0,0,1,.36,0l0.38,0a0.71,0.71,0,0,0,0-.17,0.1,0.1,0,0,1,.06-0.12,0.7,0.7,0,0,0,.32-0.25,4,4,0,0,0,.22-0.35l0.21-.36a0.88,0.88,0,0,1,.29-0.29,3.1,3.1,0,0,1,.07-0.82c0.06-.25.13-0.48,0.2-0.7a0.53,0.53,0,0,1-.16-0.39,2.71,2.71,0,0,1,.05-0.44l0.1-.48a1.13,1.13,0,0,0,0-.49h0.56a0.78,0.78,0,0,1,0-.27,0.37,0.37,0,0,1,.06-0.18l0.11-.12,0.13-.12v-0.27a0.39,0.39,0,0,0-.28.06,0.55,0.55,0,0,0-.14.19,1.14,1.14,0,0,0-.09.24,0.46,0.46,0,0,1-.12.21,0.55,0.55,0,0,1-.41-0.17,1.77,1.77,0,0,1-.24-0.36l-0.21-.38a0.61,0.61,0,0,0-.31-0.27v-0.36l-1-.42a7.74,7.74,0,0,0-1.09-.34,6.4,6.4,0,0,0-1.2-.16A5.7,5.7,0,0,0,294.33,147.8Zm25.15-.92a0.51,0.51,0,0,1,.26-0.11,2,2,0,0,1,.35,0h0.77a0.37,0.37,0,0,1,.1.19,2,2,0,0,1,0,.24,2,2,0,0,0,0,.23,0.36,0.36,0,0,0,.1.18,0.18,0.18,0,0,1-.11.19,0.29,0.29,0,0,0-.16.15,1.84,1.84,0,0,1,.15.59,1.48,1.48,0,0,1-.06.56,0.89,0.89,0,0,1-.27.42,0.75,0.75,0,0,1-.51.16,1.16,1.16,0,0,1-.29-0.34l-0.26-.44-0.27-.44a1.23,1.23,0,0,0-.33-0.34,0.83,0.83,0,0,0-.45-0.14,1.32,1.32,0,0,0-.61.17,1,1,0,0,0-.32-0.18,0.86,0.86,0,0,0-.33,0l-0.36,0a3,3,0,0,1-.44,0,0.91,0.91,0,0,0-.43.62,3.1,3.1,0,0,0,0,.81c0,0.29.05,0.57,0.08,0.85a1.3,1.3,0,0,1-.12.7,0.32,0.32,0,0,0,.16.16,0.21,0.21,0,0,1,.12.2h1.11a0.91,0.91,0,0,0,.51.16,1.11,1.11,0,0,0,.47-0.12,1.49,1.49,0,0,0,.39-0.28,2.8,2.8,0,0,0,.28-0.32,0.09,0.09,0,0,0,0-.1l-0.07,0-0.07,0a0.1,0.1,0,0,1,0-.1,0.58,0.58,0,0,1,.27-0.2,1,1,0,0,1,.38-0.07,0.75,0.75,0,0,1,.36.09,0.52,0.52,0,0,1,.23.25,2,2,0,0,0-.14.64,5.79,5.79,0,0,0,0,.68c0,0.23,0,.46.08,0.7a5.23,5.23,0,0,1,0,.68l-0.47.29a1.29,1.29,0,0,1-.64.14,2.22,2.22,0,0,0-.19-0.55,1.4,1.4,0,0,0-.36-0.46,1,1,0,0,0-.5-0.23,0.94,0.94,0,0,0-.61.13,0.35,0.35,0,0,0-.25-0.16,1,1,0,0,0-.32,0l-0.33.09a1,1,0,0,1-.29.06L316,153c0,0.16,0,.34.07,0.53s0,0.39.06,0.6a4.75,4.75,0,0,1,0,.62,2.21,2.21,0,0,1-.13.61,0.36,0.36,0,0,0,.14.25,0.88,0.88,0,0,0,.29.16,0.69,0.69,0,0,0,.33,0,0.45,0.45,0,0,0,.28-0.15,1.44,1.44,0,0,0,.39.11,4.16,4.16,0,0,0,.52,0,3.22,3.22,0,0,0,.51,0,0.87,0.87,0,0,0,.38-0.13,1,1,0,0,0,.76.06,1.43,1.43,0,0,0,.54-0.4,3.54,3.54,0,0,0,.41-0.61,4,4,0,0,1,.37-0.58,0.44,0.44,0,0,1,.45.13,0.91,0.91,0,0,1,.18.47,2,2,0,0,1,0,.59,2,2,0,0,1-.14.48,0.63,0.63,0,0,1,.14.3,1.1,1.1,0,0,1,0,.36,1.33,1.33,0,0,1-.1.35,0.5,0.5,0,0,1-.19.23,11.65,11.65,0,0,1-1.66,0l-1.71-.08c-0.57,0-1.13-.05-1.69-0.06a9.89,9.89,0,0,0-1.59.1l-0.11,0a0.14,0.14,0,0,0,0,.1,0.54,0.54,0,0,0-.42-0.15,0.53,0.53,0,0,0-.42.15,0.14,0.14,0,0,0-.09-0.12l-0.16,0-0.18,0a0.14,0.14,0,0,1-.12-0.08,0.55,0.55,0,0,1,0-.27,2,2,0,0,1,.07-0.2,1.51,1.51,0,0,0,.07-0.21,0.69,0.69,0,0,0,0-.29,4.76,4.76,0,0,0,.54-0.22,2.42,2.42,0,0,1,.57-0.19,1.09,1.09,0,0,1,0-.44l0.09-.39a1.6,1.6,0,0,0,0-.36,0.53,0.53,0,0,0-.14-0.34c0.07,0,.11,0,0.12,0a0.49,0.49,0,0,0,0-.12,0.48,0.48,0,0,1,0-.12s0,0,.12,0a1.79,1.79,0,0,1-.12-0.51,6.46,6.46,0,0,1,0-.68,4.76,4.76,0,0,1,0-.67,1.45,1.45,0,0,1,.14-0.5,0.48,0.48,0,0,1-.11-0.2,1,1,0,0,1,0-.29,1,1,0,0,1,0-.28,0.48,0.48,0,0,1,.11-0.2,0.5,0.5,0,0,1-.11-0.21,1,1,0,0,1,0-.56,0.49,0.49,0,0,1,.11-0.2,0.57,0.57,0,0,1-.12-0.25,1.53,1.53,0,0,1,0-.34c0-.12,0-0.25,0-0.38a2.23,2.23,0,0,0,0-.36,0.58,0.58,0,0,0-.3-0.17l-0.38-.09a2,2,0,0,1-.36-0.11,0.34,0.34,0,0,1-.2-0.26,1,1,0,0,1,.2-0.46,0.84,0.84,0,0,1,.34-0.27,0.8,0.8,0,0,1,.43,0,1.11,1.11,0,0,1,.48.21,2.32,2.32,0,0,1,1-.25,9.15,9.15,0,0,1,1.11,0l1.14,0.07a3,3,0,0,0,1.05-.12l0.29,0.09A0.3,0.3,0,0,1,319.49,146.88Zm20.64-.36c0,0.16,0,.32,0,0.51s0,0.36,0,.54,0,0.34,0,.5a0.83,0.83,0,0,0,.13.4,0.88,0.88,0,0,0-.08.33,1.73,1.73,0,0,1-.06.36,0.46,0.46,0,0,1-.17.25,0.48,0.48,0,0,1-.38,0,2.28,2.28,0,0,1-.12-0.29,2.77,2.77,0,0,0-.12-0.29,0.87,0.87,0,0,0-.17-0.24,0.57,0.57,0,0,0-.27-0.15,0.63,0.63,0,0,0-.33-0.53,1.55,1.55,0,0,0-.68-0.16,4.42,4.42,0,0,0-.81,0l-0.75.09a3.92,3.92,0,0,0-.21.35c-0.06.12-.13,0.24-0.2,0.36s-0.14.22-.22,0.33a1.4,1.4,0,0,1-.28.28,0.85,0.85,0,0,1,.33.38,5.22,5.22,0,0,0,.24.47,1.19,1.19,0,0,0,.34.38,0.87,0.87,0,0,0,.62.1,3.29,3.29,0,0,0,1.94.82,0.29,0.29,0,0,0,.08.17l0.13,0.11,0.13,0.12a0.28,0.28,0,0,1,.07.16,0.54,0.54,0,0,1,.42.07,0.93,0.93,0,0,1,.23.26l0.18,0.3a0.46,0.46,0,0,0,.28.2,1.16,1.16,0,0,0,0,.4,1.61,1.61,0,0,0,.12.31l0.15,0.29a1.32,1.32,0,0,1,.12.32,0.5,0.5,0,0,1,0,.23l-0.06.14a0.19,0.19,0,0,0,0,.11,0.34,0.34,0,0,0,.1.15,0.13,0.13,0,0,0-.14.07,0.46,0.46,0,0,0,0,.18c0,0.07,0,.15,0,0.23a0.69,0.69,0,0,1,0,.2,2.23,2.23,0,0,0-.53.59c-0.14.23-.29,0.45-0.44,0.66l-0.59.1a0.49,0.49,0,0,0-.38.32,0.28,0.28,0,0,0-.19-0.06,1.36,1.36,0,0,0-.27,0l-0.29.07a0.65,0.65,0,0,0-.23.12l-0.85-.07-1,0c-0.36,0-.72,0-1.09,0s-0.72,0-1.06.09a3.91,3.91,0,0,1-.07-0.74c0-.25,0-0.51,0-0.78s0-.54,0-0.81a5.15,5.15,0,0,0-.09-0.85,0.52,0.52,0,0,1,.35-0.14h0.49a0.36,0.36,0,0,0,.12.36l0.29,0.18a1.49,1.49,0,0,0,.35.89,1.71,1.71,0,0,0,.75.47,3.19,3.19,0,0,0,1,.14,7.46,7.46,0,0,0,1.14-.1l0.61-.55a1.6,1.6,0,0,0,.43-0.71,0.1,0.1,0,0,0,0-.1l-0.07,0a0.11,0.11,0,0,1-.07,0,0.1,0.1,0,0,1,0-.11,0.09,0.09,0,0,1,0-.1l0.07,0,0.07,0a0.1,0.1,0,0,0,0-.1,1.62,1.62,0,0,0-.65-0.94,3,3,0,0,0-1.16-.44,0.19,0.19,0,0,0,0-.14l-0.1-.08-0.1-.07a0.18,0.18,0,0,1,0-.14,7.4,7.4,0,0,1-1.56-.44,3.66,3.66,0,0,1-1.22-.8,0.41,0.41,0,0,0,0-.28,1.1,1.1,0,0,0-.13-0.25l-0.17-.24a0.65,0.65,0,0,1-.12-0.27,2,2,0,0,1,0-.54,2.55,2.55,0,0,1,.1-0.53,1.79,1.79,0,0,1,.21-0.46,1.43,1.43,0,0,1,.29-0.34,0.7,0.7,0,0,1,0-.28,0.27,0.27,0,0,1,.08-0.14,0.67,0.67,0,0,1,.17-0.1,1.2,1.2,0,0,0,.25-0.16l0.27-.24a2.22,2.22,0,0,1,.3-0.24,1.39,1.39,0,0,1,.38-0.17,1.54,1.54,0,0,1,.5,0,7.33,7.33,0,0,1,.9-0.1c0.29,0,.59,0,0.89,0h0.93C339.42,146.57,339.76,146.55,340.13,146.52Zm13.12,0.31a2.15,2.15,0,0,1,.52,0l0.53,0.1,0.49,0.06a0.77,0.77,0,0,0,.4-0.07,0.51,0.51,0,0,0,.36.1A2.7,2.7,0,0,0,356,147l0.49-.11a1.44,1.44,0,0,1,.45,0,0.46,0.46,0,0,1,.33.17,0.72,0.72,0,0,1,.11.49,1.54,1.54,0,0,1-.47.3,3.93,3.93,0,0,0-.51.25,1.41,1.41,0,0,0-.4.36,1,1,0,0,0-.15.62,0.09,0.09,0,0,0-.11,0,0.4,0.4,0,0,0,0,.12l0,0.13a0.08,0.08,0,0,1-.1.06,0.24,0.24,0,0,1,.12.13,0.13,0.13,0,0,0,.16.07,1.22,1.22,0,0,0-.06.42q0,0.18,0,.35a1.94,1.94,0,0,1,0,.33,0.72,0.72,0,0,1-.13.36,4.81,4.81,0,0,1,.12.81c0,0.28,0,.56,0,0.84s0,0.55-.06.81-0.05.5-.08,0.72a4.7,4.7,0,0,1,.16.62,2.47,2.47,0,0,0,.19.6,1,1,0,0,0,.35.42,1,1,0,0,0,.68.09,0.55,0.55,0,0,1,.15.35,3.4,3.4,0,0,1,0,.49,0.64,0.64,0,0,1-.23,0l-0.27,0a0.58,0.58,0,0,0-.23,0,0.15,0.15,0,0,0-.11.14c-0.48,0-1-.06-1.51-0.06s-1,0-1.54.06a0.48,0.48,0,0,1-.27-0.16,0.57,0.57,0,0,1-.12-0.27,0.91,0.91,0,0,1,0-.34,1.3,1.3,0,0,1,.12-0.34,0.42,0.42,0,0,0,.23,0l0.15-.07,0.15-.07a0.38,0.38,0,0,1,.22,0,2.15,2.15,0,0,0,.37-0.65,3.45,3.45,0,0,0,.17-0.7,3.62,3.62,0,0,0,0-.7,5.89,5.89,0,0,0-.08-0.66,3,3,0,0,0,.09-0.8c0-.29,0-0.59,0-0.9s0-.64-0.07-1a5.93,5.93,0,0,1,0-1,0.13,0.13,0,0,0,.16-0.07,0.21,0.21,0,0,1,.11-0.13,1.06,1.06,0,0,1-.34-0.31l-0.27-.37a1.66,1.66,0,0,0-.31-0.33,0.84,0.84,0,0,0-.46-0.17,2.74,2.74,0,0,0-.15-0.28q-0.07-.13-0.14-0.28a0.17,0.17,0,0,1,.06-0.14l0.12-.1a0.35,0.35,0,0,0,.1-0.11A0.31,0.31,0,0,0,353.25,146.84ZM378.46,147v2.49a0.58,0.58,0,0,0-.19.08l-0.17.11a0.73,0.73,0,0,1-.2.08,0.65,0.65,0,0,1-.27,0,1.27,1.27,0,0,0-.23-0.5,3,3,0,0,0-.35-0.37l-0.38-.35a1.29,1.29,0,0,1-.29-0.44,1.54,1.54,0,0,1-.56,0l-0.53-.15a2.2,2.2,0,0,0-.51-0.07,0.9,0.9,0,0,0-.48.13,0.69,0.69,0,0,0-.49-0.16,1.21,1.21,0,0,0-.42.15l-0.4.25a0.93,0.93,0,0,1-.42.16c-0.08,0-.11.06-0.09,0.16a0.52,0.52,0,0,1,0,.25,1.3,1.3,0,0,0-.46.48,3.7,3.7,0,0,0-.29.65c-0.08.23-.15,0.47-0.23,0.71a3.47,3.47,0,0,1-.27.66c0,0.26,0,.48.06,0.67s0,0.38,0,.57,0,0.4.07,0.63,0.06,0.5.11,0.82a6.34,6.34,0,0,1,.77.68,5.24,5.24,0,0,0,.84.7,3,3,0,0,0,1,.44,2.45,2.45,0,0,0,1.27-.09,0.26,0.26,0,0,1,.23,0l0.13,0.12,0.62-.37a3.62,3.62,0,0,1,.69-0.33c0-.22,0-0.43,0-0.63s0-.4.06-0.61,0-.42,0-0.63a6.09,6.09,0,0,0,0-.69,1,1,0,0,0-.45-0.26,5,5,0,0,0-.58-0.14l-0.62-.1A2.53,2.53,0,0,1,375,152a0.62,0.62,0,0,1,0-.27,0.65,0.65,0,0,1,.08-0.19l0.11-.17a0.62,0.62,0,0,0,.08-0.19,6.86,6.86,0,0,0,1.19.09l1.18,0c0.38,0,.75,0,1.1,0a3.25,3.25,0,0,1,1,.19V152a1.19,1.19,0,0,0-.53.25,1.46,1.46,0,0,0-.38.47,1.62,1.62,0,0,0-.18.6,1.17,1.17,0,0,0,.11.64,1.19,1.19,0,0,0-.12.42,4.13,4.13,0,0,0,0,1.18,1.19,1.19,0,0,0,.12.42,0.94,0.94,0,0,1-.1.48,1,1,0,0,1-.29.35,0.81,0.81,0,0,1-.39.16,0.58,0.58,0,0,1-.4-0.1,0.34,0.34,0,0,1-.26.2,2.16,2.16,0,0,1-.42,0l-0.44,0a0.46,0.46,0,0,0-.33.14,10.84,10.84,0,0,0-1.18-.15l-1.14-.1a8.06,8.06,0,0,1-1.05-.18,3.23,3.23,0,0,1-.92-0.38,1.6,1.6,0,0,1-.09-0.19,0.43,0.43,0,0,0-.19-0.23,3.09,3.09,0,0,1-1-.71,1.89,1.89,0,0,1-.44-1.17,2.06,2.06,0,0,1-.59-1.1,5.77,5.77,0,0,1-.1-1.6,4,4,0,0,0,.17-0.69c0-.25.09-0.49,0.14-0.72a2.88,2.88,0,0,1,.23-0.64,1,1,0,0,1,.42-0.44v-0.42a3.59,3.59,0,0,0,.46-0.39l0.44-.42,0.46-.39a2.76,2.76,0,0,1,.52-0.32l0.81-.13,0.7-.12,0.68-.1,0.72-.07a1.87,1.87,0,0,0,.72.2c0.28,0,.57,0,0.87.06l0.89,0A2.54,2.54,0,0,1,378.46,147Zm15.8-.23,0.19,0.29a0.37,0.37,0,0,0,.35.13,0.89,0.89,0,0,0,.11.41,2.21,2.21,0,0,0,.21.31l0.23,0.3a1,1,0,0,1,.15.36,0.64,0.64,0,0,1,.31.07,1.37,1.37,0,0,1,.23.16l0.2,0.18a0.8,0.8,0,0,0,.23.15,1,1,0,0,0,.19.55,2.56,2.56,0,0,0,.37.38l0.4,0.34a0.93,0.93,0,0,1,.28.46,2.71,2.71,0,0,1,.65.5q0.28,0.29.54,0.6l0.52,0.62a3.7,3.7,0,0,0,.57.56,0.24,0.24,0,0,0,.16-0.16,0.73,0.73,0,0,0,.06-0.29,1,1,0,0,0,0-.3,0.48,0.48,0,0,0-.11-0.21c0.07,0,.12,0,0.13,0a0.33,0.33,0,0,0,0-.13,0.29,0.29,0,0,1,0-.12s0.06,0,.13,0a0.28,0.28,0,0,1-.14-0.25,2.56,2.56,0,0,1,0-.38,3.08,3.08,0,0,0,0-.38,0.27,0.27,0,0,0-.15-0.24,4.6,4.6,0,0,0,.13-0.92,2.73,2.73,0,0,0-.11-0.91,1.69,1.69,0,0,0-.43-0.72,1.41,1.41,0,0,0-.83-0.36,1.09,1.09,0,0,1,0-.61,0.85,0.85,0,0,1,.31-0.36,6.83,6.83,0,0,0,1.55.1l1.71-.1a1.7,1.7,0,0,1,.23.53,0.88,0.88,0,0,1-.09.58,0.76,0.76,0,0,0-.65.16,1.21,1.21,0,0,0-.34.55,2.35,2.35,0,0,0,0,1.36,1.21,1.21,0,0,0-.06.56c0,0.24,0,.5.06,0.77s0,0.54,0,.81a1.24,1.24,0,0,1-.16.64l0.06,0.48c0,0.17,0,.35,0,0.54a4.35,4.35,0,0,1,0,.55,2.1,2.1,0,0,1-.1.51c0,0.21.08,0.43,0.12,0.66s0.06,0.45.07,0.66,0,0.41,0,.59a1.77,1.77,0,0,1-.06.45h-1.25a0.75,0.75,0,0,0-.42-0.41,0.83,0.83,0,0,0,0-.31c0-.09,0-0.17,0-0.25s0-.15-0.07-0.22a0.75,0.75,0,0,1,0-.26,1.3,1.3,0,0,1-.32-0.29l-0.26-.34a2.21,2.21,0,0,0-.29-0.32,1.12,1.12,0,0,0-.38-0.23,4,4,0,0,1-.3-0.47l-0.28-.48a2.41,2.41,0,0,0-.34-0.42,1.35,1.35,0,0,0-.47-0.3,1.49,1.49,0,0,0-.37-0.61c-0.16-.16-0.33-0.31-0.51-0.46a4.27,4.27,0,0,1-.49-0.48,1.42,1.42,0,0,1-.31-0.67,1.09,1.09,0,0,1-.31-0.15,2.1,2.1,0,0,1-.26-0.21l-0.23-.24a2.66,2.66,0,0,0-.23-0.23,0.59,0.59,0,0,0-.25.42,2.79,2.79,0,0,0,0,.52c0,0.18,0,.36,0,0.55a0.89,0.89,0,0,1-.14.52,1,1,0,0,1,.14.51c0,0.22,0,.46,0,0.72s0,0.52,0,.79a3.29,3.29,0,0,0,0,.7,1.37,1.37,0,0,0,.14.44,1.07,1.07,0,0,0,.25.29,1.3,1.3,0,0,0,.36.2l0.5,0.16a1.76,1.76,0,0,1,.12.42,2,2,0,0,1,0,.47,2.26,2.26,0,0,1-.08.44,0.78,0.78,0,0,1-.19.33,2.6,2.6,0,0,0-.9-0.22,7.89,7.89,0,0,0-1,0l-1,0a3.82,3.82,0,0,1-1-.1v-1.11a0.5,0.5,0,0,0,.29-0.08l0.2-.16a1.13,1.13,0,0,1,.22-0.15,0.57,0.57,0,0,1,.33,0,1.85,1.85,0,0,0,.35-0.9,7.69,7.69,0,0,0,0-1.08c0-.37,0-0.74,0-1.11a3,3,0,0,1,.12-1,1.36,1.36,0,0,1-.11-0.39,5,5,0,0,1-.06-0.52,2.27,2.27,0,0,1,0-.51,1,1,0,0,1,.14-0.38,0.25,0.25,0,0,1-.14-0.19,1.05,1.05,0,0,1,0-.29c0-.1,0-0.21,0-0.33a2.05,2.05,0,0,0,0-.31,0.73,0.73,0,0,0-.25-0.24l-0.31-.17a2.54,2.54,0,0,1-.31-0.18,0.8,0.8,0,0,1-.24-0.25,1.39,1.39,0,0,1,.1-0.48c0.06-.14.12-0.28,0.17-0.42h2.22Z" transform="translate(-4.85 -1.91)"/></svg>